<?xml version="1.0" standalone="no"?>
<!DOCTYPE svg PUBLIC "-//W3C//DTD SVG 20010904//EN"
 "http://www.w3.org/TR/2001/REC-SVG-20010904/DTD/svg10.dtd">
<svg version="1.0" xmlns="http://www.w3.org/2000/svg"
 width="600.000000pt" height="600.000000pt" viewBox="0 0 600.000000 600.000000"
 preserveAspectRatio="xMidYMid meet">
<g transform="translate(0.000000,600.000000) scale(0.100000,-0.100000)"
fill="#000000" stroke="none">
<path d="M630 5536 c0 -400 -2 -465 -15 -476 -8 -7 -15 -21 -15 -31 0 -11 -7
-19 -15 -19 -10 0 -15 -10 -15 -27 1 -23 -26 -54 -147 -170 l-148 -142 335 -2
c184 -1 347 -1 362 0 14 1 29 -3 33 -8 3 -6 12 -11 18 -11 7 0 -59 69 -145
153 -127 123 -158 158 -158 180 0 17 -5 27 -15 27 -8 0 -15 8 -15 19 0 10 -7
24 -15 31 -13 11 -15 76 -15 476 0 406 -2 464 -15 464 -13 0 -15 -58 -15 -464z
m13 -534 c2 -23 0 -43 -4 -44 -4 -2 -10 -16 -14 -33 -6 -29 -6 -29 11 5 9 19
17 44 18 54 1 11 7 21 15 24 8 3 11 0 7 -6 -3 -5 1 -13 9 -16 8 -3 14 -9 13
-13 -5 -18 14 -53 24 -47 7 5 9 1 5 -9 -4 -10 -1 -17 5 -17 6 0 33 -23 60 -51
26 -28 48 -48 48 -45 0 3 12 -6 26 -19 14 -13 23 -29 19 -35 -4 -7 0 -10 11
-8 12 2 18 -2 16 -11 -2 -9 3 -11 13 -7 9 3 13 2 10 -4 -3 -6 0 -10 7 -10 10
0 9 -3 -2 -10 -20 -12 -363 -13 -355 0 3 6 -1 10 -10 10 -9 0 -14 -4 -11 -8 2
-4 -26 -8 -64 -8 -67 -1 -69 -1 -58 20 21 40 70 96 79 91 5 -4 6 1 3 9 -7 19
12 22 20 4 3 -7 3 -2 0 11 -5 17 -3 21 6 16 9 -6 11 -4 5 4 -4 7 1 22 12 34
28 32 55 78 50 84 -3 3 -13 -9 -22 -26 -8 -17 -19 -31 -24 -31 -4 0 -14 -12
-22 -27 -8 -16 -21 -35 -29 -43 -28 -28 -100 -127 -100 -137 0 -6 -18 -13 -40
-15 -22 -2 -40 -2 -40 0 0 14 23 41 31 37 5 -4 8 -1 7 7 -2 7 3 12 10 10 8 -1
11 1 8 6 -3 5 6 20 19 32 14 13 25 20 25 16 0 -4 6 -1 14 6 8 7 13 15 13 18
-1 3 23 31 55 62 31 31 59 65 63 77 3 12 11 21 16 21 6 0 7 5 4 10 -3 6 -2 10
3 10 6 0 13 12 16 26 9 35 15 27 19 -24z"/>
<path d="M671 4944 c0 -11 3 -14 6 -6 3 7 2 16 -1 19 -3 4 -6 -2 -5 -13z"/>
<path d="M607 4843 c-3 -4 -8 -26 -11 -48 l-6 -40 14 45 c14 41 15 63 3 43z"/>
<path d="M570 4730 c0 -5 5 -10 11 -10 5 0 7 5 4 10 -3 6 -8 10 -11 10 -2 0
-4 -4 -4 -10z"/>
<path d="M890 4730 c-9 -6 -10 -10 -3 -10 6 0 15 5 18 10 8 12 4 12 -15 0z"/>
<path d="M738 4703 c7 -3 16 -2 19 1 4 3 -2 6 -13 5 -11 0 -14 -3 -6 -6z"/>
<path d="M1551 5846 c1 -132 -1 -157 -15 -171 -9 -9 -16 -23 -16 -31 0 -8 -7
-14 -15 -14 -10 0 -15 -10 -15 -29 0 -24 -24 -52 -150 -171 -83 -79 -148 -146
-144 -149 8 -8 744 -8 744 0 0 7 -131 136 -227 224 -50 46 -63 63 -63 87 0 21
-6 31 -20 35 -11 3 -20 14 -20 24 0 11 -7 22 -15 25 -12 5 -15 33 -15 165 0
137 -2 159 -15 159 -14 0 -16 -21 -14 -154z m9 -221 c0 -25 4 -45 9 -45 5 0 8
21 5 48 l-4 47 20 -32 c11 -18 25 -33 32 -33 9 0 8 -3 -2 -10 -11 -7 -11 -10
-2 -10 7 0 11 -4 8 -9 -3 -4 6 -19 20 -32 15 -13 30 -34 35 -46 5 -13 15 -23
24 -23 8 0 15 -7 15 -15 0 -8 14 -21 30 -30 31 -16 40 -34 18 -36 -10 0 -10
-2 0 -6 6 -2 12 -9 12 -14 0 -6 -5 -7 -12 -3 -7 4 -8 3 -4 -5 6 -9 11 -9 22 0
12 10 12 14 2 21 -10 7 -10 9 2 5 8 -2 14 -11 14 -20 -1 -9 4 -13 11 -11 7 3
20 -5 29 -18 9 -13 20 -21 24 -18 4 3 8 -4 10 -15 3 -20 -2 -20 -223 -15 -125
3 -228 3 -230 1 -2 -1 -25 -4 -51 -6 -28 -2 -41 0 -33 5 7 5 10 12 6 16 -4 4
-15 0 -25 -9 -21 -19 -59 -22 -82 -7 -13 9 -13 10 0 11 8 1 20 0 25 -1 6 -1 7
2 2 6 -4 4 5 20 20 36 20 21 29 25 40 16 10 -8 12 -8 8 4 -4 9 26 48 85 108
49 51 90 101 90 111 0 11 7 19 15 19 10 0 15 10 15 30 0 17 5 30 10 30 6 0 10
-20 10 -45z"/>
<path d="M1590 5573 c0 -5 5 -15 10 -23 7 -12 9 -10 7 8 -1 19 -17 33 -17 15z"/>
<path d="M1492 5532 c-15 -36 -51 -74 -62 -67 -4 3 -6 -4 -3 -15 4 -15 8 -17
18 -7 21 22 66 98 63 108 -2 5 -9 -4 -16 -19z"/>
<path d="M1550 5550 c0 -5 5 -10 11 -10 5 0 7 5 4 10 -3 6 -8 10 -11 10 -2 0
-4 -4 -4 -10z"/>
<path d="M1686 5462 c-3 -5 1 -9 9 -9 8 0 12 4 9 9 -3 4 -7 8 -9 8 -2 0 -6 -4
-9 -8z"/>
<path d="M1516 5445 c-3 -8 -1 -15 4 -15 6 0 10 7 10 15 0 8 -2 15 -4 15 -2 0
-6 -7 -10 -15z"/>
<path d="M1382 5381 c-32 -40 -40 -57 -23 -46 17 10 73 85 64 85 -6 0 -24 -18
-41 -39z"/>
<path d="M1506 5394 c-4 -14 -5 -28 -3 -31 3 -2 8 8 11 23 4 14 5 28 3 31 -3
2 -8 -8 -11 -23z"/>
<path d="M3210 5550 c0 -393 -2 -450 -15 -450 -9 0 -15 -10 -15 -26 0 -25 24
-31 26 -6 1 7 2 17 3 22 0 6 10 10 21 10 11 0 20 5 20 11 0 5 -3 8 -7 6 -5 -3
-8 14 -8 36 0 23 -2 223 -3 445 -1 260 -6 402 -12 402 -7 0 -10 -157 -10 -450z"/>
<path d="M3272 5568 c-1 -240 -5 -443 -8 -452 -5 -14 8 -15 101 -14 91 2 109
0 120 -15 6 -9 14 -16 16 -14 2 1 -5 -6 -16 -15 -17 -15 -36 -16 -147 -11
l-128 6 0 -86 0 -87 140 0 140 0 0 85 c0 78 2 85 20 85 15 0 20 7 20 25 0 18
-5 25 -20 25 -19 0 -20 7 -20 164 0 90 -3 171 -6 180 -5 14 7 16 95 16 92 0
101 -2 101 -19 0 -13 9 -20 30 -23 24 -4 30 -1 30 14 0 10 -4 18 -10 18 -5 0
-10 -5 -10 -10 0 -6 -10 -1 -22 10 -22 20 -23 30 -23 146 l0 125 -94 2 -93 2
1 138 c2 141 -11 185 -23 76 -10 -105 -7 -182 10 -214 12 -22 16 -54 15 -117
-1 -47 2 -88 6 -91 4 -3 7 36 6 87 -1 74 1 93 12 93 10 0 13 -8 9 -26 -4 -22
-2 -20 10 7 10 21 22 32 36 32 11 0 20 -4 20 -9 0 -10 19 -9 36 2 7 4 17 0 24
-8 15 -18 10 -176 -5 -187 -6 -5 -5 -8 3 -8 6 0 12 -4 12 -10 0 -5 -9 -10 -21
-10 -11 0 -17 5 -14 10 3 6 -1 10 -10 10 -9 0 -14 -3 -12 -7 3 -5 -19 -8 -49
-8 -30 0 -54 4 -54 9 0 4 -11 -2 -24 -15 -14 -13 -20 -26 -15 -30 6 -4 6 -21
0 -47 -5 -23 -6 -42 -2 -42 4 0 8 -53 8 -118 l0 -119 -49 -2 -48 -2 -3 443 -2
443 -3 -443 -2 -444 -37 4 -38 3 -5 440 -5 440 -3 -437z m87 -551 c3 4 28 9
54 9 l49 2 -7 -35 c-3 -19 -2 -33 2 -30 5 3 7 -10 5 -29 -4 -32 -6 -34 -43
-34 -41 0 -43 3 -52 75 -2 17 -5 4 -6 -27 -1 -56 -2 -58 -28 -58 -64 0 -100
12 -98 31 1 10 4 22 8 25 3 4 3 12 0 17 -4 6 -8 23 -10 37 l-2 27 61 -10 c33
-5 63 -5 67 0z"/>
<path d="M3680 5754 c0 -17 23 -30 28 -16 2 8 8 8 18 -3 11 -11 15 -46 17
-145 l2 -130 498 0 c553 0 550 0 580 -63 9 -19 17 -42 17 -51 0 -14 19 -16
145 -16 113 0 147 -3 151 -14 3 -8 15 -11 31 -8 15 3 28 -1 33 -9 12 -19 3
-29 -26 -29 -13 0 -24 -4 -24 -10 0 -6 -60 -10 -160 -10 l-160 0 0 -57 0 -58
-150 3 -150 3 0 -75 0 -76 143 0 142 0 1 -60 0 -60 -218 2 -218 3 0 -152 0
-153 -36 0 c-47 0 -103 -32 -134 -77 -24 -35 -25 -45 -30 -215 l-5 -178 63 0
62 0 0 155 c0 152 1 156 25 180 13 14 32 25 42 25 17 0 18 -12 15 -180 l-3
-180 224 0 c250 0 314 -10 441 -70 119 -57 256 -173 329 -279 9 -14 37 -64 61
-111 154 -299 173 -673 55 -1075 l-20 -70 -207 1 c-114 0 -301 -3 -417 -7
-115 -4 -312 -8 -437 -9 l-228 -1 0 -217 0 -217 -698 2 c-383 1 -710 4 -725 7
-16 3 -26 9 -23 14 2 4 -4 9 -15 9 -11 1 -17 -2 -14 -8 4 -5 -1 -9 -9 -9 -14
0 -16 23 -17 168 0 92 -2 187 -5 212 -4 44 -4 44 12 22 9 -13 14 -31 11 -41
-3 -12 1 -18 10 -17 7 0 21 -12 31 -28 9 -16 29 -43 45 -60 15 -17 25 -37 22
-44 -3 -7 0 -10 5 -7 12 7 86 -54 82 -68 -1 -5 2 -6 8 -2 5 3 29 -7 52 -23 24
-16 68 -39 98 -52 30 -12 66 -27 80 -32 35 -15 275 -24 266 -10 -4 6 1 8 13 5
44 -11 234 76 299 137 23 21 42 36 42 34 0 -6 54 49 93 94 59 68 169 265 212
380 48 125 71 302 43 331 -11 10 -9 12 7 10 29 -3 76 11 106 32 55 39 76 144
43 214 -14 31 -84 96 -84 79 0 -3 -6 -1 -13 5 -9 7 -24 8 -43 2 -16 -4 -37 -7
-46 -5 -10 1 -18 -4 -18 -11 0 -8 -9 -20 -19 -27 -25 -17 -51 -82 -51 -125 0
-18 9 -51 20 -72 10 -21 17 -41 14 -43 -2 -3 9 -11 26 -18 32 -13 42 -33 13
-24 -15 5 -15 3 1 -10 11 -9 24 -16 29 -16 14 0 1 -162 -18 -235 -9 -33 -40
-107 -68 -165 -28 -58 -51 -111 -50 -117 0 -7 -3 -11 -7 -8 -4 3 -25 -17 -46
-43 -47 -56 -164 -172 -176 -172 -15 0 -8 19 12 30 11 6 23 22 26 36 4 16 11
23 21 20 8 -3 11 -1 8 4 -3 5 -2 18 3 27 5 10 7 24 5 30 -3 7 -16 -8 -29 -33
-35 -67 -107 -157 -154 -194 -22 -17 -37 -37 -34 -42 4 -6 2 -8 -3 -5 -6 4
-37 -7 -69 -23 -295 -147 -631 -18 -804 310 l-39 75 -1 -250 0 -250 43 3 42 4
-3 -76 -4 -76 200 0 c191 0 200 1 205 20 6 25 32 26 49 2 12 -17 38 -19 343
-25 449 -9 726 -31 803 -63 29 -12 33 -17 30 -46 -3 -32 -5 -33 -63 -45 -184
-37 -537 -54 -1135 -54 -479 0 -739 9 -965 32 -125 13 -225 29 -227 38 -9 39
-3 64 18 73 28 13 30 48 14 188 -12 99 -29 493 -30 695 -2 190 -39 394 -90
495 -11 22 -21 47 -23 57 -2 10 -16 32 -32 49 -43 45 -75 101 -75 131 0 21 -3
23 -14 14 -15 -12 -16 -28 -3 -48 11 -18 -8 -16 -22 1 -9 11 -9 15 1 20 7 3 3
3 -9 0 -21 -5 -28 3 -24 28 0 4 -8 12 -19 18 -11 6 -20 7 -20 3 0 -4 -9 6 -20
22 -29 44 -24 22 5 -26 14 -22 30 -37 35 -34 5 3 11 -3 15 -14 3 -11 19 -26
35 -33 17 -7 30 -17 30 -22 0 -4 6 -6 13 -3 8 3 14 -1 14 -9 0 -7 -3 -11 -7
-9 -4 3 -8 -33 -9 -78 -2 -72 0 -80 12 -63 7 10 12 30 9 43 -3 15 1 29 9 35
11 8 10 9 -3 4 -19 -6 -25 9 -8 19 25 16 80 -61 72 -102 -2 -7 2 -13 8 -13 5
0 10 5 10 12 0 6 3 8 6 5 4 -4 1 -13 -6 -22 -9 -11 -10 -22 -2 -42 6 -16 16
-53 24 -83 13 -55 38 -99 38 -66 0 9 -5 16 -12 16 -6 0 -9 2 -6 5 3 3 -5 39
-17 80 -13 41 -21 75 -19 75 5 0 26 -48 31 -73 1 -9 12 -44 23 -77 22 -67 25
-82 9 -60 -9 12 -10 11 -4 -5 23 -64 28 -105 29 -247 0 -86 -2 -154 -6 -152
-4 3 -6 -5 -5 -16 1 -11 4 -20 8 -20 4 0 9 -13 11 -29 2 -17 2 -28 -1 -26 -3
1 -6 -55 -6 -125 0 -70 4 -123 8 -117 5 7 7 0 4 -17 -3 -16 -1 -75 5 -130 19
-210 19 -228 -2 -249 -11 -10 -24 -16 -28 -13 -5 3 -9 -1 -9 -9 0 -8 5 -11 10
-8 6 4 8 -3 4 -16 -9 -35 24 -56 111 -69 247 -37 602 -53 1162 -52 250 0 480
2 510 4 30 3 109 8 175 11 148 7 352 28 398 40 9 3 25 7 36 10 16 5 18 -2 20
-62 3 -94 11 -92 12 3 2 92 4 116 12 139 4 9 3 14 -3 10 -6 -3 -10 1 -10 10 0
9 -4 13 -10 10 -5 -3 -10 -2 -10 4 0 10 -75 28 -146 36 -21 2 -39 4 -39 5 0 1
-29 3 -65 4 -36 2 -76 7 -89 11 -14 4 -21 3 -18 -2 4 -6 -12 -7 -41 -1 -46 8
-244 16 -577 23 -152 4 -172 6 -185 23 -17 20 -32 18 -70 -9 -21 -14 -49 -18
-165 -19 -77 0 -152 -2 -167 -4 -28 -3 -28 -3 -28 55 l0 58 703 0 c386 1 705
1 710 1 4 0 7 94 7 209 0 162 3 210 13 214 7 3 69 6 137 7 69 1 172 4 230 6
58 1 278 5 490 9 212 3 395 8 407 11 15 3 24 14 28 36 4 18 13 47 20 63 11 25
22 81 27 132 1 10 4 10 16 0 13 -10 14 -9 3 10 -13 25 -5 76 11 67 6 -4 5 4
-2 16 -7 12 -8 25 -4 29 5 3 10 24 10 46 1 22 4 56 6 75 3 19 1 98 -4 175 -12
193 -12 195 -27 238 -7 21 -9 46 -5 55 7 17 10 27 12 50 1 6 7 12 13 12 5 0 7
-5 4 -11 -4 -5 0 -25 9 -43 8 -18 17 -47 18 -65 1 -18 6 -35 11 -38 4 -2 3
-11 -4 -19 -7 -8 -7 -14 -1 -14 16 0 45 -186 39 -252 -3 -36 -1 -60 6 -65 12
-8 3 242 -14 333 -16 92 -58 222 -95 295 l-33 67 38 93 c21 52 50 122 65 156
l26 62 0 316 c0 208 3 314 10 310 7 -4 10 -250 10 -706 0 -448 3 -698 10 -694
6 3 9 162 10 413 0 224 1 531 2 682 1 271 -4 320 -32 320 -6 0 -10 21 -10 47
0 43 1 45 18 31 9 -9 23 -14 30 -12 7 1 8 0 3 -2 -6 -3 -4 -19 5 -39 12 -28
14 -138 15 -627 0 -362 4 -581 10 -563 7 24 6 1122 -2 1175 -1 8 -6 20 -10 26
-5 7 -3 11 6 11 8 0 13 -2 10 -5 -2 -2 2 -11 10 -19 8 -8 15 -27 15 -42 0 -15
6 -33 13 -40 6 -8 7 -11 1 -8 -8 4 -10 -335 -8 -1186 2 -1089 1 -1189 -14
-1162 -13 26 -15 97 -14 575 1 300 -1 561 -6 580 -4 19 -9 -226 -12 -545 l-5
-580 24 -39 c43 -72 54 -106 39 -124 -11 -13 -10 -15 5 -9 16 6 22 -4 17 -28
-1 -5 2 -7 6 -2 4 4 18 -11 32 -33 20 -35 22 -43 10 -58 -11 -15 -11 -15 2 -5
13 10 18 8 28 -8 7 -11 10 -25 6 -31 -4 -7 -3 -8 4 -4 11 7 17 -6 13 -27 -1
-5 4 -5 10 -1 9 5 10 2 6 -9 -4 -11 0 -20 11 -26 10 -5 30 -35 45 -65 15 -31
30 -56 33 -56 13 0 -16 57 -110 214 l-101 170 -5 1265 c-5 1194 -6 1268 -23
1299 -16 29 -47 50 -99 66 -15 4 -18 17 -18 73 l0 68 -235 -2 -235 -3 0 60 0
60 135 0 136 0 -3 73 -3 72 -140 5 -140 5 1 40 c2 64 3 65 34 65 17 0 30 5 31
13 0 6 2 24 3 40 2 25 -1 27 -40 27 l-41 0 -6 58 c-12 116 -59 198 -151 266
-96 71 -97 71 -688 68 -289 -1 -533 1 -542 4 -9 3 -16 12 -16 19 0 7 -13 15
-30 17 -20 3 -30 0 -30 -8z m425 -54 c154 0 362 1 463 3 211 2 200 9 188 -103
-4 -39 -3 -60 4 -60 10 0 15 55 11 128 l-3 43 54 -7 c60 -7 144 -45 171 -76 9
-11 17 -17 17 -14 0 3 13 -8 29 -26 16 -18 26 -37 22 -43 -6 -9 -7 -20 -2 -41
0 -3 6 -2 11 1 8 5 7 11 -1 21 -8 10 -8 14 0 14 10 0 15 -13 12 -32 0 -5 3 -8
9 -8 12 0 30 -65 30 -112 0 -28 -5 -38 -21 -43 -26 -9 -31 -3 -34 37 -2 37
-34 118 -47 118 -4 0 -8 5 -8 10 0 12 -54 70 -65 70 -4 0 -14 8 -21 17 -7 10
-16 14 -21 9 -4 -4 1 -13 12 -20 34 -19 90 -82 109 -122 11 -22 23 -47 28 -57
4 -9 6 -27 3 -40 -5 -18 -14 -22 -46 -24 -34 -1 -39 2 -40 20 0 12 -5 31 -10
42 -7 15 -8 10 -4 -17 l6 -38 -52 0 c-49 0 -51 1 -47 24 4 17 1 23 -9 19 -7
-3 -13 1 -13 9 0 18 -39 64 -51 61 -4 -2 -21 2 -36 8 -18 7 -193 10 -510 10
l-483 -1 0 30 c0 21 5 30 18 31 16 1 16 2 0 6 -19 5 -25 43 -7 43 5 0 7 -4 4
-10 -3 -5 -2 -10 3 -10 5 0 7 31 4 72 l-5 71 24 -7 c13 -3 150 -6 304 -6z
m1022 -467 c-4 -3 -1 -13 6 -21 10 -13 9 -14 -3 -7 -12 6 -13 5 -2 -6 10 -11
8 -16 -10 -27 l-23 -13 25 6 c19 5 22 4 10 -4 -8 -6 -34 -11 -57 -11 -31 0
-43 4 -46 18 -4 13 -5 11 -6 -5 -1 -21 3 -23 54 -23 30 0 66 -5 80 -12 22 -10
25 -17 25 -63 0 -28 -5 -56 -12 -63 -15 -15 -320 -17 -347 -3 -9 5 -75 11
-145 12 -118 2 -127 3 -123 21 3 10 2 16 -2 14 -4 -3 -8 13 -8 35 l-2 40 140
-2 c94 -1 144 2 152 10 6 6 39 11 74 11 35 0 63 3 63 8 0 4 -18 6 -40 4 -29
-3 -40 0 -40 9 0 11 -2 11 -10 -1 -12 -19 -27 -4 -32 30 l-3 25 88 -3 c52 -2
87 1 87 7 0 6 24 12 53 14 28 2 54 4 56 5 2 1 1 -1 -2 -5z m285 -163 c2 -23 1
-44 -2 -48 -8 -12 -190 -15 -203 -3 -8 6 -11 26 -9 50 l4 41 103 0 103 0 4
-40z m-279 -102 c-2 -5 1 -8 7 -8 8 0 11 -15 8 -45 -3 -39 0 -45 22 -56 28
-13 79 -18 95 -10 15 8 65 10 69 2 2 -3 65 -4 139 -1 74 3 133 2 131 -2 -2 -3
2 -9 8 -12 10 -5 10 -7 1 -12 -9 -4 -9 -13 -2 -31 5 -15 8 -32 5 -40 -3 -7 -1
-13 4 -13 11 0 11 -108 0 -115 -5 -3 -6 -13 -3 -22 4 -9 2 -14 -3 -10 -5 3
-10 -3 -10 -13 0 -10 3 -17 6 -15 8 5 4 -467 -5 -494 -5 -16 -4 -21 4 -17 7 5
11 -5 11 -29 0 -20 -3 -34 -7 -32 -5 3 -9 -7 -10 -22 -1 -14 -9 -40 -17 -56
-9 -17 -16 -36 -16 -43 0 -8 -5 -10 -12 -6 -8 5 -9 2 -5 -9 3 -9 2 -19 -4 -22
-5 -4 -9 -12 -8 -18 3 -25 -1 -38 -11 -32 -5 3 -10 -1 -10 -10 0 -9 -7 -26
-14 -38 -8 -12 -14 -31 -12 -42 2 -11 -1 -28 -6 -39 -7 -13 -7 -16 1 -12 6 4
11 2 11 -4 0 -6 4 -8 10 -5 6 4 7 -1 3 -11 -4 -12 -3 -15 5 -10 8 5 12 0 12
-13 0 -10 3 -27 7 -37 4 -12 3 -15 -5 -10 -8 5 -10 2 -5 -9 4 -11 8 -13 13 -5
5 8 11 6 20 -5 11 -14 11 -21 -4 -46 -9 -16 -15 -33 -11 -38 3 -5 1 -12 -4
-15 -5 -3 -11 3 -14 14 -3 11 0 20 6 20 7 0 4 5 -5 11 -10 5 -18 18 -18 27 0
9 -7 31 -16 47 -9 17 -16 40 -16 52 1 13 -3 22 -9 20 -6 -1 -14 4 -17 12 -3 9
0 11 8 6 9 -6 9 -3 1 14 -7 11 -15 21 -19 21 -4 0 -13 13 -20 29 -7 16 -31 49
-52 74 -22 25 -40 49 -40 54 0 4 -14 19 -30 32 -17 13 -30 32 -30 43 0 18 -2
19 -17 7 -15 -12 -16 -12 -10 4 4 10 3 16 -3 12 -9 -5 -31 9 -70 46 -33 31
-130 80 -142 73 -10 -6 -10 -5 -1 7 11 13 9 15 -10 14 -12 -2 -37 6 -54 17
-18 11 -36 17 -40 15 -5 -3 -37 1 -72 8 -35 8 -95 14 -133 14 -39 0 -72 2 -75
4 -6 6 -6 708 0 714 3 2 40 4 84 4 62 0 85 4 108 19 22 14 25 20 13 20 -24 0
-25 65 -2 74 8 3 13 2 10 -2 -2 -4 3 -8 12 -8 9 0 51 -3 92 -7 62 -5 68 -4 35
4 -22 6 -60 14 -85 19 -33 6 -8 8 91 7 75 -1 135 -5 132 -9z m-511 -460 c1
-192 2 -356 2 -365 1 -16 -10 -18 -76 -20 l-78 -3 0 368 0 367 75 0 75 1 2
-348z m-170 327 c1 -5 2 -167 2 -358 l1 -348 -24 3 c-24 3 -24 3 -28 163 -3
88 -9 164 -14 170 -5 5 -9 19 -9 32 0 27 2 26 -56 12 -43 -11 -54 -22 -34 -34
6 -3 13 1 16 9 4 10 18 16 36 16 18 0 27 -4 23 -11 -4 -6 -13 -8 -20 -5 -7 2
-16 -2 -19 -11 -4 -9 -9 -13 -13 -9 -4 3 -13 -8 -21 -26 -11 -25 -14 -68 -13
-170 2 -137 2 -138 -20 -138 -22 0 -22 0 -3 15 11 9 13 13 4 10 -12 -4 -15 8
-17 70 -1 44 2 77 8 81 8 4 8 8 1 13 -8 5 -8 18 0 46 5 22 10 50 10 63 0 12 6
22 14 22 8 0 11 6 8 15 -9 22 -19 18 -34 -12 -9 -18 -15 -81 -18 -181 -3 -117
-7 -150 -16 -143 -16 13 -14 295 2 332 6 15 8 31 4 35 -4 5 -3 6 2 2 4 -4 20
4 35 18 14 13 32 22 39 19 6 -2 12 -1 12 3 0 4 14 8 31 9 51 4 58 23 59 164 0
69 3 128 6 132 10 9 44 4 46 -8z m-2777 -1373 c-3 -3 -11 0 -18 7 -9 10 -8 11
6 5 10 -3 15 -9 12 -12z m2495 -88 c80 -32 111 -146 62 -225 -71 -116 -232
-53 -232 91 0 47 25 104 42 94 6 -4 8 -3 5 3 -8 13 13 32 50 43 15 4 29 9 30
9 2 1 21 -6 43 -15z m-272 -933 c-7 -11 -16 -17 -22 -14 -5 4 -7 0 -4 -8 3 -8
-7 -27 -23 -43 -16 -16 -29 -33 -29 -37 0 -4 -6 -9 -13 -12 -31 -12 -10 30 39
80 56 56 72 66 52 34z m-111 -121 c2 -21 -29 -45 -42 -32 -3 4 -5 2 -3 -3 5
-15 -39 -58 -51 -51 -7 5 -8 0 -4 -11 3 -10 3 -15 -1 -11 -5 4 -20 -4 -34 -17
-15 -14 -48 -32 -74 -42 -26 -9 -48 -20 -48 -24 0 -4 -11 -10 -24 -13 -13 -3
-32 -9 -42 -13 -12 -4 -15 -3 -10 5 4 7 16 12 27 12 10 0 19 5 19 10 0 6 6 10
14 10 8 0 22 7 30 16 9 8 16 12 16 8 0 -4 17 9 37 29 20 21 40 37 45 37 14 0
9 -18 -7 -24 -8 -3 -15 -10 -15 -16 0 -6 10 -2 22 10 12 11 19 23 15 26 -9 10
13 35 24 28 5 -3 8 0 7 7 -2 6 3 14 11 17 9 3 11 0 6 -9 -5 -8 -4 -11 1 -6 5
5 9 12 9 16 0 8 56 60 65 61 3 0 6 -9 7 -20z"/>
<path d="M4900 5650 c-9 -6 -10 -10 -3 -10 6 0 15 5 18 10 8 12 4 12 -15 0z"/>
<path d="M3810 5631 c0 -15 18 -23 22 -10 3 8 77 9 283 1 175 -6 282 -7 286
-1 7 11 299 10 299 -2 0 -4 9 -5 21 -2 16 4 17 8 7 14 -18 12 -918 11 -918 0z"/>
<path d="M4800 5631 c0 -8 83 -32 89 -25 8 7 -4 13 -47 22 -23 6 -42 7 -42 3z"/>
<path d="M4971 5617 c-8 -10 -7 -14 2 -14 8 0 14 6 14 14 0 7 -1 13 -2 13 -2
0 -8 -6 -14 -13z"/>
<path d="M3807 5533 c4 -11 8 -13 11 -5 3 10 110 12 459 12 251 -1 458 2 461
5 3 3 -207 5 -466 5 -439 0 -471 -1 -465 -17z"/>
<path d="M4784 5539 c-3 -5 2 -9 12 -9 24 0 84 -39 116 -74 15 -17 29 -28 33
-25 3 4 -11 24 -32 46 -39 40 -118 79 -129 62z"/>
<path d="M5091 5467 c-1 -10 -5 -15 -11 -12 -6 4 -7 -1 -3 -11 6 -15 7 -15 15
0 5 9 7 22 4 29 -2 7 -5 4 -5 -6z"/>
<path d="M4847 5423 c3 -7 6 -13 8 -13 2 0 5 6 8 13 3 8 -1 14 -8 14 -7 0 -11
-6 -8 -14z"/>
<path d="M4970 5113 c0 -5 5 -15 10 -23 8 -12 10 -11 10 8 0 12 -4 22 -10 22
-5 0 -10 -3 -10 -7z"/>
<path d="M4560 5075 c0 -14 6 -16 28 -10 15 4 106 7 202 6 96 -1 172 0 170 2
-3 2 -94 7 -202 11 -181 7 -198 6 -198 -9z"/>
<path d="M5018 4906 c-5 -22 -1 -25 39 -28 25 -2 47 0 50 5 2 4 1 7 -4 6 -4
-1 -23 -1 -42 0 -28 1 -33 4 -28 21 3 11 2 20 -3 20 -4 0 -10 -11 -12 -24z"/>
<path d="M4948 4883 c7 -3 16 -2 19 1 4 3 -2 6 -13 5 -11 0 -14 -3 -6 -6z"/>
<path d="M5398 4833 c7 -3 16 -2 19 1 4 3 -2 6 -13 5 -11 0 -14 -3 -6 -6z"/>
<path d="M5458 4833 c12 -2 32 -2 45 0 12 2 2 4 -23 4 -25 0 -35 -2 -22 -4z"/>
<path d="M5093 4434 c-2 -385 -2 -392 18 -397 15 -4 18 -2 10 7 -6 7 -8 16 -4
19 3 4 1 7 -5 7 -9 0 -13 100 -15 378 l-2 377 -2 -391z"/>
<path d="M5054 4480 c0 -135 2 -190 3 -122 2 67 2 177 0 245 -1 67 -3 12 -3
-123z"/>
<path d="M5343 4680 c0 -25 2 -35 4 -22 2 12 2 32 0 45 -2 12 -4 2 -4 -23z"/>
<path d="M5344 4280 c0 -113 2 -159 3 -102 2 56 2 148 0 205 -1 56 -3 10 -3
-103z"/>
<path d="M5602 4120 c0 -14 2 -19 5 -12 2 6 2 18 0 25 -3 6 -5 1 -5 -13z"/>
<path d="M5160 4020 c8 -5 22 -9 30 -9 10 0 8 3 -5 9 -27 12 -43 12 -25 0z"/>
<path d="M5210 3993 c0 -9 62 -53 73 -53 4 0 15 -8 25 -17 10 -10 41 -39 70
-65 29 -26 52 -50 52 -55 0 -4 13 -25 29 -46 25 -33 29 -35 34 -17 3 11 1 17
-4 14 -5 -3 -12 3 -16 12 -3 10 -15 26 -25 36 -10 10 -16 24 -12 30 4 6 3 8
-3 5 -5 -3 -37 21 -71 53 -34 33 -65 60 -70 60 -14 0 -34 27 -25 32 4 3 2 3
-5 1 -7 -1 -22 2 -33 7 -10 6 -19 7 -19 3z"/>
<path d="M4250 4266 c0 -8 5 -18 10 -21 6 -3 10 3 10 14 0 12 -4 21 -10 21 -5
0 -10 -6 -10 -14z"/>
<path d="M4151 3322 c-13 -15 -31 -38 -40 -52 -8 -14 -24 -31 -33 -38 -10 -7
-18 -19 -18 -27 0 -7 -6 -15 -12 -18 -7 -2 -10 -8 -5 -13 4 -4 15 2 23 15 9
12 40 51 70 86 30 35 51 66 46 69 -4 2 -18 -8 -31 -22z"/>
<path d="M4153 3243 c-32 -43 -67 -86 -77 -97 -14 -14 -16 -21 -7 -24 7 -2 13
-2 15 -1 112 145 148 199 131 199 -2 0 -31 -35 -62 -77z"/>
<path d="M4057 3279 c4 -13 8 -18 11 -10 2 7 -1 18 -6 23 -8 8 -9 4 -5 -13z"/>
<path d="M4185 3222 c-22 -30 -50 -66 -62 -80 -12 -15 -20 -28 -17 -31 3 -3 9
1 14 9 7 12 11 12 27 -1 17 -13 17 -13 4 4 -13 16 -12 20 4 35 15 15 17 15 12
1 -3 -9 0 -16 8 -16 10 0 11 5 4 18 -10 20 -4 26 28 23 12 0 20 2 17 7 -2 4
-11 6 -19 2 -21 -7 -19 10 6 41 11 14 19 30 17 35 -2 4 -21 -17 -43 -47z"/>
<path d="M1482 5673 c-6 -2 -10 -9 -6 -14 8 -14 21 -11 21 6 0 8 -1 15 -1 14
-1 0 -7 -3 -14 -6z"/>
<path d="M3522 5595 c0 -16 2 -22 5 -12 2 9 2 23 0 30 -3 6 -5 -1 -5 -18z"/>
<path d="M3695 5570 c4 -6 11 -8 16 -5 14 9 11 15 -7 15 -8 0 -12 -5 -9 -10z"/>
<path d="M1419 5553 c-13 -17 -13 -17 6 -3 11 8 22 16 24 17 2 2 0 3 -6 3 -6
0 -17 -8 -24 -17z"/>
<path d="M3590 5560 c-13 -8 -12 -10 3 -10 9 0 17 5 17 10 0 12 -1 12 -20 0z"/>
<path d="M3620 5560 c0 -5 5 -10 11 -10 5 0 7 5 4 10 -3 6 -8 10 -11 10 -2 0
-4 -4 -4 -10z"/>
<path d="M1783 5503 c0 -9 4 -10 14 -2 7 6 13 12 13 14 0 1 -6 2 -13 2 -8 0
-14 -6 -14 -14z"/>
<path d="M1325 5460 c-3 -5 -1 -10 4 -10 6 0 11 5 11 10 0 6 -2 10 -4 10 -3 0
-8 -4 -11 -10z"/>
<path d="M1285 5450 c-3 -6 1 -7 9 -4 18 7 21 14 7 14 -6 0 -13 -4 -16 -10z"/>
<path d="M4740 5421 c0 -6 4 -13 10 -16 6 -3 7 1 4 9 -7 18 -14 21 -14 7z"/>
<path d="M1207 5366 c-5 -11 -49 -14 -251 -12 -135 1 -246 -2 -246 -7 0 -4
116 -7 259 -6 246 2 258 3 254 20 -6 23 -9 23 -16 5z"/>
<path d="M345 5350 l-220 -6 223 -2 c143 -1 222 2 222 8 0 6 -1 9 -2 8 -2 -1
-102 -5 -223 -8z"/>
<path d="M1937 5348 c-7 -5 2 -7 21 -6 17 1 32 6 32 10 0 9 -37 6 -53 -4z"/>
<path d="M2120 5350 l-125 -6 169 -2 c93 -1 167 0 165 2 -9 9 -87 11 -209 6z"/>
<path d="M2381 5344 c0 -11 3 -14 6 -6 3 7 2 16 -1 19 -3 4 -6 -2 -5 -13z"/>
<path d="M588 5343 c7 -3 16 -2 19 1 4 3 -2 6 -13 5 -11 0 -14 -3 -6 -6z"/>
<path d="M4760 5290 c0 -36 3 -40 25 -40 27 0 30 7 14 30 -9 12 -10 11 -4 -5
5 -15 3 -17 -5 -9 -13 13 -4 54 11 54 6 0 7 -6 3 -12 -5 -10 -4 -10 6 -1 11
10 17 10 29 0 14 -11 14 -10 2 6 -8 10 -27 17 -47 17 -33 0 -34 -1 -34 -40z"/>
<path d="M122 5308 c-9 -4 92 -6 225 -5 158 2 244 -1 247 -8 2 -5 5 -3 5 5 1
13 -31 15 -229 15 -127 0 -238 -3 -248 -7z"/>
<path d="M695 5310 c-12 -5 76 -10 208 -12 147 -2 227 1 227 7 0 12 -406 17
-435 5z"/>
<path d="M1140 5310 c0 -13 38 -19 43 -6 3 6 -6 12 -19 12 -13 1 -24 -2 -24
-6z"/>
<path d="M1962 5312 c4 -17 218 -28 218 -12 0 5 14 10 30 10 17 0 30 -5 30
-12 0 -7 1 -556 2 -1220 1 -664 6 -1205 10 -1202 4 3 8 554 8 1225 l0 1219
-140 -1 c-96 -1 -140 -5 -140 -13 0 -6 -5 -4 -11 4 -7 10 -9 11 -7 2z"/>
<path d="M2341 4184 c0 -626 4 -1130 8 -1119 9 22 5 2245 -4 2253 -3 3 -5
-507 -4 -1134z"/>
<path d="M5032 5295 c0 -16 2 -22 5 -12 2 9 2 23 0 30 -3 6 -5 -1 -5 -18z"/>
<path d="M115 5279 c-4 -6 -5 -12 -2 -15 2 -3 7 2 10 11 7 17 1 20 -8 4z"/>
<path d="M580 5255 c0 -19 -6 -20 -224 -19 -123 1 -228 4 -232 7 -5 3 -15 -1
-22 -9 -11 -12 26 -14 255 -14 147 0 263 4 257 8 -6 4 -16 16 -22 27 l-11 20
-1 -20z"/>
<path d="M1188 5253 c7 -3 16 -2 19 1 4 3 -2 6 -13 5 -11 0 -14 -3 -6 -6z"/>
<path d="M1429 5252 c-2 -5 -45 -11 -96 -14 -50 -2 -90 0 -87 4 3 4 -2 8 -10
8 -8 0 -17 -4 -21 -10 -3 -5 -12 -7 -20 -4 -7 3 -23 1 -34 -6 -21 -11 -21 -16
-21 -380 0 -204 -4 -370 -9 -370 -4 0 -9 163 -10 362 0 199 -3 364 -6 366 -3
3 -5 -439 -5 -983 0 -877 2 -986 15 -975 15 13 21 25 8 17 -5 -3 -9 267 -10
599 0 343 3 604 8 604 5 0 9 -223 10 -507 2 -573 4 -681 13 -690 3 -4 5 433 4
970 l-3 977 148 0 c81 0 147 3 147 8 0 14 -18 34 -21 24z"/>
<path d="M2080 5241 c0 -4 -90 -7 -199 -5 l-199 4 -31 -26 c-17 -14 -31 -21
-31 -14 0 6 -5 8 -10 5 -6 -4 -8 -9 -6 -13 5 -9 -52 -14 -82 -7 -14 4 -20 10
-16 18 5 8 2 8 -7 -1 -21 -20 14 -42 65 -42 41 0 106 31 106 50 0 6 88 11 248
12 136 0 232 3 215 5 -18 2 -33 8 -33 14 0 5 -4 9 -10 9 -5 0 -10 -4 -10 -9z"/>
<path d="M676 5228 c3 -4 105 -8 226 -8 122 0 218 3 214 7 -10 10 -446 11
-440 1z"/>
<path d="M85 4030 c0 -649 3 -1180 7 -1180 3 0 8 12 11 28 10 58 2 2325 -8
2329 -7 2 -10 -395 -10 -1177z"/>
<path d="M2165 4039 c0 -643 3 -1169 8 -1169 4 0 7 524 7 1164 0 641 -3 1167
-7 1169 -5 3 -8 -521 -8 -1164z"/>
<path d="M4500 5180 c6 -11 13 -20 16 -20 2 0 0 9 -6 20 -6 11 -13 20 -16 20
-2 0 0 -9 6 -20z"/>
<path d="M2123 5095 c0 -22 2 -30 4 -17 2 12 2 30 0 40 -3 9 -5 -1 -4 -23z"/>
<path d="M3361 5074 c0 -11 3 -14 6 -6 3 7 2 16 -1 19 -3 4 -6 -2 -5 -13z"/>
<path d="M1082 4980 c0 -14 2 -19 5 -12 2 6 2 18 0 25 -3 6 -5 1 -5 -13z"/>
<path d="M2121 4984 c0 -11 3 -14 6 -6 3 7 2 16 -1 19 -3 4 -6 -2 -5 -13z"/>
<path d="M4506 4973 c-6 -14 -5 -15 5 -6 7 7 10 15 7 18 -3 3 -9 -2 -12 -12z"/>
<path d="M505 4950 c-4 -6 -10 -8 -14 -6 -3 3 -7 -4 -7 -15 0 -24 0 -24 20 6
9 14 14 25 12 25 -3 0 -8 -5 -11 -10z"/>
<path d="M2123 4920 c0 -25 2 -35 4 -22 2 12 2 32 0 45 -2 12 -4 2 -4 -23z"/>
<path d="M2427 4879 c7 -7 15 -10 18 -7 3 3 -2 9 -12 12 -14 6 -15 5 -6 -5z"/>
<path d="M3093 4873 c9 -2 23 -2 30 0 6 3 -1 5 -18 5 -16 0 -22 -2 -12 -5z"/>
<path d="M3158 4873 c6 -2 18 -2 25 0 6 3 1 5 -13 5 -14 0 -19 -2 -12 -5z"/>
<path d="M3505 4870 c-4 -7 78 -10 257 -10 145 0 274 -3 287 -7 18 -4 22 -2
19 8 -4 11 -55 15 -280 17 -183 2 -279 -1 -283 -8z"/>
<path d="M2430 4743 l1 -108 270 -200 c149 -110 282 -210 295 -222 23 -21 24
-29 24 -132 0 -98 -2 -110 -19 -116 -10 -3 -26 -14 -36 -25 -18 -19 -17 -20 8
-18 14 1 24 4 22 6 -2 2 6 14 19 26 20 19 22 32 24 126 l1 105 63 6 63 6 -61
1 c-59 2 -64 4 -108 48 -26 25 -44 49 -41 54 3 5 1 12 -5 15 -6 4 -9 1 -8 -6
5 -22 -17 -19 -44 6 -15 14 -31 26 -35 28 -5 1 -7 6 -5 10 1 5 -2 6 -8 2 -6
-4 -20 5 -31 19 -11 15 -24 24 -29 21 -5 -3 -11 -1 -14 4 -4 5 -1 13 5 17 8 5
9 3 4 -6 -5 -9 -4 -11 3 -6 9 5 9 13 2 27 -12 22 -22 26 -14 5 3 -7 -1 -16 -9
-19 -9 -3 -14 1 -13 10 0 9 -6 18 -14 20 -13 4 -13 3 0 -7 13 -10 13 -11 0 -7
-8 2 -14 10 -12 16 1 7 -6 11 -15 9 -10 -2 -17 2 -15 10 1 6 -3 12 -10 12 -6
0 -26 11 -44 25 -19 14 -37 25 -40 24 -4 0 -11 6 -16 15 -5 9 -16 16 -24 16
-9 0 -12 5 -8 12 4 6 3 8 -3 5 -5 -3 -15 3 -23 13 -8 10 -18 16 -24 13 -6 -3
-6 0 1 7 10 10 15 11 27 1 10 -8 16 -9 21 -1 4 6 90 10 247 10 133 0 239 2
237 5 -4 4 -471 8 -494 4 -5 -1 -14 0 -20 1 -5 2 -23 4 -40 5 l-30 2 -1 67
c-1 43 2 63 8 54 5 -8 6 -2 2 17 -4 17 -11 32 -16 33 -45 18 95 22 785 22
l782 0 2 -87 c1 -69 -2 -89 -16 -105 -10 -10 -24 -17 -32 -15 -8 2 -11 2 -6 0
12 -8 8 -23 -8 -23 -8 0 -30 -13 -48 -30 -19 -16 -38 -26 -42 -22 -5 4 -5 2
-2 -4 7 -12 -38 -47 -59 -47 -7 0 -10 -6 -7 -14 3 -9 0 -11 -10 -8 -8 4 -17
-1 -20 -9 -6 -15 -23 -16 -45 -2 -7 4 -16 5 -19 2 -4 -3 0 -6 8 -6 11 0 11 -2
-1 -10 -10 -6 -11 -10 -2 -10 21 0 13 -18 -18 -40 -35 -25 -60 -31 -76 -19 -7
5 -11 3 -11 -6 0 -8 4 -12 9 -9 4 3 8 -2 8 -10 0 -8 -5 -18 -12 -22 -7 -5 -8
-3 -3 7 7 11 5 11 -11 -1 -10 -8 -22 -19 -26 -25 -4 -5 -11 -10 -15 -10 -12
-1 -49 -24 -38 -25 5 0 -2 -8 -15 -17 -14 -10 -27 -17 -30 -16 -3 1 -5 -13 -5
-30 0 -18 -6 -37 -14 -43 -11 -9 -12 -12 -1 -19 9 -6 11 -4 5 6 -6 11 -5 12 6
1 11 -10 9 -16 -12 -32 -24 -19 -25 -25 -18 -79 6 -56 33 -109 69 -138 12 -9
15 -50 17 -242 1 -211 0 -229 -15 -224 -11 3 -13 2 -6 -4 6 -4 15 -19 19 -32
6 -21 5 -23 -11 -17 -11 4 -69 7 -130 7 l-112 -2 -19 38 c-22 44 -52 92 -70
111 -7 7 -13 20 -13 28 0 8 -6 17 -14 20 -12 5 -46 71 -46 89 0 5 37 0 82 -11
18 -4 35 0 52 12 26 19 36 41 14 28 -10 -6 -10 -4 0 7 17 18 16 22 -13 53 -22
24 -31 26 -100 26 -87 0 -161 -15 -189 -39 -16 -13 -18 -13 -10 -1 10 17 13
103 6 168 l-4 42 -209 0 -209 0 0 -265 0 -265 76 0 c66 0 75 -2 70 -16 -3 -9
-9 -26 -12 -38 -3 -12 -19 -30 -35 -40 -65 -38 -100 -102 -113 -207 -2 -20
-11 -51 -20 -68 l-17 -31 -84 0 -85 0 0 -65 c0 -40 4 -65 11 -65 6 0 10 10 9
23 -1 12 -2 37 -1 55 l1 32 55 0 55 0 0 -65 0 -65 -67 0 c-62 0 -69 -2 -120
-41 -29 -23 -53 -43 -53 -46 0 -6 38 16 44 26 11 16 87 52 109 50 12 -1 46 -1
75 -1 44 2 52 5 52 21 0 17 9 20 70 23 l70 3 0 -50 c0 -27 9 -90 20 -140 44
-207 102 -317 242 -455 63 -61 117 -95 206 -127 61 -22 66 -23 83 -7 21 19 17
33 -4 16 -7 -6 -19 -10 -27 -8 -70 13 -90 19 -90 27 0 5 -7 9 -16 9 -9 0 -12
5 -8 12 4 7 3 8 -4 4 -7 -4 -12 -1 -12 8 0 9 -5 16 -11 16 -5 0 -7 -5 -3 -11
4 -8 0 -7 -15 1 -12 6 -19 15 -16 20 3 6 -1 7 -9 4 -9 -4 -18 1 -22 10 -3 9
-12 16 -19 16 -16 0 -39 27 -28 32 4 3 3 3 -4 2 -6 -1 -22 13 -35 32 -12 18
-27 34 -32 34 -5 0 -2 8 5 17 8 9 9 14 3 10 -7 -4 -22 1 -35 12 l-22 18 29 39
c16 21 35 44 42 49 10 8 9 11 -7 11 -11 0 -19 -4 -18 -8 3 -10 -36 -68 -45
-68 -9 0 -41 59 -45 84 -2 11 -8 25 -14 33 -6 7 -8 25 -4 40 5 23 4 25 -9 14
-19 -16 -21 -1 -3 18 7 8 7 11 1 8 -7 -4 -16 9 -22 36 -25 99 -37 201 -22 192
5 -3 25 -3 45 1 29 5 35 11 35 31 0 16 -5 23 -12 20 -7 -2 -22 -1 -33 4 -18 7
-17 8 7 8 15 1 38 -3 52 -9 21 -8 26 -7 26 6 0 9 -8 14 -17 13 -10 -1 -78 -1
-151 0 -93 1 -133 4 -130 12 4 11 64 17 177 17 30 1 58 0 63 -1 5 -1 10 45 13
103 l4 105 -38 -76 c-58 -117 -56 -116 -132 -118 -64 -2 -67 -1 -71 23 -3 17
1 31 13 42 10 9 21 33 24 53 13 82 27 141 35 141 4 0 11 12 14 26 5 20 11 24
29 19 17 -5 19 -4 7 4 -13 9 -11 13 10 28 14 10 26 15 27 13 0 -3 11 8 24 24
25 32 32 64 17 84 -8 9 5 12 58 12 67 -1 68 -1 48 -18 -11 -10 -27 -31 -35
-47 -16 -33 -39 -45 -39 -20 0 9 5 13 10 10 17 -10 11 0 -10 18 -20 17 -20 16
-14 -9 5 -21 1 -31 -22 -51 -21 -18 -24 -23 -9 -18 11 4 36 9 56 12 34 5 38
10 52 52 13 41 18 46 47 49 28 3 32 1 26 -15 -48 -124 -75 -250 -76 -355 0
-58 3 -69 21 -79 17 -8 20 -18 17 -45 -5 -40 9 -46 18 -7 4 15 2 34 -5 45 -14
23 -9 33 14 24 19 -7 36 -50 29 -73 -5 -15 -4 -16 5 -3 16 22 13 55 -6 72 -24
20 -53 30 -53 17 0 -6 -4 -7 -10 -4 -20 12 -8 185 18 255 3 8 4 19 3 24 -1 6
2 19 8 30 14 30 31 87 31 103 0 7 -10 18 -22 24 -19 8 -16 8 14 4 20 -3 39 -1
42 4 10 16 14 471 4 477 -5 3 -6 10 -3 15 21 32 25 -13 25 -251 0 -146 4 -260
9 -260 14 0 18 21 16 88 -1 53 2 66 18 77 11 8 24 12 29 9 4 -3 5 3 1 13 -6
16 -5 16 10 4 9 -7 14 -18 11 -23 -3 -5 3 -4 14 3 12 7 18 17 15 22 -3 5 -9 4
-13 -2 -5 -9 -10 -8 -20 4 -11 14 -7 19 13 16 5 -1 6 3 2 8 -5 9 24 31 42 31
5 0 17 -17 28 -37 11 -21 27 -44 35 -53 8 -9 29 -44 45 -78 17 -34 33 -62 38
-62 4 0 7 -6 7 -12 1 -17 36 -63 49 -64 6 -1 66 -2 132 -3 105 -1 120 -3 109
-15 -16 -21 -9 -60 13 -64 11 -2 28 6 38 17 11 12 15 21 10 21 -5 0 -13 -4
-16 -10 -11 -18 -47 -12 -43 8 3 12 12 16 32 15 23 -2 26 0 16 12 -7 8 -16 13
-20 10 -4 -2 -8 115 -9 260 l-2 265 30 0 31 0 1 -277 c1 -153 2 -292 3 -309
l2 -32 -227 2 c-125 0 -222 -2 -216 -6 7 -4 112 -8 234 -8 210 0 223 1 233 19
6 12 10 110 10 249 0 204 -2 231 -16 236 -9 4 -14 9 -11 13 9 8 86 -49 161
-119 67 -62 139 -174 177 -275 22 -57 39 -80 39 -52 0 23 -64 162 -100 218
-49 76 -142 170 -202 205 -27 15 -48 31 -49 34 0 4 -2 19 -4 35 -5 38 9 35 90
-19 118 -76 196 -167 265 -304 53 -107 56 -119 31 -136 -29 -21 -26 -38 3 -19
38 25 36 54 -9 147 -53 107 -73 136 -157 224 -74 76 -239 184 -282 184 -31 0
-76 20 -76 33 0 6 -10 21 -21 33 -12 13 -23 41 -26 66 l-5 44 58 -7 c59 -7
135 -24 164 -36 8 -3 19 -5 24 -4 5 1 3 -6 -5 -15 -13 -16 -12 -16 8 -6 25 14
36 15 29 4 -2 -4 5 -9 17 -9 12 -1 28 -10 35 -20 7 -10 17 -17 22 -16 15 4
130 -78 130 -92 0 -3 -5 -3 -12 1 -7 5 -8 3 -4 -5 5 -7 11 -10 14 -6 11 11 81
-67 74 -83 -4 -11 -1 -14 11 -9 29 11 125 -151 191 -320 15 -40 15 -43 -2 -43
-11 0 -7 -6 14 -19 41 -25 84 -112 83 -165 -1 -82 -52 -161 -111 -173 -15 -3
-31 -10 -34 -14 -8 -14 11 -11 66 10 l49 19 -3 -122 c-2 -68 0 -110 4 -96 4
14 8 71 9 127 1 88 4 108 26 149 45 85 25 204 -44 255 -22 16 -36 40 -51 87
-40 122 -126 271 -216 371 -47 53 -168 143 -241 180 -59 29 -183 62 -243 63
-51 1 -84 18 -36 18 25 0 26 2 26 59 l0 59 268 198 c147 109 270 203 274 208
4 6 8 57 8 114 l0 102 -805 0 -805 0 0 -107z m1320 -299 c0 -8 -19 -13 -24 -6
-3 5 1 9 9 9 8 0 15 -2 15 -3z m-795 -164 c3 -5 1 -10 -4 -10 -6 0 -11 5 -11
10 0 6 2 10 4 10 3 0 8 -4 11 -10z m-394 -343 c-13 -13 -26 -3 -16 12 3 6 11
8 17 5 6 -4 6 -10 -1 -17z m116 17 c-3 -3 -12 -4 -19 -1 -8 3 -5 6 6 6 11 1
17 -2 13 -5z m213 -251 l0 -228 -160 1 -160 1 -4 227 -4 226 164 0 164 0 0
-227z m-343 -130 c-1 -65 -3 -12 -3 117 0 129 2 182 3 118 2 -65 2 -171 0
-235z m593 205 c0 -9 -13 -12 -37 -11 -65 3 -70 6 -18 13 28 4 51 8 53 8 1 1
2 -4 2 -10z m78 -17 c8 -5 12 -21 10 -37 -3 -25 -7 -29 -33 -27 -16 0 -52 6
-78 13 -26 6 -74 10 -107 8 -41 -2 -60 1 -60 9 0 16 42 22 144 20 57 -1 91 -6
93 -14 2 -6 -4 -13 -14 -16 -12 -3 -9 -5 9 -6 22 -1 25 2 21 20 -3 11 -15 25
-27 29 -20 8 -20 9 4 9 14 0 31 -3 38 -8z m-230 -110 c-24 -27 -44 -47 -46
-46 -2 2 0 24 3 49 7 46 7 46 47 46 l40 0 -44 -49z m-355 -198 c-7 -2 -21 -2
-30 0 -10 3 -4 5 12 5 17 0 24 -2 18 -5z m67 -428 c0 -16 -7 -21 -32 -22 -18
-1 -27 1 -20 3 6 3 12 12 12 20 0 9 5 12 12 8 7 -4 8 -3 4 4 -4 7 -4 17 0 23
9 14 24 -8 24 -36z m-230 -25 c0 -5 -5 -10 -11 -10 -5 0 -7 5 -4 10 3 6 8 10
11 10 2 0 4 -4 4 -10z m235 -100 c4 -6 -10 -10 -34 -10 -23 0 -41 5 -41 10 0
6 15 10 34 10 19 0 38 -4 41 -10z"/>
<path d="M2657 3874 c-10 -19 -22 -32 -27 -29 -6 4 -9 1 -8 -7 2 -7 -3 -12
-11 -10 -8 2 -11 -3 -8 -12 3 -8 1 -16 -6 -19 -8 -2 -8 -5 0 -10 6 -4 27 18
49 51 46 68 48 72 37 72 -5 0 -17 -16 -26 -36z"/>
<path d="M2734 3902 c-22 -15 -96 -131 -89 -141 3 -7 0 -8 -9 -5 -10 4 -16 1
-16 -9 0 -8 -7 -20 -15 -27 -8 -7 -15 -19 -15 -28 0 -11 5 -9 20 8 11 13 20
27 20 32 0 5 5 6 10 3 6 -3 11 -1 11 4 1 6 2 14 3 19 3 20 49 81 57 77 5 -4 6
1 3 9 -3 9 -2 16 3 16 6 0 15 11 21 25 13 27 12 28 -4 17z"/>
<path d="M2745 3811 c-49 -74 -71 -98 -83 -94 -15 4 -15 3 -2 -6 13 -10 13
-13 -4 -26 -11 -8 -16 -15 -12 -15 4 0 -6 -19 -23 -42 -31 -42 -40 -65 -21
-53 6 4 50 65 98 136 132 197 133 199 123 199 -4 0 -39 -45 -76 -99z"/>
<path d="M2829 3793 c-18 -26 -36 -50 -39 -53 -6 -5 -117 -167 -152 -222 -10
-16 -14 -28 -9 -28 5 0 31 32 58 70 161 234 185 271 180 276 -3 3 -20 -16 -38
-43z"/>
<path d="M2808 3701 c-62 -94 -84 -136 -56 -111 9 8 13 19 10 24 -3 5 2 6 12
3 14 -6 16 -3 11 14 -5 16 -4 19 5 14 9 -5 11 -4 6 4 -4 6 5 28 22 49 31 39
56 82 50 86 -2 2 -29 -36 -60 -83z"/>
<path d="M2700 3545 c-12 -20 -20 -39 -16 -42 3 -3 8 2 12 11 3 9 11 13 17 9
6 -3 7 -1 3 6 -4 6 -2 19 5 27 6 8 9 17 7 20 -3 3 -16 -11 -28 -31z"/>
<path d="M3034 4730 c0 -52 1 -74 3 -47 2 26 2 68 0 95 -2 26 -3 4 -3 -48z"/>
<path d="M3241 4758 c1 -68 6 -61 11 15 2 26 0 47 -4 47 -5 0 -7 -28 -7 -62z"/>
<path d="M2195 3870 c0 -520 1 -732 2 -472 2 259 2 685 0 945 -1 259 -2 47 -2
-473z"/>
<path d="M5698 4763 c7 -3 16 -2 19 1 4 3 -2 6 -13 5 -11 0 -14 -3 -6 -6z"/>
<path d="M1082 4740 c0 -14 2 -19 5 -12 2 6 2 18 0 25 -3 6 -5 1 -5 -13z"/>
<path d="M255 4709 c-4 -6 -5 -12 -2 -15 2 -3 7 2 10 11 7 17 1 20 -8 4z"/>
<path d="M3242 4650 c0 -14 2 -19 5 -12 2 6 2 18 0 25 -3 6 -5 1 -5 -13z"/>
<path d="M731 4619 c-13 -20 -21 -27 -26 -19 -6 9 -9 9 -15 0 -4 -7 -28 -15
-54 -17 -25 -3 -43 -9 -40 -14 7 -12 104 -11 104 0 0 5 9 13 20 16 11 4 27 20
35 36 21 39 0 38 -24 -2z"/>
<path d="M1082 4610 c0 -19 2 -27 5 -17 2 9 2 25 0 35 -3 9 -5 1 -5 -18z"/>
<path d="M2403 4622 c2 -12 6 -24 10 -28 3 -4 4 4 2 16 -6 30 -16 40 -12 12z"/>
<path d="M3222 4419 c-2 -195 0 -226 13 -226 8 0 15 4 15 9 0 4 -4 8 -10 8 -6
0 -11 84 -13 218 l-2 217 -3 -226z"/>
<path d="M4057 4621 c-4 -17 -3 -21 5 -13 5 5 8 16 6 23 -3 8 -7 3 -11 -10z"/>
<path d="M551 4608 c5 -10 17 -17 27 -17 15 1 15 2 -1 6 -10 3 -16 10 -14 17
3 7 -1 13 -8 13 -10 0 -11 -5 -4 -19z"/>
<path d="M4290 4606 c0 -2 9 -6 20 -9 11 -3 18 -1 14 4 -5 9 -34 13 -34 5z"/>
<path d="M4065 4591 c-3 -5 -2 -12 3 -15 5 -3 9 1 9 9 0 17 -3 19 -12 6z"/>
<path d="M2406 4569 c2 -4 13 -7 24 -6 23 2 17 10 -10 12 -10 1 -17 -2 -14 -6z"/>
<path d="M1083 4515 c0 -22 2 -30 4 -17 2 12 2 30 0 40 -3 9 -5 -1 -4 -23z"/>
<path d="M4186 4538 c3 -5 10 -6 15 -3 13 9 11 12 -6 12 -8 0 -12 -4 -9 -9z"/>
<path d="M2122 3748 c-1 -433 1 -789 6 -791 6 -5 6 569 -1 1298 -1 154 -3 -74
-5 -507z"/>
<path d="M3886 4491 c-4 -5 3 -7 14 -4 23 6 26 13 6 13 -8 0 -17 -4 -20 -9z"/>
<path d="M2720 4470 c8 -5 20 -10 25 -10 6 0 3 5 -5 10 -8 5 -19 10 -25 10 -5
0 -3 -5 5 -10z"/>
<path d="M2655 4421 c-6 -11 13 -26 22 -17 4 3 1 6 -6 6 -7 0 -9 5 -6 10 3 6
4 10 1 10 -3 0 -7 -4 -11 -9z"/>
<path d="M3685 4420 c-3 -6 1 -7 9 -4 18 7 21 14 7 14 -6 0 -13 -4 -16 -10z"/>
<path d="M5845 3310 c0 -608 1 -856 2 -552 2 303 2 801 0 1105 -1 303 -2 55
-2 -553z"/>
<path d="M2820 4396 c0 -2 7 -7 16 -10 8 -3 12 -2 9 4 -6 10 -25 14 -25 6z"/>
<path d="M3726 4358 c5 -7 2 -9 -8 -6 -8 4 -15 0 -15 -7 0 -10 5 -11 19 -4 16
9 17 29 2 29 -3 0 -2 -5 2 -12z"/>
<path d="M2747 4340 c19 -20 25 -22 35 -11 11 11 10 13 0 6 -8 -4 -23 1 -35
11 -22 18 -22 18 0 -6z"/>
<path d="M1080 4217 l5 -112 3 104 c1 57 -1 108 -5 112 -4 5 -6 -42 -3 -104z"/>
<path d="M3627 4259 c7 -7 15 -10 18 -7 3 3 -2 9 -12 12 -14 6 -15 5 -6 -5z"/>
<path d="M1821 4233 c-21 -40 -67 -55 -191 -62 -63 -4 -125 -12 -137 -19 -31
-17 -63 -61 -63 -88 0 -12 -11 -30 -25 -41 -28 -20 -54 -81 -55 -129 0 -52 25
-117 78 -200 28 -43 56 -92 62 -109 l11 -30 19 25 c33 42 34 59 6 95 -50 66
-54 125 -7 138 49 13 76 -37 90 -167 11 -106 28 -135 92 -153 68 -20 172 -27
197 -14 23 12 29 50 16 98 l-6 22 -29 -21 c-23 -18 -31 -19 -44 -8 -35 29 -7
70 48 70 24 0 44 24 29 34 -15 9 -96 -13 -109 -30 -18 -24 -16 -61 3 -68 8 -3
13 -10 10 -15 -3 -5 4 -11 16 -14 19 -5 20 -8 7 -24 -13 -16 -12 -17 3 -5 14
12 21 11 38 -1 21 -15 21 -15 -5 -21 -14 -4 -34 -2 -45 4 -14 7 -20 7 -20 0 0
-5 -5 -10 -11 -10 -5 0 -8 4 -4 10 3 5 -5 9 -17 8 -66 -3 -89 4 -120 32 -18
16 -27 30 -20 30 9 0 10 5 4 18 -5 9 -12 36 -15 60 l-5 43 19 -22 c22 -26 24
-33 7 -24 -7 4 -1 -5 14 -18 15 -14 24 -28 20 -33 -4 -4 1 -4 10 -1 9 3 22 -1
28 -9 7 -8 19 -14 27 -14 8 0 12 -4 9 -8 -3 -5 1 -9 9 -9 8 0 15 5 15 11 0 6
5 4 10 -4 7 -11 10 -11 10 -2 0 7 -19 21 -42 31 -50 22 -82 53 -101 101 -26
61 -30 114 -13 155 9 21 16 57 16 81 l0 44 83 0 c153 1 207 30 207 113 0 62
-60 151 -84 126 -6 -5 -14 1 -21 19 l-12 27 -12 -22z m16 -30 c-4 -3 0 -11 8
-17 12 -9 10 -15 -10 -40 -17 -22 -38 -32 -82 -42 -48 -10 -52 -12 -23 -13 65
-2 107 16 119 50 8 23 15 30 27 25 14 -5 15 -4 4 9 -7 8 -8 15 -2 15 12 0 22
-24 22 -51 0 -11 5 -17 10 -14 6 3 10 0 11 -7 1 -7 2 -26 4 -42 2 -33 -25 -66
-55 -66 -11 0 -20 -3 -20 -7 0 -5 -37 -8 -83 -7 -86 0 -142 -18 -133 -43 3 -7
1 -13 -5 -13 -6 0 -7 -5 -3 -12 11 -17 14 -53 6 -65 -12 -18 -47 -30 -82 -29
-19 1 -41 -3 -49 -8 -11 -8 -13 -8 -7 1 5 9 2 11 -8 7 -9 -3 -12 -12 -8 -22 5
-15 4 -16 -13 -2 -17 14 -18 14 -7 -6 6 -11 10 -34 9 -50 -1 -31 35 -111 49
-106 4 1 9 -4 10 -13 3 -22 -24 -18 -31 5 -3 11 -10 20 -15 20 -5 0 -6 7 -3
17 4 11 3 14 -5 9 -8 -4 -16 3 -22 19 -13 34 -13 38 2 29 7 -4 8 -3 4 5 -4 6
-12 9 -17 6 -19 -12 -30 7 -12 20 13 10 20 10 25 2 6 -9 8 -9 8 0 0 16 -17 26
-25 13 -10 -17 -20 -12 -39 21 -11 18 -13 29 -6 24 9 -6 9 -3 0 15 -11 20 -10
45 4 135 1 11 9 20 17 20 8 0 20 14 27 30 24 54 28 58 47 61 11 2 23 -2 27 -9
6 -9 8 -9 8 0 0 7 -10 17 -21 24 -17 9 -20 8 -14 -2 5 -8 4 -10 -4 -5 -18 12
-4 23 47 40 53 17 232 26 232 12 0 -6 6 -2 13 8 7 10 21 16 31 14 11 -1 20 3
22 10 1 7 0 8 -3 2 -2 -5 -9 -7 -14 -4 -6 3 -2 12 8 20 19 14 31 19 20 7z
m-227 -393 c-6 -11 -13 -20 -16 -20 -3 0 -2 5 1 10 3 6 -2 10 -12 10 -15 0
-16 2 -3 10 27 17 42 12 30 -10z m290 -257 c0 -5 -4 -14 -9 -21 -6 -10 -10
-10 -21 3 -11 13 -10 14 5 9 13 -5 16 -4 11 4 -4 7 -2 12 3 12 6 0 11 -3 11
-7z"/>
<path d="M1835 4070 c-3 -6 1 -7 9 -4 18 7 21 14 7 14 -6 0 -13 -4 -16 -10z"/>
<path d="M1688 4053 c6 -2 18 -2 25 0 6 3 1 5 -13 5 -14 0 -19 -2 -12 -5z"/>
<path d="M1475 4010 c-3 -5 -1 -10 4 -10 6 0 11 5 11 10 0 6 -2 10 -4 10 -3 0
-8 -4 -11 -10z"/>
<path d="M1415 3959 c-4 -6 -5 -12 -2 -15 2 -3 7 2 10 11 7 17 1 20 -8 4z"/>
<path d="M1610 3896 c0 -8 4 -17 9 -20 5 -4 7 3 4 14 -6 23 -13 26 -13 6z"/>
<path d="M1547 4219 c7 -7 15 -10 18 -7 3 3 -2 9 -12 12 -14 6 -15 5 -6 -5z"/>
<path d="M3445 4220 c-3 -5 -1 -10 4 -10 6 0 11 5 11 10 0 6 -2 10 -4 10 -3 0
-8 -4 -11 -10z"/>
<path d="M3260 4017 c0 -103 3 -187 8 -187 9 0 8 357 -1 367 -4 3 -7 -78 -7
-180z"/>
<path d="M3170 3993 c0 -97 3 -173 8 -169 9 10 9 346 0 346 -5 0 -8 -79 -8
-177z"/>
<path d="M4018 4113 c12 -2 32 -2 45 0 12 2 2 4 -23 4 -25 0 -35 -2 -22 -4z"/>
<path d="M1083 4040 c0 -25 2 -35 4 -22 2 12 2 32 0 45 -2 12 -4 2 -4 -23z"/>
<path d="M3795 4050 c-3 -6 1 -7 9 -4 18 7 21 14 7 14 -6 0 -13 -4 -16 -10z"/>
<path d="M1365 4040 c-3 -6 1 -7 9 -4 18 7 21 14 7 14 -6 0 -13 -4 -16 -10z"/>
<path d="M3610 4026 c0 -2 7 -7 16 -10 8 -3 12 -2 9 4 -6 10 -25 14 -25 6z"/>
<path d="M4918 4025 c-2 -3 -251 -5 -552 -5 -301 0 -545 -4 -542 -8 2 -4 260
-6 573 -4 367 2 563 6 553 12 -17 11 -25 12 -32 5z"/>
<path d="M4970 4016 c0 -9 40 -13 46 -5 3 5 -6 9 -20 9 -14 0 -26 -2 -26 -4z"/>
<path d="M3870 3996 c0 -2 8 -10 18 -17 15 -13 16 -12 3 4 -13 16 -21 21 -21
13z"/>
<path d="M1865 3951 c-3 -5 -1 -12 4 -16 6 -3 7 -13 4 -22 -4 -10 -2 -14 4
-10 16 10 24 -35 13 -74 -6 -19 -10 -34 -10 -35 0 0 9 -11 20 -24 20 -23 24
-38 20 -75 -2 -17 0 -18 17 -5 10 8 19 15 21 16 4 3 -19 43 -36 65 -7 9 -13
36 -13 60 -1 52 -18 129 -30 129 -4 0 -10 -4 -14 -9z"/>
<path d="M3010 3888 c0 -27 -4 -47 -9 -44 -5 4 -7 -4 -3 -16 5 -21 6 -21 13
-2 4 10 8 35 8 55 1 19 6 40 11 45 7 7 6 11 -5 11 -11 0 -15 -12 -15 -49z"/>
<path d="M3965 3902 c11 -4 295 -5 630 -2 l610 5 -630 2 c-346 1 -621 -2 -610
-5z"/>
<path d="M1769 3861 l-23 -19 67 2 c56 1 67 4 67 19 0 25 -79 24 -111 -2z"/>
<path d="M5217 3862 c-15 -16 -15 -19 -2 -19 8 0 13 3 10 5 -3 3 0 11 6 19 17
20 5 16 -14 -5z"/>
<path d="M3930 3846 c0 -2 8 -10 18 -17 15 -13 16 -12 3 4 -13 16 -21 21 -21
13z"/>
<path d="M3266 3805 c4 -8 8 -15 10 -15 2 0 4 7 4 15 0 8 -4 15 -10 15 -5 0
-7 -7 -4 -15z"/>
<path d="M1510 3762 c1 -23 2 -24 11 -10 15 27 42 11 35 -23 -3 -17 0 -32 9
-39 12 -10 15 -10 15 1 0 24 -21 89 -28 90 -4 0 -15 2 -24 4 -14 2 -18 -3 -18
-23z"/>
<path d="M3938 3783 c7 -3 16 -2 19 1 4 3 -2 6 -13 5 -11 0 -14 -3 -6 -6z"/>
<path d="M4353 3783 c141 -2 373 -2 515 0 141 1 25 2 -258 2 -283 0 -399 -1
-257 -2z"/>
<path d="M5215 3783 c43 -2 85 -9 92 -15 8 -6 16 -8 20 -4 3 3 1 6 -6 6 -7 0
-9 5 -6 10 4 6 -27 9 -87 8 l-93 -2 80 -3z"/>
<path d="M3273 3765 c0 -8 4 -12 9 -9 5 3 6 10 3 15 -9 13 -12 11 -12 -6z"/>
<path d="M3756 3742 c-3 -5 1 -9 9 -9 8 0 12 4 9 9 -3 4 -7 8 -9 8 -2 0 -6 -4
-9 -8z"/>
<path d="M1082 3650 c-1 -19 -5 -46 -7 -60 l-6 -25 11 25 c6 13 9 40 7 60 l-4
35 -1 -35z"/>
<path d="M1733 3647 c0 -12 1 -16 4 -9 3 6 9 10 13 7 5 -3 12 0 16 7 4 7 4 10
-1 6 -4 -4 -13 -4 -19 2 -8 6 -12 2 -13 -13z"/>
<path d="M1565 3630 c3 -5 10 -10 16 -10 5 0 9 5 9 10 0 6 -7 10 -16 10 -8 0
-12 -4 -9 -10z"/>
<path d="M1855 3620 c7 -12 55 -14 55 -2 0 4 -14 8 -30 9 -18 1 -28 -2 -25 -7z"/>
<path d="M4200 3559 c0 -5 5 -7 10 -4 6 3 10 8 10 11 0 2 -4 4 -10 4 -5 0 -10
-5 -10 -11z"/>
<path d="M1500 3531 c-5 -11 -10 -29 -10 -40 0 -12 -7 -21 -15 -21 -9 0 -30
-20 -47 -45 -18 -25 -36 -45 -41 -45 -5 0 5 -14 23 -30 18 -17 34 -29 36 -27
2 2 -5 12 -16 22 -21 19 -27 45 -9 45 5 0 7 -5 3 -12 -4 -7 -3 -8 5 -4 6 4 9
11 6 16 -3 5 3 18 14 29 11 11 16 23 13 27 -4 3 4 1 17 -6 19 -10 22 -9 16 1
-5 7 -2 17 6 23 8 6 14 28 15 49 1 42 -1 45 -16 18z"/>
<path d="M3149 3473 c0 -27 -1 -63 -2 -81 -1 -19 1 -36 5 -39 5 -2 8 34 8 81
0 47 -2 86 -5 86 -3 0 -5 -21 -6 -47z"/>
<path d="M4835 3470 c-341 -3 -615 -7 -610 -10 6 -3 294 -3 640 0 347 3 621 7
610 10 -11 3 -299 3 -640 0z"/>
<path d="M4050 3446 c0 -2 8 -10 18 -17 15 -13 16 -12 3 4 -13 16 -21 21 -21
13z"/>
<path d="M1083 3360 c0 -47 2 -66 4 -42 2 23 2 61 0 85 -2 23 -4 4 -4 -43z"/>
<path d="M2866 3405 c-9 -26 -7 -32 5 -12 6 10 9 21 6 23 -2 3 -7 -2 -11 -11z"/>
<path d="M3184 3365 c-29 -45 21 -88 59 -50 8 8 18 11 22 7 4 -4 0 7 -8 24
-21 42 -53 50 -73 19z m56 -23 c0 -15 -23 -30 -36 -25 -14 5 -19 35 -8 46 8 7
44 -10 44 -21z"/>
<path d="M1315 3349 c-16 -11 -51 -31 -76 -44 -59 -31 -135 -99 -160 -144 -11
-20 -39 -68 -63 -107 -24 -39 -66 -114 -93 -165 -27 -52 -55 -103 -61 -114 -9
-18 -23 -51 -26 -65 -6 -23 -31 -51 -49 -55 -17 -5 -28 -22 -45 -70 -26 -75
-27 -91 -8 -102 12 -7 11 -25 -9 -123 -28 -140 -38 -206 -30 -198 4 3 18 66
33 140 l27 133 45 5 45 6 -40 7 c-54 11 -79 50 -58 91 8 14 11 31 8 36 -10 16
73 11 108 -6 53 -27 135 -97 147 -126 12 -28 6 -53 -11 -43 -5 3 -6 -1 -3 -9
3 -9 1 -16 -5 -16 -6 0 -11 8 -12 18 -1 11 -4 8 -8 -8 -4 -14 -14 -24 -21 -22
-8 2 -11 -4 -7 -17 4 -18 -67 -206 -109 -285 -8 -16 -12 -31 -9 -34 5 -6 50
89 110 237 32 76 44 95 66 103 29 10 44 50 28 79 -4 9 -33 39 -64 67 -54 49
-141 92 -187 92 -20 0 -20 1 -3 20 9 10 20 19 24 18 3 -1 13 2 22 6 43 19 253
-123 232 -157 -4 -6 -9 -23 -10 -37 -3 -24 -2 -24 12 -6 8 10 12 23 9 27 -3 5
1 19 7 31 18 33 131 178 139 178 4 0 21 -66 38 -147 31 -148 45 -315 28 -342
-5 -7 -10 -41 -11 -75 -2 -33 -10 -108 -19 -166 -17 -117 -20 -190 -7 -190 4
0 11 -48 14 -107 3 -60 10 -146 16 -193 6 -47 17 -221 25 -388 14 -293 14
-304 -5 -385 -40 -162 -59 -333 -59 -519 0 -98 4 -178 8 -178 5 0 8 14 7 31
-1 18 1 73 4 124 4 56 2 91 -3 87 -5 -3 -6 3 -2 14 4 10 9 44 12 74 2 30 9 69
15 88 6 18 9 42 6 53 -3 10 2 50 10 87 8 37 14 81 14 99 0 18 4 35 9 38 5 3 6
13 3 22 -4 10 -2 14 4 10 6 -4 9 3 7 18 -1 14 2 27 7 31 5 3 7 9 4 14 -3 5 -7
55 -10 112 -3 57 -6 119 -9 138 -2 19 -7 118 -10 220 -4 102 -11 208 -16 235
-17 95 -22 185 -11 185 7 0 7 8 1 24 -5 13 -6 27 -3 30 4 3 32 6 63 6 55 0 58
-1 58 -25 0 -14 -4 -25 -9 -25 -5 0 -5 -10 0 -22 5 -13 11 -97 15 -188 8 -218
18 -523 20 -635 1 -49 6 -98 12 -108 10 -18 44 -24 190 -36 14 -1 14 -3 -1
-17 -9 -9 -13 -19 -10 -22 3 -4 10 0 16 8 12 18 1 -36 -13 -63 -5 -9 -6 -22
-3 -28 4 -5 2 -16 -5 -24 -6 -7 -10 -19 -9 -27 3 -19 -12 -110 -22 -130 -5 -9
-11 -45 -14 -80 -7 -88 -12 -123 -27 -203 -13 -70 -13 -115 0 -115 4 0 18 70
30 156 21 144 86 506 98 547 3 9 10 17 16 17 7 0 8 -19 4 -57 -4 -32 -11 -94
-16 -138 -20 -165 -8 -525 16 -525 11 0 12 24 6 118 -4 64 -7 140 -6 167 0 28
1 106 2 175 2 73 6 119 11 112 7 -11 9 -11 14 2 4 9 2 16 -3 16 -19 0 -10 39
12 54 12 9 18 16 12 16 -5 0 -15 -5 -22 -12 -9 -9 -12 -9 -12 0 0 7 7 15 15
18 8 4 15 10 15 16 0 5 -5 6 -12 2 -7 -5 -8 -3 -4 5 5 7 14 10 22 7 8 -3 14
-2 14 2 0 4 21 6 47 6 27 -1 73 3 103 8 30 5 64 10 75 9 10 0 26 5 34 12 12
10 13 5 6 -38 -4 -28 -9 -63 -11 -80 -2 -16 -8 -57 -12 -90 -5 -33 -7 -66 -4
-74 4 -10 1 -12 -8 -6 -10 6 -11 2 -6 -19 5 -19 3 -26 -8 -26 -12 0 -13 -6 -7
-22 4 -12 4 -37 0 -56 -4 -19 -5 -41 -2 -48 3 -8 1 -14 -3 -14 -5 0 -10 -17
-10 -37 -1 -34 -9 -123 -15 -163 -4 -29 1 -60 10 -60 5 0 12 28 16 63 4 34 24
193 46 354 21 161 39 302 39 314 0 13 13 34 30 48 l30 26 -10 200 c-5 110 -12
219 -14 243 -3 37 -1 42 14 37 16 -5 170 -25 196 -25 7 0 9 -11 6 -26 -5 -28
-3 -28 94 1 27 8 98 10 225 7 101 -2 181 -2 178 2 -5 6 -339 21 -364 17 -15
-3 -77 -4 -102 -3 -23 2 -41 26 -48 64 -5 22 -23 48 -34 48 -4 0 -17 -9 -30
-21 l-22 -21 20 -18 c28 -23 26 -27 -6 -26 l-28 1 -5 205 -6 205 -3 -145 c-2
-80 -3 -172 -4 -205 0 -33 -2 -55 -4 -50 -3 11 -74 12 -93 0 -8 -5 -10 -21 -5
-52 4 -29 3 -43 -3 -39 -7 4 -7 -5 -1 -26 5 -18 12 -108 17 -199 l7 -165 -31
-32 c-26 -27 -46 -35 -109 -47 -105 -20 -219 -20 -251 1 -22 15 -24 15 -18 0
5 -13 -2 -16 -41 -16 -25 0 -77 5 -114 11 l-68 11 -6 202 c-4 110 -10 341 -14
513 l-6 312 -62 -6 c-69 -6 -105 6 -105 38 0 11 4 18 9 15 5 -3 11 1 14 9 4 9
1 12 -7 9 -15 -6 -13 69 4 165 6 30 10 71 10 91 0 29 9 46 50 90 50 56 58 70
39 70 -5 0 -7 -6 -3 -12 4 -7 4 -10 -1 -6 -4 4 -14 0 -21 -10 -8 -10 -13 -12
-14 -4 0 6 18 30 41 53 22 22 38 43 35 46 -3 3 -27 -15 -53 -41 l-48 -46 -7
102 c-3 57 -12 128 -18 158 -7 30 -12 65 -11 78 0 13 -3 21 -8 17 -6 -3 -8 13
-6 37 2 25 1 37 -4 30 -7 -11 -9 -10 -14 2 -4 9 -1 16 6 16 7 0 3 7 -7 15 -16
12 -17 17 -6 30 7 9 8 15 2 15 -6 0 -33 -24 -62 -52 -28 -29 -65 -59 -83 -66
-30 -11 -30 -12 -4 -8 15 2 27 0 27 -3 0 -9 -50 -61 -58 -61 -4 1 -25 19 -47
41 -24 24 -66 50 -107 67 -61 24 -85 42 -58 42 6 0 10 5 10 12 0 15 52 122 62
126 4 2 8 10 8 18 0 9 4 13 10 9 5 -3 14 13 21 35 7 22 18 45 26 51 7 6 13 20
13 31 0 10 4 16 10 13 5 -3 7 0 4 8 -3 8 0 18 7 23 8 5 10 3 4 -6 -5 -9 -4
-11 4 -6 7 5 9 16 5 28 -4 15 -3 18 6 13 8 -5 11 -4 7 1 -3 5 8 25 24 43 16
18 27 37 24 41 -2 4 4 15 15 25 11 10 20 22 20 27 0 5 13 23 29 40 28 31 30
31 54 15 73 -48 113 -117 128 -221 9 -69 -7 -151 -39 -196 -29 -39 -34 -50
-24 -50 5 0 15 11 22 25 19 36 30 21 30 -43 0 -31 4 -75 8 -97 6 -29 9 -4 9
95 0 74 2 176 4 226 3 86 1 95 -29 157 -21 41 -48 78 -72 97 -36 29 -46 57
-17 47 6 -2 21 5 31 15 11 10 26 16 33 14 7 -3 12 0 10 6 -1 7 5 13 14 15 25
6 105 -90 144 -171 54 -114 67 -182 67 -346 1 -156 -11 -250 -42 -345 -11 -33
-19 -62 -18 -65 1 -3 -10 -18 -25 -34 -15 -16 -25 -31 -23 -34 8 -8 55 52 56
71 0 10 5 15 10 12 6 -3 11 2 11 12 3 43 7 61 13 72 4 6 9 21 11 33 3 13 10
48 16 78 13 60 19 360 6 332 -5 -11 -6 -7 -3 12 4 28 -28 142 -45 161 -5 5 -9
16 -9 25 0 13 2 13 11 0 7 -10 9 -11 7 -2 -2 8 -7 12 -11 10 -12 -4 -29 30
-22 42 10 16 20 12 37 -18 10 -17 15 -40 12 -59 -3 -17 -1 -34 5 -37 5 -3 8 7
7 23 -4 53 12 22 19 -37 6 -50 24 -107 25 -77 0 6 4 3 10 -5 7 -11 33 -15 109
-16 62 -1 101 3 101 9 0 5 15 7 35 4 20 -3 35 -2 35 4 0 6 3 8 8 6 4 -3 16 -1
27 4 16 6 14 8 -12 8 -18 1 -33 -2 -33 -6 0 -5 -58 -8 -130 -8 l-130 0 -17 55
c-32 106 -95 215 -167 293 -40 43 -50 44 -91 16z m96 -45 c17 -16 25 -32 22
-42 -4 -10 -2 -13 5 -8 7 4 12 1 12 -8 0 -8 5 -16 12 -18 7 -3 9 -12 4 -24 -7
-17 -9 -16 -23 11 -9 17 -22 38 -31 48 -10 11 -11 17 -3 17 7 0 9 5 6 10 -4 6
-11 7 -17 4 -10 -6 -28 12 -28 29 0 13 14 7 41 -19z m342 -331 c-7 -2 -19 -2
-25 0 -7 3 -2 5 12 5 14 0 19 -2 13 -5z m-447 -795 c-19 -27 -21 -19 -4 18 7
14 14 21 16 15 2 -6 -4 -21 -12 -33z m952 -851 c2 -12 -3 -17 -17 -17 -15 0
-21 6 -21 21 0 25 33 22 38 -4z m12 -31 c0 -2 -7 -7 -16 -10 -8 -3 -12 -2 -9
4 6 10 25 14 25 6z m-1003 -858 c-3 -8 -6 -5 -6 6 -1 11 2 17 5 13 3 -3 4 -12
1 -19z"/>
<path d="M1600 3336 c0 -2 7 -9 15 -16 9 -7 15 -8 15 -2 0 5 -7 12 -15 16 -8
3 -15 4 -15 2z"/>
<path d="M3143 3333 c4 -3 1 -13 -6 -21 -10 -13 -9 -14 3 -10 19 6 26 38 9 38
-7 0 -9 -3 -6 -7z"/>
<path d="M1477 3272 c73 -100 110 -142 123 -142 5 0 18 16 30 35 12 19 27 35
33 35 8 0 7 4 -2 9 -7 5 -10 14 -6 21 6 9 10 9 17 -1 6 -10 7 -6 3 11 -6 23
-4 22 24 -10 37 -43 40 -29 6 23 -23 32 -49 51 -43 30 1 -5 -13 -38 -31 -75
l-33 -67 -47 58 c-26 32 -54 66 -64 75 -9 10 -17 22 -17 27 0 5 -5 9 -11 9 -6
0 2 -17 18 -38z"/>
<path d="M2671 3284 c-60 -27 -64 -43 -6 -24 54 18 53 6 -4 -35 -37 -27 -51
-43 -51 -61 0 -34 13 -30 46 14 15 20 33 40 38 44 6 4 17 11 24 16 7 5 16 23
21 40 12 39 5 40 -68 6z"/>
<path d="M1888 3257 c33 -35 61 -107 74 -191 6 -42 15 -71 19 -65 4 7 3 26 -2
43 -12 42 -11 44 6 19 8 -12 21 -45 29 -75 8 -29 18 -52 23 -51 6 1 9 -11 8
-27 -1 -16 2 -27 6 -24 5 3 15 -12 24 -32 14 -35 14 -37 -10 -56 -14 -11 -25
-28 -25 -39 0 -11 -4 -18 -9 -15 -4 3 -6 -5 -4 -18 3 -13 0 -39 -5 -60 -7 -25
-7 -34 0 -30 7 5 9 -3 4 -22 -5 -21 -4 -25 4 -14 8 12 10 11 10 -8 0 -32 39
-113 65 -135 6 -5 1 -6 -10 -2 -32 12 -96 15 -90 5 13 -21 74 -32 112 -19 l36
12 -25 13 c-83 44 -118 263 -51 329 22 23 27 12 13 -31 -26 -79 -1 -215 49
-265 16 -15 26 -31 22 -35 -12 -12 44 8 58 22 11 10 12 16 3 27 -9 11 1 26 46
73 57 60 94 104 122 145 14 21 62 80 99 124 9 12 20 30 24 40 5 16 2 14 -13
-5 -11 -14 -35 -42 -53 -64 -18 -21 -36 -45 -41 -53 -4 -8 -16 -23 -25 -32 -9
-9 -25 -30 -36 -46 -11 -16 -46 -55 -78 -88 -34 -34 -60 -70 -61 -83 -11 -106
-104 12 -114 144 -3 48 0 78 12 105 14 34 14 42 1 66 -8 16 -32 73 -53 127
-79 198 -144 314 -175 314 -6 0 -1 -10 11 -23z"/>
<path d="M1986 3253 c-6 -14 -5 -15 5 -6 7 7 10 15 7 18 -3 3 -9 -2 -12 -12z"/>
<path d="M3835 3259 c-4 -6 -5 -12 -2 -15 2 -3 7 2 10 11 7 17 1 20 -8 4z"/>
<path d="M3843 3221 c-46 -16 -83 -27 -83 -25 0 3 -9 0 -21 -6 -16 -9 -28 -8
-56 5 -39 19 -93 14 -113 -10 -7 -8 -16 -13 -20 -10 -5 3 -6 -5 -3 -17 4 -22
4 -23 -11 -4 -9 11 -16 15 -16 10 0 -6 3 -14 7 -18 4 -3 8 -17 10 -29 8 -62
15 -86 28 -97 7 -6 12 -19 10 -29 -2 -10 3 -18 11 -18 10 0 11 4 2 14 -9 11
-6 12 16 3 69 -26 150 8 161 69 2 13 7 26 9 29 10 9 161 50 166 45 3 -3 -1 -8
-7 -10 -7 -3 -13 -11 -13 -18 0 -8 -7 -34 -14 -57 -8 -24 -18 -70 -21 -103 -4
-33 -13 -67 -21 -75 -8 -8 -14 -10 -14 -4 0 7 -18 8 -49 4 -51 -6 -91 2 -91
20 0 5 -7 10 -15 10 -8 0 -15 4 -15 9 0 5 -15 8 -34 8 -25 -1 -38 -7 -47 -23
-16 -30 -72 -36 -321 -33 -181 2 -204 4 -222 21 -11 10 -26 18 -33 18 -8 0
-12 4 -8 9 3 6 -6 8 -22 5 -45 -8 -63 -15 -63 -25 0 -5 -5 -9 -11 -9 -5 0 -7
5 -3 12 4 7 3 8 -5 4 -8 -6 -9 -12 -2 -20 8 -10 -2 -13 -46 -12 -34 1 -58 6
-60 13 -3 8 8 11 35 9 29 -2 37 0 30 8 -6 6 -28 11 -49 11 -34 1 -39 -2 -39
-22 0 -21 -3 -22 -20 -13 -17 9 -25 6 -46 -15 -14 -14 -23 -32 -20 -40 2 -7 2
-16 -2 -18 -4 -2 -2 -2 5 -1 6 2 17 -4 23 -12 7 -8 25 -14 40 -14 26 0 30 -6
49 -62 51 -154 187 -334 304 -402 159 -94 356 -103 508 -25 26 13 54 44 94
104 31 47 62 88 67 91 6 4 19 -4 30 -17 15 -20 17 -21 11 -4 -6 17 -4 18 8 8
23 -18 44 19 28 50 -7 12 -16 25 -21 28 -5 3 -3 13 6 21 8 9 13 18 10 21 -3 3
0 15 6 27 6 12 13 38 15 58 2 21 6 46 9 57 2 11 5 26 5 34 1 11 7 9 24 -7 35
-33 56 -29 54 11 -1 18 4 37 13 45 13 11 13 11 -1 7 -9 -4 -16 0 -16 9 0 8 6
12 14 9 9 -4 11 0 7 11 -17 43 -46 -11 -37 -68 7 -42 -8 -48 -25 -11 -15 32
-15 72 -2 80 6 3 10 18 11 33 0 32 56 254 58 231 1 -9 -7 -49 -18 -90 -10 -41
-21 -91 -25 -111 -6 -35 -5 -38 16 -38 17 0 19 3 10 12 -14 14 -16 54 -4 62 5
3 9 23 10 46 1 22 8 56 16 75 12 27 12 42 4 65 -17 50 -33 51 -143 14 -55 -19
-107 -34 -117 -34 -10 0 -18 -5 -18 -11 0 -6 7 -9 15 -5 12 4 14 0 9 -22 -4
-15 -13 -34 -21 -42 -14 -13 -14 -12 -4 8 7 13 10 28 7 35 -2 7 -5 5 -5 -4 -2
-33 -41 -69 -75 -69 -69 0 -114 73 -86 141 15 36 37 49 85 49 30 0 39 -5 57
-35 23 -40 17 -40 133 3 39 14 87 26 107 26 21 0 34 3 30 6 -4 3 -7 16 -7 30
0 35 -24 35 -122 1z m107 2 c0 -26 -214 -97 -231 -77 -8 10 -8 15 2 19 40 15
215 74 222 74 4 1 7 -7 7 -16z m0 -198 c-16 -66 -30 -128 -30 -138 0 -11 -6
-17 -12 -14 -16 5 -14 22 18 157 32 134 33 135 44 124 6 -6 -2 -54 -20 -129z
m-912 -144 c8 -5 12 -17 9 -27 -4 -17 -6 -17 -12 4 -9 26 -20 29 -29 6 -10
-26 -5 -136 9 -189 l13 -50 -5 75 c-5 77 -1 91 37 103 8 2 3 3 -12 1 -21 -3
-28 1 -28 14 0 16 21 17 289 15 l289 -3 6 30 c5 26 10 30 39 30 l34 0 -10 -39
c-8 -30 -7 -62 5 -132 l17 -94 -2 75 c-1 41 2 81 6 88 5 6 4 12 -2 12 -6 0
-11 9 -11 20 0 18 7 20 74 20 40 0 88 3 106 6 32 7 32 7 25 -27 -7 -35 -59
-246 -71 -288 -6 -21 -4 -23 14 -19 18 5 22 2 22 -18 0 -24 -14 -32 -25 -14
-4 6 -55 10 -121 10 -89 0 -114 3 -114 13 0 11 20 13 99 9 97 -4 98 -4 103 19
3 13 17 67 31 119 14 52 28 110 31 128 5 30 4 32 -22 31 -17 -1 -20 -3 -9 -6
40 -10 12 -23 -50 -23 l-68 0 0 -80 c0 -88 -8 -102 -55 -97 -27 4 -31 19 -45
147 -5 47 -9 56 -27 57 -20 2 -20 1 -2 -13 17 -12 -14 -14 -253 -12 -312 3
-283 14 -283 -103 0 -71 -6 -79 -55 -79 -21 0 -25 6 -30 48 -4 26 -8 56 -10
67 -2 11 -4 37 -4 58 l-1 37 -107 0 c-61 0 -102 -4 -95 -9 7 -4 46 -6 86 -3
44 3 81 0 92 -7 15 -8 -1 -11 -71 -10 -104 2 -135 10 -135 39 0 22 1 22 148
20 74 -1 82 1 82 18 0 10 3 22 7 25 9 10 75 8 91 -2z m672 -22 c0 -6 -4 -7
-10 -4 -5 3 -10 11 -10 16 0 6 5 7 10 4 6 -3 10 -11 10 -16z m-783 -144 c-1
-25 1 -45 4 -45 3 0 6 -14 7 -32 0 -18 8 -38 16 -44 9 -6 16 -17 16 -25 1 -10
4 -9 11 4 6 11 22 17 43 17 31 0 34 3 40 38 3 20 6 58 6 85 l0 47 260 0 260 0
2 -27 c2 -50 6 -78 15 -108 8 -27 14 -30 55 -33 28 -2 49 2 56 10 6 8 12 46
13 86 l2 72 54 0 c50 0 53 -1 43 -19 -5 -11 -12 -38 -15 -60 -3 -22 -10 -53
-17 -68 -6 -15 -10 -32 -9 -37 1 -4 -4 -14 -10 -22 -12 -14 -112 -20 -155 -8
-23 6 -50 67 -38 85 4 8 3 9 -4 5 -6 -4 -25 3 -42 15 -25 19 -43 23 -114 23
-47 1 -80 -2 -74 -5 5 -4 -2 -9 -16 -13 -14 -3 -26 -11 -26 -17 0 -7 -6 -6
-17 2 -11 9 -14 10 -10 2 5 -7 1 -26 -8 -42 -21 -41 -20 -130 2 -161 42 -61
71 -74 158 -71 38 1 75 7 81 12 6 5 13 7 16 4 2 -3 17 8 31 23 26 27 30 28 84
21 31 -4 60 -6 65 -3 20 12 5 -17 -17 -34 -14 -11 -25 -24 -25 -30 0 -19 -43
-63 -57 -58 -8 3 -12 2 -9 -3 8 -12 -58 -37 -135 -51 -78 -15 -161 -6 -245 24
-73 27 -166 84 -158 97 3 5 1 8 -5 7 -15 -4 -96 77 -137 138 -34 53 -94 174
-108 222 -7 21 -5 22 53 22 l60 0 -2 -45z m611 -80 c41 -34 58 -80 45 -116
-14 -36 -5 -39 98 -39 51 0 78 -4 74 -10 -3 -5 -42 -10 -87 -10 -74 0 -82 -2
-100 -25 -26 -34 -70 -55 -110 -54 -30 0 -31 1 -10 9 12 5 22 14 22 20 0 6 4
9 9 5 5 -3 12 -1 16 5 4 6 11 7 17 4 7 -4 8 -2 4 5 -4 6 -12 8 -18 5 -6 -4 -6
0 1 13 6 11 7 23 4 27 -3 3 -2 6 4 6 6 0 10 15 9 34 -1 19 1 34 4 34 24 -2 50
4 50 10 0 5 -13 7 -30 4 -24 -3 -31 0 -39 19 -10 27 -51 73 -58 66 -2 -3 7
-17 20 -31 52 -56 43 -153 -21 -205 -43 -37 -56 -38 -102 -10 -42 26 -47 33
-60 82 -14 49 1 105 37 139 37 33 46 36 125 37 57 1 71 -3 96 -24z m162 -195
c0 -5 -2 -10 -4 -10 -3 0 -8 5 -11 10 -3 6 -1 10 4 10 6 0 11 -4 11 -10z"/>
<path d="M3203 2803 c64 -2 170 -2 235 0 64 1 11 3 -118 3 -129 0 -182 -2
-117 -3z"/>
<path d="M2968 2703 c7 -3 16 -2 19 1 4 3 -2 6 -13 5 -11 0 -14 -3 -6 -6z"/>
<path d="M3518 2683 c7 -3 16 -2 19 1 4 3 -2 6 -13 5 -11 0 -14 -3 -6 -6z"/>
<path d="M2995 2471 c-3 -5 4 -16 15 -24 11 -7 18 -17 15 -20 -3 -4 -2 -5 2
-2 15 12 11 35 -5 33 -10 -2 -16 3 -14 10 2 14 -4 16 -13 3z"/>
<path d="M3084 2389 c-8 -14 14 -19 25 -6 8 10 7 14 -5 14 -8 0 -17 -4 -20 -8z"/>
<path d="M3516 2612 c-3 -5 1 -9 9 -9 8 0 12 4 9 9 -3 4 -7 8 -9 8 -2 0 -6 -4
-9 -8z"/>
<path d="M3446 2597 c3 -10 9 -15 12 -12 3 3 0 11 -7 18 -10 9 -11 8 -5 -6z"/>
<path d="M3315 2580 c-3 -6 1 -7 9 -4 18 7 21 14 7 14 -6 0 -13 -4 -16 -10z"/>
<path d="M3420 2571 c0 -6 4 -13 10 -16 6 -3 7 1 4 9 -7 18 -14 21 -14 7z"/>
<path d="M3410 2530 c0 -5 5 -10 10 -10 6 0 10 5 10 10 0 6 -4 10 -10 10 -5 0
-10 -4 -10 -10z"/>
<path d="M3380 2493 c-14 -7 -18 -13 -10 -13 17 0 47 17 40 23 -3 2 -16 -2
-30 -10z"/>
<path d="M3306 2481 c-3 -5 2 -15 12 -22 15 -13 16 -12 3 4 -11 14 -11 17 1
17 8 0 20 -6 28 -12 12 -11 12 -10 1 5 -14 18 -36 23 -45 8z"/>
<path d="M1081 3214 c0 -11 3 -14 6 -6 3 7 2 16 -1 19 -3 4 -6 -2 -5 -13z"/>
<path d="M1690 3203 c0 -5 16 -17 35 -26 35 -17 42 -14 26 12 -5 7 -14 10 -20
6 -7 -4 -18 -1 -26 5 -8 7 -15 8 -15 3z"/>
<path d="M2567 3183 c3 -7 6 -13 8 -13 2 0 5 6 8 13 3 8 -1 14 -8 14 -7 0 -11
-6 -8 -14z"/>
<path d="M3248 3194 c-6 -5 -30 -11 -52 -13 -4 -1 -6 -7 -3 -15 3 -8 -1 -20
-8 -26 -8 -7 -12 -17 -8 -23 3 -5 1 -7 -4 -4 -6 4 -17 -1 -24 -11 -12 -15 -12
-16 2 -5 13 11 15 7 15 -27 0 -21 -3 -37 -7 -34 -4 2 -11 -1 -15 -8 -4 -7 -4
-10 1 -6 9 8 61 -61 57 -75 -1 -5 2 -6 8 -2 5 3 10 2 10 -3 0 -16 94 -38 139
-31 78 11 125 89 104 175 -9 41 -29 57 -29 24 0 -11 3 -20 7 -20 14 0 19 -50
7 -77 -6 -15 -12 -31 -12 -34 -1 -8 -58 -59 -66 -59 -5 0 5 14 21 31 16 17 29
40 29 51 0 10 4 17 9 14 4 -3 6 11 4 32 -3 20 -5 51 -6 69 -1 18 -9 38 -17 45
-12 11 -13 11 -5 -2 6 -10 3 -9 -6 2 -10 10 -29 22 -44 28 -28 11 -98 14 -107
4z m89 -21 c44 -21 73 -67 73 -116 0 -48 -26 -101 -46 -93 -8 3 -13 2 -10 -3
9 -14 -50 -33 -82 -26 -100 22 -122 166 -36 234 32 25 55 26 101 4z"/>
<path d="M3235 3151 c-3 -5 -1 -12 5 -16 5 -3 10 1 10 9 0 18 -6 21 -15 7z"/>
<path d="M3340 3141 c0 -5 5 -13 10 -16 6 -3 10 -2 10 4 0 5 -4 13 -10 16 -5
3 -10 2 -10 -4z"/>
<path d="M3252 3117 c-24 -25 -29 -75 -12 -108 14 -25 71 -26 93 -1 27 30 22
87 -9 111 -34 27 -46 26 -72 -2z m71 -22 c15 -27 17 -45 6 -45 -6 0 -7 -4 -4
-10 3 -5 1 -10 -5 -10 -6 0 -9 -4 -6 -9 9 -14 -24 -22 -45 -10 -17 8 -18 13
-8 25 10 12 10 17 0 27 -10 9 -11 8 -6 -5 4 -10 3 -18 -2 -18 -5 0 -9 11 -9
25 0 14 4 25 9 25 4 0 6 4 3 9 -4 5 0 11 6 14 26 9 50 2 61 -18z"/>
<path d="M3280 3066 c0 -2 8 -10 18 -17 15 -13 16 -12 3 4 -13 16 -21 21 -21
13z"/>
<path d="M3196 3061 c-4 -7 -5 -15 -2 -18 9 -9 19 4 14 18 -4 11 -6 11 -12 0z"/>
<path d="M3365 3020 c3 -5 10 -10 16 -10 5 0 9 5 9 10 0 6 -7 10 -16 10 -8 0
-12 -4 -9 -10z"/>
<path d="M3275 2960 c3 -5 10 -10 16 -10 5 0 9 5 9 10 0 6 -7 10 -16 10 -8 0
-12 -4 -9 -10z"/>
<path d="M1774 3145 c3 -11 10 -44 16 -74 6 -30 13 -57 16 -60 12 -12 -8 105
-22 129 -11 18 -13 20 -10 5z"/>
<path d="M3607 3148 c-9 -7 -19 -25 -22 -40 -5 -21 -1 -33 19 -52 14 -15 30
-26 36 -26 19 0 50 40 50 65 0 27 -31 65 -53 65 -7 0 -21 -6 -30 -12z m53 -33
c16 -42 -10 -75 -40 -51 -22 17 -24 46 -3 62 25 19 32 17 43 -11z"/>
<path d="M3140 3130 c-8 -5 -12 -12 -9 -15 4 -3 12 1 19 10 14 17 11 19 -10 5z"/>
<path d="M4006 3004 c-3 -48 -9 -97 -12 -110 -4 -17 -2 -24 8 -24 15 0 28 80
28 178 0 76 -17 44 -24 -44z"/>
<path d="M4602 3033 c175 -2 461 -2 636 0 174 1 31 2 -318 2 -349 0 -492 -1
-318 -2z"/>
<path d="M2742 2984 c-7 -8 -8 -14 -3 -14 10 0 25 19 20 25 -2 1 -10 -3 -17
-11z"/>
<path d="M3145 2989 c-4 -6 -5 -12 -2 -15 2 -3 7 2 10 11 7 17 1 20 -8 4z"/>
<path d="M1987 2974 c-3 -5 1 -15 9 -22 16 -14 18 -5 5 17 -5 7 -11 9 -14 5z"/>
<path d="M1571 2944 c0 -11 3 -14 6 -6 3 7 2 16 -1 19 -3 4 -6 -2 -5 -13z"/>
<path d="M5637 2933 c-3 -16 -9 -57 -13 -91 -4 -38 -10 -59 -15 -51 -4 8 -7
-3 -7 -27 2 -71 -1 -91 -12 -74 -6 10 -9 5 -9 -20 0 -19 -2 -46 -4 -60 -3 -14
-6 -29 -6 -33 -1 -5 -6 -5 -11 -2 -7 4 -9 -3 -5 -22 5 -19 4 -24 -3 -14 -6 9
-9 -8 -7 -53 2 -36 -1 -64 -5 -61 -5 3 -11 1 -15 -4 -3 -6 -18 -10 -33 -9 -24
1 -243 -10 -532 -28 -52 -3 -98 -8 -102 -10 -11 -7 -7 -2350 4 -2366 4 -7 7
519 5 1169 l-2 1182 50 5 c28 3 185 13 349 21 246 13 301 14 307 3 5 -7 16
-13 26 -13 12 0 22 -12 29 -34 6 -19 14 -29 18 -23 3 6 -1 27 -11 46 -12 26
-23 36 -40 36 -21 0 -23 4 -23 56 0 30 11 95 25 143 22 80 45 203 58 319 6 46
-7 58 -16 15z"/>
<path d="M2010 2921 c0 -6 4 -13 10 -16 6 -3 7 1 4 9 -7 18 -14 21 -14 7z"/>
<path d="M5668 2914 c-5 -4 -8 -141 -8 -305 0 -280 1 -298 20 -320 22 -27 26
-16 7 18 -9 16 -11 85 -7 265 5 247 1 356 -12 342z"/>
<path d="M3237 2889 c7 -7 15 -10 18 -7 3 3 -2 9 -12 12 -14 6 -15 5 -6 -5z"/>
<path d="M4016 2852 c-4 -7 -2 -12 4 -12 7 0 9 -7 6 -16 -3 -8 -2 -13 3 -9 5
3 12 -1 14 -7 4 -9 6 -8 6 3 1 23 -24 55 -33 41z"/>
<path d="M5602 2835 c0 -16 2 -22 5 -12 2 9 2 23 0 30 -3 6 -5 -1 -5 -18z"/>
<path d="M2140 2840 c-9 -6 -10 -10 -3 -10 6 0 15 5 18 10 8 12 4 12 -15 0z"/>
<path d="M94 2833 c3 -4 59 -7 124 -8 64 -1 167 -4 227 -7 73 -4 83 -3 30 1
-53 5 1 7 157 7 130 0 240 3 244 7 4 4 -172 7 -391 7 -219 0 -395 -3 -391 -7z"/>
<path d="M4237 2781 c-5 -29 -6 -56 -3 -58 7 -8 18 61 14 88 -2 15 -7 3 -11
-30z"/>
<path d="M2136 2809 c3 -5 12 -9 21 -9 19 0 9 13 -12 16 -8 1 -13 -2 -9 -7z"/>
<path d="M1710 2798 c0 -8 26 -9 95 -5 l95 6 0 -124 0 -125 -107 -1 c-60 0
-99 -4 -88 -8 11 -4 62 -5 113 -3 l92 4 0 134 0 134 -100 0 c-69 0 -100 -4
-100 -12z"/>
<path d="M1688 2680 c2 -77 7 -120 14 -120 7 0 8 14 4 38 -3 20 -6 74 -6 120
0 45 -3 82 -7 82 -5 0 -7 -54 -5 -120z"/>
<path d="M830 2781 c-8 -6 -173 -10 -374 -10 -197 -1 -361 -3 -364 -6 -3 -3
164 -5 370 -5 325 0 377 2 382 15 6 17 6 18 -14 6z"/>
<path d="M4003 2751 c-11 -10 -26 -40 -33 -65 -7 -25 -16 -46 -20 -46 -5 0 -7
-7 -6 -15 5 -32 14 -23 31 32 10 32 27 68 38 80 25 29 18 39 -10 14z"/>
<path d="M1240 2750 c0 -5 5 -10 10 -10 6 0 10 5 10 10 0 6 -4 10 -10 10 -5 0
-10 -4 -10 -10z"/>
<path d="M2136 2745 c-9 -26 -7 -32 5 -12 6 10 9 21 6 23 -2 3 -7 -2 -11 -11z"/>
<path d="M560 2732 c0 -12 249 -22 257 -9 2 4 -27 7 -65 7 -38 0 -97 3 -131 6
-41 5 -61 3 -61 -4z"/>
<path d="M168 2723 c29 -2 74 -2 100 0 26 2 2 3 -53 3 -55 0 -76 -1 -47 -3z"/>
<path d="M388 2723 c28 -2 76 -2 105 0 28 2 5 3 -53 3 -58 0 -81 -1 -52 -3z"/>
<path d="M4227 2703 c-7 -12 -57 -197 -56 -208 1 -14 49 134 54 168 2 15 7 32
10 37 3 6 4 10 1 10 -3 0 -7 -3 -9 -7z"/>
<path d="M1121 2693 c-2 -20 16 -24 30 -5 13 15 12 16 -3 4 -13 -10 -17 -10
-21 0 -4 9 -6 9 -6 1z"/>
<path d="M2121 2684 c0 -11 3 -14 6 -6 3 7 2 16 -1 19 -3 4 -6 -2 -5 -13z"/>
<path d="M1000 2625 c19 -14 40 -36 47 -48 13 -24 16 -15 7 21 -4 12 -19 29
-35 37 -45 24 -56 17 -19 -10z"/>
<path d="M2151 2615 c0 -11 4 -27 9 -35 9 -13 10 -13 9 0 0 8 -4 24 -9 35 l-9
20 0 -20z"/>
<path d="M1353 2600 c7 -41 11 -54 24 -67 16 -18 28 -16 13 2 -7 8 -19 32 -27
52 -8 23 -12 28 -10 13z"/>
<path d="M2814 2596 c4 -10 1 -26 -6 -35 -11 -14 -10 -14 6 0 15 14 16 20 6
35 -11 18 -11 18 -6 0z"/>
<path d="M885 2520 c-3 -6 1 -7 9 -4 18 7 21 14 7 14 -6 0 -13 -4 -16 -10z"/>
<path d="M2876 2517 c3 -10 9 -15 12 -12 3 3 0 11 -7 18 -10 9 -11 8 -5 -6z"/>
<path d="M1400 2502 c0 -6 6 -15 13 -19 8 -4 19 -17 25 -28 6 -11 12 -15 12
-8 0 7 -11 24 -25 39 -14 15 -25 22 -25 16z"/>
<path d="M5520 2500 c0 -5 5 -10 11 -10 5 0 7 5 4 10 -3 6 -8 10 -11 10 -2 0
-4 -4 -4 -10z"/>
<path d="M1946 2485 c-9 -26 -7 -32 5 -12 6 10 9 21 6 23 -2 3 -7 -2 -11 -11z"/>
<path d="M2906 2467 c3 -10 9 -15 12 -12 3 3 0 11 -7 18 -10 9 -11 8 -5 -6z"/>
<path d="M860 2456 c0 -2 7 -7 16 -10 8 -3 12 -2 9 4 -6 10 -25 14 -25 6z"/>
<path d="M1932 2425 c0 -16 2 -22 5 -12 2 9 2 23 0 30 -3 6 -5 -1 -5 -18z"/>
<path d="M2930 2442 c0 -6 5 -14 10 -17 6 -4 7 -11 4 -17 -4 -7 -2 -8 5 -4 9
6 9 12 -1 24 -7 10 -14 19 -15 21 -2 2 -3 -1 -3 -7z"/>
<path d="M850 2435 c0 -4 69 -45 77 -45 3 0 0 6 -6 14 -11 13 -71 40 -71 31z"/>
<path d="M1321 2384 c0 -11 3 -14 6 -6 3 7 2 16 -1 19 -3 4 -6 -2 -5 -13z"/>
<path d="M2969 2398 c-6 -12 -4 -46 2 -42 4 2 5 12 2 22 -5 15 -3 14 18 -3
l24 -20 -19 23 c-18 21 -24 25 -27 20z"/>
<path d="M4203 2340 c0 -36 2 -50 4 -32 2 17 2 47 0 65 -2 17 -4 3 -4 -33z"/>
<path d="M4458 2390 c-15 -5 -29 -5 -32 -2 -3 3 -6 0 -6 -7 0 -7 -5 -9 -12 -5
-7 4 -10 4 -6 0 4 -5 -2 -25 -13 -44 -26 -49 -24 -101 4 -143 31 -47 64 -61
108 -48 71 22 103 126 62 202 -9 18 -16 36 -15 40 1 5 -2 6 -7 3 -5 -4 -20 -2
-33 2 -12 5 -35 6 -50 2z m61 -26 c27 -19 51 -71 51 -112 0 -16 -12 -42 -28
-62 -50 -59 -119 -39 -143 41 -15 49 13 136 45 142 41 8 52 7 75 -9z"/>
<path d="M4457 2323 c-41 -46 -24 -123 28 -123 45 0 63 82 25 120 -25 25 -32
25 -53 3z m49 -49 c-3 -8 -2 -12 4 -9 6 3 10 2 10 -4 0 -5 -8 -15 -17 -20 -14
-8 -15 -11 -3 -11 12 0 11 -3 -3 -11 -25 -14 -42 2 -45 42 -3 39 24 65 46 43
8 -8 11 -21 8 -30z"/>
<path d="M1926 2323 c-6 -14 -5 -15 5 -6 7 7 10 15 7 18 -3 3 -9 -2 -12 -12z"/>
<path d="M3049 2328 c-5 -19 -8 -50 -4 -46 7 7 15 48 9 48 -2 0 -4 -1 -5 -2z"/>
<path d="M4889 2300 c10 -27 43 -92 51 -100 3 -3 14 -22 25 -42 11 -21 22 -38
25 -38 3 0 12 -15 19 -32 8 -18 21 -39 28 -47 8 -7 12 -20 9 -28 -3 -8 -2 -12
2 -9 12 7 45 -52 38 -69 -3 -9 0 -12 8 -9 9 3 22 -12 37 -43 13 -26 45 -82 71
-123 26 -41 48 -80 48 -85 0 -15 62 -67 69 -58 3 4 20 9 36 9 45 2 203 13 265
19 30 3 82 7 115 9 65 5 214 17 229 20 5 0 12 -10 16 -24 6 -24 7 -23 12 9 l5
34 -91 -6 c-50 -4 -208 -16 -351 -27 -231 -18 -261 -19 -271 -5 -6 8 -15 11
-19 7 -5 -4 -6 0 -3 8 3 8 -12 42 -33 75 -21 33 -57 94 -80 135 -23 41 -47 81
-53 89 -6 7 -24 37 -41 67 -69 122 -146 251 -160 269 -14 19 -15 19 -6 -5z"/>
<path d="M3080 2276 c6 -6 5 -15 -3 -25 -11 -14 -10 -14 5 -2 10 7 15 18 11
24 -4 6 0 8 11 4 9 -4 15 -3 11 2 -3 6 -14 9 -25 8 -13 -1 -16 -5 -10 -11z"/>
<path d="M5265 2279 c-55 -4 -137 -8 -182 -9 -46 -2 -83 -4 -83 -6 0 -1 29
-49 64 -106 35 -57 103 -170 151 -253 49 -82 90 -151 91 -153 2 -3 577 39 582
43 2 2 -5 16 -15 33 -32 55 -125 206 -159 259 -19 28 -34 54 -34 58 0 3 -8 18
-18 33 -11 15 -31 46 -47 70 l-28 42 -111 -2 c-61 0 -156 -4 -211 -9z m153
-17 c-9 -2 -20 -12 -23 -23 -6 -19 -8 -19 -31 -5 -13 9 -31 16 -40 16 -31 0
-5 14 39 20 42 6 91 -1 55 -8z m128 3 c-41 -14 -129 -9 -91 6 11 4 45 8 75 8
l55 0 -39 -14z m-267 -9 c-3 -3 -38 -8 -79 -12 -119 -10 -97 -17 31 -9 l116 7
21 -36 c12 -20 26 -36 32 -36 6 0 9 -4 6 -9 -3 -4 1 -17 9 -27 8 -10 15 -14
15 -8 0 6 -3 14 -7 18 -13 13 -11 35 3 29 13 -5 18 -17 15 -35 0 -5 4 -8 9 -8
6 0 10 -8 10 -18 0 -10 6 -19 13 -19 22 -1 41 -8 54 -19 6 -6 23 -9 36 -7 18
4 29 -2 41 -18 23 -34 20 -39 -23 -39 -33 0 -40 4 -51 29 -6 16 -19 32 -27 36
-13 4 -14 3 -3 -10 8 -9 8 -15 2 -15 -6 0 -14 9 -17 20 -4 11 -11 18 -16 15
-5 -4 -15 -3 -21 2 -7 4 -20 9 -28 11 -21 4 -142 2 -151 -4 -4 -2 -26 -5 -48
-6 -23 -1 -41 -5 -41 -10 0 -5 4 -7 9 -3 5 3 13 0 17 -6 5 -9 41 -10 130 -5
l122 7 32 -46 c18 -26 30 -48 28 -50 -1 -1 -59 -7 -128 -12 -110 -9 -127 -8
-138 6 -7 9 -17 15 -22 14 -5 -2 -7 3 -5 10 3 6 -4 26 -15 42 l-20 30 0 -28
c0 -16 4 -26 10 -22 6 3 10 -3 10 -15 0 -11 14 -34 30 -50 17 -16 30 -36 30
-45 0 -9 7 -18 15 -21 8 -4 15 -12 15 -20 0 -8 5 -14 11 -14 5 0 8 -4 5 -9 -3
-4 3 -19 14 -31 11 -13 20 -19 20 -14 0 5 15 9 33 10 61 2 208 22 215 29 4 4
-18 4 -49 1 -43 -5 -58 -4 -68 8 -20 24 88 34 122 11 14 -9 30 -17 34 -17 4 0
14 -3 21 -5 7 -3 25 -2 40 1 62 15 143 13 159 -2 14 -14 13 -16 -3 -22 -11 -4
-62 -10 -114 -14 -52 -3 -126 -9 -165 -12 -38 -3 -112 -9 -164 -13 l-93 -7
-23 36 c-46 72 -265 446 -265 452 0 3 52 6 116 6 64 1 119 3 122 6 3 3 8 4 10
1 3 -3 3 -7 1 -9z m324 -26 c25 -29 21 -37 -19 -42 -27 -3 -39 0 -50 16 -23
33 -17 46 19 46 20 0 39 -8 50 -20z m-107 -7 c22 -30 16 -43 -19 -43 -25 0
-39 7 -55 30 l-23 30 42 0 c28 0 46 -6 55 -17z m-92 -19 c8 -21 -12 -26 -23
-6 -7 14 -6 19 4 19 8 0 16 -6 19 -13z m246 -61 l22 -28 -38 -3 c-30 -3 -41 1
-56 20 -25 33 -23 38 16 38 26 0 40 -7 56 -27z m-97 -19 c10 -19 21 -33 26
-30 5 3 15 -2 22 -12 13 -15 12 -16 -3 -3 -10 7 -18 10 -18 5 0 -4 -5 -3 -12
4 -7 7 -27 12 -44 12 -23 0 -38 7 -48 22 -23 33 -20 38 22 38 34 0 40 -4 55
-36z m113 -39 c4 -8 10 -13 14 -10 8 5 40 -32 40 -46 0 -4 -16 -9 -35 -11 -28
-3 -38 1 -50 19 -20 29 -19 33 5 33 22 0 27 15 8 23 -10 4 -10 6 0 6 7 1 15
-6 18 -14z m-259 -1 c-3 -3 -12 -4 -19 -1 -8 3 -5 6 6 6 11 1 17 -2 13 -5z
m148 -113 c8 -16 11 -31 8 -35 -4 -3 1 -6 9 -6 9 0 18 -7 22 -15 7 -18 -1 -19
-18 -2 -10 9 -31 11 -74 7 -70 -6 -82 -4 -82 17 0 13 12 15 69 11 53 -3 68 -1
64 9 -3 7 -10 10 -16 6 -6 -4 -8 0 -4 9 3 9 0 21 -6 28 -9 10 -9 11 1 6 6 -4
19 -20 27 -35z m199 12 c3 -10 9 -24 12 -30 11 -24 -63 -16 -80 9 -19 27 -15
33 27 36 25 2 36 -2 41 -15z m-100 -15 c9 -12 16 -26 16 -30 0 -16 -67 -8 -82
10 -32 37 -31 42 11 42 30 0 44 -6 55 -22z m-246 -45 c3 -10 -14 -13 -62 -13
-53 0 -66 3 -66 15 0 13 11 15 62 13 38 -2 63 -8 66 -15z m402 -33 l21 -30
-42 0 c-28 0 -46 6 -55 18 -23 29 -16 42 20 42 27 0 39 -7 56 -30z m-240 5 c0
-12 -13 -15 -60 -15 -55 0 -70 6 -53 23 3 4 30 7 60 7 40 0 53 -4 53 -15z
m134 -10 c9 -13 16 -27 16 -30 0 -3 -23 -5 -50 -4 -34 2 -56 9 -67 21 -9 10
-11 18 -6 18 6 0 14 -7 17 -16 4 -9 9 -14 12 -11 3 3 1 15 -6 26 -10 20 -8 21
28 21 31 0 43 -5 56 -25z m-274 0 c7 -14 -113 -26 -122 -12 -4 6 -5 14 -3 17
6 10 120 6 125 -5z m29 -39 c10 -12 1 -15 -50 -21 -47 -6 -63 -4 -70 6 -6 10
-1 16 19 20 48 12 89 9 101 -5z"/>
<path d="M5093 2228 c-15 -20 -25 -38 -20 -38 3 0 12 11 21 25 17 26 16 35 -1
13z"/>
<path d="M5100 2206 c0 -5 9 -24 21 -42 11 -19 18 -38 14 -44 -3 -5 -2 -10 4
-10 15 0 25 21 14 29 -6 3 -20 22 -32 41 -11 19 -21 31 -21 26z"/>
<path d="M5080 2176 c0 -2 8 -10 18 -17 15 -13 16 -12 3 4 -13 16 -21 21 -21
13z"/>
<path d="M3137 2269 c7 -7 15 -10 18 -7 3 3 -2 9 -12 12 -14 6 -15 5 -6 -5z"/>
<path d="M1912 2245 c0 -16 2 -22 5 -12 2 9 2 23 0 30 -3 6 -5 -1 -5 -18z"/>
<path d="M3105 2250 c-3 -6 1 -7 9 -4 18 7 21 14 7 14 -6 0 -13 -4 -16 -10z"/>
<path d="M4592 2240 c0 -14 2 -19 5 -12 2 6 2 18 0 25 -3 6 -5 1 -5 -13z"/>
<path d="M5730 2251 c0 -6 4 -13 10 -16 6 -3 7 1 4 9 -7 18 -14 21 -14 7z"/>
<path d="M3518 2213 c-27 -14 -48 -30 -48 -35 0 -10 48 15 89 45 35 25 13 20
-41 -10z"/>
<path d="M1413 2018 c3 -119 10 -225 15 -235 8 -13 10 -7 7 27 -2 25 -6 128
-9 229 -3 101 -8 186 -12 190 -4 3 -4 -92 -1 -211z"/>
<path d="M3210 2205 c-13 -14 -20 -25 -16 -25 4 0 19 11 34 25 15 14 22 25 16
25 -6 0 -21 -11 -34 -25z"/>
<path d="M1222 2170 c0 -14 2 -19 5 -12 2 6 2 18 0 25 -3 6 -5 1 -5 -13z"/>
<path d="M3410 2160 c-25 -10 -48 -16 -52 -13 -5 2 -8 -1 -8 -6 0 -15 8 -14
63 5 26 9 47 20 47 25 0 5 -1 9 -2 8 -2 -1 -23 -9 -48 -19z"/>
<path d="M695 2140 c3 -5 8 -10 11 -10 2 0 4 5 4 10 0 6 -5 10 -11 10 -5 0 -7
-4 -4 -10z"/>
<path d="M3188 2128 c27 -10 132 -9 132 2 0 6 -31 9 -75 7 -41 -1 -67 -5 -57
-9z"/>
<path d="M519 2126 c-2 -3 -115 -8 -249 -12 -135 -3 -252 -11 -260 -16 -10 -6
0 -8 32 -5 34 3 46 1 41 -7 -5 -8 -3 -8 8 0 9 7 71 13 164 14 83 1 210 4 283
7 133 5 134 5 122 -16 -9 -18 -20 -21 -73 -21 -64 0 -386 -16 -514 -26 -53 -4
-73 -10 -73 -20 0 -7 23 -45 51 -83 30 -42 48 -75 43 -82 -4 -8 -3 -9 4 -5 15
9 66 -69 56 -85 -4 -7 -3 -10 3 -6 12 7 51 -43 178 -228 43 -64 82 -118 85
-120 7 -4 543 28 687 41 61 5 71 9 65 23 -3 9 -10 19 -16 23 -7 5 -7 10 -1 16
6 6 25 -13 52 -53 l42 -63 -82 -6 c-45 -3 -235 -15 -422 -26 l-340 -20 -23 27
c-12 16 -43 58 -70 96 -203 289 -312 438 -312 425 0 -8 18 -40 39 -71 22 -30
39 -57 38 -59 -1 -2 0 -2 2 0 3 1 12 -10 22 -25 14 -21 15 -31 7 -47 -8 -17
-8 -19 2 -9 15 13 40 6 40 -12 0 -6 9 -20 20 -30 15 -14 17 -21 9 -32 -9 -11
-8 -12 5 -7 10 4 18 0 23 -12 3 -11 19 -35 35 -54 15 -19 28 -40 28 -47 0 -7
4 -13 9 -13 14 0 53 -68 46 -80 -4 -6 -3 -10 2 -9 25 4 35 -3 30 -20 -3 -14
-1 -18 10 -14 8 3 13 0 11 -7 -4 -15 81 -17 217 -7 50 4 124 9 165 12 41 2
153 9 248 16 95 6 180 8 187 5 8 -3 16 0 19 7 2 7 4 2 2 -11 -1 -13 -9 -31
-17 -40 -10 -12 -14 -42 -13 -112 1 -52 2 -348 3 -657 1 -368 4 -563 11 -563
7 0 10 223 10 649 l0 648 25 47 c14 26 25 53 25 60 0 6 -49 82 -108 167 -59
85 -154 221 -211 303 l-104 149 -14 -27 c-13 -24 -12 -29 18 -66 25 -31 30
-43 21 -52 -7 -7 -12 -16 -12 -22 0 -5 6 -2 13 8 12 16 16 13 45 -28 18 -25
35 -46 38 -46 8 0 -16 41 -63 108 -51 73 -60 92 -44 92 6 0 11 -4 11 -9 0 -6
11 -22 25 -37 13 -14 22 -30 19 -35 -3 -5 -1 -9 3 -9 12 0 116 -151 116 -167
0 -7 3 -11 5 -8 7 7 31 -28 25 -38 -3 -4 -11 -3 -19 4 -8 6 -14 9 -14 6 0 -6
121 -183 139 -204 6 -7 11 -14 11 -16 0 -5 -113 -14 -270 -22 -58 -3 -121 -8
-140 -10 -19 -2 -101 -7 -181 -11 l-146 -6 -50 73 c-27 41 -100 145 -161 232
-62 87 -112 161 -112 164 0 3 15 -10 34 -30 18 -20 36 -33 40 -30 3 3 9 -2 12
-11 5 -14 9 -15 15 -4 7 11 11 10 19 -2 5 -8 10 -10 10 -5 0 6 14 11 30 11 17
1 30 -3 30 -9 0 -6 3 -7 7 -4 3 4 13 1 21 -6 13 -9 14 -9 8 1 -6 11 5 17 27
13 14 -2 7 17 -9 23 -8 3 -13 2 -10 -3 3 -5 -5 -8 -18 -8 -25 0 -26 15 -3 45
7 8 5 12 -7 12 -9 0 -16 -7 -16 -15 0 -18 -31 -35 -62 -35 -13 0 -46 14 -74
32 -27 18 -53 32 -58 33 -5 0 -11 6 -14 14 -3 9 0 11 8 6 9 -6 9 -3 0 15 -7
12 -10 37 -7 54 l6 31 -16 -35 -15 -35 -24 30 c-13 17 -24 34 -24 38 0 5 29 7
65 5 36 -2 65 -1 65 3 0 3 69 9 152 13 84 3 202 9 263 13 l109 6 -17 -26 c-17
-26 -17 -27 3 -27 14 0 20 7 20 23 0 12 3 39 6 60 l7 37 -80 0 c-44 0 -82 -2
-84 -4z m-122 -22 c-3 -3 -12 -4 -19 -1 -8 3 -5 6 6 6 11 1 17 -2 13 -5z
m-317 -165 c0 -6 -4 -7 -10 -4 -5 3 -10 11 -10 16 0 6 5 7 10 4 6 -3 10 -11
10 -16z m1011 -314 c-1 -3 8 -14 19 -25 11 -11 20 -27 20 -36 0 -8 5 -12 10
-9 6 3 10 -4 10 -16 0 -27 -2 -25 -64 64 -26 37 -44 72 -40 78 6 10 47 -41 45
-56z"/>
<path d="M1210 2121 c0 -6 4 -13 10 -16 6 -3 7 1 4 9 -7 18 -14 21 -14 7z"/>
<path d="M2970 2116 c0 -2 7 -7 16 -10 8 -3 12 -2 9 4 -6 10 -25 14 -25 6z"/>
<path d="M4218 2033 c7 -3 16 -2 19 1 4 3 -2 6 -13 5 -11 0 -14 -3 -6 -6z"/>
<path d="M4365 2030 c3 -5 8 -10 11 -10 2 0 4 5 4 10 0 6 -5 10 -11 10 -5 0
-7 -4 -4 -10z"/>
<path d="M150 1985 c-22 -65 32 -112 101 -89 21 8 46 11 55 7 11 -4 15 -2 11
4 -8 13 -77 23 -77 11 0 -13 -36 -3 -55 15 -13 13 -16 27 -12 53 7 44 -8 44
-23 -1z"/>
<path d="M589 1989 c-6 -12 -7 -19 -2 -16 6 4 20 -7 32 -23 15 -22 18 -30 8
-30 -8 0 -22 -9 -32 -20 -10 -11 -22 -17 -26 -14 -5 3 -9 1 -9 -4 0 -15 -65
-30 -85 -19 -13 7 -16 6 -11 -2 9 -14 1 -14 -27 0 -19 9 -19 8 3 -11 22 -18
23 -20 5 -18 -12 2 -21 -4 -23 -14 -3 -16 0 -15 35 2 21 11 63 30 93 43 30 13
66 33 79 44 l24 20 -19 41 c-22 47 -29 51 -45 21z"/>
<path d="M1213 1995 c-3 -9 -3 -18 -1 -21 3 -3 8 4 11 16 6 23 -1 27 -10 5z"/>
<path d="M348 1993 c-24 -6 -23 -13 12 -61 32 -45 54 -51 86 -27 19 15 19 16
-1 14 -43 -3 -55 2 -70 31 -8 16 -15 31 -15 35 0 9 39 5 45 -5 4 -6 11 -7 17
-4 25 16 -31 29 -74 17z"/>
<path d="M467 1980 c8 -30 58 -80 81 -80 11 0 25 7 32 15 11 13 7 15 -23 15
-26 0 -40 6 -51 22 -22 31 -20 36 12 41 19 3 15 4 -15 6 -37 1 -41 -1 -36 -19z"/>
<path d="M660 1981 c0 -11 4 -22 9 -25 4 -3 6 6 3 19 -5 30 -12 33 -12 6z"/>
<path d="M3163 1985 c0 -8 4 -12 9 -9 5 3 6 10 3 15 -9 13 -12 11 -12 -6z"/>
<path d="M4370 1958 c-3 -26 -1 -43 3 -39 5 5 7 26 5 47 l-3 39 -5 -47z"/>
<path d="M930 1945 c-7 -8 -11 -15 -9 -16 37 -7 40 -7 30 5 -6 7 -8 16 -4 19
3 4 4 7 1 7 -3 0 -11 -7 -18 -15z"/>
<path d="M793 1913 c-4 -21 -7 -57 -8 -80 0 -24 -3 -43 -7 -43 -5 0 -8 -6 -8
-13 0 -8 -9 -24 -20 -37 -19 -22 -19 -24 -3 -42 18 -20 32 -16 15 4 -11 14 3
41 26 46 15 3 16 -13 0 -37 -15 -25 -5 -47 33 -66 30 -16 33 -16 51 3 20 20
20 20 -6 15 -28 -6 -66 19 -66 44 0 22 47 15 64 -9 13 -18 16 -19 16 -6 0 24
-30 50 -51 45 -10 -3 -20 2 -23 10 -3 8 -11 11 -18 7 -8 -5 -9 -2 -4 12 5 10
10 43 11 72 2 28 7 56 10 62 11 18 14 50 5 50 -5 0 -12 -17 -17 -37z"/>
<path d="M3140 1891 c-8 -5 -168 -11 -355 -14 -187 -4 -403 -11 -480 -17 -157
-12 -318 -38 -310 -50 13 -22 328 -55 580 -62 l110 -3 -3 30 c-3 37 11 91 24
87 5 -1 7 -29 6 -62 l-4 -60 149 0 148 0 23 36 23 36 -21 -7 c-12 -4 -84 -7
-160 -8 -132 0 -139 -2 -143 -21 -2 -12 -4 -3 -4 19 l-1 40 169 -3 c167 -3
169 -3 206 23 37 25 77 32 99 17 16 -10 54 -74 54 -90 0 -10 -23 -13 -104 -10
-99 3 -104 2 -94 -16 8 -15 12 -16 19 -5 8 12 10 12 18 1 10 -16 124 -20 156
-6 31 14 30 63 -3 97 -22 24 -23 27 -6 19 11 -6 26 -17 31 -24 17 -20 303 -13
303 8 0 7 6 14 13 14 14 0 11 -108 -4 -126 -6 -8 -4 -14 6 -17 8 -4 14 -1 12
6 -1 8 21 14 65 18 42 3 75 12 86 22 22 21 38 22 45 4 6 -15 122 -24 130 -10
3 4 -21 7 -54 6 -43 -1 -59 2 -59 12 0 12 -21 25 -39 25 -4 0 -18 -9 -31 -20
-18 -16 -25 -17 -32 -8 -4 8 -8 9 -8 2 0 -6 -18 -11 -40 -11 -40 0 -48 9 -30
37 6 9 5 19 -3 29 -10 12 -13 5 -18 -35 l-6 -49 -1 47 c-2 53 8 63 70 67 32 2
38 -1 44 -23 3 -14 3 -29 0 -35 -4 -5 -2 -12 4 -16 6 -4 10 9 10 32 l0 39 54
0 c48 0 53 -2 43 -16 -9 -12 -9 -13 3 -2 8 6 37 12 66 12 l52 0 -3 -45 -3 -45
46 0 c115 1 366 36 357 50 -19 30 -355 59 -805 69 -190 5 -354 11 -365 15 -11
3 -27 2 -35 -3z m-360 -31 c0 -5 -5 -10 -11 -10 -5 0 -7 5 -4 10 3 6 8 10 11
10 2 0 4 -4 4 -10z m180 0 c0 -5 -19 -9 -42 -9 l-43 2 40 7 c22 4 41 8 43 9 1
0 2 -3 2 -9z m94 2 c2 -4 -10 -8 -27 -9 -30 -1 -30 -1 -7 7 14 4 26 8 27 9 1
1 4 -3 7 -7z m456 -6 c14 -2 -36 -3 -110 -3 -78 0 -114 3 -85 6 47 6 140 4
195 -3z m-851 -25 c-6 -15 -6 -28 0 -34 6 -6 5 -15 -4 -24 -11 -10 -30 -12
-77 -8 -35 3 -91 8 -124 10 -58 3 -103 7 -254 21 -36 4 -77 6 -92 6 -15 -1
-30 3 -33 8 -3 5 19 8 51 6 34 -2 51 0 43 5 -10 6 -7 9 11 10 14 0 52 2 85 4
33 2 121 6 195 10 74 4 137 9 139 11 3 2 19 3 37 2 30 -2 31 -4 23 -27z m1466
-2 c61 -6 124 -11 140 -11 53 1 4 -16 -61 -22 -32 -3 -68 -7 -79 -10 -23 -4
-109 -9 -142 -7 -18 1 -23 7 -23 29 0 35 4 40 33 36 12 -2 72 -8 132 -15z"/>
<path d="M2328 1803 c7 -3 16 -2 19 1 4 3 -2 6 -13 5 -11 0 -14 -3 -6 -6z"/>
<path d="M824 1865 c-20 -31 -15 -53 19 -79 29 -21 55 -16 66 15 4 12 2 12
-12 1 -37 -31 -85 26 -58 70 17 27 4 22 -15 -7z"/>
<path d="M3152 1848 c-5 -7 -13 -24 -17 -37 -11 -35 11 -18 23 19 12 32 10 37
-6 18z"/>
<path d="M5976 1841 c-4 -5 -2 -12 3 -15 5 -4 12 -2 15 3 4 5 2 12 -3 15 -5 4
-12 2 -15 -3z"/>
<path d="M382 1824 c-29 -20 -28 -35 4 -68 l27 -26 33 36 c41 43 45 58 6 21
-30 -29 -55 -28 -66 0 -4 9 1 24 10 34 21 23 16 24 -14 3z"/>
<path d="M994 1832 c4 -3 14 -7 22 -8 9 -1 13 0 10 4 -4 3 -14 7 -22 8 -9 1
-13 0 -10 -4z"/>
<path d="M257 1802 c-5 -7 -5 -21 -2 -32 7 -23 60 -54 75 -45 16 10 11 21 -11
22 -28 2 -47 20 -51 46 -2 16 -5 18 -11 9z"/>
<path d="M3065 1800 c-3 -6 1 -7 9 -4 18 7 21 14 7 14 -6 0 -13 -4 -16 -10z"/>
<path d="M3277 1796 c-3 -8 -1 -18 5 -22 7 -4 8 -3 4 4 -4 7 -1 12 9 12 8 0
21 -11 27 -25 11 -25 13 -25 130 -25 l118 0 0 30 0 30 -129 0 c-71 0 -136 3
-144 6 -8 3 -17 -2 -20 -10z m163 -28 c3 -3 24 -3 47 1 28 6 43 4 46 -3 3 -8
-25 -11 -91 -11 -54 0 -97 4 -99 10 -3 11 89 14 97 3z"/>
<path d="M716 1787 c3 -10 9 -15 12 -12 3 3 0 11 -7 18 -10 9 -11 8 -5 -6z"/>
<path d="M342 1765 c6 -14 13 -24 14 -22 6 6 -9 47 -17 47 -5 0 -3 -11 3 -25z"/>
<path d="M1925 1781 c-3 -5 -2 -12 3 -15 5 -3 9 1 9 9 0 17 -3 19 -12 6z"/>
<path d="M643 1760 c-47 -21 -50 -27 -29 -55 8 -11 11 -26 8 -34 -3 -8 -1 -12
5 -8 6 4 13 0 17 -8 7 -19 -34 -21 -52 -3 -16 16 -15 45 1 51 6 2 9 8 4 13 -8
8 -42 -33 -42 -51 -1 -35 -42 -46 -70 -19 -11 11 -20 13 -26 7 -7 -7 -2 -17
17 -32 34 -27 40 -26 67 3 23 24 23 24 47 5 30 -22 44 -24 59 -5 8 9 8 21 2
39 -8 20 -6 29 9 42 20 18 44 75 32 75 -4 0 -26 -9 -49 -20z m21 -24 c-3 -9
-13 -16 -21 -16 -8 0 -11 -4 -8 -10 3 -5 2 -10 -3 -10 -18 0 -21 28 -4 36 9 4
20 6 25 6 4 -1 7 3 7 10 0 6 2 9 5 6 3 -3 3 -13 -1 -22z"/>
<path d="M966 1755 c9 -14 19 -24 21 -21 7 7 -16 46 -28 46 -5 0 -2 -11 7 -25z"/>
<path d="M511 1728 c-34 -36 -38 -48 -17 -48 12 0 66 60 66 74 0 15 -22 3 -49
-26z"/>
<path d="M920 1745 c0 -8 4 -15 10 -15 5 0 7 7 4 15 -4 8 -8 15 -10 15 -2 0
-4 -7 -4 -15z"/>
<path d="M1066 1747 c3 -10 9 -15 12 -12 3 3 0 11 -7 18 -10 9 -11 8 -5 -6z"/>
<path d="M3756 1742 c-2 -4 4 -9 15 -9 10 -1 19 2 19 8 0 11 -27 12 -34 1z"/>
<path d="M3288 1733 c7 -3 16 -2 19 1 4 3 -2 6 -13 5 -11 0 -14 -3 -6 -6z"/>
<path d="M901 1710 c0 -14 3 -30 7 -36 12 -19 50 -34 66 -28 19 7 21 26 4 23
-32 -4 -46 3 -61 34 -15 30 -16 31 -16 7z"/>
<path d="M1958 1723 c7 -3 16 -2 19 1 4 3 -2 6 -13 5 -11 0 -14 -3 -6 -6z"/>
<path d="M353 1705 c0 -7 12 -17 26 -20 14 -4 35 -14 45 -23 11 -9 16 -11 12
-4 -4 7 -2 20 5 28 6 8 8 18 4 22 -4 4 -10 1 -12 -5 -3 -7 -9 -13 -15 -13 -6
0 -8 7 -4 15 6 17 -9 21 -19 5 -4 -6 -13 -7 -24 -1 -13 7 -18 6 -18 -4z"/>
<path d="M1861 1694 c0 -11 3 -14 6 -6 3 7 2 16 -1 19 -3 4 -6 -2 -5 -13z"/>
<path d="M340 1657 c0 -30 29 -57 61 -57 24 0 49 16 49 32 0 14 -18 9 -22 -6
-5 -24 -68 7 -68 34 0 11 -4 20 -10 20 -5 0 -10 -11 -10 -23z"/>
<path d="M682 1667 c-9 -10 -4 -17 19 -31 26 -16 35 -16 55 -5 31 16 31 27 -1
21 -16 -3 -33 2 -44 12 -15 14 -20 14 -29 3z"/>
<path d="M2414 1480 c0 -113 2 -159 3 -102 2 56 2 148 0 205 -1 56 -3 10 -3
-103z"/>
<path d="M675 1610 c-4 -6 -3 -9 2 -8 4 2 8 -1 8 -7 0 -5 -3 -9 -7 -7 -5 1 -8
-2 -8 -8 0 -5 6 -10 14 -10 8 0 23 -3 33 -6 17 -5 17 -5 0 6 -9 6 -15 15 -12
19 2 5 -2 14 -9 20 -10 9 -16 9 -21 1z"/>
<path d="M1043 1586 c15 -14 31 -26 34 -26 10 0 -20 31 -41 42 -15 8 -13 3 7
-16z"/>
<path d="M548 1583 c-8 -9 -7 -13 3 -13 8 0 26 -7 42 -14 25 -14 40 -5 16 9
-6 4 -8 12 -6 19 6 15 -42 14 -55 -1z"/>
<path d="M868 1574 c-11 -24 -9 -29 15 -50 28 -24 61 -31 71 -15 3 5 -8 11
-24 15 -29 5 -61 48 -47 62 13 13 57 -8 71 -34 18 -32 20 -26 5 17 -9 27 -16
31 -45 31 -27 0 -37 -5 -46 -26z"/>
<path d="M982 1582 c-11 -19 -10 -25 12 -47 14 -14 34 -25 44 -25 21 0 49 27
38 37 -3 3 -6 1 -6 -5 0 -16 -45 -15 -58 1 -5 6 -12 23 -14 37 l-3 25 -13 -23z"/>
<path d="M3148 1558 c-3 -24 -2 -70 2 -103 6 -55 7 -52 9 43 1 108 -3 130 -11
60z"/>
<path d="M5305 800 c0 -443 1 -624 2 -403 2 222 2 584 0 805 -1 222 -2 41 -2
-402z"/>
<path d="M5985 805 c0 -440 1 -619 2 -397 2 222 2 582 0 800 -1 218 -2 37 -2
-403z"/>
<path d="M642 1567 c-6 -6 -13 -24 -17 -40 -10 -38 -49 -37 -74 3 -10 16 -21
27 -24 23 -27 -26 23 -74 74 -71 32 3 36 6 33 25 -4 22 -4 22 23 -3 27 -25 64
-27 88 -3 7 7 1 8 -16 4 -31 -8 -69 20 -72 53 -2 26 -1 26 -15 9z"/>
<path d="M755 1566 c-10 -23 3 -46 38 -66 25 -14 28 -13 49 9 l23 23 -23 -12
c-29 -14 -68 8 -75 42 -3 21 -4 22 -12 4z"/>
<path d="M425 1550 c-16 -18 -16 -21 -2 -44 20 -30 50 -41 74 -27 16 9 15 10
-7 11 -15 0 -31 5 -38 12 -16 16 -16 62 0 52 7 -4 8 -3 4 4 -9 16 -10 15 -31
-8z"/>
<path d="M731 1534 c0 -11 3 -14 6 -6 3 7 2 16 -1 19 -3 4 -6 -2 -5 -13z"/>
<path d="M2005 1430 c-3 -6 1 -7 9 -4 18 7 21 14 7 14 -6 0 -13 -4 -16 -10z"/>
<path d="M4374 1432 c3 -5 1 -12 -6 -14 -8 -3 -9 -6 -1 -11 6 -4 13 0 17 8 3
8 0 17 -6 21 -6 4 -8 3 -4 -4z"/>
<path d="M4320 1380 c-12 -17 -19 -34 -16 -37 3 -4 6 0 6 8 1 11 4 10 14 -3 7
-9 21 -16 32 -16 26 2 29 40 5 62 -18 16 -20 16 -41 -14z m40 -10 c0 -11 -7
-20 -15 -20 -17 0 -18 2 -9 24 9 23 24 20 24 -4z"/>
<path d="M568 1393 c7 -3 16 -2 19 1 4 3 -2 6 -13 5 -11 0 -14 -3 -6 -6z"/>
<path d="M2074 1390 c-31 -12 -37 -47 -11 -65 26 -18 35 -19 52 -2 10 11 10
19 -1 45 -7 18 -14 32 -16 31 -2 0 -13 -4 -24 -9z m26 -33 c0 -14 -6 -24 -15
-24 -15 0 -21 28 -8 40 13 14 23 6 23 -16z"/>
<path d="M4213 1382 c-13 -8 -13 -76 0 -89 5 -4 5 1 1 11 -6 16 -4 17 11 8 20
-11 36 -1 48 31 14 37 -24 62 -60 39z m42 -28 c0 -10 -8 -20 -17 -22 -18 -3
-26 27 -11 42 12 11 28 0 28 -20z"/>
<path d="M3151 1363 c-1 -12 -9 -24 -21 -28 -26 -8 -26 -46 0 -63 17 -10 24
-10 40 1 11 8 17 17 13 20 -3 4 0 7 7 7 10 0 9 4 -3 13 -10 6 -21 26 -26 42
-7 24 -9 25 -10 8z m15 -72 c-9 -13 -16 -14 -35 -2 -12 8 -13 12 -1 26 12 14
15 14 28 1 8 -8 11 -19 8 -25z"/>
<path d="M1801 1354 c0 -11 3 -14 6 -6 3 7 2 16 -1 19 -3 4 -6 -2 -5 -13z"/>
<path d="M2280 1349 c0 -5 5 -7 10 -4 6 3 10 8 10 11 0 2 -4 4 -10 4 -5 0 -10
-5 -10 -11z"/>
<path d="M3714 1335 c-7 -30 10 -54 34 -50 9 2 20 4 23 4 14 2 18 33 6 51 -18
29 -55 26 -63 -5z m46 -15 c0 -21 -24 -28 -35 -10 -8 14 3 30 21 30 8 0 14 -9
14 -20z"/>
<path d="M2652 1334 c-23 -17 -6 -69 23 -69 27 0 50 46 29 58 -8 5 -12 12 -10
16 8 12 -23 9 -42 -5z m37 -18 c9 -10 8 -16 -4 -26 -19 -16 -41 1 -32 24 8 20
21 20 36 2z"/>
<path d="M360 1310 c0 -5 5 -10 10 -10 6 0 10 5 10 10 0 6 -4 10 -10 10 -5 0
-10 -4 -10 -10z"/>
<path d="M1080 1310 l-45 -7 42 -1 c23 -1 45 3 48 8 3 6 5 9 3 8 -2 0 -23 -4
-48 -8z"/>
<path d="M893 1293 c9 -2 25 -2 35 0 9 3 1 5 -18 5 -19 0 -27 -2 -17 -5z"/>
<path d="M2430 1291 c0 -6 4 -13 10 -16 6 -3 7 1 4 9 -7 18 -14 21 -14 7z"/>
<path d="M668 1283 c17 -2 47 -2 65 0 17 2 3 4 -33 4 -36 0 -50 -2 -32 -4z"/>
<path d="M465 1270 c-14 -7 -8 -8 20 -3 22 3 42 7 44 9 9 8 -45 2 -64 -6z"/>
<path d="M2548 1273 c7 -3 16 -2 19 1 4 3 -2 6 -13 5 -11 0 -14 -3 -6 -6z"/>
<path d="M351 635 c-1 -349 1 -635 6 -635 4 0 9 286 10 635 1 349 -1 635 -6
635 -4 0 -9 -286 -10 -635z"/>
<path d="M408 1263 c7 -3 16 -2 19 1 4 3 -2 6 -13 5 -11 0 -14 -3 -6 -6z"/>
<path d="M2241 1227 c9 -7 14 -19 12 -27 -4 -13 -3 -13 6 0 15 22 14 27 -11
33 -20 5 -21 4 -7 -6z"/>
<path d="M2811 1162 c1 -44 -3 -86 -7 -94 -5 -8 -35 -36 -66 -62 -58 -46 -58
-46 -56 -19 1 16 8 34 15 41 9 9 9 18 -3 40 -16 32 -20 87 -4 62 7 -11 8 -5 3
19 -4 21 -2 32 4 28 5 -3 15 2 23 13 7 10 19 16 26 13 6 -2 15 1 20 8 5 9 -3
10 -36 5 -24 -4 -47 -9 -52 -12 -4 -3 -8 -61 -8 -128 0 -110 -2 -124 -17 -127
-10 -2 -96 -3 -190 -1 l-173 3 0 99 c0 109 5 103 -62 78 l-28 -10 0 -559 c0
-366 3 -559 10 -559 14 0 17 1061 4 1082 -8 13 41 9 53 -3 9 -9 8 -15 -3 -26
-10 -10 -11 -19 -4 -33 14 -26 13 -42 -2 -35 -7 4 -5 0 5 -8 10 -9 17 -19 15
-24 -2 -4 8 -10 21 -11 19 -3 21 -6 10 -13 -10 -7 -5 -8 14 -3 30 7 37 -11 15
-35 -11 -11 -10 -13 0 -7 10 6 11 -53 6 -286 -3 -161 -1 -363 4 -448 8 -131 9
-83 11 319 l1 473 24 -6 c14 -3 96 -8 183 -11 l158 -5 23 35 c12 19 22 38 22
42 0 5 8 18 18 30 l17 23 413 0 c226 1 412 4 412 8 0 4 -169 6 -376 4 -308 -3
-378 -2 -385 9 -6 10 -9 11 -9 2 0 -27 -25 -11 -27 17 -1 17 1 29 6 26 4 -3 4
17 1 45 -8 58 -29 52 192 53 93 1 148 -3 148 -9 0 -5 4 -4 8 2 6 9 71 13 247
16 154 1 90 3 -177 5 -229 1 -424 5 -432 8 -14 6 -16 -4 -15 -74z m-531 -122
c0 -5 -5 -10 -11 -10 -5 0 -7 5 -4 10 3 6 8 10 11 10 2 0 4 -4 4 -10z m420 6
c0 -3 -4 -8 -10 -11 -5 -3 -10 -1 -10 4 0 6 5 11 10 11 6 0 10 -2 10 -4z m40
-75 c0 -5 -13 -16 -30 -25 -38 -18 -39 -6 -2 16 32 21 32 21 32 9z"/>
<path d="M3686 1225 c4 -10 10 -12 18 -6 6 5 22 11 36 14 16 3 11 5 -17 6 -34
1 -41 -2 -37 -14z"/>
<path d="M3883 1233 c9 -2 23 -2 30 0 6 3 -1 5 -18 5 -16 0 -22 -2 -12 -5z"/>
<path d="M2310 1084 l0 -117 23 20 c12 11 44 35 71 53 l49 33 98 -6 99 -6 0
62 0 63 -162 3 c-90 1 -166 5 -170 7 -5 3 -8 -48 -8 -112z m99 50 c39 -57 39
-70 0 -66 -4 1 -15 -8 -24 -18 -10 -11 -24 -20 -32 -20 -7 0 -14 -6 -15 -12
-1 -7 -4 16 -7 52 -4 39 -2 68 4 72 6 5 5 8 -2 8 -7 0 -13 4 -13 9 0 5 10 7
23 4 18 -4 19 -3 7 6 -13 9 -11 11 7 11 15 0 31 -15 52 -46z m187 27 c25 -1
30 -5 30 -26 0 -14 -4 -25 -9 -25 -4 0 -6 -4 -3 -9 3 -5 -30 -9 -75 -9 -65 -1
-80 2 -75 13 3 9 0 12 -9 8 -12 -4 -35 30 -35 52 0 2 33 2 73 0 39 -2 86 -4
103 -4z"/>
<path d="M2488 1103 c7 -3 16 -2 19 1 4 3 -2 6 -13 5 -11 0 -14 -3 -6 -6z"/>
<path d="M4308 1093 c12 -2 30 -2 40 0 9 3 -1 5 -23 4 -22 0 -30 -2 -17 -4z"/>
<path d="M4120 1080 c-41 -6 -42 -7 -10 -8 19 0 58 3 85 8 47 7 48 7 10 7 -22
0 -60 -3 -85 -7z"/>
<path d="M3880 1070 c-40 -6 -36 -7 27 -7 40 0 70 4 67 9 -6 9 -27 8 -94 -2z"/>
<path d="M4018 1073 c6 -2 18 -2 25 0 6 3 1 5 -13 5 -14 0 -19 -2 -12 -5z"/>
<path d="M2639 1018 c-1 -7 -1 -16 0 -20 1 -6 -125 -12 -261 -12 -9 0 -15 -3
-13 -6 3 -4 68 -8 145 -9 l140 -2 0 31 c0 29 -9 43 -11 18z"/>
<path d="M3255 510 c0 -283 1 -399 2 -258 2 142 2 374 0 515 -1 142 -2 26 -2
-257z"/>
<path d="M2488 1003 c6 -2 18 -2 25 0 6 3 1 5 -13 5 -14 0 -19 -2 -12 -5z"/>
<path d="M2622 453 c1 -361 3 -428 9 -318 10 167 7 775 -3 775 -5 0 -7 -206
-6 -457z"/>
<path d="M1347 869 c4 -13 8 -18 11 -10 2 7 -1 18 -6 23 -8 8 -9 4 -5 -13z"/>
<path d="M3633 552 c0 -183 1 -332 2 -330 8 8 13 382 7 513 -6 125 -8 93 -9
-183z"/>
<path d="M3960 780 c0 -33 4 -60 10 -60 6 0 10 27 10 60 0 33 -4 60 -10 60 -6
0 -10 -27 -10 -60z"/>
<path d="M3662 680 c0 -19 2 -27 5 -17 2 9 2 25 0 35 -3 9 -5 1 -5 -18z"/>
<path d="M5334 450 c0 -124 2 -174 3 -112 2 61 2 163 0 225 -1 61 -3 11 -3
-113z"/>
<path d="M1527 639 c7 -7 15 -10 18 -7 3 3 -2 9 -12 12 -14 6 -15 5 -6 -5z"/>
<path d="M1605 630 c-3 -5 -1 -10 4 -10 6 0 11 5 11 10 0 6 -2 10 -4 10 -3 0
-8 -4 -11 -10z"/>
<path d="M2163 600 c0 -25 2 -35 4 -22 2 12 2 32 0 45 -2 12 -4 2 -4 -23z"/>
<path d="M3894 480 c0 -91 2 -128 3 -82 2 45 2 119 0 165 -1 45 -3 8 -3 -83z"/>
<path d="M1580 611 c0 -5 5 -13 10 -16 6 -3 10 -2 10 4 0 5 -4 13 -10 16 -5 3
-10 2 -10 -4z"/>
<path d="M3662 425 c0 -16 2 -22 5 -12 2 9 2 23 0 30 -3 6 -5 -1 -5 -18z"/>
<path d="M3961 344 c1 -54 5 -137 9 -184 5 -58 6 -27 3 95 -6 193 -14 252 -12
89z"/>
<path d="M3273 240 c0 -47 2 -66 4 -42 2 23 2 61 0 85 -2 23 -4 4 -4 -43z"/>
</g>
</svg>
