<?xml version="1.0" standalone="no"?>
<!DOCTYPE svg PUBLIC "-//W3C//DTD SVG 20010904//EN"
 "http://www.w3.org/TR/2001/REC-SVG-20010904/DTD/svg10.dtd">
<svg version="1.0" xmlns="http://www.w3.org/2000/svg"
 width="600.000000pt" height="478.000000pt" viewBox="0 0 600.000000 478.000000"
 preserveAspectRatio="xMidYMid meet">
<g transform="translate(0.000000,478.000000) scale(0.100000,-0.100000)"
fill="#000000" stroke="none">
<path d="M3525 4450 c-3 -5 -1 -10 4 -10 6 0 11 5 11 10 0 6 -2 10 -4 10 -3 0
-8 -4 -11 -10z"/>
<path d="M3343 4421 c-46 -5 -56 -11 -82 -46 -31 -41 -41 -65 -18 -47 6 5 49
29 95 52 79 40 96 52 70 48 -7 -1 -36 -4 -65 -7z"/>
<path d="M3593 4422 c-29 -3 -33 -7 -38 -40 -2 -20 -31 -115 -62 -211 l-58
-174 -65 -58 c-36 -32 -110 -90 -165 -128 l-100 -70 -72 -183 -72 -183 41 45
c145 156 261 272 255 255 -3 -11 -22 -72 -43 -136 -35 -111 -36 -121 -29 -203
4 -48 9 -85 11 -83 3 3 9 51 14 108 10 119 19 169 30 169 4 0 8 12 8 27 0 15
4 29 10 31 6 2 8 10 5 18 -3 8 0 14 6 14 6 0 9 13 5 33 -2 17 -5 38 -6 45 -1
6 -6 12 -11 12 -5 0 -3 8 4 18 11 14 9 13 -9 -2 -12 -11 -20 -21 -18 -23 6 -6
-96 -98 -105 -96 -5 2 -6 -4 -3 -12 4 -9 0 -15 -10 -15 -9 0 -16 -7 -16 -16 0
-11 -5 -14 -16 -10 -11 4 -15 2 -11 -8 3 -8 -4 -22 -16 -33 -18 -15 -19 -15
-8 -1 7 10 11 23 9 30 -3 7 2 19 11 26 9 8 11 11 4 8 -8 -5 -7 2 2 21 19 38
37 85 41 103 2 8 13 23 26 33 13 10 36 29 52 43 15 13 43 31 62 40 19 9 34 21
34 26 0 6 7 7 16 4 11 -4 15 -2 11 8 -4 11 -1 13 10 9 12 -5 14 -3 8 7 -6 10
-4 12 9 7 9 -4 15 -3 12 2 -8 13 30 43 49 39 11 -2 19 4 20 15 2 9 -1 15 -6
11 -5 -3 -6 -10 -3 -16 5 -7 2 -8 -6 -3 -10 6 -5 15 17 34 35 30 53 60 53 91
0 13 4 19 12 14 6 -4 8 -3 5 3 -4 6 0 27 8 47 17 40 31 49 19 14 -11 -34 -11
-61 -2 -80 7 -15 16 -56 33 -148 3 -14 9 -46 13 -72 6 -29 6 -50 0 -56 -6 -6
-6 -12 1 -16 6 -4 11 -24 11 -45 0 -62 20 -150 45 -196 12 -24 20 -46 16 -48
-3 -2 -1 -3 5 -1 6 1 16 -2 21 -7 6 -6 19 2 36 21 15 16 23 30 19 30 -5 0 10
21 34 46 28 29 48 43 56 38 7 -4 10 -4 6 0 -3 4 3 19 15 32 20 23 25 24 164
24 86 0 143 4 143 10 0 5 7 7 15 4 8 -4 12 -10 9 -15 -3 -5 7 -4 21 1 34 13
48 4 32 -20 -17 -28 -75 -48 -124 -42 -42 4 -66 -10 -90 -52 -10 -18 -112 -50
-150 -48 -13 1 -23 -3 -23 -8 0 -7 -7 -7 -21 1 -15 8 -19 8 -15 0 10 -15 -7
-14 -23 2 -11 9 -12 9 -7 0 8 -14 -10 -54 -30 -66 -8 -4 -14 -14 -14 -22 0 -8
-5 -17 -12 -21 -7 -5 -8 -2 -3 7 5 8 4 11 0 6 -12 -10 -14 -47 -3 -47 4 0 15
-18 24 -40 9 -22 20 -38 24 -35 12 7 50 -44 50 -66 0 -11 -4 -19 -10 -19 -5 0
-10 4 -10 9 0 5 -15 12 -32 16 -18 3 -52 11 -76 17 -32 8 -46 8 -55 -1 -22
-22 -29 -10 -24 42 4 53 2 62 -40 156 -13 30 -22 60 -19 68 3 8 2 12 -3 9 -10
-6 -21 26 -21 62 0 13 -4 20 -10 17 -5 -3 -12 4 -15 17 -7 33 -2 118 8 118 5
0 7 8 6 18 -1 9 -1 26 0 37 1 17 3 18 11 5 6 -9 10 -10 10 -3 0 6 -5 15 -11
19 -6 3 -9 17 -6 30 2 14 -1 25 -10 28 -8 3 -11 11 -8 17 4 6 -3 5 -16 -3 -24
-13 -41 -32 -39 -44 1 -4 -2 -10 -7 -13 -5 -3 -24 -33 -43 -65 l-34 -60 14
-165 c7 -92 12 -185 11 -209 -1 -25 3 -41 8 -38 5 4 8 -5 7 -19 -2 -14 1 -22
7 -18 13 8 28 -19 18 -32 -11 -13 -20 -135 -9 -129 4 3 6 -21 6 -52 -2 -42 2
-58 14 -65 9 -5 19 -28 23 -51 6 -36 9 -40 20 -25 7 9 17 17 23 17 6 0 14 4
17 10 4 7 -3 7 -19 0 -37 -14 -33 3 11 45 35 34 50 44 39 26 -3 -5 4 -11 16
-14 16 -5 19 -9 10 -19 -16 -19 79 -14 110 5 26 18 143 34 118 18 -10 -7 -11
-11 -2 -11 18 0 15 -38 -5 -49 -17 -10 -17 -10 0 -11 9 0 17 -4 17 -9 0 -5
-15 -9 -32 -9 -60 1 -101 -11 -137 -40 l-36 -29 4 -165 c3 -163 3 -164 -23
-202 -14 -21 -26 -48 -26 -60 0 -17 -2 -18 -10 -6 -5 8 -10 10 -10 4 0 -7 -9
-14 -20 -17 -11 -3 -20 -1 -20 4 0 5 3 9 8 9 4 0 8 35 9 78 1 42 3 95 6 117
17 165 19 235 7 250 -10 12 -16 13 -27 4 -7 -7 -17 -9 -20 -5 -4 4 -1 11 7 16
11 7 12 10 2 10 -8 0 -10 5 -6 13 6 8 3 8 -9 -2 -11 -9 -14 -18 -8 -30 7 -11
2 -24 -14 -44 -24 -27 -43 -37 -29 -15 5 7 3 8 -5 4 -7 -5 -10 -15 -7 -23 4
-10 2 -13 -8 -10 -10 4 -13 1 -9 -9 3 -7 1 -14 -4 -14 -6 0 -15 -12 -21 -26
-7 -14 -17 -22 -23 -18 -8 5 -9 2 -2 -11 7 -11 7 -34 0 -64 -5 -25 -9 -54 -9
-64 1 -15 -5 -13 -34 12 -36 32 -50 39 -38 20 4 -6 -1 -10 -12 -8 -33 4 -56
-13 -75 -55 -10 -23 -19 -38 -19 -33 0 4 -11 0 -25 -9 -13 -8 -28 -13 -33 -10
-5 3 -18 -1 -28 -10 -18 -14 -17 -14 6 -3 20 9 23 9 13 -1 -6 -7 -23 -14 -38
-15 -23 -3 -25 -1 -13 13 26 33 36 41 43 34 5 -4 5 -2 2 5 -4 6 -4 18 -1 27 5
14 9 14 22 4 13 -11 14 -10 4 9 -14 25 -5 34 27 28 12 -2 19 0 16 6 -4 5 -11
6 -17 3 -7 -4 -8 -2 -4 4 5 9 13 9 28 1 16 -9 19 -8 13 2 -6 9 -3 11 8 6 12
-4 14 -2 10 10 -4 10 -2 14 4 10 6 -4 18 0 26 8 9 8 22 15 29 15 18 0 96 83
139 147 19 29 41 55 50 58 24 8 16 38 -25 92 l-38 50 -111 6 c-62 4 -148 7
-192 7 l-80 0 -65 123 c-36 67 -66 127 -68 132 -2 7 54 6 165 -2 92 -6 169
-10 171 -8 2 2 -1 12 -7 23 -6 11 -8 34 -5 51 8 37 12 36 -206 50 -91 6 -184
17 -208 23 -35 10 -75 8 -248 -13 l-207 -25 -80 23 c-46 13 -106 23 -143 23
l-64 0 0 53 c0 30 -7 76 -15 103 -15 49 -11 169 5 179 4 3 59 18 121 34 l113
29 -135 65 -136 64 -6 78 c-5 65 -14 95 -54 181 l-47 103 -96 44 c-52 25 -127
52 -165 61 l-70 16 -79 -30 c-62 -24 -105 -52 -205 -132 l-126 -101 -7 -56
c-4 -31 -12 -95 -19 -142 l-12 -87 27 -35 c33 -42 43 -95 25 -128 -21 -40 -11
-108 28 -192 26 -56 46 -83 70 -98 l33 -21 -59 -44 c-32 -24 -69 -59 -82 -78
-17 -25 -70 -61 -195 -132 l-172 -97 -57 -136 c-48 -112 -63 -162 -86 -286
-34 -182 -34 -185 -8 -460 l22 -220 108 -220 107 -220 -51 -55 c-49 -52 -57
-56 -147 -81 -52 -14 -95 -30 -95 -35 0 -5 4 -78 8 -162 6 -127 11 -161 29
-195 11 -23 36 -81 54 -131 l33 -89 -35 -69 c-19 -39 -34 -71 -32 -73 8 -7
420 -96 425 -92 2 3 -10 8 -27 12 -17 4 -33 12 -36 19 -3 7 8 41 24 76 l28 63
45 -94 c41 -85 49 -95 75 -97 16 -1 101 -15 189 -30 145 -24 181 -27 380 -25
237 2 546 33 728 74 205 45 391 97 415 115 6 4 -39 85 -58 104 -20 20 -19 20
24 60 24 22 76 90 117 151 72 110 73 111 89 88 8 -13 34 -47 58 -75 39 -49 41
-55 30 -81 -7 -15 -20 -39 -30 -52 -19 -25 -23 -67 -9 -90 7 -11 17 -11 61 -1
28 7 54 19 57 27 11 29 -11 68 -44 78 l-32 11 40 46 c37 44 41 46 67 36 42
-19 63 -43 49 -58 -9 -10 -9 -11 1 -6 6 4 12 5 12 2 0 -3 -10 -10 -21 -17 -17
-9 -20 -8 -13 3 6 10 4 10 -10 -1 -21 -18 -37 -4 -39 33 -2 33 -21 28 -25 -6
-2 -18 5 -32 24 -47 31 -24 59 -21 87 11 39 45 2 116 -54 104 -16 -3 -29 -4
-29 -2 0 2 21 25 48 52 26 27 67 71 91 97 23 27 44 47 46 45 1 -2 -15 -55 -36
-118 -21 -63 -38 -129 -39 -146 0 -18 -7 -44 -15 -60 -8 -15 -12 -30 -10 -33
3 -2 56 15 119 38 l115 43 7 45 c4 28 2 49 -5 56 -6 6 -11 24 -11 39 0 26 3
28 41 28 38 0 42 -2 56 -40 9 -22 20 -40 25 -40 6 0 24 10 41 22 18 12 33 22
35 23 1 1 5 12 7 25 4 21 1 22 -48 18 -37 -2 -59 2 -76 14 -14 10 -29 14 -35
9 -14 -11 -46 -10 -46 1 0 7 24 12 57 11 7 -1 10 3 7 8 -3 5 2 12 10 15 9 3
16 12 16 19 0 14 79 62 108 67 13 2 16 -3 14 -22 -2 -14 1 -20 5 -15 10 12 57
20 50 8 -3 -4 14 -8 36 -9 23 0 93 -4 155 -9 92 -7 115 -5 130 6 10 9 36 14
64 14 27 -1 44 3 41 8 -3 5 0 8 8 5 7 -2 14 -16 14 -30 2 -29 -32 -52 -60 -42
-8 4 -15 2 -15 -3 0 -12 -108 -43 -147 -43 -23 0 -25 -2 -13 -11 11 -8 5 -9
-25 -5 -31 4 -35 3 -20 -4 16 -8 11 -9 -20 -5 -28 3 -35 2 -25 -5 12 -8 10
-10 -10 -11 -14 -1 -28 -1 -32 0 -5 0 -8 -3 -8 -8 0 -5 -17 -12 -37 -16 -21
-4 -43 -11 -50 -17 -7 -5 -17 -7 -23 -3 -5 3 -10 1 -10 -5 0 -7 -8 -9 -21 -5
-16 5 -19 4 -14 -6 6 -9 2 -11 -13 -7 -12 4 -20 2 -17 -3 4 -5 -7 -6 -22 -3
-22 4 -36 -2 -68 -31 -22 -19 -33 -34 -25 -33 8 2 107 33 220 70 113 36 230
73 260 81 192 54 199 57 223 98 12 21 27 41 34 43 6 3 53 35 104 72 75 54 95
65 108 55 46 -33 61 -35 89 -14 29 21 39 61 24 90 -9 15 2 27 67 74 74 55 81
57 157 64 43 4 87 12 97 17 24 12 22 -7 -3 -25 -49 -34 -373 -337 -367 -343 2
-2 64 9 138 23 l135 27 93 117 c51 65 98 116 104 114 7 -3 49 -9 94 -14 76 -8
86 -12 143 -56 34 -26 62 -46 64 -44 4 6 26 86 26 96 0 5 -15 17 -32 27 -18
11 -53 33 -78 49 -41 27 -106 50 -274 95 -56 14 -66 14 -196 -8 l-138 -23 -66
24 c-52 19 -71 31 -86 57 -13 22 -27 32 -44 32 -31 0 -66 -29 -69 -57 -1 -18
-13 -25 -72 -42 -38 -11 -79 -22 -90 -24 -15 -3 -16 -5 -5 -9 37 -14 319 -88
334 -88 9 0 16 -4 16 -8 0 -20 -157 -133 -283 -204 l-140 -78 7 83 c3 45 9
111 12 146 l7 63 33 -5 c19 -3 34 -4 34 -2 0 2 -13 28 -30 58 -16 30 -30 63
-30 72 0 9 14 50 31 90 25 60 28 78 19 95 -18 34 -8 82 21 99 23 13 27 12 50
-11 13 -13 25 -36 27 -50 3 -21 -2 -27 -25 -33 -15 -5 -34 -7 -40 -6 -21 3
-15 -17 7 -24 30 -10 59 3 74 33 12 23 12 32 1 60 -8 17 -21 32 -30 32 -20 0
-20 -4 16 110 27 86 38 105 90 163 33 36 75 75 94 87 20 12 35 30 35 40 0 26
38 50 77 50 29 0 38 7 63 47 16 25 37 66 46 90 9 23 19 43 22 43 12 0 88 -24
95 -31 5 -4 -8 -30 -29 -58 -36 -48 -40 -50 -73 -45 -32 5 -39 1 -63 -29 l-27
-35 29 -11 c34 -11 54 5 26 21 -16 9 -16 11 1 23 11 8 24 10 34 5 10 -6 24 -4
38 6 16 12 35 14 75 9 63 -8 88 -20 67 -34 -11 -7 -11 -9 0 -14 23 -9 -32 -47
-68 -47 -17 0 -35 -5 -38 -11 -4 -6 0 -9 10 -7 24 4 29 -33 8 -49 -9 -7 -14
-13 -10 -13 3 0 -7 -27 -24 -59 -27 -55 -29 -68 -29 -173 -1 -65 -6 -125 -13
-141 l-12 -29 -22 24 c-25 27 -55 157 -46 202 4 20 2 27 -6 22 -16 -10 -15 76
2 93 10 10 9 11 -6 5 -13 -5 -16 -2 -11 10 3 9 10 16 16 16 5 0 6 5 2 11 -4 8
1 9 17 4 13 -3 19 -3 14 2 -15 12 -13 24 13 61 24 33 66 44 74 20 3 -8 6 -7
10 3 4 10 -2 15 -19 17 -14 1 -32 6 -40 11 -12 6 -27 -9 -68 -70 l-53 -77 24
-159 c27 -174 30 -187 42 -179 5 3 29 -12 53 -34 l44 -39 7 167 8 167 46 100
c26 55 48 101 49 102 1 2 16 -1 33 -6 l32 -10 0 49 c0 27 -5 50 -11 52 -7 2 4
35 29 83 40 79 40 80 51 52 6 -16 11 -32 11 -37 0 -5 5 -12 10 -15 8 -5 9 9 4
43 l-6 49 86 8 c83 7 89 6 152 -24 37 -17 68 -31 70 -31 2 0 4 24 4 54 l0 53
-87 31 c-49 17 -118 34 -155 38 l-68 7 0 111 0 111 56 130 56 130 74 43 c40
23 78 42 83 42 5 0 38 -13 74 -29 l65 -29 26 39 c23 36 24 40 8 46 -9 3 -87
34 -172 68 -85 35 -198 78 -251 96 l-97 33 -173 -37 c-171 -36 -530 -100 -534
-95 -1 2 4 57 13 123 11 96 19 125 36 145 12 14 34 43 48 65 l25 40 177 23
176 23 133 72 133 71 0 53 c0 29 -1 53 -3 53 -1 0 -36 -35 -77 -77 -74 -77
-76 -78 -193 -120 -100 -35 -132 -42 -211 -45 -50 -2 -92 -2 -92 0 0 2 9 12
20 24 26 28 25 58 0 86 -37 39 -94 24 -113 -31 -8 -22 12 -67 30 -67 7 0 13
-4 13 -10 0 -6 -36 -10 -87 -10 -83 0 -85 1 -70 18 45 50 -15 129 -77 101 -32
-15 -48 -52 -36 -84 5 -14 17 -25 25 -25 9 0 14 4 11 8 -12 19 -15 62 -4 56 7
-5 9 -2 5 9 -4 12 -1 15 16 11 12 -2 23 -8 25 -13 2 -6 11 -7 20 -4 10 3 13 2
6 -4 -6 -4 -10 -25 -9 -45 2 -42 -19 -57 -54 -39 -11 6 -82 11 -164 11 l-143
0 -75 -67 c-78 -70 -98 -95 -99 -128 -1 -12 -13 6 -30 42 -23 49 -32 92 -45
205 -9 79 -27 192 -40 253 l-24 109 45 164 c25 90 44 165 42 166 -2 0 -17 0
-35 -2z m-3 -62 c0 -5 -2 -10 -4 -10 -3 0 -8 5 -11 10 -3 6 -1 10 4 10 6 0 11
-4 11 -10z m-1971 -56 c22 -9 55 -35 74 -58 30 -36 43 -43 95 -54 59 -12 61
-13 101 -79 41 -65 42 -67 35 -132 l-6 -66 -72 -18 c-100 -26 -290 -66 -294
-62 -1 1 -11 44 -20 95 l-18 93 -50 25 c-27 13 -51 26 -53 28 -2 1 7 17 19 34
12 17 21 33 19 34 -2 2 -23 13 -47 25 l-43 22 36 42 c35 42 115 84 162 86 13
1 40 -6 62 -15z m96 -14 c4 -6 11 -8 16 -5 5 4 9 2 9 -3 0 -6 25 -20 55 -33
83 -34 70 -45 -30 -25 -26 5 -88 76 -66 76 5 0 13 -5 16 -10z m-327 -22 c-8
-12 -23 -22 -34 -24 -15 -2 -12 3 11 22 37 30 41 30 23 2z m-62 -98 l-26 -50
45 0 c25 0 45 -2 45 -4 0 -2 -16 -32 -35 -66 -19 -34 -35 -64 -35 -65 0 -2 16
3 35 11 50 21 53 19 44 -28 -4 -24 -8 -55 -9 -70 0 -27 0 -27 48 17 26 25 50
45 53 45 6 0 32 -130 27 -135 -3 -3 -333 -65 -344 -65 -2 0 -4 5 -4 11 0 6
-13 28 -29 48 l-29 36 24 110 c13 61 28 117 32 125 10 16 175 139 181 134 2
-2 -8 -26 -23 -54z m70 -30 c8 0 14 -4 14 -9 0 -6 -12 -6 -30 0 -16 6 -30 18
-30 26 0 12 2 12 16 -1 8 -9 22 -16 30 -16z m90 -147 c-1 -6 -14 -21 -28 -32
-27 -22 -50 -29 -31 -10 13 13 -15 79 -34 79 -13 0 -17 12 -8 22 9 9 103 -45
101 -59z m551 -170 c56 -27 102 -50 103 -54 0 -8 -136 -50 -231 -69 -83 -17
-89 -17 -150 0 -97 27 -159 60 -159 85 0 19 14 24 163 52 89 17 164 31 167 32
3 1 51 -20 107 -46z m2944 28 c-6 -10 -8 -20 -6 -23 3 -3 -1 -5 -9 -5 -12 0
-12 4 1 24 18 28 28 31 14 4z m-1517 -122 l-15 -114 61 -155 c34 -85 66 -161
73 -170 6 -8 7 -12 3 -8 -5 5 -28 -3 -52 -17 -39 -23 -124 -36 -124 -19 0 3
-9 98 -20 211 l-21 205 44 76 c24 42 47 86 51 96 15 42 15 4 0 -105z m-1904
65 c0 -8 5 -14 10 -14 6 0 10 -9 10 -21 0 -11 -4 -18 -9 -15 -5 4 -11 1 -13
-4 -4 -13 -36 -16 -59 -6 -11 5 -24 -4 -43 -29 -15 -19 -33 -35 -40 -35 -33 0
-59 -119 -43 -195 2 -12 -3 -25 -14 -33 -13 -9 -17 -23 -15 -55 6 -82 18 -118
53 -154 19 -19 32 -37 29 -40 -3 -4 -6 -1 -6 6 0 9 -5 9 -21 1 -23 -13 -24
-56 -2 -99 6 -14 10 -28 7 -33 -3 -4 1 -18 7 -30 7 -13 14 -34 15 -47 l3 -24
-17 24 c-33 47 -52 94 -63 153 -6 34 -13 72 -16 86 -3 14 -6 35 -8 47 -1 13
-7 29 -14 36 -6 8 -7 18 -3 22 4 5 1 4 -7 0 -11 -6 -13 -4 -8 8 4 10 1 17 -6
17 -7 1 -6 5 4 13 9 7 23 27 33 44 16 31 15 34 -4 53 -11 11 -26 20 -34 20
-18 0 -25 30 -12 51 5 9 6 24 3 33 -4 9 -7 20 -9 24 -1 4 -13 13 -27 20 -22
11 -27 11 -38 -4 -10 -13 -9 -23 5 -48 l17 -31 3 33 c3 31 5 32 17 16 11 -16
11 -23 -1 -46 -14 -26 -13 -30 10 -53 14 -14 35 -25 46 -25 12 0 20 -3 18 -7
-2 -5 -10 -20 -17 -35 l-14 -27 -40 31 c-68 54 -87 126 -55 211 13 33 15 33
45 5 13 -12 25 -19 28 -16 10 9 -6 36 -30 52 -22 14 -25 14 -40 0 -15 -15 -16
-13 -14 22 3 38 4 39 42 41 22 2 45 7 51 12 6 5 36 11 66 14 30 4 69 11 85 16
17 5 47 12 68 16 20 3 37 10 37 15 0 5 7 7 15 4 8 -4 15 -12 15 -20z m2891
-25 c8 0 5 -4 -6 -9 -11 -5 -14 -9 -6 -9 11 -1 11 -4 0 -18 -12 -14 -12 -16 1
-9 13 6 13 6 0 -6 -9 -7 -15 -24 -14 -38 l1 -24 -19 24 c-11 13 -22 36 -25 52
-3 16 -10 25 -17 22 -6 -3 2 6 18 21 27 24 31 25 41 11 7 -9 18 -16 26 -17z
m-2776 -78 c37 -24 78 -41 108 -45 35 -5 47 -12 47 -24 0 -15 -13 -17 -119
-14 l-118 4 -22 -37 -22 -37 78 6 78 6 -41 -16 c-23 -8 -52 -26 -65 -40 l-24
-26 75 7 c71 7 74 6 53 -10 -13 -9 -23 -20 -23 -26 0 -10 34 -12 67 -3 16 4
24 17 29 40 5 29 28 54 48 54 3 0 6 -13 6 -30 0 -46 28 -39 32 7 3 35 5 32 41
-58 41 -101 42 -136 3 -124 -11 4 -40 10 -63 12 -40 5 -63 26 -43 38 6 4 10
13 10 20 0 11 -8 10 -35 -6 -34 -20 -115 -104 -115 -119 0 -12 58 -66 110
-101 33 -23 51 -43 59 -68 5 -19 9 -36 8 -37 -1 -2 -20 -4 -42 -5 -85 -4 -200
49 -329 151 -78 62 -96 96 -96 179 0 34 3 41 20 41 23 0 24 7 9 69 -11 48 -2
151 12 151 5 0 7 -11 3 -25 -3 -14 -4 -25 -2 -25 7 0 68 100 68 111 0 5 5 9
10 9 6 0 10 -9 10 -20 0 -19 2 -18 48 5 26 14 52 25 57 25 6 0 37 -17 70 -39z
m303 -37 c-11 -24 -65 -61 -75 -51 -6 6 65 77 77 77 5 0 4 -11 -2 -26z m-68 2
c0 -8 -4 -18 -10 -21 -12 -7 -13 -25 -2 -43 7 -10 15 -10 36 -2 15 5 25 6 21
1 -3 -5 -1 -12 4 -16 6 -3 8 -11 5 -18 -5 -13 -130 -17 -150 -4 -15 9 -49 -21
-58 -51 -4 -13 -13 -21 -19 -18 -7 3 -20 9 -29 12 -19 7 -25 34 -8 34 17 0 11
28 -7 40 -14 8 0 10 54 7 65 -3 75 -1 94 19 17 18 19 26 10 42 -10 18 -8 21
17 25 15 2 30 5 35 6 4 0 7 -5 7 -13z m2463 1 c7 3 4 -3 -5 -14 -10 -11 -18
-25 -18 -32 0 -19 -36 -61 -45 -53 -5 4 -5 2 -2 -4 4 -6 -1 -19 -11 -27 -17
-15 -20 -14 -45 9 -61 57 -1 147 74 110 27 -14 29 -13 30 7 0 12 3 16 6 9 2
-6 10 -9 16 -5z m-166 -82 c0 -8 -4 -12 -8 -9 -4 2 -19 -6 -34 -18 -19 -17
-24 -28 -19 -42 7 -17 10 -16 34 14 l27 33 35 -27 34 -28 -9 -62 c-5 -33 -9
-80 -10 -103 -1 -24 -5 -43 -10 -43 -4 0 -3 -9 3 -19 8 -16 6 -21 -13 -27 -12
-4 -34 -7 -48 -5 -22 2 -32 -6 -55 -43 -16 -25 -32 -46 -36 -46 -17 0 -16 19
3 36 34 30 51 72 44 105 -5 20 -1 38 9 54 20 31 20 41 1 25 -8 -7 -15 -19 -15
-26 0 -8 -8 -14 -17 -14 -14 0 -15 -2 -4 -9 7 -5 11 -13 7 -19 -3 -6 -1 -12 6
-14 7 -3 -2 -23 -26 -53 -22 -30 -35 -57 -32 -67 3 -13 -8 -27 -39 -48 -23
-16 -45 -27 -48 -24 -3 3 -4 -2 -1 -13 3 -11 -7 -31 -29 -53 -19 -19 -43 -53
-54 -76 l-20 -41 24 5 c12 2 20 9 17 14 -3 5 20 43 53 85 32 42 63 83 69 91 6
9 16 12 23 7 9 -5 8 -13 -7 -29 -11 -11 -45 -59 -77 -106 -46 -69 -62 -84 -80
-82 -15 2 -28 -5 -39 -22 -33 -52 -56 -25 -56 67 0 29 6 54 15 63 8 8 12 21 8
29 -3 9 5 40 17 69 12 31 19 63 15 75 -4 14 3 28 24 50 17 17 35 49 42 71 7
21 23 50 37 62 14 13 22 18 18 11 -3 -6 -1 -15 5 -19 7 -4 9 -3 5 4 -8 14 41
72 62 73 11 0 12 2 5 6 -7 2 -13 16 -13 30 0 16 -7 27 -20 30 -49 13 2 84 57
80 17 -1 31 -4 31 -7 0 -3 0 -16 2 -30 1 -21 3 -22 8 -7 7 16 59 57 73 57 3 0
6 -7 6 -15z m-2540 -1 c-3 -3 -12 -4 -19 -1 -8 3 -5 6 6 6 11 1 17 -2 13 -5z
m272 -60 c-10 -13 -10 -17 2 -24 10 -7 16 -3 22 15 5 14 12 25 17 25 20 0 29
-185 10 -220 -6 -11 -8 -25 -5 -30 4 -6 -5 -5 -19 2 -25 11 -26 12 -10 36 13
20 14 29 4 50 -10 22 -9 28 5 38 14 11 12 16 -19 48 -41 40 -48 76 -15 76 18
0 20 -2 8 -16z m2088 -44 c11 -17 7 -24 -45 -64 -51 -39 -60 -52 -78 -105 -13
-43 -23 -60 -33 -56 -7 3 -33 10 -58 16 -36 10 -47 18 -63 50 -26 49 -26 49
11 95 29 36 38 41 127 60 123 28 125 28 139 4z m967 -108 c2 -4 -4 -8 -14 -8
-10 0 -16 4 -14 8 3 4 9 8 14 8 5 0 11 -4 14 -8z m11 -42 c44 -12 104 -28 132
-37 l53 -14 -104 -106 -104 -105 -38 -114 -38 -113 25 -110 25 -109 -40 -4
c-23 -3 -57 -12 -77 -21 l-36 -16 -31 77 c-31 74 -32 83 -32 216 0 124 -3 151
-32 257 -17 66 -29 120 -27 122 24 16 227 104 234 102 6 -1 47 -13 90 -25z
m-2941 -1 c-3 -5 -12 -9 -20 -9 -8 0 -14 -6 -15 -12 0 -10 -2 -10 -6 -1 -6 16
18 42 34 36 7 -3 10 -9 7 -14z m60 10 c-4 -8 1 -9 15 -4 13 4 28 1 37 -6 8 -6
17 -9 21 -6 3 4 12 2 19 -4 7 -6 29 -12 48 -14 20 -2 44 -6 56 -10 11 -3 25
-3 31 1 7 4 39 9 73 10 34 2 95 9 136 15 98 15 221 19 213 6 -3 -5 4 -6 17 -2
14 4 20 3 16 -3 -3 -6 13 -10 42 -10 91 -2 245 -12 250 -17 3 -2 15 -2 27 1
17 4 24 0 28 -15 8 -31 -15 -43 -70 -37 -26 3 -90 8 -142 11 -136 6 -138 3
-64 -133 32 -59 64 -119 72 -133 7 -15 23 -31 36 -37 13 -6 104 -14 204 -18
147 -6 183 -10 195 -23 13 -15 -1 -16 -175 -13 l-189 3 -12 -25 c-10 -22 -7
-32 20 -76 l31 -50 -25 -30 c-14 -16 -35 -30 -46 -30 -21 0 -21 0 0 19 32 27
35 10 -55 251 -13 36 -27 73 -30 83 -3 9 -10 17 -15 17 -5 0 -7 4 -4 9 3 5 -3
19 -13 32 -10 13 -28 42 -39 64 -11 22 -37 65 -56 95 -42 63 -54 66 -171 48
-38 -6 -86 -12 -105 -13 -19 -2 -40 -4 -47 -4 -24 -2 -50 -41 -45 -66 2 -14 9
-25 16 -25 6 0 3 -5 -6 -10 -9 -6 -27 -8 -40 -6 -13 3 -26 5 -29 5 -4 1 -19
19 -33 40 -32 45 -52 56 -71 38 -7 -6 -26 -22 -42 -34 -79 -62 -153 -132 -153
-146 0 -5 4 -6 9 -3 5 4 7 -4 3 -16 -4 -16 -2 -19 8 -13 9 6 11 4 5 -5 -6 -10
-11 -9 -22 5 -7 11 -13 23 -13 28 0 4 -6 5 -12 1 -10 -6 -10 -5 -1 8 7 8 10
18 6 21 -3 4 1 7 11 7 9 0 14 5 11 10 -3 6 -1 10 5 10 7 0 10 7 7 15 -4 8 -1
17 5 21 7 5 8 2 3 -7 -5 -8 -4 -10 0 -6 5 4 10 14 11 22 1 7 7 30 14 50 9 26
16 35 27 30 13 -4 14 -3 3 10 -7 8 -9 15 -6 15 4 0 2 9 -4 20 -10 18 -7 40 6
40 3 0 2 -5 -2 -11z m-323 -26 l40 -26 -28 -12 c-28 -12 -103 -9 -103 4 0 3 9
12 20 19 11 7 20 19 20 27 0 20 4 19 51 -12z m-491 -105 c22 -121 24 -126 111
-278 69 -122 102 -169 156 -222 65 -64 71 -67 120 -70 36 -2 53 -7 53 -16 0
-8 -5 -55 -11 -105 l-11 -92 62 -135 c59 -128 69 -161 164 -520 9 -34 2 -23
-95 143 -49 83 -87 137 -97 137 -8 0 -44 -5 -79 -11 -43 -8 -63 -15 -60 -24 3
-6 19 -63 36 -126 17 -63 36 -124 41 -136 10 -23 9 -23 -80 -23 -81 0 -97 3
-150 30 l-60 30 -1 183 c0 100 -6 238 -13 307 -12 118 -16 131 -63 226 -27 55
-61 140 -74 187 -13 48 -26 87 -29 87 -3 0 -12 -28 -20 -62 l-15 -63 42 -105
c22 -58 51 -139 63 -181 22 -76 22 -78 5 -155 l-17 -78 -30 64 c-17 38 -41
121 -57 202 -15 76 -29 140 -32 143 -4 3 -9 -39 -13 -92 l-6 -98 50 -150 c41
-121 95 -326 87 -331 -97 -61 -200 -135 -226 -163 -18 -20 -60 -64 -92 -98
l-58 -63 -6 33 c-3 17 -19 115 -35 217 -24 149 -73 384 -97 469 -2 8 -15 -10
-29 -40 -25 -53 -25 -56 -17 -189 5 -74 7 -139 5 -144 -2 -4 -17 41 -33 100
-25 98 -28 126 -29 274 0 147 3 181 32 318 l32 153 38 -38 c21 -20 39 -35 41
-32 2 2 9 24 15 48 9 37 7 60 -9 129 -11 47 -18 86 -17 87 2 1 41 33 88 71 47
38 93 75 102 83 15 11 22 9 50 -13 l33 -25 11 32 c7 23 22 38 55 54 24 12 46
22 49 23 3 0 11 -42 17 -94 10 -83 16 -102 58 -175 l48 -83 51 7 c28 4 52 8
54 10 1 1 -3 15 -10 30 -11 24 -15 26 -54 20 l-41 -6 -32 90 c-23 67 -31 107
-31 159 0 55 -4 75 -21 96 l-20 26 38 45 c21 24 39 44 40 45 0 0 11 -55 23
-122z m621 87 c27 -25 11 -38 -51 -40 -43 -2 -49 -1 -39 11 9 11 9 21 1 38
-10 22 -9 23 29 16 22 -4 49 -16 60 -25z m2790 11 c-6 -7 -25 -19 -42 -26 -16
-7 -27 -15 -25 -18 3 -2 1 -13 -4 -22 -7 -13 -5 -21 4 -29 8 -7 13 -23 11 -36
-1 -14 1 -22 5 -20 17 11 40 -150 40 -286 0 -105 4 -147 15 -169 8 -16 16 -38
18 -49 2 -11 11 -29 20 -39 10 -11 15 -26 12 -35 -4 -8 -2 -18 4 -22 7 -4 8 1
4 12 -5 14 -1 13 20 -6 25 -23 39 -70 17 -56 -14 9 -13 -8 2 -23 9 -9 6 -10
-13 -6 -25 6 -29 6 -68 2 -22 -3 -26 5 -51 82 -15 47 -31 94 -35 104 -7 15 -5
17 6 11 11 -7 12 -6 3 6 -6 8 -24 48 -39 89 -15 41 -37 85 -47 97 -18 20 -17
50 1 39 8 -6 30 42 55 120 13 39 14 61 7 90 -14 60 -49 147 -62 155 -20 12 2
31 32 27 16 -3 29 -2 29 2 0 6 82 27 89 23 2 -1 -1 -9 -8 -17z m39 20 c0 -3
-4 -8 -10 -11 -5 -3 -10 -1 -10 4 0 6 5 11 10 11 6 0 10 -2 10 -4z m-2686 -98
c-19 -46 -38 -85 -42 -89 -34 -27 -84 -60 -87 -58 -7 9 101 219 115 223 50 13
51 9 14 -76z m3227 29 c35 -13 63 -29 62 -34 -1 -6 7 -9 19 -5 14 3 19 1 14
-6 -5 -8 -2 -10 9 -6 8 4 23 0 32 -7 14 -12 16 -12 9 1 -6 10 -3 10 10 -2 12
-12 15 -21 8 -28 -12 -12 -56 -1 -47 13 3 5 1 7 -5 3 -6 -3 -26 1 -45 10 -20
10 -43 14 -54 10 -10 -4 -19 -7 -21 -6 -1 0 -10 -6 -19 -15 -8 -9 -22 -14 -30
-11 -8 3 -12 2 -9 -2 2 -4 -18 -21 -45 -37 -27 -17 -49 -38 -49 -47 0 -9 -4
-19 -9 -23 -5 -3 -13 -20 -16 -38 -4 -17 -20 -51 -36 -75 -16 -24 -25 -40 -19
-37 15 9 12 -7 -4 -31 -20 -29 -26 -272 -7 -284 8 -4 14 -22 15 -39 0 -17 5
-31 10 -31 4 0 6 10 4 23 -4 21 -1 22 61 22 47 0 80 -7 115 -23 27 -12 55 -22
63 -22 8 0 11 -4 8 -10 -3 -5 0 -10 9 -10 11 0 14 -16 7 -37 -1 -1 -22 7 -48
19 -36 16 -70 21 -139 22 -81 1 -92 -1 -100 -18 -15 -34 -33 -29 -50 13 -9 23
-21 38 -27 34 -6 -3 -7 -1 -3 5 4 6 2 21 -4 32 -8 15 -8 25 -1 34 7 8 4 41
-10 107 -11 52 -21 99 -22 104 -2 13 21 93 35 125 6 14 12 30 13 35 7 34 19
54 29 48 6 -4 6 -1 -2 9 -10 13 -5 22 33 57 25 23 50 39 55 36 6 -4 7 -11 4
-17 -4 -7 -2 -8 5 -4 9 6 9 11 -1 23 -10 13 -7 20 20 44 18 16 32 34 32 40 0
7 9 4 23 -7 12 -10 16 -12 10 -4 -7 8 -13 18 -13 23 0 4 6 5 13 1 6 -4 9 -4 5
1 -4 4 -3 16 3 27 8 14 7 24 -3 35 -11 15 -10 14 13 0 14 -9 54 -28 90 -40z
m-3296 16 c-6 -26 -29 -61 -25 -38 2 6 2 15 1 20 -2 12 -80 -145 -81 -162 0
-7 -2 -13 -4 -13 -2 0 -11 -3 -20 -6 -13 -5 -16 1 -16 30 0 28 5 39 23 47 13
6 29 26 36 46 14 38 37 66 64 76 9 3 17 11 17 17 0 5 3 10 6 10 3 0 3 -12 -1
-27z m801 -118 c46 -82 99 -198 130 -280 l52 -140 -207 -41 c-113 -23 -209
-39 -212 -35 -4 3 -28 71 -53 151 -35 110 -54 156 -82 190 -19 25 -39 46 -42
48 -17 6 8 -238 42 -409 l38 -186 -41 -144 c-22 -79 -44 -159 -47 -176 -4 -18
-9 -33 -13 -33 -3 0 -35 75 -70 165 -36 91 -66 164 -67 162 -1 -1 -7 -40 -13
-85 l-11 -84 50 -161 c48 -155 50 -164 43 -244 l-6 -83 -111 0 -111 0 -51 93
c-43 78 -56 113 -79 222 -37 178 -31 298 26 488 21 71 41 133 44 135 3 3 5
-99 5 -227 l0 -232 28 -36 27 -37 10 185 c9 156 8 199 -5 280 l-16 97 33 13
33 13 0 77 c0 43 -9 118 -21 170 -21 92 -21 92 -2 108 11 9 53 42 92 75 39 32
73 57 75 55 2 -2 16 -24 32 -49 l29 -45 67 0 c74 0 75 1 42 67 -19 37 -18 38
19 39 17 0 84 8 147 18 63 9 116 17 116 16 1 0 37 -63 80 -140z m1668 93 c-76
-39 -86 -48 -114 -108 -13 -27 -27 -47 -31 -44 -4 2 -6 -16 -4 -40 3 -40 -5
-57 -25 -52 -11 2 -37 -29 -33 -40 2 -7 -1 -15 -8 -20 -8 -5 -10 -3 -4 6 5 9
4 11 -4 6 -6 -4 -9 -11 -6 -16 7 -11 -23 -61 -42 -73 -7 -4 -13 -13 -13 -20 0
-7 4 -6 10 3 8 13 10 12 10 -3 0 -30 -19 -57 -40 -57 -11 0 -20 -5 -20 -11 0
-5 -4 -8 -9 -4 -11 6 -11 3 -17 -110 -6 -112 -6 -115 -17 -115 -5 0 -7 -21 -3
-47 8 -72 9 -73 19 -66 6 4 8 0 4 -10 -8 -20 17 -36 53 -33 14 1 33 -1 42 -6
14 -7 16 -5 11 8 -4 12 -3 15 6 10 16 -10 63 2 56 14 -3 6 -4 10 -1 10 2 0 11
3 19 6 9 3 16 -3 20 -15 5 -22 41 -29 52 -11 3 6 -3 10 -14 10 -12 0 -21 6
-21 14 0 17 27 29 43 19 7 -3 9 -3 5 2 -4 4 -2 15 5 23 10 13 9 14 -3 7 -12
-6 -12 -5 -4 4 9 10 17 10 33 2 15 -8 21 -9 21 -1 0 6 5 8 10 5 6 -3 10 -1 10
5 0 6 4 8 10 5 18 -11 191 -14 184 -3 -11 17 29 -8 49 -31 16 -21 16 -23 -9
-61 -15 -22 -31 -40 -36 -40 -5 0 -7 -4 -3 -9 3 -6 0 -13 -7 -18 -7 -4 -13
-15 -13 -23 0 -8 -6 -14 -14 -12 -7 1 -19 -2 -25 -7 -7 -6 -23 -12 -37 -15
-13 -2 -23 -9 -21 -16 4 -17 -18 -41 -31 -33 -5 3 -7 1 -4 -4 10 -16 -38 -44
-51 -31 -11 11 -60 -27 -192 -147 -37 -34 -57 -44 -110 -54 -36 -7 -73 -15
-84 -18 -10 -3 -16 -1 -13 4 4 6 3 59 -2 119 -10 136 -3 150 51 97 l38 -37 0
61 c0 57 2 63 30 83 19 13 59 26 103 32 39 6 73 12 75 13 2 2 -1 13 -8 24 -12
23 -32 29 -27 9 1 -9 -15 -14 -50 -16 -29 -2 -57 -9 -63 -17 -10 -12 -17 -12
-34 -3 -20 11 -20 10 -6 -7 8 -10 10 -16 4 -12 -16 9 -55 -39 -47 -60 5 -13 3
-15 -12 -10 -15 6 -16 5 -5 -8 8 -9 8 -15 2 -15 -6 0 -14 5 -17 10 -12 19 -35
10 -55 -22 -20 -34 -26 -53 -12 -45 13 8 14 -174 1 -189 -9 -12 -9 -13 3 -9 8
3 19 0 25 -7 27 -34 32 -141 8 -168 -10 -11 -13 -27 -9 -48 9 -44 24 -40 24 6
1 34 5 40 55 70 31 18 53 37 50 42 -3 5 4 7 16 5 12 -2 19 -1 15 2 -4 4 -18 9
-32 11 -18 2 -24 -1 -18 -9 5 -9 2 -10 -9 -6 -10 4 -17 2 -17 -4 0 -6 -7 -8
-16 -5 -13 5 -14 3 -6 -7 8 -10 7 -13 -7 -13 -19 0 -23 26 -6 38 6 5 6 8 -1 8
-7 0 -14 9 -17 20 -3 11 -1 20 5 20 5 0 6 5 3 10 -3 6 3 10 13 10 11 0 51 10
88 22 87 27 93 28 100 17 3 -5 10 -7 15 -3 6 4 6 11 -2 20 -9 11 -15 11 -25 3
-10 -8 -14 -8 -14 0 0 6 12 18 28 28 15 9 42 33 61 53 24 25 29 28 17 9 -9
-14 -15 -27 -14 -30 2 -2 1 -3 -1 -2 -8 4 -29 -25 -28 -38 4 -28 -48 -139 -61
-134 -8 3 -12 0 -9 -7 2 -7 10 -12 16 -11 17 4 13 -4 -10 -26 -20 -18 -23 -19
-46 -4 -27 18 -23 21 -92 -70 l-51 -68 20 -28 c10 -16 17 -31 13 -35 -3 -3 1
-6 10 -6 23 0 60 -50 47 -65 -5 -6 -7 -15 -4 -18 4 -4 -1 -18 -10 -32 -21 -32
-67 -34 -96 -3 -34 37 -22 100 23 118 14 6 16 9 6 9 -22 1 -59 -36 -59 -59 0
-10 -4 -21 -9 -24 -5 -4 -8 5 -6 19 3 28 -37 75 -64 75 -10 -1 -6 -6 11 -16
28 -15 45 -54 33 -74 -15 -25 -110 -47 -121 -29 -18 30 -13 61 15 89 16 17 25
30 20 30 -17 0 -10 117 8 135 13 14 14 21 5 36 -19 30 -15 106 6 121 9 7 23
31 31 53 16 45 22 107 9 99 -13 -8 -9 31 4 44 9 9 9 12 0 12 -10 0 -10 5 -2
20 8 15 8 20 -2 20 -10 0 -10 2 -1 8 9 6 8 12 -6 24 -11 9 -22 14 -24 11 -3
-2 -13 -6 -24 -7 -10 -2 -18 -10 -18 -19 0 -9 -18 -34 -41 -55 -23 -22 -44
-47 -47 -56 -4 -9 -13 -16 -21 -16 -20 0 -29 -17 -15 -26 8 -4 9 -3 5 4 -4 7
-2 12 3 12 15 0 14 -30 -1 -31 -10 0 -10 -2 0 -6 6 -2 12 -9 12 -15 0 -6 -6
-8 -13 -5 -15 5 -16 -20 -3 -41 4 -7 2 -12 -5 -12 -8 0 -6 -7 5 -19 27 -29 7
-125 -34 -162 -19 -18 -28 -34 -24 -43 3 -9 1 -16 -4 -16 -6 0 -9 9 -7 20 2
11 -1 20 -7 20 -16 0 -2 57 22 87 24 31 25 40 5 59 -16 17 -44 12 -83 -12 -17
-11 -27 -12 -42 -4 -11 6 -18 15 -16 19 7 11 -46 1 -62 -12 -11 -8 -11 -5 -1
17 7 14 23 29 36 32 13 4 23 11 23 17 0 6 3 8 6 5 3 -4 17 0 31 7 15 8 30 12
34 9 4 -2 5 5 2 15 -3 13 3 23 18 32 13 7 32 23 42 36 10 12 26 23 36 23 9 0
26 7 37 16 10 8 12 12 4 8 -13 -7 -13 -6 -1 10 8 9 21 14 29 11 13 -5 13 -3 1
12 -12 14 -12 16 0 8 11 -6 13 -4 7 10 -5 15 -4 16 8 6 12 -10 14 -9 11 6 -3
20 33 56 80 80 17 9 33 20 36 24 3 5 17 10 31 11 15 1 25 5 22 9 -2 4 2 12 10
18 16 13 14 33 -9 121 -9 36 -19 76 -21 89 -4 21 22 127 47 190 20 51 -14 83
-54 51 -13 -11 -28 -16 -32 -12 -5 4 -5 1 -1 -5 4 -8 1 -13 -8 -13 -9 0 -16
-5 -16 -11 0 -6 -7 -8 -16 -5 -8 3 -12 2 -9 -4 6 -9 -46 -62 -53 -55 -4 4 41
99 51 106 15 11 16 49 1 49 -8 0 -41 -54 -79 -130 -36 -71 -65 -132 -65 -135
0 -7 209 167 234 194 23 25 41 28 31 4 -4 -10 -20 -60 -36 -112 l-28 -95 20
-85 c10 -47 21 -96 24 -109 5 -20 -2 -26 -64 -54 -64 -28 -76 -39 -135 -115
l-65 -85 -26 51 c-14 28 -34 67 -45 86 -25 45 -25 49 5 79 41 41 27 110 -25
128 -9 3 -16 52 -23 172 l-10 168 29 24 c24 20 40 23 102 24 49 0 72 -4 72
-12 0 -9 3 -9 12 0 7 7 22 12 34 12 12 0 36 14 52 30 17 17 38 30 47 30 9 0
13 5 10 11 -4 6 2 20 13 32 11 12 25 32 31 45 7 12 17 20 23 16 7 -4 8 -3 4 4
-4 7 -2 12 3 12 6 0 10 6 9 13 -2 6 3 11 10 9 8 -1 11 2 7 8 -4 6 -2 17 5 25
6 7 10 19 9 27 -3 29 2 40 16 34 8 -3 15 -1 15 4 0 6 6 9 12 8 7 -2 14 7 16
20 2 12 10 22 18 22 8 0 13 6 11 13 -1 6 4 11 11 10 6 -2 12 1 12 5 0 8 16 11
63 13 12 1 45 5 72 10 28 5 66 11 85 14 19 3 49 9 65 13 54 16 48 0 -11 -30z
m-3289 2 c-4 -6 3 -25 14 -44 24 -38 27 -53 8 -38 -16 14 -61 10 -81 -8 -9 -7
-16 -9 -16 -4 -1 5 -14 -6 -30 -25 -25 -29 -30 -32 -36 -18 -7 20 14 50 31 43
13 -5 67 43 93 82 14 21 30 32 17 12z m2381 -17 c-10 -10 -19 5 -10 18 6 11 8
11 12 0 2 -7 1 -15 -2 -18z m1030 -66 l31 -94 -29 -74 c-16 -41 -31 -75 -32
-76 -2 -2 -217 106 -225 113 -2 2 14 36 35 77 35 68 42 76 103 109 36 19 71
36 76 37 6 0 24 -41 41 -92z m-2728 66 c42 5 53 -2 30 -20 -22 -17 -58 -22
-91 -11 -100 31 -119 51 -34 36 28 -6 71 -8 95 -5z m1977 -2 c3 -5 1 -12 -4
-15 -5 -3 -11 1 -15 9 -6 16 9 21 19 6z m-112 -39 c75 -25 87 -26 82 -12 -4
14 -1 16 19 13 l24 -5 -26 -61 c-14 -34 -24 -74 -23 -89 1 -24 -2 -27 -51 -33
-29 -4 -75 -18 -103 -32 l-50 -24 -52 55 c-29 30 -55 51 -57 48 -2 -4 -7 -28
-10 -54 -4 -27 -10 -48 -14 -48 -25 1 -34 25 -43 116 -5 54 -11 106 -13 116
-3 13 4 16 38 16 22 -1 60 2 84 6 47 9 48 8 27 -37 l-16 -32 21 25 c12 14 28
33 35 43 19 22 25 22 128 -11z m-2279 -27 c28 -17 78 -55 111 -86 54 -49 69
-58 116 -65 30 -4 57 -7 62 -6 4 1 7 -30 7 -70 0 -60 -4 -76 -25 -104 -19 -25
-25 -45 -25 -84 l0 -52 -70 62 c-85 75 -160 191 -190 293 -11 40 -27 89 -35
110 -8 21 -11 37 -7 35 4 -2 29 -17 56 -33z m403 -6 c-14 -8 -22 -8 -30 0 -8
8 -3 11 19 11 25 -1 27 -2 11 -11z m-224 -83 c-4 -5 1 -7 10 -3 9 3 22 0 29
-7 7 -7 21 -11 32 -8 13 3 17 1 12 -7 -7 -11 -66 -12 -66 0 0 3 -15 10 -32 15
-18 6 -34 17 -36 26 -3 15 1 15 27 5 16 -6 27 -15 24 -21z m304 -12 c5 -13 7
-13 14 -2 6 9 9 9 9 1 0 -6 -13 -21 -29 -32 -26 -19 -29 -28 -39 -118 -11
-100 -18 -142 -29 -178 -33 -100 -75 -317 -67 -341 3 -11 17 -43 31 -71 23
-48 33 -58 56 -54 4 0 7 -5 7 -12 1 -6 2 -38 4 -69 1 -34 -2 -58 -7 -58 -6 0
-7 3 -4 6 4 4 0 19 -8 33 -25 45 -68 146 -66 155 1 5 -5 16 -14 26 -29 32 -34
78 -22 202 7 71 6 79 -13 95 -11 10 -33 19 -48 19 -15 1 -33 2 -39 3 -19 2
-93 71 -93 88 0 8 -4 12 -9 9 -4 -3 -22 12 -40 34 -18 22 -29 40 -26 40 11 0
85 -78 86 -91 0 -10 2 -10 6 -2 4 12 18 0 66 -57 l19 -22 22 21 c17 16 23 33
24 70 1 38 6 55 26 75 23 22 26 34 26 92 0 48 -5 73 -16 86 -19 20 -12 25 42
32 17 1 36 6 42 10 6 3 12 1 14 -6 3 -8 12 -5 28 10 28 26 39 27 47 6z m128
-154 c4 -25 9 -57 11 -72 5 -27 5 -28 -43 -28 l-49 0 -18 -57 c-9 -32 -36
-104 -58 -161 -40 -102 -41 -104 -36 -208 3 -58 2 -101 -2 -97 -4 4 -17 35
-29 68 l-22 60 26 125 c14 69 36 168 50 220 13 52 27 129 31 170 l6 76 47 30
46 31 17 -56 c10 -31 20 -76 23 -101z m-1247 67 c-18 -18 -36 -31 -40 -29 -8
3 -4 -26 17 -122 15 -69 5 -116 -19 -94 -8 7 -12 17 -9 21 8 13 -50 -2 -59
-15 -4 -7 -10 -29 -13 -48 -3 -19 -10 -51 -15 -70 -5 -19 -12 -53 -16 -75 -4
-22 -9 -47 -12 -55 -2 -8 -7 -73 -11 -145 -6 -125 -6 -128 -14 -65 -10 81 -10
157 -2 190 11 42 25 112 35 180 10 70 28 128 56 181 10 19 19 36 19 39 1 3 7
18 13 33 7 16 12 33 12 39 0 16 70 79 81 72 5 -3 -5 -20 -23 -37z m3767 -169
c13 -31 40 -105 60 -163 30 -87 34 -109 23 -117 -7 -4 -60 -7 -118 -6 -58 2
-112 -1 -121 -5 -15 -7 -16 -3 -7 37 10 49 4 78 -46 201 l-25 60 -62 12 c-34
7 -64 14 -65 16 -2 1 17 33 42 71 24 38 44 73 44 77 0 4 57 -23 126 -60 l126
-66 23 -57z m-2096 0 c22 -70 47 -141 57 -158 18 -29 47 -40 58 -21 3 5 23 9
43 9 21 1 63 8 93 16 34 9 61 11 70 5 11 -6 8 -8 -12 -9 -15 0 -53 -13 -85
-29 -32 -16 -79 -38 -105 -50 -26 -12 -52 -29 -57 -39 -5 -10 -13 -65 -16
-123 -4 -57 -8 -117 -9 -134 -2 -16 -21 -86 -44 -155 -46 -143 -102 -349 -105
-389 -2 -25 -5 -26 -62 -28 -205 -6 -403 -8 -490 -3 l-100 5 -2 35 c-2 19 -16
84 -33 143 -16 59 -30 111 -30 116 0 4 16 8 36 9 20 1 44 4 54 7 13 4 25 -9
51 -55 77 -138 95 -168 115 -193 12 -15 27 -27 33 -27 22 0 30 45 16 86 -20
60 -26 112 -13 120 7 4 8 3 4 -5 -4 -7 3 -26 16 -44 13 -18 34 -52 47 -77 39
-75 49 -80 164 -80 90 0 103 2 124 22 21 19 23 30 23 113 0 91 -4 107 -80 340
-11 34 -8 85 5 85 5 1 10 -6 11 -13 1 -8 9 -30 17 -48 8 -19 25 -60 37 -91 48
-125 69 -101 141 162 5 19 11 45 12 57 2 12 6 26 10 29 15 15 6 115 -24 259
-17 83 -34 187 -38 233 -7 78 -6 81 11 65 9 -10 35 -75 57 -145z m-999 67 c0
-11 -14 7 -31 40 -7 13 -3 12 10 -5 11 -14 21 -29 21 -35z m24 -13 c3 -5 -1
-9 -9 -9 -8 0 -12 4 -9 9 3 4 7 8 9 8 2 0 6 -4 9 -8z m1911 -2 c3 -5 1 -10 -3
-12 -5 -1 -43 -48 -86 -103 -76 -96 -80 -100 -164 -138 -48 -22 -88 -42 -90
-46 -1 -3 -36 -55 -77 -114 -41 -60 -75 -110 -75 -112 0 -1 56 26 125 62 l126
65 20 -26 c11 -14 29 -26 40 -26 17 0 19 -5 14 -37 -4 -21 -31 -112 -62 -203
-53 -155 -58 -167 -102 -207 -46 -42 -47 -42 -124 -43 l-77 0 -123 -74 c-112
-67 -132 -76 -241 -100 -65 -15 -120 -25 -122 -23 -5 5 72 287 116 425 29 90
40 140 40 186 0 35 3 91 7 126 l6 62 101 47 c74 35 132 54 217 70 105 21 120
27 162 62 l46 40 -39 65 -40 65 200 -1 c110 -1 202 -5 205 -10z m66 -225 c-11
-99 -22 -226 -25 -282 l-7 -101 54 -56 c32 -32 57 -68 60 -85 4 -20 17 -35 37
-46 16 -8 30 -19 30 -23 0 -4 -26 -19 -58 -33 -55 -24 -62 -32 -131 -137 -41
-62 -77 -112 -82 -112 -5 0 -24 8 -44 17 -31 15 -35 21 -35 55 0 21 -11 90
-25 154 -14 64 -23 120 -20 124 9 15 87 322 114 451 l27 126 59 65 c33 37 61
65 62 64 1 -1 -6 -83 -16 -181z m803 165 c14 0 26 -5 26 -11 0 -5 5 -7 10 -4
6 3 10 1 10 -5 0 -14 -83 -6 -88 9 -2 5 -9 8 -17 5 -7 -3 -16 0 -21 7 -4 8 -3
10 4 5 7 -4 12 -2 12 4 0 7 6 8 19 0 11 -5 31 -10 45 -10z m-2199 -19 c-3 -6
-12 -11 -20 -11 -14 0 -31 -36 -27 -57 3 -14 -10 -17 -22 -5 -4 4 -13 7 -19 7
-7 0 -12 6 -11 13 1 6 2 20 3 30 1 14 10 19 38 20 20 1 41 6 47 12 12 12 21 5
11 -9z m2185 -35 l95 -33 3 -111 3 -111 -59 -30 c-44 -22 -145 -51 -179 -51
-1 0 0 6 3 14 3 8 19 16 36 18 41 4 72 44 62 82 -7 30 -54 59 -78 50 -14 -5
-16 5 -16 74 0 73 13 133 29 132 3 -1 49 -16 101 -34z m-1347 -63 c3 -5 -14
-9 -37 -9 -33 -2 -36 0 -16 6 34 11 48 11 53 3z m-886 -40 c-3 -10 -5 -4 -5
12 0 17 2 24 5 18 2 -7 2 -21 0 -30z m16 -178 l-7 -60 -6 70 c-3 39 -3 88 -1
110 l5 40 8 -50 c4 -27 5 -77 1 -110z m2889 110 c12 -15 10 -20 -17 -51 -15
-16 -33 -41 -43 -56 -19 -32 -28 -35 -35 -10 -2 9 -8 24 -12 34 -5 12 0 18 17
23 42 13 88 37 88 47 0 5 -4 6 -10 3 -5 -3 -10 -1 -10 5 0 7 -7 5 -16 -4 -19
-19 -28 -21 -18 -3 4 6 -1 5 -12 -4 -29 -24 -48 -34 -40 -21 4 7 1 12 -6 12
-7 0 -1 8 14 18 30 20 89 24 100 7z m-770 -27 c34 1 45 -48 16 -75 -10 -9 -21
-13 -25 -10 -3 4 -13 1 -21 -5 -11 -10 -17 -8 -28 7 -28 38 -9 104 26 89 8 -4
23 -6 32 -6z m-887 -23 c32 -31 32 -57 0 -92 -20 -23 -26 -26 -34 -13 -7 9 -6
19 2 30 10 13 10 13 -4 2 -14 -10 -22 -9 -48 5 -17 10 -31 22 -31 26 0 19 23
49 43 57 35 14 46 12 72 -15z m-1374 -12 c-12 -20 -14 -14 -5 12 4 9 9 14 11
11 3 -2 0 -13 -6 -23z m-606 -33 c1 -3 10 -23 21 -45 13 -24 22 -63 23 -100 2
-33 5 -63 8 -68 3 -5 5 -108 4 -230 0 -147 3 -225 11 -234 16 -20 2 -28 -27
-15 -20 9 -32 7 -67 -11 -24 -12 -44 -25 -46 -29 -2 -5 -10 -8 -18 -8 -8 0
-14 -5 -14 -11 0 -5 -4 -8 -8 -5 -5 3 -18 -4 -30 -14 -12 -11 -25 -20 -29 -20
-9 0 -53 -65 -53 -79 0 -5 -7 -12 -16 -15 -9 -4 -14 -9 -11 -13 4 -3 -7 -25
-24 -48 -22 -30 -28 -48 -23 -58 11 -19 90 -77 104 -77 5 0 10 -4 10 -8 0 -5
12 -14 26 -20 15 -7 22 -17 18 -24 -4 -7 -3 -8 5 -4 7 5 29 -10 57 -38 27 -27
39 -46 30 -46 -8 0 -19 6 -23 13 -4 6 -25 25 -46 40 -20 16 -49 40 -62 53 -14
14 -25 23 -25 20 0 -2 -14 9 -32 25 -19 19 -37 28 -47 24 -9 -4 -27 -9 -41
-11 -14 -3 -30 -11 -36 -20 -12 -15 -44 -10 -44 7 0 14 -27 11 -42 -4 -24 -24
-68 -49 -68 -39 0 6 4 12 8 14 5 2 23 22 39 46 l31 42 -63 125 c-35 68 -60
126 -57 129 3 3 -2 14 -11 23 -37 42 -88 170 -92 234 -3 50 -1 60 7 45 6 -11
12 -27 13 -35 1 -9 5 -25 10 -36 4 -11 14 -35 21 -52 9 -23 17 -31 29 -27 22
9 25 33 22 171 -1 66 1 116 5 110 12 -18 40 -118 44 -157 2 -19 7 -46 10 -60
7 -28 7 -31 28 -155 8 -49 17 -115 21 -145 4 -30 12 -61 19 -69 9 -12 8 -13
-4 -6 -8 5 -4 -3 10 -17 23 -25 25 -25 46 -9 12 9 20 19 17 24 -2 4 0 7 4 7 5
0 18 7 29 16 10 8 12 12 4 8 -13 -7 -13 -5 -1 9 7 9 20 17 29 17 8 0 13 2 10
5 -3 3 19 29 48 58 72 70 79 76 109 87 14 5 25 14 25 20 0 5 3 9 8 8 8 -3 28
12 74 56 19 18 27 34 23 45 -4 9 -13 48 -20 86 -8 39 -19 83 -24 98 -15 39
-14 46 8 40 23 -6 37 16 55 87 17 65 13 123 -14 195 -12 33 -22 68 -22 78 1 9
-3 15 -7 13 -4 -3 -8 5 -8 16 -2 20 -1 20 15 -3 9 -13 17 -26 17 -29z m3666
40 c0 8 5 2 9 -14 10 -31 -14 -101 -30 -91 -5 3 -6 -4 -3 -16 4 -14 -2 -28
-18 -43 -26 -24 -69 -40 -69 -26 0 5 -10 7 -22 5 -23 -4 -23 -4 2 16 14 11 18
17 10 13 -8 -5 -5 4 8 20 12 16 22 35 22 42 0 8 5 14 11 14 17 0 36 24 31 40
-5 13 -3 13 13 0 11 -9 16 -10 11 -2 -4 7 -4 22 -1 33 6 17 9 19 16 8 7 -12 9
-11 10 1z m-1338 -74 c14 -11 15 -15 5 -19 -8 -4 -7 -6 5 -6 28 -1 26 -56 -4
-83 -25 -24 -45 -23 -63 4 -23 32 -20 74 6 98 25 23 27 24 51 6z m-343 -56 c0
-5 -5 -10 -11 -10 -5 0 -7 5 -4 10 3 6 8 10 11 10 2 0 4 -4 4 -10z m285 -82
l20 -37 -21 -28 c-12 -15 -29 -29 -38 -31 -17 -4 -49 22 -39 32 4 3 2 6 -4 6
-6 0 -14 16 -17 36 -9 45 7 66 48 62 24 -2 35 -11 51 -40z m61 -86 c2 -10 -4
-12 -20 -8 -15 4 -28 -1 -40 -15 -9 -12 -20 -18 -23 -15 -3 3 9 17 26 32 18
15 30 32 27 39 -2 7 -2 16 2 19 6 7 22 -23 28 -52z m-395 15 c-10 -9 -11 -8
-5 6 3 10 9 15 12 12 3 -3 0 -11 -7 -18z m695 -29 c-3 -13 -6 -37 -6 -55 0
-30 -1 -32 -34 -26 -26 4 -39 0 -55 -16 -43 -43 -12 -119 44 -109 19 4 25 1
25 -13 0 -16 -8 -19 -53 -19 -29 0 -59 -6 -66 -12 -11 -11 -12 -8 -6 17 4 17
10 51 14 78 7 39 18 59 67 111 64 69 80 79 70 44z m-712 -30 c-9 -26 -11 -33
-13 -48 0 -5 -6 -10 -12 -10 -8 0 -7 6 2 17 8 9 13 18 11 20 -4 6 10 54 15 49
3 -2 1 -15 -3 -28z m447 -8 c32 -32 33 -57 1 -92 -20 -24 -26 -23 -61 10 -42
38 -49 75 -20 96 33 23 46 20 80 -14z m779 17 c0 -2 -10 -12 -22 -23 l-23 -19
19 23 c18 21 26 27 26 19z m-1234 -159 c3 -29 10 -55 16 -59 6 -4 9 -16 6 -27
-3 -11 0 -42 7 -68 9 -36 9 -51 1 -56 -7 -5 -6 -8 3 -8 8 0 12 -3 9 -6 -4 -3
-19 1 -35 9 -15 8 -34 12 -42 9 -10 -3 -12 1 -8 17 4 17 3 20 -7 11 -15 -12
-42 11 -28 24 4 5 0 7 -8 5 -23 -3 -51 12 -43 24 4 6 0 8 -10 4 -11 -4 -14 -2
-10 9 3 9 12 13 21 9 9 -3 13 -3 9 1 -4 4 3 14 14 22 12 8 27 30 35 48 8 19
19 34 25 34 5 0 8 4 5 9 -3 5 -1 23 6 41 9 26 12 29 20 17 5 -9 11 -40 14 -69z
m735 56 c9 -26 -11 -69 -31 -69 -9 0 -14 8 -13 20 1 19 1 19 -11 3 -17 -24
-33 -23 -46 3 -9 15 -8 24 2 37 11 13 11 15 -2 7 -13 -8 -13 -6 -2 7 20 25 93
19 103 -8z m-2040 -57 c-10 -9 -11 -8 -5 6 3 10 9 15 12 12 3 -3 0 -11 -7 -18z
m21 -71 c-6 -10 -20 20 -21 44 0 8 6 4 13 -10 8 -14 12 -29 8 -34z m1953 -27
c7 -23 -2 -75 -12 -65 -3 3 -11 2 -17 -3 -6 -4 -26 -13 -45 -19 -32 -11 -33
-11 -27 11 3 12 6 30 6 40 0 10 4 15 10 12 5 -3 7 0 4 9 -7 17 37 33 57 20 8
-4 9 -3 5 4 -4 7 -3 12 3 12 5 0 13 -9 16 -21z m-310 -23 c18 -13 28 -76 12
-76 -5 0 -5 -5 -1 -12 10 -16 33 18 27 40 -3 13 8 23 41 40 45 21 46 21 46 2
0 -13 -34 -47 -101 -100 -55 -44 -96 -80 -92 -80 4 0 43 12 86 26 43 14 81 24
83 21 6 -6 -88 -285 -114 -336 -9 -19 -40 -54 -68 -78 l-51 -43 -42 86 c-37
77 -40 89 -28 108 11 17 12 42 4 123 -5 57 -7 109 -4 115 2 7 29 26 60 42 51
28 56 29 71 13 19 -19 51 -23 61 -7 5 9 1 11 -20 10 -3 0 -19 7 -35 15 -39 20
-40 56 -2 84 32 24 42 25 67 7z m-460 -56 c17 -19 16 -19 -36 -27 l-54 -7 91
-12 c134 -17 210 -67 229 -151 3 -18 4 -33 2 -33 -9 0 -166 110 -172 120 -4 6
-10 10 -15 10 -23 0 50 -81 97 -109 68 -41 79 -62 63 -112 -7 -22 -15 -39 -16
-39 -2 0 -36 24 -76 54 -63 48 -119 72 -132 58 -3 -2 23 -26 57 -53 37 -31 72
-69 89 -101 15 -28 27 -52 26 -53 -16 -13 -50 -25 -58 -20 -5 3 -23 25 -40 48
-16 23 -46 51 -65 61 -33 18 -35 18 -72 -1 -65 -34 -114 -38 -165 -12 -23 12
-67 26 -96 30 -51 7 -57 6 -114 -32 -54 -34 -68 -39 -120 -39 -37 0 -127 -17
-240 -45 -128 -33 -239 -53 -382 -70 -151 -18 -527 -55 -576 -57 -21 -1 -37 9
-92 60 -35 32 -98 82 -140 111 -43 30 -78 55 -78 56 0 2 25 43 54 91 52 85 59
91 144 142 48 28 92 52 96 52 4 0 33 -19 64 -43 82 -62 93 -65 210 -56 57 5
168 5 245 0 174 -9 507 3 642 24 113 18 199 51 330 124 l90 51 96 0 c83 0 98
-3 114 -20z m341 -18 c-17 -16 -18 -16 -5 5 7 12 15 20 18 17 3 -2 -3 -12 -13
-22z m751 -11 c-18 -20 -27 -70 -15 -77 11 -7 2 -88 -11 -92 -6 -2 -7 -11 -4
-19 4 -10 -3 -7 -18 8 -13 13 -23 27 -22 31 2 4 -3 5 -10 2 -8 -3 -18 6 -25
20 -9 20 -8 27 7 40 14 13 20 13 31 3 12 -10 12 -9 3 3 -9 12 -5 24 18 54 16
22 29 46 29 54 0 12 3 12 15 2 13 -11 14 -15 2 -29z m-395 -78 c-95 -93 -102
-102 -121 -166 l-19 -68 24 -115 c35 -167 32 -223 -14 -227 -11 0 -19 -4 -17
-8 3 -3 -7 -11 -21 -18 l-25 -11 6 54 c12 103 -18 126 -70 53 -16 -23 -29 -45
-30 -48 0 -10 -40 -84 -48 -90 -4 -3 -5 -13 -1 -22 4 -12 -8 -23 -46 -42 -29
-15 -48 -21 -44 -13 4 7 9 19 10 28 1 8 4 22 8 31 10 23 -18 43 -49 35 -14 -4
-23 -10 -20 -15 6 -10 -23 -23 -35 -16 -5 3 -12 0 -16 -6 -4 -8 -3 -9 4 -5 21
13 13 -14 -12 -39 -13 -13 -21 -26 -18 -29 3 -3 -2 -6 -12 -6 -9 0 -14 -5 -11
-10 8 -13 -17 -8 -28 5 -5 6 -6 1 -3 -10 6 -20 -7 -44 -49 -89 l-20 -21 -17
170 c-9 94 -17 179 -17 191 -1 16 10 24 52 37 30 9 61 17 70 17 35 0 14 16
-57 45 -52 20 -76 35 -80 49 -3 11 -4 21 -2 23 1 2 41 -15 87 -36 82 -39 84
-41 102 -91 10 -28 25 -54 34 -57 11 -4 3 -13 -29 -33 -42 -26 -47 -34 -92
-154 -27 -70 -46 -129 -43 -132 7 -8 47 56 47 76 0 8 7 24 15 34 8 10 12 23 9
27 -3 5 1 9 8 9 8 0 14 13 15 33 1 25 13 46 47 81 26 26 44 51 41 55 -5 10 98
81 118 81 7 0 18 -5 24 -11 8 -8 11 -7 10 4 -1 9 1 15 4 14 3 -1 18 12 33 30
17 20 34 30 46 28 12 -2 17 1 14 10 -3 7 0 16 5 20 6 3 9 10 6 15 -3 5 -1 11
5 15 5 3 10 17 10 30 0 13 4 27 10 30 5 3 16 27 24 53 23 72 42 121 50 129 4
4 4 -1 0 -11 -5 -14 -3 -17 7 -14 8 2 24 38 35 78 l21 74 69 22 c38 12 75 22
83 23 7 1 -32 -43 -87 -96z m-145 64 c0 -8 -6 -14 -14 -14 -9 0 -10 4 -2 14 6
7 12 13 14 13 1 0 2 -6 2 -13z m207 -85 c0 -43 -23 -99 -35 -87 -9 9 4 -70 13
-82 11 -14 1 -56 -12 -48 -4 3 -6 -3 -3 -13 4 -19 -20 -75 -29 -66 -4 3 -9 0
-14 -7 -4 -8 -3 -10 4 -5 15 9 15 3 1 -28 -7 -14 -15 -23 -20 -21 -4 3 -5 -5
-1 -17 3 -14 1 -19 -6 -14 -8 5 -10 1 -5 -10 4 -11 2 -15 -4 -11 -6 4 -11 1
-10 -6 0 -6 -1 -21 -2 -32 -3 -32 -31 40 -36 94 -3 25 -11 66 -18 90 -11 37
-11 50 1 90 8 25 22 55 31 65 13 16 13 18 1 12 -8 -4 -4 1 9 12 13 10 33 30
43 43 11 13 17 19 14 12 -4 -6 -1 -15 5 -19 7 -4 9 -3 5 4 -3 6 11 29 31 51
21 22 38 41 38 41 0 0 0 -22 -1 -48z m-2459 20 c-3 -3 -11 0 -18 7 -9 10 -8
11 6 5 10 -3 15 -9 12 -12z m115 -49 c3 -3 -12 -2 -33 1 -34 5 -67 25 -67 40
0 5 90 -32 100 -41z m2946 -118 c7 -16 13 -27 14 -23 0 4 13 2 30 -3 16 -6 28
-15 25 -19 -3 -5 0 -12 6 -16 8 -4 9 -3 5 4 -10 16 19 15 52 -1 29 -15 70 -16
91 -3 7 4 29 5 49 1 20 -4 33 -3 29 1 -8 8 94 32 138 33 17 1 18 -1 5 -9 -11
-8 -8 -9 13 -4 15 3 33 2 40 -4 6 -6 15 -11 19 -11 4 -1 13 -3 20 -5 7 -3 31
-8 53 -12 22 -4 46 -9 52 -11 7 -2 26 -6 43 -10 16 -3 35 -11 41 -19 6 -8 18
-14 25 -14 8 0 14 -4 14 -9 0 -5 11 -12 25 -15 14 -4 23 -11 20 -16 -3 -6 3
-10 14 -10 11 0 25 -10 32 -22 10 -18 9 -20 -6 -15 -9 4 -19 7 -21 7 -3 0 -2
5 1 10 3 6 2 10 -3 10 -20 0 -20 -14 1 -31 19 -16 20 -18 5 -19 -10 0 -18 4
-18 10 0 5 -16 17 -35 26 -19 9 -33 20 -30 24 3 4 -5 8 -18 8 -21 0 -112 10
-112 12 0 6 -77 5 -81 -2 -3 -4 -10 -6 -15 -3 -5 4 -9 2 -9 -4 0 -6 -11 -21
-25 -35 -14 -14 -25 -30 -25 -36 0 -5 -5 -9 -12 -8 -7 2 -12 -2 -13 -9 0 -6
-4 -15 -9 -20 -5 -5 -6 -2 -1 6 6 10 4 12 -4 7 -7 -5 -10 -14 -7 -22 6 -14 -9
-20 -17 -6 -2 4 -2 1 0 -7 2 -8 -6 -20 -17 -28 -11 -8 -18 -19 -15 -24 3 -5 0
-6 -8 -3 -10 4 -15 -1 -14 -13 1 -10 -5 -18 -13 -19 -8 0 -25 -3 -36 -7 -12
-4 -37 -10 -55 -12 -19 -3 -44 -7 -56 -9 -13 -3 -23 -3 -23 0 0 3 24 29 53 58
34 33 62 52 75 51 18 -1 19 1 10 19 -6 12 -7 18 -3 14 5 -4 23 8 42 27 19 20
39 32 45 29 6 -4 8 -3 5 3 -3 5 17 31 44 58 59 57 60 81 6 79 -20 -1 -37 2
-37 7 0 4 -19 1 -42 -7 -23 -8 -50 -12 -60 -8 -10 3 -18 0 -18 -6 0 -6 -11 -8
-27 -4 -22 4 -25 3 -13 -5 13 -9 8 -15 -12 -12 -4 0 -16 -11 -26 -24 -11 -14
-23 -25 -26 -25 -4 0 -22 -14 -41 -32 -33 -30 -40 -56 -21 -87 7 -11 -20 -41
-37 -41 -7 0 -23 7 -35 16 -12 8 -27 12 -34 8 -7 -4 -8 -3 -4 4 4 7 2 12 -5
12 -6 0 1 10 17 23 16 12 42 36 59 53 30 30 30 30 10 50 -11 11 -27 18 -37 16
-9 -2 -19 2 -23 7 -3 6 -17 11 -31 11 -13 0 -24 5 -24 10 0 6 -5 10 -11 10 -5
0 -8 -4 -5 -9 4 -5 -3 -7 -15 -4 -16 5 -18 8 -7 15 9 7 4 8 -14 4 -17 -4 -28
-2 -28 4 0 6 -6 10 -12 9 -7 -1 -24 2 -37 8 l-25 10 27 5 c14 3 24 2 22 -3 -3
-4 6 -2 20 4 13 7 27 22 30 35 3 14 13 22 27 22 20 0 21 1 4 13 -16 12 -15 13
10 12 21 0 31 -7 40 -30z m-462 -74 c-2 -14 -6 -46 -8 -71 -1 -25 -9 -73 -16
-108 l-13 -64 62 -62 c33 -34 61 -64 61 -67 0 -7 -109 -1 -252 13 -65 6 -118
15 -118 19 0 5 37 90 82 189 73 163 83 179 103 174 13 -3 31 2 46 15 22 17 26
18 41 4 11 -10 15 -25 12 -42z m-664 9 c0 -5 -2 -10 -4 -10 -3 0 -8 5 -11 10
-3 6 -1 10 4 10 6 0 11 -4 11 -10z m714 -5 c19 -15 59 -11 83 7 8 6 11 2 9
-16 -2 -14 0 -23 4 -21 5 3 11 -3 14 -12 4 -10 4 -14 0 -11 -3 4 -14 -2 -23
-12 -25 -31 -67 -14 -98 38 -26 43 -22 52 11 27z m-787 -30 c-7 -17 33 -12 44
6 8 13 11 6 8 -17 0 -4 3 -10 8 -13 16 -12 43 -73 36 -84 -3 -7 -2 -9 2 -5 13
13 43 -45 31 -58 -6 -6 -17 -9 -25 -6 -8 3 -12 1 -9 -4 3 -5 -4 -18 -15 -29
-11 -11 -16 -13 -12 -5 6 12 5 12 -5 4 -16 -15 -52 19 -44 41 4 8 0 17 -9 21
-10 4 -13 14 -10 32 8 45 6 84 -4 91 -6 3 -13 16 -17 28 -6 18 -4 22 9 17 9
-4 14 -12 12 -19z m-514 -5 c4 0 5 5 1 12 -4 7 -3 8 4 4 17 -10 15 -26 -3 -26
-8 0 -15 -8 -15 -17 0 -14 -3 -13 -16 5 -17 24 -10 52 9 33 6 -6 15 -11 20
-11z m317 -24 c0 -25 -22 -51 -34 -39 -10 10 -48 14 -42 5 3 -5 -8 -16 -25
-26 -16 -9 -29 -14 -29 -11 0 4 -7 -1 -16 -9 -22 -23 -34 -20 -34 8 0 31 10
57 20 51 7 -4 35 3 85 20 16 6 17 5 5 -4 -9 -7 -11 -11 -3 -11 7 0 16 6 20 14
7 12 27 23 46 25 4 1 7 -10 7 -23z m1026 -38 c21 -4 22 -23 13 -165 -3 -52 -8
-74 -19 -78 -8 -4 -11 -3 -8 1 4 3 -5 17 -19 30 -14 13 -23 27 -20 30 9 9 -16
32 -29 27 -8 -3 -11 11 -8 44 2 26 4 64 5 83 0 19 3 47 6 62 l4 27 28 -28 c16
-16 37 -31 47 -33z m-1238 -47 c3 -58 2 -61 -28 -76 -22 -11 -42 -39 -76 -106
l-45 -91 7 -109 7 -109 -27 -21 c-21 -16 -26 -28 -24 -52 2 -17 8 -32 15 -34
6 -2 10 4 8 14 -3 21 10 48 35 76 17 18 20 18 43 2 42 -27 41 -53 -4 -98 -32
-33 -42 -37 -54 -27 -8 7 -15 11 -16 9 0 -2 -2 -22 -4 -43 l-4 -39 24 23 c20
19 27 21 40 10 8 -7 13 -15 11 -18 -3 -2 4 -12 16 -22 30 -24 18 -44 -33 -59
-24 -7 -50 -18 -57 -24 -10 -8 -23 0 -55 30 -40 39 -50 42 -207 80 l-165 39
-234 -9 c-218 -7 -237 -9 -275 -31 -63 -36 -173 -96 -259 -141 -75 -40 -77
-42 -58 -59 10 -9 21 -25 24 -35 4 -17 3 -17 -32 0 -23 11 -38 14 -42 7 -4 -7
-9 -7 -13 0 -4 6 -14 8 -23 5 -9 -4 -14 -2 -11 3 4 5 -8 10 -25 10 -103 5
-147 9 -147 14 0 3 -6 43 -13 90 l-13 85 -141 175 -141 175 -47 158 c-25 88
-45 160 -43 161 2 1 26 20 54 43 l51 42 48 -117 c26 -64 56 -140 67 -169 13
-32 77 -125 172 -247 83 -108 158 -206 166 -217 16 -21 17 -21 171 74 l156 95
204 16 c112 9 248 16 301 16 89 0 98 -2 109 -21 8 -15 14 -18 22 -10 25 25
238 7 222 -19 -3 -5 2 -11 11 -14 10 -4 13 -2 9 7 -4 6 0 4 9 -7 8 -10 19 -15
24 -12 5 3 15 -1 22 -9 7 -8 19 -15 26 -15 13 0 18 -12 15 -35 -1 -5 5 -2 12
7 17 22 31 11 15 -11 -10 -13 -9 -13 6 1 10 9 15 21 11 27 -3 7 -51 34 -106
61 l-99 50 -100 0 c-55 0 -100 2 -100 5 0 19 55 121 92 171 l46 61 -23 104
c-13 57 -22 104 -22 105 1 0 76 31 166 70 90 38 167 70 171 72 7 3 -39 -173
-55 -210 -19 -46 9 -7 74 102 l73 121 31 -20 c29 -18 32 -25 35 -80z m252 84
c10 -12 10 -15 -4 -15 -9 0 -16 7 -16 15 0 8 2 15 4 15 2 0 9 -7 16 -15z
m-220 -15 c0 -5 -2 -10 -4 -10 -3 0 -8 5 -11 10 -3 6 -1 10 4 10 6 0 11 -4 11
-10z m-1785 -95 c169 -143 163 -140 266 -153 88 -11 105 -9 252 16 l159 28 -6
-29 c-3 -16 -6 -48 -6 -71 l0 -41 -104 -58 c-57 -31 -107 -57 -112 -57 -5 0
-4 4 2 8 13 8 64 106 64 123 0 8 -6 7 -17 -3 -40 -34 -124 -77 -226 -116
l-108 -42 -64 37 c-36 21 -65 41 -65 44 0 3 36 11 81 18 107 16 109 17 109 58
l0 34 -69 -7 c-39 -3 -95 -3 -125 0 l-55 7 -18 57 c-11 37 -36 80 -71 125 -30
37 -53 69 -51 71 2 1 20 7 39 13 40 11 37 12 125 -62z m1920 66 c-3 -5 4 -12
15 -16 11 -3 20 -13 20 -22 0 -8 14 -20 30 -26 17 -6 30 -17 30 -25 0 -7 5
-10 12 -6 7 4 8 3 4 -5 -4 -6 -13 -10 -20 -9 -6 2 -28 -13 -48 -33 -33 -33
-37 -43 -48 -129 -10 -67 -17 -93 -29 -97 -20 -7 -61 -52 -61 -67 0 -6 -12 4
-26 22 -21 26 -32 32 -65 32 -44 0 -79 -27 -79 -61 0 -11 -3 -18 -8 -16 -4 3
-7 20 -6 39 1 18 -4 36 -10 40 -8 6 -7 8 1 8 9 0 10 7 4 23 -5 12 -5 32 0 46
8 20 11 22 27 10 15 -12 16 -12 4 2 -10 13 -9 22 3 45 8 16 15 34 15 40 0 7 7
15 16 18 10 4 14 12 10 22 -4 11 -2 15 8 11 10 -4 13 -1 9 9 -3 8 -2 14 3 13
19 -4 44 14 44 32 0 16 66 69 86 69 3 0 17 9 31 20 28 22 37 25 28 11z m-545
-13 c0 -4 -26 -16 -58 -28 -59 -22 -102 -66 -82 -86 8 -8 13 -36 27 -139 4
-35 0 -46 -31 -85 -20 -25 -36 -50 -36 -56 0 -7 -7 -15 -16 -18 -9 -3 -14 -13
-10 -21 3 -8 1 -17 -4 -20 -6 -4 -10 -15 -10 -26 0 -11 -7 -19 -17 -20 -98 -6
-126 0 -67 15 30 8 61 37 93 89 12 20 27 34 33 30 7 -4 9 2 6 15 -4 12 -3 22
1 22 4 0 13 11 19 25 10 21 8 44 -8 118 -25 114 -31 121 -96 107 -27 -5 -62
-12 -79 -15 -196 -33 -193 -31 -197 -136 -1 -55 -6 -75 -14 -72 -7 2 -15 -1
-20 -8 -4 -8 -3 -10 4 -5 7 4 12 5 12 2 0 -3 -29 -24 -64 -47 -36 -23 -67 -48
-70 -55 -3 -8 -12 -14 -20 -14 -27 0 -28 -21 -1 -46 24 -22 66 -31 128 -26 9
1 17 -2 17 -6 0 -5 -6 -9 -12 -9 -199 -12 -224 -16 -289 -49 -36 -19 -71 -34
-79 -34 -7 0 -10 -3 -7 -7 6 -6 -12 -20 -53 -40 -8 -4 -24 -15 -34 -25 -11
-10 -25 -18 -32 -18 -7 0 -20 -7 -28 -15 -23 -23 -45 -7 -109 78 -30 40 -62
79 -71 86 -9 7 -16 19 -16 27 0 7 -6 17 -13 21 -28 17 -147 183 -153 212 -4
17 -10 31 -15 31 -5 0 -9 6 -9 13 0 8 -7 28 -16 46 -9 17 -17 37 -18 44 -2 7
-6 25 -11 40 -10 36 -3 42 20 17 18 -20 18 -21 -1 -15 -10 4 -7 -1 7 -9 31
-18 59 -79 61 -134 0 -12 5 -25 11 -29 6 -4 7 -1 2 8 -5 8 3 5 16 -7 21 -18
36 -21 111 -20 49 1 88 -2 88 -5 0 -8 -71 -29 -97 -29 -11 0 -28 -9 -37 -19
-14 -15 -15 -24 -6 -40 6 -12 14 -21 19 -21 4 0 21 -11 36 -24 16 -14 31 -24
34 -24 3 1 18 -5 34 -12 21 -10 30 -11 39 -2 7 7 19 12 28 12 22 0 181 64 215
86 16 11 26 13 22 7 -17 -27 -16 -53 3 -63 14 -8 34 -2 87 26 37 19 72 39 77
44 5 5 15 6 24 3 10 -4 13 -2 8 5 -4 7 -1 12 7 12 18 0 34 40 42 109 7 58 -10
91 -47 91 -29 0 -21 15 10 18 15 1 38 5 52 7 57 10 188 25 225 26 22 1 45 4
50 8 6 3 15 6 20 6 36 1 145 30 145 39 0 5 3 7 6 3 3 -3 17 -1 31 4 14 5 41
12 61 15 19 3 44 9 56 14 25 10 66 9 66 -2z m-1720 -101 c6 -17 6 -25 0 -22
-17 10 -11 -13 8 -31 9 -10 16 -20 16 -23 -1 -3 2 -15 6 -27 5 -12 14 -49 21
-83 6 -33 16 -61 20 -61 5 0 9 -8 9 -18 0 -21 99 -157 130 -179 11 -8 20 -20
20 -27 0 -7 13 -25 30 -41 16 -15 27 -33 23 -38 -3 -6 -1 -7 4 -4 6 4 17 -1
24 -10 12 -14 12 -16 -1 -8 -8 4 1 -9 20 -29 19 -20 36 -47 37 -59 6 -65 14
-120 18 -127 3 -5 -3 -7 -12 -6 -10 1 -28 22 -40 47 -12 24 -28 53 -35 64 -7
11 -11 23 -11 26 4 14 -35 39 -50 33 -9 -3 -29 -32 -44 -65 -28 -59 -46 -71
-72 -46 -10 8 -12 8 -7 0 3 -6 1 -15 -5 -19 -8 -5 -9 -3 -4 6 5 9 2 10 -13 6
-11 -4 -23 -2 -27 4 -3 6 -10 8 -15 5 -5 -3 -28 1 -52 9 -24 8 -59 17 -78 21
-19 4 -38 9 -42 12 -4 2 5 27 21 56 15 29 27 59 25 67 -4 26 -35 112 -60 167
-13 28 -24 58 -24 65 0 8 -4 18 -9 23 -16 17 -19 131 -3 121 4 -2 39 11 77 30
39 18 67 34 63 34 -5 0 1 9 12 20 26 26 25 41 -3 73 -18 21 -32 27 -70 28 -32
2 -44 6 -38 12 6 6 18 11 28 12 10 1 34 9 53 17 24 10 36 11 38 4 2 -6 8 -24
12 -39z m1533 -86 l17 -89 -47 -79 -47 -79 -81 -32 -80 -31 -134 19 c-73 10
-135 21 -138 24 -3 2 5 10 18 16 12 7 56 38 98 69 l76 56 0 80 0 80 135 26
c74 15 142 27 150 28 11 1 20 -22 33 -88z m1294 -24 c-10 -80 -13 -87 -38 -98
-34 -13 -63 -44 -55 -57 10 -17 -17 -29 -79 -37 -70 -8 -65 1 17 36 43 18 58
29 58 44 0 11 9 34 19 52 11 17 34 59 52 93 17 33 33 59 35 57 2 -1 -2 -42 -9
-90z m-1872 73 c-11 -4 -49 -13 -85 -19 -36 -6 -78 -14 -95 -18 -53 -12 -207
-5 -199 9 5 7 65 15 183 23 41 3 76 6 77 8 1 1 33 3 71 4 44 1 61 -1 48 -7z
m2670 -17 c-11 -7 -24 -13 -29 -13 -6 1 -1 6 12 13 12 7 19 17 15 22 -4 4 -2
5 6 0 12 -7 11 -10 -4 -22z m-3663 -13 c4 -27 0 -32 -56 -62 -34 -18 -64 -34
-68 -36 -5 -2 -8 26 -8 62 l0 66 64 0 c63 0 64 0 68 -30z m590 11 c4 -4 0 -7
-11 -7 -10 0 -24 7 -31 14 -11 12 -9 13 11 7 13 -4 27 -10 31 -14z m1754 -25
c-2 -13 1 -50 5 -82 4 -33 10 -86 13 -119 5 -56 4 -58 -9 -35 -8 14 -14 21
-15 16 0 -16 -40 36 -40 53 0 9 5 43 11 76 6 33 11 67 11 75 1 13 16 40 23 40
2 0 2 -11 1 -24z m1274 6 c0 -10 -21 -32 -30 -32 -4 0 -7 6 -7 14 0 8 6 12 15
8 10 -3 13 -1 8 6 -4 7 -2 12 3 12 6 0 11 -4 11 -8z m-66 -40 c3 -5 -7 -21
-22 -35 l-28 -27 -2 25 c-1 13 3 27 8 30 6 3 10 1 10 -5 0 -6 5 -8 10 -5 6 4
8 11 5 16 -4 5 -2 9 4 9 5 0 12 -4 15 -8z m-1390 -181 c30 -33 28 -61 -8 -97
-18 -18 -31 -36 -28 -39 3 -3 0 -5 -7 -5 -7 0 -11 -6 -8 -13 9 -24 -21 -14
-32 10 -10 22 -9 23 9 13 14 -7 20 -7 20 0 0 5 -4 10 -8 10 -5 0 -19 10 -31
21 l-23 22 7 -23 c5 -16 4 -20 -4 -15 -16 9 -4 94 17 118 20 23 74 22 96 -2z
m784 -4 c27 6 27 6 8 -16 -18 -20 -53 -31 -42 -12 4 5 1 11 -6 13 -7 3 -8 9
-3 18 6 10 10 11 13 2 2 -8 13 -10 30 -5z m-273 -25 c-5 -4 -12 -16 -13 -27
-3 -17 0 -15 18 8 14 18 31 27 50 27 31 0 40 -18 40 -86 0 -37 -3 -43 -27 -49
-19 -4 -34 0 -54 14 -39 29 -45 26 -12 -5 l28 -27 -25 8 c-14 4 -26 11 -28 16
-2 4 -10 5 -18 2 -9 -3 -15 2 -16 18 -2 44 2 62 20 76 9 8 11 12 5 8 -9 -4
-11 -1 -7 9 3 9 16 16 28 16 11 0 17 -4 11 -8z m-15 -147 c7 -8 8 -15 2 -15
-5 0 -24 -3 -42 -6 -31 -7 -32 -6 -21 15 14 24 43 28 61 6z m-230 -69 c0 -15
-9 -18 -45 -18 -33 0 -36 2 -25 22 6 11 7 20 3 21 -4 1 3 4 17 8 27 8 50 -7
50 -33z m-845 -57 c10 0 24 -4 30 -9 6 -5 27 -11 46 -14 80 -11 119 -19 119
-26 0 -4 10 -8 23 -8 50 0 97 -29 97 -61 0 -14 2 -14 11 -1 8 12 10 12 7 1 -2
-8 -13 -16 -24 -17 -10 -2 -53 -12 -94 -23 -89 -23 -188 -42 -250 -48 -25 -2
-70 -8 -100 -13 -104 -17 -225 -29 -360 -34 -324 -13 -315 -14 -335 24 -18 34
-11 55 13 45 9 -3 13 -3 10 0 -6 6 45 36 142 86 19 9 65 34 101 56 l65 38 205
3 c112 2 205 5 207 7 2 2 18 1 35 -1 18 -2 41 -4 52 -5z"/>
<path d="M1645 4240 c10 -11 20 -20 23 -20 3 0 -3 9 -13 20 -10 11 -20 20 -23
20 -3 0 3 -9 13 -20z"/>
<path d="M1429 4223 c-13 -16 -12 -17 4 -4 9 7 17 15 17 17 0 8 -8 3 -21 -13z"/>
<path d="M1486 4161 c9 -17 17 -31 19 -31 8 0 -9 40 -21 51 -10 8 -10 3 2 -20z"/>
<path d="M1156 3902 c-3 -4 4 -9 15 -9 23 -2 25 3 4 10 -8 4 -16 3 -19 -1z"/>
<path d="M1361 3124 c0 -11 3 -14 6 -6 3 7 2 16 -1 19 -3 4 -6 -2 -5 -13z"/>
<path d="M1625 3670 c3 -5 8 -10 11 -10 2 0 4 5 4 10 0 6 -5 10 -11 10 -5 0
-7 -4 -4 -10z"/>
<path d="M1553 3455 c0 -8 4 -12 9 -9 5 3 6 10 3 15 -9 13 -12 11 -12 -6z"/>
<path d="M1810 3441 c0 -6 4 -13 10 -16 6 -3 7 1 4 9 -7 18 -14 21 -14 7z"/>
<path d="M1606 3318 c3 -5 10 -6 15 -3 13 9 11 12 -6 12 -8 0 -12 -4 -9 -9z"/>
<path d="M1634 3308 l-19 -23 23 19 c21 18 27 26 19 26 -2 0 -12 -10 -23 -22z"/>
<path d="M1496 3251 c-3 -5 2 -15 12 -22 15 -12 16 -12 5 2 -7 9 -10 19 -6 22
3 4 4 7 0 7 -3 0 -8 -4 -11 -9z"/>
<path d="M4200 3530 c-9 -6 -10 -10 -3 -10 6 0 15 5 18 10 8 12 4 12 -15 0z"/>
<path d="M4126 3454 c-4 -10 -1 -14 6 -12 15 5 23 28 10 28 -5 0 -13 -7 -16
-16z"/>
<path d="M4080 3430 c0 -5 7 -7 15 -4 8 4 15 8 15 10 0 2 -7 4 -15 4 -8 0 -15
-4 -15 -10z"/>
<path d="M4195 3410 c3 -5 -2 -10 -12 -11 -11 0 -13 -3 -5 -6 6 -2 10 -9 6
-14 -3 -5 -1 -9 5 -9 5 0 12 6 15 13 5 10 7 10 12 0 3 -7 13 -13 22 -13 13 0
9 7 -12 25 -31 26 -41 31 -31 15z"/>
<path d="M4162 3269 c2 -7 10 -15 17 -17 8 -3 12 1 9 9 -2 7 -10 15 -17 17 -8
3 -12 -1 -9 -9z"/>
<path d="M4007 3169 c7 -7 15 -10 18 -7 3 3 -2 9 -12 12 -14 6 -15 5 -6 -5z"/>
<path d="M3802 3392 c-11 -25 -11 -25 4 -10 9 9 15 21 13 27 -2 6 -10 -2 -17
-17z"/>
<path d="M3809 3353 c-13 -16 -12 -17 4 -4 16 13 21 21 13 21 -2 0 -10 -8 -17
-17z"/>
<path d="M4862 3291 c-11 -7 -11 -9 0 -14 9 -3 15 1 15 9 0 8 -1 14 -1 14 -1
0 -7 -4 -14 -9z"/>
<path d="M1503 1805 c0 -8 4 -12 9 -9 5 3 6 10 3 15 -9 13 -12 11 -12 -6z"/>
<path d="M5200 2520 c-9 -6 -10 -10 -3 -10 6 0 15 5 18 10 8 12 4 12 -15 0z"/>
<path d="M5240 2520 c-8 -5 -10 -10 -5 -10 6 0 17 5 25 10 8 5 11 10 5 10 -5
0 -17 -5 -25 -10z"/>
<path d="M2540 2905 c0 -5 5 -17 10 -25 5 -8 10 -10 10 -5 0 6 -5 17 -10 25
-5 8 -10 11 -10 5z"/>
<path d="M2149 2728 c-5 -18 -6 -38 -1 -34 7 8 12 36 6 36 -2 0 -4 -1 -5 -2z"/>
<path d="M3770 2801 c0 -6 4 -13 10 -16 6 -3 7 1 4 9 -7 18 -14 21 -14 7z"/>
<path d="M3833 2488 c-12 -6 -27 -25 -33 -42 -15 -43 13 -80 63 -84 63 -5 90
66 42 113 -26 27 -38 29 -72 13z m50 -27 c15 -2 24 -45 14 -63 -8 -12 -15 -14
-24 -6 -9 7 -13 7 -13 -1 0 -8 -6 -8 -20 1 -24 15 -27 58 -4 58 8 0 13 4 10 9
-4 5 2 8 11 6 10 -2 22 -4 26 -4z"/>
<path d="M4090 2399 c0 -5 5 -7 10 -4 6 3 10 8 10 11 0 2 -4 4 -10 4 -5 0 -10
-5 -10 -11z"/>
<path d="M4425 2400 c-3 -5 -14 -10 -24 -10 -14 0 -20 -11 -25 -41 -6 -40 -4
-44 46 -98 28 -31 54 -58 56 -61 3 -3 1 5 -2 17 -5 15 -1 28 11 40 32 33 93
123 83 123 -6 0 -16 -11 -22 -25 -14 -30 -24 -32 -24 -5 0 11 4 20 8 20 4 0 8
5 8 11 0 5 -5 7 -10 4 -6 -3 -22 3 -36 14 -29 23 -59 27 -69 11z m69 -43 c3
-12 6 -35 6 -52 -1 -27 -2 -28 -12 -10 -6 11 -24 36 -39 55 l-27 36 33 -4 c24
-3 35 -10 39 -25z m-45 -44 c9 -7 12 -13 6 -13 -5 0 1 -7 13 -16 19 -13 21
-19 11 -30 -11 -13 -17 -10 -46 22 -35 40 -36 43 -27 69 6 16 8 16 17 -1 6
-11 18 -24 26 -31z"/>
<path d="M3717 2338 c-24 -19 -36 -59 -25 -84 29 -63 128 -41 128 27 0 52 -63
87 -103 57z m60 -17 c-1 -3 4 -16 11 -28 12 -21 9 -27 -10 -24 -4 0 -4 -7 -1
-16 5 -12 2 -15 -10 -10 -9 3 -17 2 -17 -4 0 -5 -6 -4 -14 3 -8 7 -12 16 -9
21 2 4 -1 7 -7 7 -17 0 -7 34 13 46 20 11 47 14 44 5z"/>
<path d="M3750 2296 c0 -2 7 -7 16 -10 8 -3 12 -2 9 4 -6 10 -25 14 -25 6z"/>
<path d="M4068 2283 c7 -3 16 -2 19 1 4 3 -2 6 -13 5 -11 0 -14 -3 -6 -6z"/>
<path d="M4354 2178 l-19 -23 23 19 c12 11 22 21 22 23 0 8 -8 2 -26 -19z"/>
<path d="M4243 2125 c0 -6 6 -12 12 -12 6 0 12 6 12 12 0 6 -6 12 -12 12 -6 0
-12 -6 -12 -12z"/>
<path d="M4288 2133 c6 -2 9 -10 6 -15 -4 -7 -2 -8 5 -4 13 9 5 26 -12 25 -9
0 -8 -2 1 -6z"/>
<path d="M3791 3114 c0 -11 3 -14 6 -6 3 7 2 16 -1 19 -3 4 -6 -2 -5 -13z"/>
<path d="M3524 3112 c4 -3 14 -7 22 -8 9 -1 13 0 10 4 -4 3 -14 7 -22 8 -9 1
-13 0 -10 -4z"/>
<path d="M3470 3096 c0 -2 8 -10 18 -17 15 -13 16 -12 3 4 -13 16 -21 21 -21
13z"/>
<path d="M3570 3016 c0 -2 8 -10 18 -17 15 -13 16 -12 3 4 -13 16 -21 21 -21
13z"/>
<path d="M1500 2991 c0 -6 4 -13 10 -16 6 -3 7 1 4 9 -7 18 -14 21 -14 7z"/>
<path d="M1576 2852 c-3 -5 1 -9 9 -9 8 0 12 4 9 9 -3 4 -7 8 -9 8 -2 0 -6 -4
-9 -8z"/>
<path d="M4284 2872 c4 -3 14 -7 22 -8 9 -1 13 0 10 4 -4 3 -14 7 -22 8 -9 1
-13 0 -10 -4z"/>
<path d="M3203 2685 c0 -8 4 -12 9 -9 5 3 6 10 3 15 -9 13 -12 11 -12 -6z"/>
<path d="M3229 2673 c-13 -16 -12 -17 4 -4 16 13 21 21 13 21 -2 0 -10 -8 -17
-17z"/>
<path d="M3112 2383 c-7 -3 -19 -18 -27 -33 -19 -37 -4 -74 37 -91 25 -10 33
-9 56 8 68 50 13 148 -66 116z m68 -49 c10 -25 -6 -55 -25 -48 -9 4 -15 0 -15
-7 -1 -8 -6 -4 -13 9 -7 12 -16 20 -20 16 -3 -4 -1 8 6 25 9 25 16 30 36 28
13 -2 28 -12 31 -23z"/>
<path d="M2904 2322 c3 -5 0 -13 -6 -15 -9 -4 -10 -6 -1 -6 17 -1 25 16 12 25
-7 4 -9 3 -5 -4z"/>
<path d="M3045 2260 c-3 -6 1 -7 9 -4 18 7 21 14 7 14 -6 0 -13 -4 -16 -10z"/>
<path d="M3075 2241 c-3 -5 -2 -12 3 -15 5 -3 9 1 9 9 0 17 -3 19 -12 6z"/>
<path d="M2725 1881 c-3 -5 -2 -12 3 -15 5 -3 9 1 9 9 0 17 -3 19 -12 6z"/>
<path d="M3420 2630 c-9 -6 -10 -10 -3 -10 6 0 15 5 18 10 8 12 4 12 -15 0z"/>
<path d="M3349 2401 c-15 -12 -19 -20 -11 -25 7 -4 12 -2 12 5 0 8 5 7 17 -2
11 -10 14 -10 9 -1 -8 14 -5 15 18 6 9 -3 13 -10 10 -15 -3 -5 0 -9 5 -9 11 0
10 -34 -1 -45 -13 -13 -48 -13 -59 1 -6 8 -15 14 -20 14 -14 0 -10 -17 7 -35
24 -24 73 -15 97 17 17 23 18 31 8 57 -17 41 -62 56 -92 32z"/>
<path d="M3480 2160 c6 -11 13 -20 16 -20 2 0 0 9 -6 20 -6 11 -13 20 -16 20
-2 0 0 -9 6 -20z"/>
<path d="M3379 2090 c-34 -20 -31 -88 5 -112 24 -16 75 -8 90 14 45 64 -27
138 -95 98z m81 -59 c0 -18 -5 -28 -15 -28 -8 0 -15 5 -15 11 0 6 -4 5 -9 -3
-12 -19 -41 -6 -41 18 0 11 10 27 22 35 29 21 58 4 58 -33z"/>
<path d="M3123 1729 c-2 -23 3 -25 10 -4 4 8 3 16 -1 19 -4 3 -9 -4 -9 -15z"/>
<path d="M3133 1675 c0 -7 6 -11 14 -8 7 3 13 6 13 8 0 2 -6 5 -13 8 -8 3 -14
-1 -14 -8z"/>
<path d="M3190 1636 c0 -2 7 -7 16 -10 8 -3 12 -2 9 4 -6 10 -25 14 -25 6z"/>
<path d="M1848 1613 c7 -3 16 -2 19 1 4 3 -2 6 -13 5 -11 0 -14 -3 -6 -6z"/>
<path d="M3260 1581 c0 -6 4 -13 10 -16 6 -3 7 1 4 9 -7 18 -14 21 -14 7z"/>
<path d="M2617 1483 c-3 -5 5 -8 18 -8 13 0 21 3 18 8 -2 4 -10 7 -18 7 -8 0
-16 -3 -18 -7z"/>
<path d="M1246 1391 c-3 -5 2 -15 12 -22 15 -12 16 -12 5 2 -7 9 -10 19 -6 22
3 4 4 7 0 7 -3 0 -8 -4 -11 -9z"/>
<path d="M1310 1325 c7 -8 17 -15 22 -15 5 0 3 7 -6 15 -8 8 -18 15 -22 15 -3
0 -1 -7 6 -15z"/>
<path d="M3845 1529 c-4 -6 -5 -12 -2 -15 2 -3 7 2 10 11 7 17 1 20 -8 4z"/>
<path d="M3765 1410 c-3 -6 1 -7 9 -4 18 7 21 14 7 14 -6 0 -13 -4 -16 -10z"/>
<path d="M4499 1513 c-13 -15 -12 -15 11 -3 34 17 36 20 18 20 -9 0 -22 -7
-29 -17z"/>
<path d="M4848 1513 c7 -3 16 -2 19 1 4 3 -2 6 -13 5 -11 0 -14 -3 -6 -6z"/>
<path d="M5178 1453 c7 -3 16 -2 19 1 4 3 -2 6 -13 5 -11 0 -14 -3 -6 -6z"/>
<path d="M4965 1409 c-6 -8 -4 -10 5 -4 10 6 12 4 6 -11 -6 -15 -5 -17 5 -6 9
9 10 15 2 23 -8 8 -13 7 -18 -2z"/>
<path d="M4890 1326 c7 -7 13 -7 20 0 6 6 3 10 -10 10 -13 0 -16 -4 -10 -10z"/>
<path d="M4570 1299 c0 -5 -5 -7 -12 -3 -7 4 -8 3 -4 -5 6 -9 11 -9 22 0 17
14 18 19 4 19 -5 0 -10 -5 -10 -11z"/>
<path d="M4530 1276 c0 -2 7 -7 16 -10 8 -3 12 -2 9 4 -6 10 -25 14 -25 6z"/>
<path d="M3896 1448 c-37 -52 -6 -112 55 -106 44 4 50 27 7 25 -23 -2 -32 2
-30 11 1 8 -2 11 -7 8 -5 -4 -12 -2 -16 4 -3 5 -2 10 4 10 6 0 8 7 5 15 -11
27 5 34 46 20 31 -11 40 -11 40 -2 0 41 -79 52 -104 15z"/>
<path d="M3898 1163 c7 -3 16 -2 19 1 4 3 -2 6 -13 5 -11 0 -14 -3 -6 -6z"/>
<path d="M4061 1304 c0 -11 3 -14 6 -6 3 7 2 16 -1 19 -3 4 -6 -2 -5 -13z"/>
<path d="M2750 1255 c-7 -9 -11 -17 -9 -20 3 -2 10 5 17 15 14 24 10 26 -8 5z"/>
<path d="M2425 1040 c-2 -3 5 -6 15 -7 11 -1 22 2 24 5 3 4 -4 8 -15 8 -11 0
-22 -3 -24 -6z"/>
<path d="M1296 647 c3 -10 9 -15 12 -12 3 3 0 11 -7 18 -10 9 -11 8 -5 -6z"/>
<path d="M749 1068 c-18 -18 -29 -26 -24 -18 4 8 -6 0 -24 -18 -17 -18 -32
-41 -32 -50 -1 -9 -3 -32 -5 -50 -1 -22 3 -36 17 -45 10 -8 17 -16 14 -19 -3
-3 5 -13 17 -24 14 -13 19 -14 14 -4 -6 12 -5 12 6 -1 26 -31 59 -28 65 7 18
97 17 221 -1 240 -14 13 -19 11 -47 -18z m29 -121 l-11 -116 -33 37 c-27 29
-33 46 -34 81 0 39 5 47 43 81 23 21 43 37 44 36 2 -1 -3 -55 -9 -119z"/>
<path d="M829 829 c-17 -16 -50 -45 -73 -64 -23 -19 -35 -35 -28 -35 7 0 10
-4 7 -10 -3 -5 -1 -10 5 -10 6 0 9 -4 6 -8 -3 -5 13 -31 34 -59 21 -28 35 -55
32 -59 -4 -4 1 -5 10 -1 9 3 26 -2 38 -13 17 -15 26 -17 44 -9 13 6 23 16 24
22 0 7 10 38 23 69 21 56 21 58 4 95 -24 52 -53 91 -75 103 -14 8 -25 3 -51
-21z m80 -56 l34 -56 -22 -68 -22 -69 -38 26 c-21 13 -53 45 -71 70 l-33 46
54 54 c29 30 56 54 59 54 3 0 21 -25 39 -57z"/>
<path d="M3391 884 c0 -11 3 -14 6 -6 3 7 2 16 -1 19 -3 4 -6 -2 -5 -13z"/>
<path d="M3770 4371 c0 -27 -2 -61 -6 -77 -4 -25 8 -45 96 -154 l101 -125 69
-11 c39 -6 70 -8 70 -6 0 3 -33 69 -74 147 -62 119 -74 152 -80 208 l-8 67
-84 0 -84 0 0 -49z m144 21 c3 -5 6 -32 7 -60 2 -29 6 -52 11 -52 4 0 8 -7 8
-15 0 -16 17 -50 39 -77 7 -10 11 -24 7 -33 -3 -9 -2 -13 3 -10 12 7 24 -31
15 -46 -5 -8 -3 -9 6 -4 10 6 12 4 7 -8 -4 -11 -2 -14 9 -10 11 4 12 0 6 -18
-12 -30 -40 -33 -66 -5 -11 13 -43 46 -69 75 -27 28 -44 51 -39 51 5 0 17 -10
26 -22 9 -13 14 -16 10 -8 -13 28 -37 50 -47 43 -6 -3 -7 -1 -3 5 3 6 -3 16
-14 22 -12 6 -19 18 -16 25 3 8 0 12 -7 9 -9 -3 -12 13 -12 57 0 48 4 63 19
75 21 15 92 19 100 6z m140 -347 c3 -8 1 -15 -4 -15 -6 0 -10 7 -10 15 0 8 2
15 4 15 2 0 6 -7 10 -15z"/>
<path d="M3340 4330 c-9 -6 -10 -10 -3 -10 6 0 15 5 18 10 8 12 4 12 -15 0z"/>
<path d="M3207 4309 c7 -7 15 -10 18 -7 3 3 -2 9 -12 12 -14 6 -15 5 -6 -5z"/>
<path d="M3451 4254 c0 -11 3 -14 6 -6 3 7 2 16 -1 19 -3 4 -6 -2 -5 -13z"/>
<path d="M1156 4195 c-11 -8 -15 -15 -9 -15 6 0 16 7 23 15 16 19 11 19 -14 0z"/>
<path d="M4125 4049 c-4 -6 -5 -12 -2 -15 2 -3 7 2 10 11 7 17 1 20 -8 4z"/>
<path d="M4906 4047 c3 -10 9 -15 12 -12 3 3 0 11 -7 18 -10 9 -11 8 -5 -6z"/>
<path d="M4801 4027 c-13 -6 -29 -19 -34 -28 -12 -19 -3 -62 19 -83 37 -38
107 -3 107 53 0 52 -47 81 -92 58z m44 -26 c13 -5 20 -18 20 -35 1 -38 -41
-48 -67 -16 -17 21 -17 24 -2 41 19 21 20 21 49 10z"/>
<path d="M3866 3989 c-34 -27 -36 -81 -4 -103 73 -51 151 48 82 103 -15 12
-32 21 -39 21 -7 0 -24 -9 -39 -21z m67 -23 c14 -7 15 -11 6 -22 -8 -10 -8
-14 0 -14 6 0 3 -9 -6 -20 -12 -13 -20 -16 -29 -9 -8 7 -13 6 -16 -1 -1 -5 -9
-1 -16 11 -11 17 -11 20 0 14 10 -6 10 -5 1 5 -8 9 -9 19 -3 30 10 18 31 20
63 6z"/>
<path d="M4600 3960 c6 -11 13 -20 16 -20 2 0 0 9 -6 20 -6 11 -13 20 -16 20
-2 0 0 -9 6 -20z"/>
<path d="M4465 3935 c-18 -32 -18 -36 -2 -70 14 -30 21 -35 52 -35 44 0 71 35
61 82 -9 44 -23 58 -61 58 -26 0 -35 -6 -50 -35z m75 -5 c15 -13 18 -20 9 -21
-10 0 -10 -2 -2 -6 21 -8 -14 -52 -37 -46 -18 5 -22 10 -19 29 0 4 -5 11 -13
16 -9 7 -8 8 6 4 15 -5 17 -4 8 7 -9 10 -8 17 0 25 16 16 21 15 48 -8z"/>
<path d="M4500 3929 c0 -5 5 -7 10 -4 6 3 10 8 10 11 0 2 -4 4 -10 4 -5 0 -10
-5 -10 -11z"/>
<path d="M4263 3908 c-12 -6 -27 -24 -34 -40 -10 -25 -9 -33 8 -56 26 -36 68
-40 99 -11 38 35 28 80 -23 107 -25 14 -22 14 -50 0z m61 -37 c14 -12 14 -16
0 -41 -18 -30 -42 -34 -61 -10 -38 46 14 90 61 51z"/>
<path d="M3700 3882 c9 -18 8 -27 -2 -40 -12 -15 -11 -16 5 -3 21 17 21 22 1
47 -14 18 -15 18 -4 -4z"/>
<path d="M2083 3875 c0 -7 6 -11 14 -8 7 3 13 6 13 8 0 2 -6 5 -13 8 -8 3 -14
-1 -14 -8z"/>
<path d="M4020 3882 c-52 -17 -69 -88 -28 -116 48 -34 108 -4 108 52 0 40 -44
76 -80 64z m35 -32 c-3 -5 0 -10 9 -10 23 0 6 -54 -21 -64 -18 -7 -46 12 -37
25 3 5 1 9 -5 9 -14 0 -7 30 10 41 19 12 52 11 44 -1z"/>
<path d="M4130 3861 c0 -6 4 -13 10 -16 6 -3 7 1 4 9 -7 18 -14 21 -14 7z"/>
<path d="M3751 3834 c-24 -31 -25 -37 -10 -67 16 -30 28 -37 66 -37 56 0 84
69 43 110 -29 29 -74 26 -99 -6z m84 -26 c15 -37 7 -48 -36 -48 -18 0 -29 8
-37 26 -7 14 -8 23 -2 19 5 -3 10 0 10 9 0 14 14 24 38 25 7 1 19 -14 27 -31z"/>
<path d="M1044 3798 c-4 -7 -4 -10 1 -6 4 4 15 2 24 -5 14 -11 14 -10 2 6 -16
20 -18 21 -27 5z"/>
<path d="M3900 3801 c0 -6 4 -13 10 -16 6 -3 7 1 4 9 -7 18 -14 21 -14 7z"/>
<path d="M1050 3776 c0 -2 8 -10 18 -17 15 -13 16 -12 3 4 -13 16 -21 21 -21
13z"/>
<path d="M5020 3760 c-9 -6 -10 -10 -3 -10 6 0 15 5 18 10 8 12 4 12 -15 0z"/>
<path d="M4865 3701 c-3 -5 -2 -12 3 -15 5 -3 9 1 9 9 0 17 -3 19 -12 6z"/>
<path d="M3511 3674 c0 -11 3 -14 6 -6 3 7 2 16 -1 19 -3 4 -6 -2 -5 -13z"/>
<path d="M3135 3650 c-2 -3 0 -11 4 -18 5 -8 10 -6 18 7 9 14 8 18 -3 18 -8 0
-17 -3 -19 -7z"/>
<path d="M4515 3588 c-27 -15 -35 -28 -35 -58 0 -39 27 -70 59 -70 69 0 98 73
47 117 -30 26 -42 28 -71 11z m61 -33 c15 -14 19 -54 7 -56 -68 -10 -81 -2
-69 44 6 26 41 33 62 12z"/>
<path d="M3604 3479 c0 -13 3 -15 13 -7 7 6 13 12 13 13 0 2 -6 5 -13 8 -7 3
-13 -3 -13 -14z"/>
<path d="M3136 3465 c-3 -9 -6 -22 -5 -28 0 -7 5 -1 10 12 5 13 8 26 5 28 -2
2 -6 -3 -10 -12z"/>
<path d="M2220 3400 c-9 -6 -10 -10 -3 -10 6 0 15 5 18 10 8 12 4 12 -15 0z"/>
<path d="M4730 3400 c-9 -6 -10 -10 -3 -10 6 0 15 5 18 10 8 12 4 12 -15 0z"/>
<path d="M5100 3400 c8 -5 20 -10 25 -10 6 0 3 5 -5 10 -8 5 -19 10 -25 10 -5
0 -3 -5 5 -10z"/>
<path d="M1046 3198 c3 -5 10 -6 15 -3 13 9 11 12 -6 12 -8 0 -12 -4 -9 -9z"/>
<path d="M3187 3194 c-3 -4 13 -30 36 -59 23 -29 64 -81 90 -114 26 -34 55
-61 65 -61 15 0 15 2 2 10 -13 9 -13 11 0 21 12 9 12 10 -4 5 -13 -5 -17 -2
-13 8 4 10 1 13 -7 10 -7 -3 -24 11 -37 30 -13 20 -28 36 -34 36 -5 0 -3 5 5
10 13 8 12 10 -3 10 -11 0 -15 4 -11 12 5 7 3 8 -6 3 -10 -6 -12 -4 -7 8 4 10
2 16 -6 14 -7 -1 -12 5 -12 13 0 8 6 14 13 12 8 -1 11 2 7 8 -5 7 -11 8 -19 1
-8 -7 -15 -4 -24 10 -12 19 -24 24 -35 13z"/>
<path d="M5290 3125 c0 -7 30 -13 34 -7 3 4 -4 9 -15 9 -10 1 -19 0 -19 -2z"/>
<path d="M5346 3112 c-3 -5 1 -9 9 -9 8 0 12 4 9 9 -3 4 -7 8 -9 8 -2 0 -6 -4
-9 -8z"/>
<path d="M660 2930 c-9 -6 -10 -10 -3 -10 6 0 15 5 18 10 8 12 4 12 -15 0z"/>
<path d="M3607 2843 c3 -7 6 -13 8 -13 1 0 7 6 13 13 8 10 6 13 -7 13 -11 0
-17 -6 -14 -13z"/>
<path d="M5420 2441 c0 -6 4 -13 10 -16 6 -3 7 1 4 9 -7 18 -14 21 -14 7z"/>
<path d="M5026 2233 c-6 -14 -5 -15 5 -6 7 7 10 15 7 18 -3 3 -9 -2 -12 -12z"/>
<path d="M4657 2203 c5 -28 2 -34 -18 -41 -18 -7 -28 -4 -47 15 -27 27 -48 22
-32 -7 14 -27 47 -43 74 -36 43 11 72 103 32 103 -10 0 -13 -9 -9 -34z"/>
<path d="M4520 2056 c0 -2 8 -10 18 -17 15 -13 16 -12 3 4 -13 16 -21 21 -21
13z"/>
<path d="M4376 1988 c-35 -49 -4 -111 54 -111 38 0 60 23 60 66 0 49 -16 67
-60 67 -29 0 -43 -6 -54 -22z m80 -11 c14 -8 6 -52 -11 -67 -9 -8 -20 -7 -39
1 -20 10 -25 17 -20 33 13 43 37 54 70 33z"/>
<path d="M4861 1974 c0 -11 3 -14 6 -6 3 7 2 16 -1 19 -3 4 -6 -2 -5 -13z"/>
<path d="M571 1894 c0 -11 3 -14 6 -6 3 7 2 16 -1 19 -3 4 -6 -2 -5 -13z"/>
<path d="M4357 1849 c7 -7 15 -10 18 -7 3 3 -2 9 -12 12 -14 6 -15 5 -6 -5z"/>
<path d="M4396 1814 c-38 -38 -27 -96 22 -115 56 -21 103 53 67 107 -18 28
-65 33 -89 8z m74 -53 c0 -26 -15 -41 -40 -41 -4 0 -15 11 -24 25 -15 23 -15
26 4 45 28 28 60 12 60 -29z"/>
<path d="M4635 1725 c-14 -13 -25 -33 -25 -45 0 -26 43 -70 68 -70 30 0 74 39
70 63 -2 11 -9 23 -17 25 -10 3 -12 0 -8 -11 7 -17 -22 -47 -46 -47 -8 0 -23
7 -31 16 -18 17 -22 39 -6 29 5 -3 7 0 4 9 -3 9 2 17 15 21 12 3 21 13 21 21
0 21 -18 17 -45 -11z"/>
<path d="M4520 1691 c0 -5 7 -12 16 -15 14 -5 15 -4 4 9 -14 17 -20 19 -20 6z"/>
<path d="M4496 1672 c-3 -5 1 -15 8 -21 11 -10 14 -9 12 3 -3 21 -13 29 -20
18z"/>
<path d="M4240 1654 c0 -11 5 -14 16 -10 25 10 63 -19 57 -43 -12 -45 -65 -52
-78 -10 -7 21 -25 17 -25 -6 0 -24 30 -45 64 -45 58 0 85 58 50 108 -19 27
-84 32 -84 6z"/>
<path d="M4295 1405 c-38 -37 -29 -76 22 -103 38 -21 93 13 93 57 0 32 -8 44
-37 60 -33 17 -51 14 -78 -14z m85 -25 c9 -17 8 -20 -7 -20 -15 0 -16 -2 -3
-10 13 -8 13 -11 1 -22 -12 -11 -13 -10 -6 2 6 12 5 13 -6 3 -7 -7 -17 -13
-22 -13 -4 0 -5 6 -1 13 5 8 2 8 -9 -2 -9 -7 -17 -12 -18 -10 -7 33 -6 46 2
61 13 24 56 23 69 -2z"/>
<path d="M4695 1361 c-3 -5 -2 -12 3 -15 5 -3 9 1 9 9 0 17 -3 19 -12 6z"/>
<path d="M5005 1300 c-3 -5 -1 -10 4 -10 6 0 11 5 11 10 0 6 -2 10 -4 10 -3 0
-8 -4 -11 -10z"/>
<path d="M4997 1269 c7 -7 15 -10 18 -7 3 3 -2 9 -12 12 -14 6 -15 5 -6 -5z"/>
<path d="M3765 1000 c-4 -6 -10 -8 -14 -6 -3 3 -7 -4 -7 -15 0 -18 2 -18 12
-5 6 9 15 12 19 8 5 -4 5 -2 1 5 -3 6 1 13 11 16 16 4 16 5 1 6 -9 0 -20 -4
-23 -9z"/>
<path d="M2942 857 c-38 -40 -24 -91 31 -110 19 -7 56 8 69 27 4 6 8 25 8 43
0 58 -68 83 -108 40z m77 -21 c16 -19 -2 -61 -27 -63 -13 -1 -23 6 -27 18 -4
11 -11 16 -17 13 -11 -7 -4 9 15 34 13 16 42 15 56 -2z"/>
<path d="M3563 795 c0 -6 8 -11 17 -11 9 0 17 5 17 11 0 6 -8 11 -17 11 -9 0
-17 -5 -17 -11z"/>
<path d="M2886 708 c3 -4 11 -5 19 -1 21 7 19 12 -4 10 -11 0 -18 -5 -15 -9z"/>
<path d="M2845 690 c-3 -6 1 -7 9 -4 18 7 21 14 7 14 -6 0 -13 -4 -16 -10z"/>
<path d="M1056 468 c3 -5 10 -6 15 -3 13 9 11 12 -6 12 -8 0 -12 -4 -9 -9z"/>
<path d="M2640 470 c8 -5 20 -10 25 -10 6 0 3 5 -5 10 -8 5 -19 10 -25 10 -5
0 -3 -5 5 -10z"/>
</g>
</svg>
