<?xml version="1.0" standalone="no"?>
<!DOCTYPE svg PUBLIC "-//W3C//DTD SVG 20010904//EN"
 "http://www.w3.org/TR/2001/REC-SVG-20010904/DTD/svg10.dtd">
<svg version="1.0" xmlns="http://www.w3.org/2000/svg"
 width="600.000000pt" height="600.000000pt" viewBox="0 0 600.000000 600.000000"
 preserveAspectRatio="xMidYMid meet">
<g transform="translate(0.000000,600.000000) scale(0.100000,-0.100000)"
fill="#000000" stroke="none">
<path d="M5823 5562 c-13 -2 -23 -7 -23 -11 0 -5 11 -6 25 -3 28 5 33 -9 10
-28 -9 -7 -13 -15 -11 -17 2 -3 14 5 26 17 17 17 18 23 8 33 -7 7 -23 11 -35
9z"/>
<path d="M2796 5544 c-8 -21 -7 -31 2 -18 4 6 16 16 27 22 20 11 20 11 -1 12
-12 0 -25 -7 -28 -16z"/>
<path d="M2846 5534 c-5 -14 -4 -15 9 -4 17 14 19 20 6 20 -5 0 -12 -7 -15
-16z"/>
<path d="M5870 5505 c-6 -15 -8 -30 -6 -33 3 -3 10 8 16 23 6 15 8 30 6 33 -3
3 -10 -8 -16 -23z"/>
<path d="M1695 5489 c-174 -11 -332 -33 -379 -53 -41 -17 -54 -40 -38 -66 9
-16 2 -18 -86 -24 -146 -9 -359 -44 -408 -65 l-44 -20 0 -58 c1 -149 81 -1164
140 -1763 51 -513 146 -1395 155 -1438 3 -12 -4 -41 -16 -64 -42 -83 -147
-335 -182 -438 -48 -142 -71 -256 -58 -289 5 -14 12 -42 15 -62 4 -20 19 -49
34 -64 31 -32 110 -71 165 -80 43 -8 50 -25 10 -25 -46 0 -227 -32 -238 -43
-6 -6 26 -7 90 -2 99 7 124 -2 42 -16 -37 -6 -33 -7 31 -8 39 0 72 -5 72 -10
0 -5 -28 -7 -62 -5 l-63 3 58 -12 c33 -7 56 -15 53 -18 -3 -3 22 -11 55 -17
34 -6 64 -14 67 -17 14 -14 -11 -12 -93 6 -94 20 -136 24 -100 9 20 -8 80 -21
285 -60 58 -11 166 -38 240 -59 429 -125 656 -183 795 -205 79 -13 283 -36
313 -36 3 0 2 -4 -4 -10 -6 -6 -33 -6 -74 0 -68 10 -126 13 -119 6 2 -2 65
-14 139 -26 74 -11 187 -30 250 -40 179 -31 539 -21 749 20 29 5 86 10 126 10
223 0 781 92 965 159 46 17 97 31 112 31 63 0 132 49 147 106 6 25 19 33 102
64 202 78 229 100 229 184 0 80 -26 171 -83 290 -40 85 -60 115 -90 137 -39
28 -206 85 -535 181 l-183 54 76 48 c92 59 180 142 200 190 33 77 5 172 -63
219 -44 31 -124 51 -169 42 -30 -5 -33 -4 -33 19 0 55 -66 84 -252 114 l-108
17 0 40 c0 22 5 210 12 418 10 317 14 377 26 372 14 -5 283 -43 466 -66 84
-10 113 -19 199 -61 158 -77 225 -93 397 -92 255 0 372 58 430 210 18 49 21
74 18 144 -9 172 -90 271 -268 324 -128 39 -385 30 -536 -20 -73 -23 -74 -23
-211 -9 -76 8 -209 18 -297 22 l-159 6 7 60 c3 33 6 85 6 116 l0 57 183 11
c200 13 265 28 321 75 43 35 92 132 109 214 9 47 19 67 43 87 16 14 43 49 59
79 27 48 30 61 30 148 0 107 -21 169 -76 225 -23 24 -33 51 -49 123 -33 152
-60 221 -102 258 -31 29 -96 61 -141 69 -36 7 -37 9 -37 49 0 55 -25 128 -54
155 -26 25 -78 35 -281 56 -215 21 -941 82 -1205 100 -272 19 -932 27 -1125
14z m720 -19 c628 -26 1665 -106 1820 -140 22 -5 50 -20 62 -34 31 -36 57
-166 33 -166 -5 0 -10 17 -10 39 0 67 -17 100 -58 110 -137 36 -1144 118
-1659 135 -67 2 -127 7 -133 11 -18 11 -18 5 -6 -69 14 -85 3 -80 234 -95 186
-12 1002 -89 1290 -121 100 -12 249 -32 329 -45 176 -30 208 -46 248 -130 26
-56 65 -191 65 -227 0 -18 -2 -18 -32 -2 -29 15 -80 26 -195 41 -50 6 -106
-10 -151 -44 -33 -25 -82 -108 -82 -140 0 -10 11 5 24 32 13 28 35 63 50 78
32 35 101 67 141 66 20 -1 23 -3 10 -6 -99 -22 -171 -85 -201 -175 -24 -74
-16 -205 18 -279 30 -66 106 -149 118 -129 10 16 94 6 126 -15 27 -17 91 -20
130 -5 15 6 28 9 30 7 6 -5 -19 -81 -32 -97 -13 -17 -44 -76 -45 -87 -2 -19
-21 -43 -42 -54 -18 -10 -17 -6 8 21 32 35 21 33 -34 -8 -34 -25 -124 -52
-171 -51 -14 0 3 7 37 14 60 13 109 33 101 41 -2 2 -26 -5 -54 -15 -51 -19
-184 -37 -339 -45 -89 -5 -89 -5 37 12 70 10 131 22 135 26 4 5 -3 6 -17 3
-72 -17 -446 -49 -670 -57 -140 -5 -268 -13 -285 -16 -16 -4 -27 -4 -23 0 3 4
28 11 55 16 41 6 32 8 -57 9 -92 0 -151 -6 -212 -25 -10 -3 -18 -1 -18 5 0 5
34 17 76 26 93 21 91 30 -2 14 -38 -7 -79 -13 -91 -13 -11 -1 -20 -4 -18 -7 5
-8 -65 -32 -72 -25 -3 3 5 10 18 16 23 10 23 10 -6 7 -16 -2 -39 -8 -50 -12
l-20 -8 20 16 c25 21 14 21 -32 2 -45 -19 -49 -19 -32 1 11 13 3 12 -30 -5
-52 -27 -67 -20 -20 8 44 27 21 27 -30 0 -23 -11 -46 -19 -53 -16 -8 3 -2 10
15 17 15 7 27 17 27 22 0 12 -12 9 -34 -7 -11 -8 -29 -15 -40 -15 -19 0 -18 3
9 25 32 26 24 35 -9 10 -11 -8 -26 -15 -34 -15 -12 0 -11 4 3 20 10 11 13 20
7 20 -6 0 -14 -4 -17 -10 -8 -13 -25 -13 -25 0 0 6 12 15 26 20 14 6 22 15 19
21 -5 7 -13 5 -24 -5 -10 -9 -20 -16 -24 -16 -6 0 -25 57 -26 80 -3 74 -22
264 -27 269 -3 3 -4 -64 -3 -150 2 -87 7 -155 11 -153 4 3 6 -4 6 -13 0 -10 2
-25 6 -34 7 -17 -19 -47 -31 -35 -4 3 2 13 13 22 18 14 18 15 -4 4 -26 -13
-57 3 -45 23 3 5 1 7 -4 4 -6 -4 -13 0 -17 8 -3 8 -10 15 -15 15 -14 0 -143
-82 -137 -87 3 -3 15 2 28 11 28 20 49 21 22 1 -10 -8 -14 -15 -8 -15 16 0 35
25 26 35 -4 5 0 6 10 2 9 -3 24 1 35 8 20 16 33 19 33 8 0 -5 -14 -16 -31 -26
-18 -10 -29 -20 -26 -23 3 -4 20 4 37 16 l32 23 24 -26 c26 -28 33 -47 10 -28
-7 6 -22 8 -32 5 -16 -6 -17 -5 -6 7 22 24 13 31 -16 11 -15 -11 -39 -20 -52
-19 -14 0 -34 -4 -44 -8 -13 -6 -17 -5 -13 2 7 12 -41 12 -59 1 -6 -4 -30 -6
-53 -5 -43 1 -43 2 -20 17 38 24 85 69 73 70 -6 0 -21 -11 -34 -25 -24 -26
-47 -34 -34 -12 5 8 2 7 -9 -2 -10 -8 -15 -16 -12 -19 7 -7 -15 -32 -28 -32
-6 0 -7 3 -4 7 4 3 2 12 -4 19 -7 9 0 18 31 35 22 12 40 27 40 32 0 9 -43 -14
-140 -74 -24 -15 -47 -24 -50 -19 -3 5 -12 5 -20 0 -8 -6 -24 -10 -34 -10 -18
0 -18 1 -1 20 22 25 43 27 24 3 -13 -17 -13 -17 7 0 23 19 39 23 29 7 -11 -17
5 -11 49 19 43 30 87 74 56 56 -8 -4 -31 -21 -51 -37 -38 -29 -55 -36 -43 -17
4 7 -2 6 -17 -1 l-24 -13 19 22 c31 35 30 54 -2 32 -43 -29 -168 -101 -176
-101 -4 0 -4 5 0 12 5 8 2 9 -12 3 -48 -20 -71 -17 -108 15 -38 34 -48 31 -18
-4 l17 -21 -24 20 c-36 31 -59 85 -78 184 -10 50 -21 91 -25 91 -11 0 -10 -11
8 -97 18 -86 50 -156 87 -192 19 -17 45 -26 104 -34 145 -20 1820 -6 2165 18
37 3 69 1 72 -4 14 -23 -854 -49 -1839 -56 -348 -2 -417 -5 -385 -15 14 -4 42
-8 63 -9 99 -3 199 -113 199 -220 0 -33 1 -34 14 -16 18 24 29 13 15 -13 -6
-12 -11 -29 -11 -39 0 -15 4 -14 21 7 31 40 50 78 55 116 3 25 1 33 -8 28 -8
-5 -9 -2 -5 10 4 10 7 42 7 72 0 33 4 54 11 54 8 0 10 -41 7 -133 -2 -107 -6
-138 -21 -160 -22 -34 -68 -63 -127 -81 -125 -38 -216 -110 -265 -210 -15 -31
-33 -56 -40 -56 -16 0 -77 -75 -69 -83 3 -3 2 -12 -2 -19 -5 -7 -10 -50 -11
-96 l-4 -84 36 -33 35 -34 -6 -418 c-6 -394 -7 -421 -28 -475 -17 -47 -25 -58
-43 -58 -22 0 -23 4 -23 83 0 45 -4 231 -10 412 -5 182 -14 517 -20 745 -11
442 -18 531 -55 705 -62 291 -105 713 -130 1282 l-7 142 34 -4 c18 -2 128 -7
243 -10 424 -11 674 -55 746 -131 25 -27 30 -76 63 -694 8 -152 20 -287 26
-300 8 -20 9 -14 6 35 -3 33 -10 202 -16 375 -17 475 -23 543 -53 589 -28 42
-83 72 -173 96 -118 31 -624 70 -812 63 -53 -2 -92 1 -92 6 0 5 22 31 50 58
l50 48 147 0 c179 0 438 -15 632 -36 250 -26 356 -56 419 -117 23 -22 32 -26
32 -15 0 31 -65 74 -163 106 -170 57 -453 85 -844 86 -149 1 -266 4 -260 9 15
9 2 9 531 14 469 4 456 5 456 -44 0 -13 5 -23 10 -23 17 0 11 57 -9 81 -19 24
-22 24 -225 27 -230 3 -675 -21 -776 -43 -68 -14 -80 -13 -80 10 0 37 255 72
630 85 113 4 216 7 230 8 14 1 129 -3 255 -8z m233 -77 c-15 -2 -42 -2 -60 0
-18 2 -6 4 27 4 33 0 48 -2 33 -4z m437 -19 c132 -8 274 -19 315 -24 l75 -9
-90 4 c-49 2 -196 11 -325 19 -129 9 -266 17 -305 19 l-70 3 80 2 c44 1 188
-5 320 -14z m-75 -24 c96 -6 198 -10 225 -10 32 0 45 -4 35 -9 -8 -5 -94 -12
-190 -16 -96 -4 -200 -11 -230 -15 l-55 -7 77 -2 c42 0 186 6 320 14 194 12
285 13 448 4 378 -19 475 -25 460 -27 -8 -1 -150 -5 -315 -7 -165 -3 -356 -9
-425 -13 l-125 -7 209 -9 c115 -4 334 -6 487 -5 197 3 281 1 289 -7 14 -14 26
-94 14 -94 -5 0 -38 5 -74 10 -36 5 -175 18 -310 30 -135 11 -360 31 -500 45
-495 47 -696 65 -764 68 l-68 2 -3 39 -2 38 161 -7 c89 -3 240 -10 336 -15z
m-1620 -17 c0 -5 -13 -15 -28 -24 -16 -9 -37 -34 -48 -55 -12 -23 -27 -40 -39
-41 -11 -1 -78 -4 -150 -7 -71 -3 -154 -10 -184 -16 -29 -5 -59 -10 -65 -9
-18 1 57 26 102 34 23 4 44 11 48 16 7 12 8 12 -93 -11 -48 -12 -94 -26 -102
-33 -12 -9 -13 -9 -7 1 12 21 -8 13 -29 -10 l-20 -23 -3 45 c-2 32 1 48 13 56
23 17 170 43 315 55 111 9 262 24 283 28 4 0 7 -2 7 -6z m2908 -146 c3 -53 2
-54 -22 -50 -20 4 -24 11 -24 39 0 19 -7 45 -16 59 -22 33 -21 34 22 20 36
-13 37 -14 40 -68z m-2962 -10 c3 -10 3 -21 0 -24 -3 -4 -6 0 -6 8 0 24 -39
20 -56 -6 -13 -20 -18 -48 -23 -142 -1 -19 -7 -23 -31 -23 -39 0 -51 26 -23
49 33 26 56 69 48 88 -5 10 -7 25 -6 33 1 9 -1 11 -6 5 -4 -5 -16 -11 -27 -13
-13 -3 -17 1 -13 12 3 8 1 17 -6 20 -7 2 -5 5 5 5 9 1 18 -4 20 -10 2 -7 14
-7 38 3 47 20 79 18 86 -5z m-203 -10 c4 3 7 1 7 -5 0 -7 -11 -12 -25 -12 -14
0 -25 4 -25 9 0 5 -6 11 -12 14 -7 2 -5 3 5 2 9 -2 17 2 17 8 0 7 7 4 14 -5 7
-10 16 -15 19 -11z m-243 -7 c12 -8 11 -10 -7 -10 -13 0 -23 5 -23 10 0 13 11
13 30 0z m100 -5 c0 -15 -14 -34 -21 -29 -5 3 -9 0 -9 -5 0 -7 -21 -11 -52
-10 l-53 1 45 10 c65 14 78 19 62 25 -6 3 -10 9 -7 13 5 8 35 3 35 -5z m68
-13 c2 -12 8 -20 13 -17 5 4 9 -1 9 -9 0 -8 5 -18 11 -22 8 -4 9 0 4 15 -4 13
-2 21 5 21 6 0 10 -15 8 -35 -1 -19 1 -37 5 -41 4 -4 7 11 7 34 0 23 4 42 9
42 9 0 24 -120 15 -129 -3 -3 -14 5 -25 19 -69 88 -106 157 -78 148 8 -3 15
-14 17 -26z m122 18 c0 -5 -7 -10 -15 -10 -8 0 -15 5 -15 10 0 6 7 10 15 10 8
0 15 -4 15 -10z m-243 -6 c-3 -3 -12 -4 -19 -1 -8 3 -5 6 6 6 11 1 17 -2 13
-5z m388 -92 c48 -673 87 -1010 160 -1397 15 -77 27 -406 38 -970 4 -227 2
-226 -12 5 l-8 135 -2 -146 c0 -80 3 -170 9 -200 5 -30 12 -70 15 -89 8 -48
24 -366 25 -473 l0 -87 -27 6 c-40 10 -46 15 -34 27 6 6 11 23 11 37 0 25 -5
28 -77 45 -43 10 -95 20 -115 21 -44 2 -151 59 -190 101 -39 41 -50 76 -32 99
13 18 14 17 8 -7 -4 -21 2 -35 27 -63 36 -42 113 -91 128 -81 6 3 57 -10 114
-30 57 -19 113 -35 125 -35 19 0 22 -6 22 -45 0 -25 5 -45 10 -45 11 0 11 152
0 325 l-7 110 -1 -138 c-1 -89 -6 -136 -12 -132 -6 4 -10 58 -10 131 0 145 15
134 -146 103 -129 -25 -257 -64 -274 -83 -7 -10 -9 -31 -4 -63 7 -50 30 -83
53 -75 8 3 12 -1 9 -9 -4 -13 18 -32 55 -45 19 -7 23 -24 6 -24 -6 0 -25 11
-42 24 -46 33 -57 39 -57 26 0 -5 15 -19 33 -30 29 -18 30 -20 9 -20 -39 0
-68 40 -75 101 -4 30 -25 205 -47 389 -53 448 -83 739 -125 1205 -19 215 -37
400 -40 413 -7 28 6 28 31 0 47 -53 241 -113 416 -128 55 -4 101 -10 102 -12
1 -2 17 -100 35 -218 24 -152 36 -275 42 -420 13 -298 17 -300 14 -5 -3 248
-4 270 -39 465 -46 262 -71 447 -86 635 -7 83 -16 159 -21 170 l-9 20 4 -20
c2 -11 7 -80 11 -152 l7 -133 -24 -8 c-33 -13 -227 -32 -343 -35 -85 -2 -100
0 -103 14 -2 13 10 19 60 28 64 11 212 27 328 35 80 6 84 7 40 15 -47 8 -245
-5 -345 -23 -50 -9 -82 -10 -86 -4 -7 11 -35 306 -49 518 -5 85 -12 181 -15
212 l-6 57 53 -29 c92 -49 227 -85 396 -105 l52 -6 -2 88 -2 88 -3 -72 c-5
-101 -23 -92 -23 10 0 87 3 99 25 91 9 -4 15 -34 20 -92z m-470 68 c-3 -5 -15
-10 -26 -10 -10 0 -19 5 -19 10 0 6 12 10 26 10 14 0 23 -4 19 -10z m183 -22
c6 -17 9 -34 6 -37 -8 -9 -34 30 -34 51 0 28 14 21 28 -14z m177 -9 c-9 -16
-14 -33 -11 -38 3 -4 -1 -8 -9 -8 -18 0 -18 -2 1 47 9 22 20 37 25 34 5 -3 2
-19 -6 -35z m-411 -141 c8 -193 23 -388 41 -548 11 -97 11 -126 2 -132 -9 -6
-9 -8 1 -8 10 0 12 -8 8 -27 -4 -16 -2 -50 3 -78 10 -52 7 -65 -9 -49 -10 10
-42 399 -60 719 -5 105 -12 214 -15 244 -5 45 -3 52 8 42 10 -8 16 -53 21
-163z m375 155 c-1 -10 -5 -29 -9 -43 -7 -21 -8 -19 -9 18 -1 23 4 42 9 42 6
0 10 -8 9 -17z m-190 -29 c2 -2 -21 -4 -52 -4 -31 0 -59 5 -63 11 -4 7 11 9
52 4 33 -4 61 -9 63 -11z m87 -37 c4 -4 5 -9 2 -12 -7 -7 -118 16 -118 24 0 9
107 -3 116 -12z m3364 -297 c0 -5 -9 -10 -20 -10 -10 0 -23 -6 -27 -14 -4 -7
-30 -16 -57 -20 -59 -9 -55 9 4 19 22 4 40 11 40 15 0 8 21 16 48 19 6 0 12
-3 12 -9z m165 -50 c82 -56 133 -172 123 -281 -6 -58 -44 -137 -79 -162 -34
-25 -110 -33 -149 -17 -129 53 -163 306 -55 410 29 28 44 34 91 38 67 6 53 22
-20 22 -44 0 -53 -4 -86 -39 -67 -70 -90 -200 -54 -305 17 -50 101 -151 135
-161 10 -4 19 -12 19 -20 0 -31 -102 17 -148 70 -50 57 -65 94 -70 177 -5 93
9 156 48 213 65 95 157 116 245 55z m-259 -25 c-22 -17 -76 -20 -76 -6 0 6 17
12 38 14 20 2 42 4 47 5 6 1 1 -5 -9 -13z m-21 -44 c-3 -6 -27 -11 -53 -11
-56 0 -46 17 13 22 47 4 49 3 40 -11z m-20 -41 c-3 -5 -24 -10 -46 -10 -21 0
-39 5 -39 10 0 6 21 10 46 10 27 0 43 -4 39 -10z m-5 -41 c0 -5 -22 -9 -50 -9
-44 0 -60 7 -46 21 8 8 96 -3 96 -12z m-10 -41 c0 -9 -15 -12 -50 -10 -65 5
-65 22 0 22 33 0 50 -4 50 -12z m0 -38 c0 -5 -22 -10 -50 -10 -27 0 -50 5 -50
10 0 6 23 10 50 10 28 0 50 -4 50 -10z m-2 -41 c-2 -6 -7 -10 -11 -10 -4 1
-23 1 -42 1 -19 0 -35 5 -35 10 0 6 21 10 46 10 28 0 44 -4 42 -11z m7 -39 c4
-6 -13 -10 -44 -10 -28 0 -51 5 -51 10 0 6 20 10 44 10 25 0 48 -4 51 -10z m8
-43 c-2 -4 -5 -7 -8 -7 -3 0 -23 0 -45 0 -22 0 -40 5 -40 11 0 6 18 9 48 6 26
-2 46 -7 45 -10z m10 -42 c-2 -6 -7 -10 -13 -9 -5 1 -23 2 -40 3 -16 0 -30 5
-30 10 0 5 19 9 43 8 23 -2 41 -7 40 -12z m27 -36 c0 -12 -77 -12 -85 0 -3 6
12 11 32 13 42 4 53 1 53 -13z m-3278 -48 c218 17 258 18 258 9 0 -11 -53 -20
-165 -27 -60 -4 -90 -9 -75 -13 14 -4 64 -4 113 -2 54 3 87 1 87 -5 0 -6 -50
-13 -117 -17 -65 -4 -129 -10 -143 -14 l-25 -6 25 -7 c49 -14 215 -10 236 6
25 19 31 19 37 -5 4 -15 0 -20 -16 -21 -231 -9 -340 -9 -353 2 -11 9 -14 8
-14 -5 0 -22 85 -63 178 -86 82 -20 258 -44 281 -38 7 1 16 -3 18 -9 6 -16
-33 -17 -144 -3 -113 14 -227 45 -299 80 l-61 30 -7 61 c-4 33 -10 67 -13 76
-5 13 -3 13 20 -1 23 -16 39 -16 179 -5z m289 -72 c1 -54 -3 -93 -10 -105 -11
-17 -12 -17 -7 -1 3 10 -1 40 -10 67 -9 27 -14 55 -11 62 2 7 9 -3 16 -22 10
-33 11 -31 6 21 -4 47 1 77 11 66 1 -1 4 -41 5 -88z m3019 81 c0 -5 -18 -10
-39 -10 -22 0 -43 5 -46 10 -4 6 12 10 39 10 25 0 46 -4 46 -10z m-3180 -80
c-8 -5 -22 -10 -30 -10 -13 0 -13 1 0 10 8 5 22 10 30 10 13 0 13 -1 0 -10z
m124 -72 c8 -32 7 -38 -5 -38 -5 0 -7 5 -3 11 9 16 -15 29 -53 29 -18 0 -33 5
-33 10 0 6 20 10 44 10 37 0 45 -4 50 -22z m-169 -3 c113 -11 145 -16 145 -24
0 -10 -56 -5 -190 15 -94 15 -145 32 -60 21 25 -4 72 -9 105 -12z m95 -36 c27
1 32 -1 23 -10 -9 -9 -32 -8 -100 4 -79 14 -81 15 -23 10 36 -3 81 -5 100 -4z
m130 -5 c0 -8 -4 -12 -10 -9 -5 3 -10 10 -10 16 0 5 5 9 10 9 6 0 10 -7 10
-16z m-42 -21 c-10 -2 -26 -2 -35 0 -10 3 -2 5 17 5 19 0 27 -2 18 -5z m1077
-43 c-3 -5 -16 -15 -28 -21 -21 -10 -21 -9 2 10 25 23 36 27 26 11z m-460 -65
c-22 -19 -47 -35 -54 -35 -18 0 -10 8 44 44 54 36 58 32 10 -9z m575 0 c-7 -8
-17 -15 -22 -15 -6 0 -5 7 2 15 7 8 17 15 22 15 6 0 5 -7 -2 -15z m-410 -10
c0 -6 -13 -11 -28 -12 -26 -2 -26 -1 -7 13 20 15 37 15 35 -1z m442 -14 c-2
-8 3 -11 12 -8 10 4 13 1 9 -9 -4 -11 -9 -12 -16 -5 -6 6 -22 11 -35 11 -21 0
-23 2 -12 15 15 18 46 15 42 -4z m-112 -20 c13 -13 12 -14 -3 -8 -9 3 -17 3
-17 -2 0 -8 -67 -7 -106 3 -14 4 -23 3 -20 -2 6 -10 -90 -9 -100 1 -4 3 2 6
12 6 90 2 184 8 189 12 10 10 31 6 45 -10z m725 -1 c-11 -5 -29 -9 -40 -9
l-20 0 20 9 c11 5 29 9 40 9 l20 0 -20 -9z m-1038 -6 c-3 -3 -12 -4 -19 -1 -8
3 -5 6 6 6 11 1 17 -2 13 -5z m1862 -138 c-1 -89 -10 -142 -21 -126 -8 13 4
230 13 230 6 0 9 -41 8 -104z m-51 88 c20 -6 22 -12 22 -74 0 -37 -3 -81 -6
-99 l-6 -31 -84 1 c-64 1 -90 -2 -110 -16 -17 -11 -59 -20 -118 -25 l-91 -7
85 -3 85 -3 -60 -8 c-197 -25 -721 -19 -798 10 -44 17 -60 55 -65 147 -3 52
-1 84 5 84 12 0 23 -56 23 -118 0 -56 12 -77 52 -91 51 -18 254 -31 463 -29
226 1 210 4 -122 18 -139 6 -263 15 -275 21 -20 8 -18 9 12 5 35 -5 29 0 -25
20 -15 5 -7 9 33 16 51 9 72 28 31 28 -11 0 -17 5 -14 10 3 6 24 10 45 10 41
0 67 19 28 21 -38 2 160 37 274 49 152 15 183 32 46 25 -67 -4 -108 -3 -108 3
0 6 7 13 16 16 8 3 13 2 10 -3 -5 -8 48 -6 97 4 26 5 413 -12 465 -21 46 -7
55 -20 20 -27 -14 -3 -7 -5 17 -6 l40 -2 -25 -15 -25 -15 28 6 c15 3 27 1 27
-5 0 -5 -6 -10 -14 -10 -8 0 -18 -5 -22 -11 -4 -8 0 -9 15 -4 12 4 21 2 21 -4
0 -6 -7 -11 -15 -11 -8 0 -15 -4 -15 -10 0 -5 7 -7 15 -4 8 4 15 1 15 -5 0 -6
-5 -11 -11 -11 -5 0 -7 -4 -4 -10 17 -27 25 -2 25 79 0 82 -12 123 -26 88 -4
-12 -12 -13 -41 -4 -35 11 -35 12 -12 18 32 9 50 10 77 3z m-1424 -34 c14 -5
26 -6 26 -2 0 4 51 7 113 7 l114 0 -3 -55 c-2 -76 17 -144 51 -177 16 -16 25
-21 21 -13 -4 8 4 2 18 -13 14 -15 26 -38 26 -50 0 -13 7 -33 16 -45 8 -12 12
-22 8 -22 -3 0 6 -17 22 -37 35 -47 70 -83 59 -63 -4 8 3 3 16 -11 26 -29 71
-51 136 -68 28 -8 44 -18 48 -32 7 -21 -11 -69 -26 -69 -22 0 -79 -160 -79
-222 0 -45 -11 -60 -37 -51 -16 6 -58 93 -58 118 1 11 4 25 8 32 4 7 -1 18
-13 26 -16 11 -19 21 -14 45 8 41 -2 78 -22 86 -22 8 -85 -4 -78 -15 3 -5 25
-9 50 -9 28 0 43 -4 39 -10 -9 -14 -82 -12 -88 3 -4 9 -7 9 -15 -1 -7 -10 -11
-10 -21 2 -8 10 -9 16 -2 21 7 4 -1 19 -19 38 -17 18 -28 38 -25 46 3 7 -3 21
-12 30 -10 9 -19 22 -21 30 -2 8 -20 31 -40 50 -38 37 -42 47 -28 69 13 22
-14 42 -56 42 -24 0 -37 -4 -33 -10 3 -5 22 -10 41 -10 19 0 34 -4 34 -10 0
-5 -13 -10 -30 -10 -16 0 -30 -4 -30 -10 0 -5 9 -10 19 -10 11 0 23 -4 26 -10
3 -5 -1 -10 -10 -10 -30 0 -9 -25 23 -28 34 -4 35 -22 1 -22 -12 0 -19 -5 -16
-12 2 -9 19 -12 46 -10 50 4 55 -13 5 -22 -29 -6 -33 -10 -24 -22 9 -10 24
-12 51 -8 26 4 39 3 39 -5 0 -6 -16 -11 -35 -11 -19 0 -35 -4 -35 -9 0 -13 23
-20 52 -14 14 3 29 0 33 -6 3 -6 3 -11 -2 -10 -27 5 -53 -3 -53 -16 0 -11 12
-15 48 -15 34 0 43 -3 32 -10 -8 -5 -25 -10 -38 -10 -13 0 -20 -4 -17 -10 3
-5 15 -10 26 -10 10 0 19 -4 19 -10 0 -5 -4 -10 -10 -10 -5 0 -10 -5 -10 -10
0 -7 33 -8 92 -5 107 7 110 -5 5 -21 -70 -10 -72 -14 -17 -30 13 -5 13 -6 0
-14 -18 -12 -11 -13 64 -10 40 1 56 -2 52 -9 -4 -6 -22 -11 -39 -11 -44 0 -78
-10 -71 -21 3 -5 27 -7 53 -3 31 4 51 2 55 -5 5 -7 -6 -11 -31 -11 -36 0 -73
-14 -63 -24 3 -2 24 -1 48 4 30 5 42 4 39 -4 -2 -6 -16 -12 -30 -14 -45 -5
-30 -22 21 -23 l47 -2 -37 -10 c-50 -14 -49 -31 2 -24 46 6 55 -8 10 -16 -41
-9 -38 -27 5 -27 19 0 35 -5 35 -11 0 -7 -10 -9 -27 -5 -24 5 -26 5 -11 -7 12
-10 39 -11 109 -5 96 7 109 4 109 -32 0 -11 -12 -16 -43 -17 -23 -1 -84 -10
-136 -19 -73 -13 -127 -16 -241 -11 -80 3 -154 9 -163 13 -9 3 -17 2 -17 -4 0
-5 24 -12 53 -16 69 -8 417 -6 490 3 31 4 57 4 57 0 0 -4 -5 -30 -11 -57 -13
-54 -7 -92 17 -116 21 -21 40 -20 64 4 24 24 26 64 5 113 -8 20 -15 50 -15 67
0 20 5 30 15 30 8 0 15 4 15 10 0 5 -3 9 -8 7 -4 -1 -8 1 -10 6 -7 22 1 36 26
46 l27 11 -28 -4 c-39 -5 -40 5 -5 49 87 105 217 99 344 -17 41 -37 72 -57 81
-54 8 3 18 6 23 6 17 0 32 73 26 127 -13 109 -68 190 -165 242 -34 18 -61 36
-61 40 0 5 32 11 71 14 64 5 75 4 103 -17 17 -13 40 -26 50 -30 18 -6 19 -17
13 -269 -4 -144 -10 -334 -13 -422 l-7 -160 -241 -1 c-351 -1 -615 -42 -678
-104 l-27 -27 20 -89 c10 -49 23 -101 28 -116 l10 -28 -72 -1 -72 -2 74 -11
c84 -13 110 -36 39 -36 -37 0 -68 -6 -196 -35 -13 -3 -21 -9 -18 -14 3 -4 29
-2 58 6 71 19 201 33 211 24 5 -5 -40 -14 -100 -20 -59 -7 -114 -17 -123 -22
-10 -7 0 -9 35 -5 146 16 205 18 205 9 0 -5 -60 -15 -132 -22 -73 -7 -196 -21
-273 -31 -77 -11 -165 -22 -196 -25 l-55 -7 -18 219 c-10 120 -19 286 -21 368
l-4 150 9 -140 c14 -218 19 -226 13 -25 -3 102 -9 190 -15 197 -5 7 -16 175
-24 388 l-14 376 53 49 c57 52 89 112 102 186 l6 41 76 7 c42 3 115 5 162 4
80 -2 81 -2 21 -5 -89 -5 -103 -23 -18 -23 37 0 69 -4 72 -9 4 -5 -19 -7 -53
-4 -60 6 -111 -1 -111 -15 0 -4 36 -6 80 -4 59 3 80 1 80 -8 0 -9 -11 -11 -35
-7 -19 3 -35 2 -35 -4 0 -5 18 -9 40 -9 22 0 40 -4 40 -10 0 -5 -17 -10 -37
-11 -29 0 -33 -2 -18 -8 11 -4 35 -11 53 -14 25 -5 31 -4 25 6 -4 6 -8 35 -8
64 -1 29 -7 64 -15 77 -16 30 -98 61 -136 52 -16 -4 -32 -2 -42 6 -13 11 -15
10 -10 -4 6 -14 2 -15 -25 -7 -33 9 -70 7 -99 -6 -16 -6 -18 -1 -18 45 0 58
14 79 51 75 19 -2 97 8 106 14 1 0 13 -3 27 -9z m736 0 c0 -6 -23 -10 -51 -10
-27 0 -48 -4 -45 -9 3 -5 -4 -9 -17 -10 -70 -3 -87 -6 -87 -13 0 -4 -7 -8 -15
-8 -8 0 -15 -4 -15 -9 0 -5 -14 -12 -30 -16 -17 -4 -28 -10 -25 -15 3 -5 0
-12 -7 -16 -13 -8 -51 -14 -44 -6 5 5 -27 40 -34 36 -3 -1 -6 17 -7 40 l-3 41
190 2 c120 2 190 -1 190 -7z m-1137 -83 c-4 -108 -11 -140 -27 -125 -7 7 -13
17 -13 23 0 25 -49 113 -78 141 l-33 31 61 2 c34 1 63 4 65 6 2 2 9 2 16 -1 8
-3 11 -27 9 -77z m187 -109 c-18 -156 -88 -234 -267 -292 -29 -10 -55 -22 -58
-27 -9 -14 -27 -11 -19 4 4 7 3 9 -2 4 -5 -5 -8 -12 -8 -15 1 -4 -14 -25 -32
-46 -19 -22 -34 -46 -34 -53 0 -7 -4 -13 -10 -13 -5 0 -10 11 -10 25 0 37 78
116 158 159 37 20 56 34 42 30 -14 -4 -33 -8 -42 -8 -9 0 -14 -5 -11 -10 4 -6
-1 -6 -13 -2 -10 4 -15 4 -12 0 4 -3 -19 -26 -51 -49 -43 -31 -65 -57 -82 -94
-23 -47 -26 -50 -62 -51 l-38 0 23 41 c37 66 111 127 206 170 144 65 155 73
180 120 24 46 28 116 13 232 -5 41 -4 57 5 57 24 0 32 -212 9 -267 -19 -44
-12 -56 9 -16 9 18 18 73 22 134 7 111 20 146 56 151 21 3 24 -2 30 -52 3 -30
2 -90 -2 -132z m552 111 c3 -60 8 -74 27 -90 17 -14 19 -19 7 -19 -8 0 -22 10
-30 23 -15 24 -29 157 -16 157 4 0 10 -32 12 -71z m41 -41 c2 -18 3 -35 0 -38
-7 -8 -23 24 -23 48 0 34 17 26 23 -10z m-283 -28 c15 -5 -35 -8 -122 -9 -89
0 -148 4 -148 9 0 12 233 12 270 0z m2330 -60 c-19 -16 -30 -30 -23 -30 7 0
27 13 46 30 l34 29 84 -9 c206 -21 314 -100 355 -260 19 -74 14 -131 -17 -193
-42 -82 -84 -113 -172 -123 -52 -6 -56 -5 -95 31 -23 20 -54 62 -69 93 -48
100 -32 265 33 335 14 16 23 31 19 35 -11 12 -64 -60 -82 -113 -24 -72 -22
-177 6 -240 35 -79 73 -127 116 -146 22 -10 32 -19 22 -19 -45 0 -117 69 -182
174 -9 14 -24 15 -130 7 -117 -9 -121 -9 -165 15 -25 14 -76 47 -114 75 -58
43 -67 54 -63 75 3 19 2 22 -9 13 -8 -6 -14 -17 -14 -25 0 -18 -22 -23 -163
-40 -123 -16 -356 -28 -282 -16 36 6 28 9 -73 25 -114 18 -237 55 -279 82 -26
17 -33 58 -8 49 9 -4 15 0 15 9 0 8 -5 17 -12 19 -16 6 5 58 38 93 23 25 28
26 127 24 56 -2 107 0 113 3 12 8 270 -6 448 -23 l123 -12 -34 -51 c-18 -28
-33 -60 -33 -71 1 -16 4 -14 17 10 22 42 61 87 92 107 43 29 170 53 336 65
l30 2 -35 -29z m-1213 -42 c-68 -90 -55 -220 29 -303 37 -36 38 -37 9 -22
-113 57 -136 242 -42 344 30 34 33 20 4 -19z m-793 -49 c29 -113 147 -197 302
-214 76 -9 174 -11 174 -5 0 3 20 5 45 5 25 0 45 -1 45 -3 0 -9 -28 -30 -34
-25 -3 4 -6 1 -6 -5 0 -7 -11 -12 -25 -12 -14 0 -25 5 -25 10 0 6 -18 10 -40
10 -22 0 -40 -4 -40 -10 0 -5 14 -10 30 -10 17 0 30 -4 30 -10 0 -6 -28 -10
-64 -10 -36 0 -68 5 -71 10 -3 6 3 10 15 10 44 0 8 17 -48 23 -161 17 -293
121 -316 251 -10 55 14 43 28 -15z m706 44 c0 -4 -10 -17 -21 -30 -12 -12 -27
-44 -34 -70 l-12 -48 -214 0 c-244 0 -267 5 -313 75 -14 22 -26 43 -26 47 0 5
125 9 278 10 164 0 287 5 302 11 30 13 40 14 40 5z m-643 -47 c4 -17 8 -36 8
-43 1 -25 40 -53 94 -65 35 -7 137 -12 273 -13 127 0 213 -4 208 -9 -13 -13
-416 -10 -482 3 -31 7 -69 22 -84 33 -27 22 -63 89 -64 120 0 29 38 9 47 -26z
m657 -3 c-16 -47 -18 -117 -3 -145 9 -16 8 -23 -2 -29 -18 -11 -202 -11 -254
1 -28 6 2 8 101 7 l141 -2 -18 35 c-22 40 -17 85 13 137 27 44 39 42 22 -4z
m-589 -73 c3 -5 2 -10 -4 -10 -5 0 -13 5 -16 10 -3 6 -2 10 4 10 5 0 13 -4 16
-10z m685 -69 c0 -4 33 -18 73 -30 39 -13 77 -25 82 -27 6 -2 -19 -1 -55 2
-82 8 -71 -7 22 -30 58 -14 535 -97 555 -96 5 0 0 7 -11 15 -17 13 -16 14 13
13 16 -1 28 -5 25 -10 -3 -4 1 -8 8 -8 7 0 29 -14 48 -31 l35 -30 -55 6 c-30
4 -60 13 -66 21 -6 8 -21 14 -32 14 -46 0 -373 52 -477 76 -60 14 -122 27
-136 30 -29 6 -49 35 -53 76 -2 19 1 25 10 21 8 -3 14 -8 14 -12z m-415 -27
c6 2 16 -3 23 -10 11 -12 7 -13 -25 -10 -101 10 -152 19 -148 25 2 4 35 4 72
-1 37 -4 73 -6 78 -4z m-1171 -156 c21 -573 40 -1020 50 -1183 7 -104 12 -191
11 -192 0 -1 -26 -5 -57 -9 l-56 -6 -7 178 c-4 99 -10 184 -14 191 -5 10 -5
-155 2 -310 l2 -57 -83 0 c-58 0 -84 4 -86 13 -2 6 -17 57 -35 113 l-31 100 0
407 c0 381 1 407 18 407 15 0 17 -8 14 -66 -3 -48 -1 -64 8 -59 7 4 10 31 9
70 -1 35 2 70 8 77 21 27 26 56 29 155 2 95 0 106 -23 139 l-24 37 36 37 c20
21 53 45 73 53 21 8 60 24 87 35 28 11 53 20 56 21 4 1 9 -68 13 -151z m2438
96 c111 -82 145 -94 288 -95 116 -1 121 -2 65 -11 -98 -15 -191 -6 -265 26
-36 15 -80 34 -97 42 -18 7 -33 18 -33 24 0 7 7 7 23 -1 20 -10 21 -10 7 4
-37 38 -64 44 -152 31 -96 -15 -144 -17 -134 -6 6 6 147 26 213 31 13 0 50
-19 85 -45z m-652 26 c8 -5 11 -12 7 -16 -4 -4 -15 0 -24 9 -18 18 -8 23 17 7z
m-413 -6 c-3 -3 -12 -4 -19 -1 -8 3 -5 6 6 6 11 1 17 -2 13 -5z m499 -21 c-6
-6 -36 9 -36 18 0 5 9 4 20 -3 10 -7 18 -14 16 -15z m500 5 c4 -7 3 -8 -4 -4
-7 4 -12 2 -12 -5 0 -7 -3 -10 -6 -6 -6 5 3 27 11 27 2 0 7 -5 11 -12z m-225
-8 c6 0 7 -5 3 -11 -4 -7 -1 -10 7 -7 16 6 69 -21 69 -35 0 -5 -8 -6 -17 -3
-10 3 -29 7 -43 10 -14 3 -47 9 -75 15 -27 5 -53 7 -57 5 -5 -3 -8 0 -8 5 0 6
12 11 28 11 15 0 34 5 42 10 8 5 21 8 28 5 8 -3 18 -5 23 -5z m174 1 c-6 -5
-19 -11 -30 -14 -11 -2 -5 -3 13 -1 44 4 41 -13 -5 -22 -25 -5 -38 -3 -41 5
-2 6 -12 11 -23 11 -35 0 -20 19 19 23 72 7 76 7 67 -2z m-965 -21 c0 -11 -4
-20 -10 -20 -5 0 -10 9 -10 20 0 11 5 20 10 20 6 0 10 -9 10 -20z m287 0 c14
-11 30 -17 36 -13 6 3 7 1 3 -5 -8 -13 -38 -1 -64 25 -20 20 -3 16 25 -7z
m-567 -21 c0 -20 -15 -26 -25 -9 -9 15 3 43 15 35 5 -3 10 -15 10 -26z m1299
2 c-15 -5 -22 6 -14 19 6 9 10 9 16 -1 5 -8 4 -15 -2 -18z m37 -62 c114 -90
254 -144 429 -166 l60 -8 -54 -3 c-65 -4 -188 20 -262 50 -73 30 -267 159
-268 180 -2 14 35 -6 95 -53z m-1058 -26 l3 -72 -43 -11 c-110 -28 -184 -63
-173 -80 3 -5 -3 -11 -14 -15 -11 -3 -34 -22 -51 -42 -17 -19 -33 -33 -35 -31
-7 7 21 111 37 143 20 38 73 88 116 109 46 23 40 13 -17 -28 -28 -19 -55 -45
-61 -56 -7 -14 9 -5 45 25 32 25 60 44 63 40 3 -3 -4 -12 -16 -21 -12 -8 -22
-20 -22 -26 0 -6 8 -4 18 5 10 10 24 17 30 17 8 0 12 20 12 55 0 30 -4 55 -8
55 -5 0 -36 -18 -70 -39 -91 -60 -142 -155 -142 -267 0 -40 -3 -54 -12 -51
-20 6 -11 117 13 183 26 68 77 127 138 159 38 20 59 24 116 22 l70 -2 3 -72z
m-284 25 c-22 -24 -48 -55 -57 -69 -29 -47 -49 -138 -45 -202 l3 -62 -39 -3
c-47 -4 -74 4 -59 19 6 6 24 7 51 1 40 -9 41 -9 31 11 -7 12 -9 49 -7 91 6 87
49 179 105 225 54 45 64 38 17 -11z m652 21 l45 -12 -5 -81 c-3 -44 -8 -175
-11 -291 -8 -339 -16 -466 -29 -462 -6 3 -10 8 -9 13 2 14 22 444 29 634 4 96
4 173 1 170 -7 -7 -47 -646 -47 -746 l0 -66 -37 7 c-21 4 -39 8 -41 9 -1 2 1
111 5 242 6 192 9 221 14 149 l5 -90 2 116 c4 219 15 419 24 419 5 0 29 -5 54
-11z m709 1 c3 -6 -1 -7 -9 -4 -18 7 -21 14 -7 14 6 0 13 -4 16 -10z m-1001
-22 c7 -12 6 -24 -3 -42 -13 -23 -12 -27 10 -45 27 -23 13 -29 -17 -7 -14 11
-19 26 -19 65 0 51 9 60 29 29z m1065 15 c12 10 13 9 6 -2 -6 -11 -4 -13 9 -8
9 4 15 3 11 -2 -18 -29 249 -56 283 -29 8 7 12 7 12 -2 0 -10 3 -10 14 -1 11
9 19 5 37 -19 34 -43 103 -118 94 -101 -5 9 -4 12 3 7 7 -4 12 -13 12 -21 0
-25 -64 -35 -73 -11 -4 9 -26 17 -54 21 -26 3 -86 18 -133 32 -47 15 -88 26
-92 25 -5 -1 -8 2 -8 7 0 8 -53 34 -65 32 -3 -1 -13 5 -21 14 -9 8 -22 15 -30
15 -8 0 -14 4 -14 9 0 5 -9 13 -20 16 -11 4 -17 11 -14 17 4 6 10 6 17 -1 7
-7 15 -7 26 2z m-996 -62 c20 -22 43 -53 51 -69 23 -45 39 -119 32 -148 l-7
-27 -42 41 c-84 81 -193 115 -288 89 -30 -8 -63 -18 -73 -22 -13 -6 -17 -5
-13 2 13 21 100 43 166 43 80 0 157 -32 208 -86 l34 -36 -7 43 c-4 24 -11 49
-17 54 -7 7 -8 4 -4 -7 4 -10 2 -18 -3 -18 -6 0 -10 10 -10 22 0 12 -18 39
-42 62 -34 32 -42 47 -40 69 4 36 13 34 55 -12z m-1764 15 c8 -10 9 -16 2 -21
-13 -7 -211 -9 -218 -1 -3 3 0 12 7 21 17 21 192 22 209 1z m21 -55 c0 -4 -29
-13 -65 -20 -74 -15 -195 -7 -195 12 0 9 24 11 82 9 46 -2 101 1 123 6 40 9
55 7 55 -7z m1015 -1 c-28 -12 -55 -12 -55 0 0 6 17 10 38 9 30 0 33 -2 17 -9z
m625 -20 c0 -5 -5 -10 -11 -10 -5 0 -7 5 -4 10 3 6 8 10 11 10 2 0 4 -4 4 -10z
m-1755 -28 c123 5 138 -5 37 -24 -47 -9 -77 -9 -123 0 -68 12 -74 16 -64 32 5
8 11 8 21 -1 10 -8 50 -10 129 -7z m-40 -51 c50 -1 102 2 117 8 33 13 48 -3
17 -19 -12 -7 -62 -11 -127 -9 -103 2 -138 11 -126 31 3 5 11 5 17 1 7 -5 53
-10 102 -12z m1919 -80 c22 -22 36 -44 32 -48 -4 -4 -24 11 -44 34 -20 23 -56
53 -79 67 -24 15 -43 29 -43 31 0 14 100 -48 134 -84z m-1774 28 c0 -12 -121
-39 -167 -38 l-48 2 40 6 c30 5 36 8 22 14 -30 12 -79 9 -71 -5 5 -8 2 -9 -10
-5 -10 4 -20 7 -22 7 -2 0 -4 6 -4 13 0 11 27 14 130 13 71 -1 130 -4 130 -7z
m-140 -54 c41 0 91 4 110 9 34 8 34 7 17 -10 -29 -31 -247 -24 -247 7 0 6 8 7
23 2 12 -4 56 -8 97 -8z m1465 5 c-4 -6 -1 -18 7 -27 12 -15 11 -15 -9 -3 -16
11 -19 17 -11 27 13 16 22 17 13 3z m-3 -114 c3 -37 12 -89 19 -117 10 -39 10
-52 1 -61 -23 -23 -47 4 -45 48 5 112 5 163 -2 183 -5 17 -4 22 6 19 9 -3 16
-29 21 -72z m-1500 -53 l2 -118 5 109 c4 60 11 111 16 113 7 2 9 -129 7 -384
-3 -355 1 -464 14 -450 3 3 5 123 4 268 0 145 2 332 6 416 6 141 9 153 26 153
18 0 19 -14 16 -417 l-3 -418 34 -80 c54 -129 39 -220 -43 -259 -43 -20 -54
-20 -92 3 -67 41 -86 200 -36 298 22 41 22 52 22 463 0 273 3 420 10 420 6 0
11 -47 12 -117z m2148 -388 c260 -32 357 -57 380 -101 17 -32 8 -41 -61 -59
-218 -59 -769 -68 -1107 -20 -116 17 -237 49 -247 66 -26 41 137 95 360 118
142 15 540 12 675 -4z m-2420 -125 c0 -79 3 -104 17 -119 9 -11 18 -27 19 -36
3 -23 -34 -18 -47 7 -6 12 -20 31 -30 42 -11 11 -19 23 -19 28 0 4 -18 12 -40
18 -36 10 -56 30 -30 30 6 0 10 11 10 24 0 13 7 29 15 36 14 11 14 15 -2 33
-10 11 -12 17 -5 13 6 -4 12 -3 12 3 0 6 6 8 13 6 6 -3 26 -1 42 4 17 5 33 10
38 10 4 1 7 -44 7 -99z m-231 34 c-6 -8 -9 -23 -6 -35 3 -13 0 -22 -10 -26
-21 -8 47 -39 120 -54 68 -14 92 -36 28 -25 -23 3 -60 12 -81 20 -22 8 -40 12
-40 9 0 -10 89 -42 138 -48 28 -4 52 -12 52 -17 0 -17 -79 0 -148 32 -35 16
-61 34 -58 39 3 5 -1 12 -10 15 -22 9 -26 8 -18 -6 4 -6 3 -8 -4 -4 -5 3 -12
0 -15 -6 -3 -9 -14 -4 -33 15 -17 16 -23 27 -15 27 8 0 19 -7 26 -17 12 -16
35 -11 35 8 0 6 -4 8 -9 5 -11 -7 -8 21 4 31 4 4 5 1 0 -7 -6 -12 -5 -13 6 -2
11 10 10 15 -3 29 -16 15 -16 17 -1 28 23 17 57 7 42 -11z m114 6 c-4 -4 -30
-10 -58 -14 -59 -8 -49 13 12 24 40 7 60 3 46 -10z m-175 -32 c-5 -16 -48 -24
-48 -9 0 8 17 16 43 20 5 0 7 -5 5 -11z m136 -4 c28 -11 17 -24 -18 -24 -36 0
-56 14 -34 23 19 8 34 8 52 1z m1570 -65 c7 -38 57 -151 63 -145 3 3 -9 41
-26 85 -35 90 -36 94 -20 89 6 -2 23 -42 38 -88 15 -47 38 -105 50 -129 48
-92 161 -252 161 -228 0 4 -28 48 -61 99 -62 94 -92 153 -135 266 -24 64 -15
89 10 27 8 -19 20 -35 25 -35 15 0 14 12 -5 38 -21 30 -16 34 27 22 127 -38
619 -60 880 -41 163 12 320 35 352 52 10 6 21 8 24 5 13 -12 -38 -183 -78
-263 -67 -135 -183 -239 -388 -346 -89 -46 -93 -49 -51 -43 64 10 129 41 175
85 68 63 82 69 32 11 -27 -30 -56 -72 -65 -92 -14 -31 -24 -39 -62 -48 -115
-27 -415 -28 -470 0 -14 6 -39 30 -55 53 -17 23 -57 59 -90 81 -33 22 -92 72
-131 111 -56 57 -80 91 -122 175 -43 88 -102 256 -102 292 0 21 18 -4 24 -33z
m1581 -8 c69 -40 96 -132 57 -196 -28 -46 -106 -119 -180 -168 -92 -61 -297
-167 -324 -167 -32 0 -11 17 43 35 36 12 38 14 11 10 l-33 -5 49 48 c27 27 57
63 67 81 l17 33 15 -22 c12 -17 22 -21 45 -16 69 14 218 154 239 227 11 35 10
43 -8 67 -17 22 -28 27 -61 26 -45 -1 -83 -26 -120 -80 -13 -20 -25 -34 -27
-32 -2 2 5 30 15 63 10 33 21 72 24 87 3 14 14 29 24 32 30 8 116 -5 147 -23z
m-27 -115 c5 -37 -38 -97 -111 -158 -55 -45 -101 -68 -114 -55 -3 4 0 28 6 54
9 35 27 63 69 108 31 33 68 67 81 77 32 22 65 10 69 -26z m-3336 -22 c3 -3
-10 -31 -29 -62 -45 -75 -118 -226 -158 -332 -41 -106 -90 -329 -75 -344 7 -7
10 0 10 22 0 18 2 32 4 32 2 0 18 -13 36 -30 49 -46 60 -35 12 13 -23 23 -42
49 -42 57 0 8 16 -4 36 -27 51 -61 61 -53 14 10 -39 51 -49 80 -31 91 5 3 12
-4 15 -17 9 -32 45 -77 46 -56 0 9 -6 22 -13 28 -8 6 -19 28 -26 49 -17 49 1
118 61 240 31 63 54 95 99 135 l59 53 -8 45 c-5 28 -5 51 1 61 9 14 14 14 52
-3 53 -23 341 -99 378 -99 l28 0 -17 -31 c-30 -58 -144 -652 -144 -751 0 -21
-3 -38 -6 -38 -9 0 -170 40 -289 71 -181 48 -269 90 -295 139 -19 35 31 230
106 417 40 100 155 333 164 333 4 0 9 -3 12 -6z m83 -12 c-3 -3 -11 0 -18 7
-9 10 -8 11 6 5 10 -3 15 -9 12 -12z m75 -3 c0 -5 5 -9 11 -9 6 0 8 7 5 16 -5
12 -1 14 17 7 12 -4 36 -8 54 -8 17 0 29 -3 27 -6 -2 -4 16 -10 41 -13 29 -5
49 -14 55 -27 8 -13 7 -19 0 -19 -6 0 -8 -4 -5 -10 8 -13 0 -13 -23 -1 -16 9
-63 22 -87 25 -28 4 -79 19 -103 32 -15 8 -33 14 -39 14 -7 0 -13 4 -13 8 0 5
14 7 30 4 17 -2 30 -8 30 -13z m-209 -168 c-28 -28 -51 -47 -51 -44 0 3 21 43
48 89 l47 84 3 -40 c3 -37 -1 -44 -47 -89z m1916 -2 c14 -27 30 -49 35 -49 4
0 7 -6 6 -12 -2 -7 3 -12 10 -10 6 1 11 -1 10 -5 -1 -5 8 -24 20 -43 12 -19
22 -31 22 -25 0 5 7 -1 16 -13 8 -12 21 -22 29 -22 8 0 18 -6 22 -13 4 -7 19
-21 32 -30 21 -14 21 -16 5 -15 -10 0 -35 -2 -54 -5 -21 -3 -38 0 -42 7 -5 7
-8 6 -8 -4 0 -10 -12 -15 -38 -16 -33 -1 -630 -76 -723 -90 l-36 -6 -7 118
c-3 66 -9 139 -12 164 l-6 46 38 1 c22 1 113 11 204 23 91 11 190 23 220 25
l55 4 -45 -10 c-114 -27 -117 -29 -38 -25 43 3 80 0 83 -5 4 -5 -14 -9 -39 -9
-25 0 -48 -4 -51 -10 -4 -6 10 -10 34 -10 22 0 41 -5 44 -12 7 -22 20 0 22 39
2 34 6 38 36 45 19 4 39 5 46 3 7 -2 14 -1 17 3 2 4 18 8 35 8 27 2 34 -4 58
-47z m-1337 -8 c0 -82 40 -155 103 -187 37 -20 86 -13 127 16 33 24 70 87 70
121 0 20 3 21 105 16 57 -2 122 -1 144 3 l39 7 6 -41 c3 -23 8 -88 11 -146 4
-58 9 -112 11 -121 4 -13 -7 -17 -52 -22 -31 -3 -62 -11 -68 -18 -8 -9 -2 -10
29 -7 27 4 44 1 53 -8 7 -8 29 -14 48 -14 20 0 33 -4 29 -10 -3 -5 14 -14 37
-20 70 -17 345 -89 462 -121 300 -82 511 -102 831 -79 371 27 758 91 1159 191
144 36 183 54 165 75 -10 12 -13 12 -23 0 -15 -19 -86 -40 -271 -80 -334 -72
-727 -135 -984 -157 -189 -16 -475 -7 -621 21 -297 56 -788 190 -775 211 4 5
10 7 14 5 3 -2 42 2 86 10 44 7 81 14 83 14 2 0 2 -6 1 -12 -3 -29 4 -37 54
-57 58 -23 354 -98 516 -131 274 -55 589 -48 1101 26 522 75 732 152 595 217
-18 9 -114 37 -212 63 -98 25 -207 54 -243 64 l-65 17 32 16 c31 16 36 16 125
-12 581 -181 658 -208 658 -230 0 -5 -6 -13 -12 -19 -15 -12 -157 -55 -240
-73 -57 -12 -86 -24 -78 -33 6 -5 296 71 324 86 26 14 32 5 90 -131 28 -67 48
-131 52 -167 l6 -59 -43 -22 c-299 -148 -887 -256 -1599 -294 -202 -11 -239
-11 -360 5 -284 38 -712 115 -1316 239 l-402 82 4 30 c31 245 114 691 139 751
10 26 18 31 34 27 16 -4 21 -13 21 -42z m2737 -232 c254 -65 363 -97 363 -109
0 -17 -173 -63 -187 -49 -11 11 -376 97 -428 101 -22 2 -48 10 -57 17 -21 18
-73 27 -63 11 4 -6 -7 -10 -30 -10 -22 0 -34 4 -30 10 3 6 13 10 21 10 8 0 23
6 34 12 16 10 24 10 40 0 11 -6 29 -12 41 -12 11 0 28 -4 37 -9 26 -13 80 -24
62 -12 -30 20 -3 18 65 -6 74 -26 347 -93 376 -93 23 0 34 19 21 32 -9 9 -325
94 -480 130 -44 10 -48 28 -6 28 13 0 113 -23 221 -51z m-272 21 c-3 -5 -12
-10 -18 -10 -7 0 -6 4 3 10 19 12 23 12 15 0z m-185 -5 c0 -6 -97 -55 -107
-55 -4 1 17 14 47 30 61 32 60 32 60 25z m-680 -45 c0 -5 -8 -11 -17 -11 -18
-2 -25 -2 -88 -10 -16 -2 -34 -8 -38 -14 -6 -7 -10 -6 -14 2 -3 9 -11 8 -30
-5 -15 -9 -28 -12 -30 -7 -4 12 -93 7 -93 -6 0 -5 12 -11 28 -14 15 -3 59 -15
97 -27 80 -24 212 -33 195 -13 -8 9 3 9 42 -1 29 -8 74 -14 100 -14 26 0 50
-5 53 -11 5 -7 -13 -8 -57 -5 l-63 6 65 -14 c36 -8 147 -35 247 -60 100 -25
194 -46 208 -46 49 0 24 17 -52 34 -210 49 -316 75 -322 82 -3 4 26 4 64 0 39
-3 85 -6 103 -6 19 0 31 -4 27 -10 -6 -10 10 -15 176 -55 107 -25 169 -32 169
-17 0 6 -130 38 -267 66 -29 6 -53 13 -53 16 0 6 141 30 175 30 35 0 2 -19
-40 -22 l-40 -3 55 -17 c30 -9 111 -29 179 -45 l124 -29 -194 -28 c-270 -39
-678 -56 -672 -28 1 5 -24 15 -55 21 -134 29 -559 144 -583 158 -19 12 -39 14
-73 9 -25 -4 -46 -11 -46 -16 0 -12 34 -23 38 -11 2 5 21 1 45 -9 23 -10 148
-44 277 -76 129 -32 226 -60 214 -62 -29 -4 -503 110 -576 139 -16 6 -28 17
-28 25 0 23 82 37 450 79 74 9 158 20 185 24 71 12 115 13 115 1z m27 -6 c-3
-4 11 -24 32 -45 l39 -38 -29 4 c-16 2 -33 6 -39 10 -5 3 -19 1 -30 -5 -15 -8
-30 -8 -55 0 -46 15 -36 37 15 35 22 -1 38 0 36 3 -5 4 25 42 33 42 2 0 2 -3
-2 -6z m783 -27 c0 -4 4 -6 9 -3 5 3 14 -1 20 -8 10 -11 8 -16 -8 -21 -23 -7
-71 3 -71 16 0 5 5 9 11 9 5 0 8 4 5 8 -2 4 4 8 15 8 10 0 19 -4 19 -9z m-100
-6 c0 -12 -28 -22 -34 -12 -3 5 -3 11 1 15 9 9 33 7 33 -3z m407 -61 c101 -24
181 -45 180 -46 -1 -2 -65 -15 -142 -29 -77 -15 -162 -31 -189 -37 -32 -6 -51
-6 -55 1 -4 5 -66 24 -139 42 -87 21 -130 35 -123 42 6 6 61 -3 158 -27 81
-20 164 -36 183 -36 53 1 20 14 -95 39 -139 31 -137 30 -83 53 l47 20 128 -31
c134 -32 232 -49 222 -37 -4 4 -65 21 -135 37 -71 16 -137 34 -146 39 -10 5
-24 7 -33 4 -8 -3 -15 -2 -15 4 0 14 22 21 40 12 8 -4 97 -26 197 -50z m-397
30 c-45 -25 -62 -25 -30 0 14 11 34 19 45 19 15 0 11 -5 -15 -19z m-833 -10
c13 0 23 -4 23 -10 0 -5 -4 -10 -10 -10 -18 0 -60 23 -60 34 0 6 5 5 12 -2 7
-7 22 -12 35 -12z m903 -9 c0 -11 -25 -21 -51 -21 -29 0 -23 18 9 23 15 2 30
5 35 6 4 0 7 -3 7 -8z m-1693 -67 c-3 -3 -12 -4 -19 -1 -8 3 -5 6 6 6 11 1 17
-2 13 -5z m-1387 -253 c82 -37 178 -63 556 -150 455 -106 814 -173 1259 -235
507 -71 501 -71 793 -57 753 34 1231 125 1565 297 49 25 61 18 27 -16 -31 -31
-105 -64 -240 -109 -401 -131 -775 -190 -1355 -212 l-290 -11 -335 46 c-601
84 -1045 168 -1545 292 -264 66 -339 87 -426 120 -67 25 -129 74 -129 102 0
12 7 9 28 -11 15 -14 56 -39 92 -56z m175 -121 c-2 -3 6 -6 18 -6 19 1 22 -4
19 -30 -3 -34 38 -94 64 -94 8 0 14 -4 14 -9 0 -4 15 -7 33 -6 20 1 34 -4 34
-10 0 -7 -6 -12 -14 -12 -7 0 -13 4 -13 9 0 5 -5 6 -10 3 -14 -9 -119 23 -137
41 -8 8 -22 14 -31 14 -18 0 -112 61 -112 73 0 4 11 7 24 7 13 0 29 7 36 15
11 14 84 19 75 5z m89 -50 c3 -16 10 -30 16 -30 6 0 8 10 4 25 -4 16 -2 25 6
25 8 0 11 -11 8 -29 -4 -29 -3 -30 67 -46 39 -9 82 -15 95 -12 20 3 17 5 -10
6 -33 1 -70 16 -60 23 11 8 131 -18 123 -25 -4 -5 13 -6 40 -2 29 5 47 4 47
-3 0 -25 -156 -30 -245 -7 -74 19 -109 44 -113 78 -5 37 14 34 22 -3z m78 -12
c-13 -13 -32 -2 -32 18 0 12 4 13 21 3 14 -7 18 -14 11 -21z m48 -2 c0 -2 -7
-6 -15 -10 -8 -3 -15 -1 -15 4 0 6 7 10 15 10 8 0 15 -2 15 -4z m280 -56 c3
-2 8 -2 13 -1 4 1 23 -5 42 -13 18 -8 44 -12 56 -9 15 4 20 3 15 -5 -5 -8 2
-13 21 -14 37 -2 44 -3 71 -12 27 -9 65 -14 110 -15 21 -1 31 -5 26 -12 -4 -6
1 -10 12 -8 11 1 44 -3 74 -9 30 -6 71 -13 90 -16 19 -3 69 -13 110 -21 63
-13 146 -24 223 -28 19 -1 23 -13 5 -19 -6 -2 6 -4 28 -4 38 0 149 -11 149
-15 0 -1 9 -3 21 -4 48 -5 94 -16 95 -23 9 -79 18 -106 48 -139 15 -18 31 -30
35 -26 3 3 6 1 6 -6 0 -22 -162 0 -220 30 -56 28 -145 50 -223 55 -112 6 -282
34 -307 49 -4 2 -23 6 -42 9 -20 2 -60 11 -89 20 -30 8 -92 27 -139 40 -47 14
-98 28 -115 31 -16 3 -35 7 -42 9 -7 1 -16 5 -19 9 -4 4 -20 7 -35 7 -15 0
-29 4 -31 10 -1 5 -20 11 -40 12 -21 2 -38 6 -38 9 0 4 -28 12 -62 19 -59 11
-125 38 -103 40 6 1 33 1 61 0 71 -2 135 16 141 40 5 17 24 21 53 10z m-276
-51 c-6 -11 -24 -2 -24 11 0 5 7 7 15 4 8 -4 12 -10 9 -15z m3494 -64 c-23
-50 -77 -68 -225 -73 -89 -3 -133 -1 -133 6 0 11 36 18 145 27 120 10 143 16
181 46 43 34 50 32 32 -6z m-350 -88 c10 -9 24 -17 32 -17 10 0 10 -3 -1 -16
-7 -8 -21 -13 -31 -11 -10 3 -18 1 -18 -5 0 -5 -4 -7 -9 -4 -4 3 -23 1 -42 -4
-19 -6 -54 -13 -79 -16 -25 -3 -63 -10 -85 -15 -22 -5 -53 -12 -70 -14 -16 -3
-52 -9 -80 -14 -42 -9 -100 -17 -255 -36 -14 -2 -72 -6 -130 -10 -219 -13
-255 -16 -264 -25 -5 -5 -15 -6 -22 -3 -10 4 -11 10 -3 25 9 16 12 32 18 83 1
7 45 11 114 13 178 3 425 18 487 29 19 3 51 7 70 9 54 5 208 28 220 34 3 1 17
1 32 0 14 -1 29 3 32 8 9 15 63 8 84 -11z m-1648 -51 c0 -81 46 -118 160 -131
l55 -6 -72 20 c-76 21 -118 39 -110 48 3 2 19 -3 36 -11 16 -9 38 -16 48 -15
10 0 4 5 -13 10 -19 5 -34 17 -37 30 -4 16 -2 19 11 14 9 -4 117 -9 240 -12
196 -5 222 -4 222 9 0 9 10 18 21 21 20 5 21 3 15 -36 -10 -59 -28 -74 -109
-88 -91 -15 -323 -6 -391 16 -66 20 -83 37 -95 96 -14 65 -14 69 4 69 10 0 15
-10 15 -34z m40 -5 c0 -17 -4 -33 -10 -36 -6 -4 -10 8 -10 29 0 20 5 36 10 36
6 0 10 -13 10 -29z m170 4 c107 -13 194 -25 197 -28 1 -2 -36 -2 -84 0 -49 1
-127 4 -175 5 -79 3 -88 5 -88 22 0 17 5 18 63 11 34 -4 73 -9 87 -10z m-412
-132 c-10 -2 -28 -2 -40 0 -13 2 -5 4 17 4 22 1 32 -1 23 -4z"/>
<path d="M2623 5233 c3 -5 55 -13 114 -16 354 -20 1190 -93 1406 -122 111 -16
143 -18 136 -11 -13 13 -618 78 -1129 120 -405 34 -535 41 -527 29z"/>
<path d="M1950 5222 c0 -5 42 -12 93 -16 172 -13 337 -45 400 -78 31 -17 60
-28 63 -25 7 7 -100 61 -139 71 -72 17 -201 36 -287 41 -52 3 -103 8 -112 11
-10 3 -18 1 -18 -4z"/>
<path d="M2216 5221 c5 -4 45 -14 89 -21 44 -6 106 -22 138 -35 31 -12 57 -19
57 -13 0 16 -90 48 -178 63 -98 17 -120 19 -106 6z"/>
<path d="M2430 5210 c0 -5 8 -10 19 -10 10 0 45 -13 77 -30 69 -35 71 -35 53
-13 -17 19 -107 63 -131 63 -10 0 -18 -4 -18 -10z"/>
<path d="M1561 5135 c0 -22 4 -47 9 -55 13 -19 13 46 0 75 -7 16 -9 11 -9 -20z"/>
<path d="M2726 5108 c8 -50 23 -85 24 -53 0 38 -13 95 -21 95 -5 0 -6 -19 -3
-42z"/>
<path d="M2380 5135 c0 -3 18 -17 40 -31 23 -15 37 -30 32 -33 -5 -3 -1 -14 8
-23 14 -15 17 -15 17 -3 0 8 -5 15 -10 15 -5 0 -4 7 3 15 10 12 10 15 0 15 -7
0 -28 11 -46 25 -32 24 -44 30 -44 20z"/>
<path d="M1592 5065 c0 -56 13 -132 18 -110 1 6 8 -21 15 -60 15 -86 18 -41 5
74 -5 47 -15 88 -21 92 -6 4 -9 11 -7 15 3 5 2 18 -3 29 -5 13 -7 0 -7 -40z"/>
<path d="M2787 5073 c6 -52 10 -60 19 -50 9 9 -6 97 -16 97 -6 0 -7 -21 -3
-47z"/>
<path d="M3452 5114 c4 -4 97 -11 205 -15 167 -7 369 -28 432 -45 9 -2 3 2
-14 10 -16 8 -86 21 -155 29 -137 18 -479 33 -468 21z"/>
<path d="M2181 5096 c11 -11 169 -54 169 -45 0 4 -23 15 -51 23 -63 19 -126
31 -118 22z"/>
<path d="M2914 5089 c-4 -8 1 -9 17 -4 23 7 23 7 7 -12 -22 -24 -22 -34 -3
-59 15 -18 16 -17 10 13 -5 27 -2 34 20 49 20 13 41 16 105 12 44 -3 80 -1 80
4 0 13 -228 10 -236 -3z"/>
<path d="M4303 5073 c9 -2 23 -2 30 0 6 3 -1 5 -18 5 -16 0 -22 -2 -12 -5z"/>
<path d="M2830 5058 c0 -7 5 -20 10 -28 8 -12 10 -11 10 7 0 12 -4 25 -10 28
-5 3 -10 0 -10 -7z"/>
<path d="M2861 5054 c0 -11 3 -14 6 -6 3 7 2 16 -1 19 -3 4 -6 -2 -5 -13z"/>
<path d="M2680 5057 c-15 -16 31 -867 51 -932 10 -32 10 -38 -16 390 -8 138
-18 317 -23 398 -4 82 -9 147 -12 144z"/>
<path d="M2220 5042 c0 -5 17 -12 38 -16 53 -8 78 -8 67 3 -14 13 -105 24
-105 13z"/>
<path d="M2167 4993 c-4 -7 9 -10 36 -9 23 0 74 -3 112 -7 51 -6 67 -6 59 2
-14 15 -199 27 -207 14z"/>
<path d="M3048 4993 c6 -2 18 -2 25 0 6 3 1 5 -13 5 -14 0 -19 -2 -12 -5z"/>
<path d="M3424 4943 c14 -108 25 -279 31 -453 3 -102 8 -222 11 -267 l6 -83
320 0 320 0 -6 278 c-7 303 -15 488 -22 513 -3 11 -20 19 -47 23 -37 6 -536
36 -595 36 -23 0 -24 -3 -18 -47z m254 7 c92 -5 212 -13 268 -16 55 -3 106 -9
113 -14 15 -9 26 -224 30 -552 l2 -198 -302 0 c-270 0 -301 2 -295 16 3 9 6
22 6 30 0 11 30 14 163 16 l162 2 -161 3 -161 3 -11 188 c-6 103 -13 250 -14
327 l-3 140 65 -3 c260 -10 472 -22 479 -27 5 -2 9 -101 10 -217 1 -117 4
-255 7 -305 5 -68 3 -97 -6 -108 -10 -13 -53 -15 -264 -16 l-251 -2 160 -9
c88 -4 210 -7 270 -6 l110 3 -2 295 c-2 162 -5 318 -8 347 l-6 51 -67 6 c-37
4 -154 11 -261 16 -106 6 -204 13 -217 16 -18 5 -24 2 -24 -10 0 -9 -4 -16
-10 -16 -5 0 -10 14 -10 31 0 30 2 31 31 25 17 -3 106 -10 197 -16z"/>
<path d="M3873 4833 c21 -24 32 -16 -201 -147 -110 -63 -134 -91 -30 -36 139
74 322 189 313 198 -2 3 -16 -3 -31 -12 -24 -17 -27 -17 -47 1 -22 18 -22 18
-4 -4z"/>
<path d="M3985 4829 c-5 -5 -23 -20 -40 -34 -16 -13 -27 -27 -23 -30 8 -8 75
33 82 50 6 18 -5 26 -19 14z"/>
<path d="M3529 4792 c-25 -26 -44 -62 -33 -62 13 0 56 40 43 40 -8 1 -2 8 14
16 15 8 27 19 27 24 0 18 -25 9 -51 -18z"/>
<path d="M3877 4762 c-15 -9 -27 -20 -27 -25 0 -4 12 0 28 10 l27 17 -20 -23
-20 -24 22 12 c27 14 34 24 25 38 -5 8 -15 7 -35 -5z"/>
<path d="M3609 4693 c-13 -16 -12 -17 3 -5 9 8 23 10 29 6 8 -4 9 -3 5 4 -10
17 -21 15 -37 -5z"/>
<path d="M3530 4630 c-8 -5 -10 -10 -5 -10 6 0 17 5 25 10 8 5 11 10 5 10 -5
0 -17 -5 -25 -10z"/>
<path d="M3891 4606 c-25 -17 -47 -38 -49 -45 -5 -14 82 41 93 60 13 21 -1 16
-44 -15z"/>
<path d="M3548 4603 c7 -3 16 -2 19 1 4 3 -2 6 -13 5 -11 0 -14 -3 -6 -6z"/>
<path d="M3608 4603 c7 -3 16 -2 19 1 4 3 -2 6 -13 5 -11 0 -14 -3 -6 -6z"/>
<path d="M3941 4585 c-17 -18 -19 -25 -8 -25 17 0 40 25 35 39 -1 6 -14 -1
-27 -14z"/>
<path d="M3512 4512 c-22 -15 76 -22 293 -21 143 1 189 4 160 10 -57 13 -437
22 -453 11z"/>
<path d="M3880 4441 c0 -17 5 -31 10 -31 6 0 10 11 10 24 0 14 -4 28 -10 31
-6 4 -10 -7 -10 -24z"/>
<path d="M3920 4441 c0 -17 2 -31 4 -31 8 0 13 51 5 56 -5 3 -9 -9 -9 -25z"/>
<path d="M4000 4440 c0 -18 4 -29 10 -25 6 3 10 15 10 25 0 10 -4 22 -10 25
-6 4 -10 -7 -10 -25z"/>
<path d="M3543 4439 c-2 -21 12 -26 23 -8 4 8 9 7 15 -2 8 -12 11 -11 19 1 15
24 12 28 -23 28 -25 0 -33 -4 -34 -19z"/>
<path d="M3660 4440 c0 -23 10 -26 28 -8 9 9 12 9 12 0 0 -7 5 -12 10 -12 6 0
10 9 10 20 0 16 -7 20 -30 20 -23 0 -30 -4 -30 -20z"/>
<path d="M3759 4440 c26 -22 71 -26 89 -8 22 22 12 28 -50 28 l-63 -1 24 -19z
m69 3 c-10 -2 -26 -2 -35 0 -10 3 -2 5 17 5 19 0 27 -2 18 -5z"/>
<path d="M3950 4436 c0 -19 4 -23 20 -19 11 3 20 14 20 24 0 12 -7 19 -20 19
-14 0 -20 -7 -20 -24z"/>
<path d="M3970 4348 c-19 -5 -49 -8 -67 -5 -31 5 -31 5 -26 -31 6 -36 17 -52
38 -52 6 0 4 4 -4 9 -11 7 -7 10 15 14 l29 4 -27 2 c-20 1 -28 6 -28 20 0 15
8 19 40 19 22 0 44 3 49 7 6 3 12 -12 14 -32 3 -35 4 -34 5 10 1 26 1 47 0 46
-2 0 -19 -5 -38 -11z"/>
<path d="M3568 4308 l4 -37 49 2 c55 2 68 17 15 17 -19 0 -38 5 -41 10 -3 6 1
10 10 10 9 0 13 5 9 11 -3 6 1 10 12 9 34 -4 64 0 64 8 0 4 -28 7 -63 7 l-62
0 3 -37z"/>
<path d="M3716 4339 c3 -5 32 -9 65 -9 32 0 59 -4 59 -9 0 -26 -15 -41 -39
-41 -33 0 -56 14 -47 29 4 6 0 11 -8 11 -11 0 -16 -9 -16 -28 0 -26 2 -27 48
-26 62 1 72 8 72 49 l0 34 -70 0 c-39 -1 -68 -5 -64 -10z"/>
<path d="M3520 4320 c0 -5 7 -10 15 -10 8 0 15 5 15 10 0 6 -7 10 -15 10 -8 0
-15 -4 -15 -10z"/>
<path d="M3660 4310 l-25 -8 28 -1 c15 -1 27 4 27 9 0 6 -1 10 -2 9 -2 -1 -14
-5 -28 -9z"/>
<path d="M4020 4278 c0 -21 -21 -28 -93 -29 l-62 -2 45 -7 c63 -10 108 -2 116
22 3 11 3 22 0 25 -3 4 -6 -1 -6 -9z"/>
<path d="M4355 4980 c-3 -4 15 -11 40 -15 55 -8 90 -37 109 -90 12 -33 15 -35
15 -15 1 30 -31 85 -57 99 -29 16 -101 30 -107 21z"/>
<path d="M3104 4970 c-32 -13 -49 -63 -34 -100 7 -17 21 -35 31 -40 39 -22
109 -5 109 26 0 11 6 13 21 9 13 -4 27 0 40 11 40 36 10 90 -45 80 -19 -3 -38
0 -50 9 -22 17 -41 18 -72 5z m77 -26 c25 -12 33 -13 46 -3 13 11 18 10 29 -6
18 -24 18 -30 -1 -45 -16 -14 -35 -6 -35 16 0 19 -16 18 -24 -1 -3 -9 -19 -15
-41 -15 -42 0 -47 17 -7 26 46 10 48 12 11 13 -45 1 -68 -21 -48 -45 9 -12 24
-15 51 -11 39 5 47 0 26 -21 -16 -16 -73 -15 -86 1 -23 27 -24 65 -3 86 25 25
42 26 82 5z"/>
<path d="M1652 4873 c-1 -59 2 -104 8 -108 11 -7 12 46 0 145 -7 63 -7 62 -8
-37z"/>
<path d="M2162 4934 c-12 -8 -22 -20 -22 -26 0 -6 9 -3 19 6 17 15 35 17 120
14 112 -3 135 6 40 16 -96 10 -133 7 -157 -10z"/>
<path d="M4552 4892 c3 -18 1 -35 -4 -38 -4 -3 -8 -16 -8 -30 0 -29 17 -23 30
10 7 17 9 17 9 4 1 -10 5 -18 10 -18 10 0 -19 84 -33 97 -5 4 -6 -7 -4 -25z"/>
<path d="M4412 4897 c-8 -10 -6 -13 11 -14 12 0 16 1 9 4 -6 3 -10 9 -6 14 8
14 -2 11 -14 -4z"/>
<path d="M2139 4873 c-13 -15 -12 -16 11 -9 14 5 71 7 128 6 67 -1 102 2 102
9 0 7 -39 11 -114 11 -94 0 -116 -3 -127 -17z"/>
<path d="M3260 4821 c0 -6 4 -13 10 -16 6 -3 7 1 4 9 -7 18 -14 21 -14 7z"/>
<path d="M3060 4810 c14 -4 45 -8 70 -8 l45 1 -45 8 c-25 4 -56 7 -70 7 l-25
0 25 -8z"/>
<path d="M2124 4799 c-3 -5 54 -9 132 -9 76 0 135 2 133 4 -9 8 -260 13 -265
5z"/>
<path d="M3180 4799 c0 -5 11 -9 25 -9 14 0 25 2 25 4 0 2 -11 6 -25 8 -14 3
-25 1 -25 -3z"/>
<path d="M3130 4770 l75 -6 -74 -2 c-41 -1 -72 -4 -70 -6 2 -2 39 -6 82 -9 72
-6 77 -6 77 13 0 18 -6 20 -82 18 l-83 -2 75 -6z"/>
<path d="M2100 4730 c-8 -5 -12 -10 -10 -12 13 -8 300 4 300 13 0 12 -270 12
-290 -1z"/>
<path d="M2624 4613 c12 -204 28 -358 38 -368 7 -7 9 7 5 43 -4 30 -12 139
-19 243 -6 104 -16 189 -21 189 -6 0 -7 -42 -3 -107z"/>
<path d="M2094 4671 c-49 -8 -94 -35 -94 -56 0 -21 18 -18 25 4 9 29 27 33
210 46 l170 12 -135 0 c-74 0 -154 -3 -176 -6z"/>
<path d="M3069 4627 c-18 -12 -44 -38 -57 -57 -22 -32 -23 -42 -17 -105 4 -38
13 -85 21 -105 33 -78 111 -130 195 -130 49 0 55 3 94 43 97 102 100 198 8
301 -57 64 -80 76 -149 76 -47 0 -69 -5 -95 -23z m177 -10 c19 -10 10 -12 -62
-10 -46 0 -82 -2 -79 -7 3 -4 -8 -13 -23 -19 -28 -12 -62 -57 -62 -83 1 -7 7
-2 15 12 19 33 19 4 1 -32 -8 -15 -10 -28 -6 -30 5 -2 10 -16 12 -33 8 -65 58
-121 118 -133 14 -3 50 -5 80 -4 50 0 53 -1 36 -14 -35 -25 -107 -18 -160 17
-69 46 -95 86 -107 162 -12 73 -3 100 47 150 46 46 128 57 190 24z m33 -55
c60 -44 87 -129 61 -192 -40 -96 -169 -93 -229 4 -25 40 -32 127 -13 163 28
51 126 65 181 25z m-204 -75 c-10 -50 11 -113 52 -158 19 -21 31 -39 26 -39
-14 0 -58 51 -77 87 -22 44 -21 143 1 143 2 0 1 -15 -2 -33z"/>
<path d="M3142 4536 c-33 -30 -37 -40 -36 -79 1 -72 63 -138 126 -136 20 0 19
2 -7 12 -98 38 -133 122 -79 186 14 17 32 31 39 31 8 0 17 5 20 10 15 24 -28
7 -63 -24z"/>
<path d="M3160 4470 c0 -5 11 -10 25 -10 14 0 25 5 25 10 0 6 -11 10 -25 10
-14 0 -25 -4 -25 -10z"/>
<path d="M3287 4453 c-4 -3 -7 -16 -7 -29 0 -38 -11 -54 -37 -54 -13 0 -21 -4
-18 -10 19 -32 64 4 71 58 6 41 4 49 -9 35z"/>
<path d="M4145 4593 c-13 -43 -16 -81 -12 -148 5 -103 33 -207 49 -184 7 10 7
7 3 -10 -5 -17 -4 -22 5 -16 9 5 11 4 6 -3 -9 -15 48 -87 90 -112 18 -12 49
-20 74 -20 49 0 120 19 120 32 0 5 -10 6 -22 2 -20 -6 -21 -5 -10 9 11 13 6
16 -37 22 -28 4 -63 4 -78 1 -24 -6 -35 0 -70 36 -61 62 -89 133 -102 257 -8
74 -8 115 0 143 17 64 3 56 -16 -9z m218 -460 c-7 -2 -21 -2 -30 0 -10 3 -4 5
12 5 17 0 24 -2 18 -5z"/>
<path d="M2213 4613 c-13 -2 -23 -9 -23 -14 0 -13 13 -11 36 6 10 8 17 14 14
13 -3 0 -15 -3 -27 -5z"/>
<path d="M2142 4589 c2 -6 8 -10 13 -10 5 0 11 4 13 10 2 6 -4 11 -13 11 -9 0
-15 -5 -13 -11z"/>
<path d="M1968 4563 c7 -3 16 -2 19 1 4 3 -2 6 -13 5 -11 0 -14 -3 -6 -6z"/>
<path d="M4161 4554 c0 -11 3 -14 6 -6 3 7 2 16 -1 19 -3 4 -6 -2 -5 -13z"/>
<path d="M2221 4524 c-151 -31 -198 -44 -159 -44 33 0 334 62 343 71 13 13 0
11 -184 -27z"/>
<path d="M2968 4504 c-5 -4 -8 -26 -8 -48 0 -29 -3 -37 -9 -27 -6 10 -8 -1 -4
-30 8 -63 46 -131 95 -172 57 -48 61 -39 5 13 -45 41 -88 114 -86 147 0 10 7
1 14 -20 36 -97 117 -167 195 -167 25 0 51 4 58 9 9 5 -8 8 -42 7 -46 0 -62 5
-98 30 -64 45 -99 108 -106 194 -4 40 -10 68 -14 64z"/>
<path d="M1697 4493 c-7 -13 45 -165 54 -156 4 4 -4 42 -18 83 -27 82 -29 85
-36 73z"/>
<path d="M1983 4478 c-18 -6 -33 -15 -33 -20 0 -11 37 -1 65 18 22 16 14 16
-32 2z"/>
<path d="M2476 4443 c9 -65 14 -67 14 -5 0 30 -4 52 -11 52 -7 0 -8 -16 -3
-47z"/>
<path d="M2258 4420 c-91 -11 -129 -20 -123 -30 2 -4 24 -4 47 0 24 4 85 11
136 15 50 4 92 11 92 16 0 10 -56 10 -152 -1z"/>
<path d="M2232 4371 c-23 -4 -48 -13 -55 -21 -10 -10 -8 -12 8 -5 11 4 41 10
68 12 26 3 47 9 47 14 0 10 -5 10 -68 0z"/>
<path d="M1550 4361 c0 -12 29 -150 36 -174 3 -10 8 -16 11 -13 8 8 -29 196
-39 196 -4 0 -8 -4 -8 -9z"/>
<path d="M2115 4308 c-13 -40 -8 -78 16 -117 27 -45 34 -35 9 14 -22 44 -25
67 -10 96 8 13 7 19 0 19 -6 0 -13 -6 -15 -12z"/>
<path d="M4135 4280 c10 -37 50 -102 79 -129 33 -31 34 -16 1 19 -13 14 -38
50 -55 80 -17 30 -28 44 -25 30z"/>
<path d="M1845 4213 c5 -16 8 -36 9 -45 0 -10 6 -18 14 -18 8 0 11 7 8 18 -3
9 -8 29 -12 45 -3 15 -11 27 -16 27 -6 0 -7 -11 -3 -27z"/>
<path d="M3055 4181 c-3 -5 -2 -12 3 -15 5 -3 9 1 9 9 0 17 -3 19 -12 6z"/>
<path d="M4582 4125 c0 -16 2 -22 5 -12 2 9 2 23 0 30 -3 6 -5 -1 -5 -18z"/>
<path d="M4515 4101 c-8 -17 -34 -45 -57 -61 -22 -17 -36 -30 -30 -30 6 0 24
12 41 26 34 28 43 18 11 -11 -20 -18 -53 -26 -192 -46 -43 -7 -78 -16 -78 -20
0 -11 91 -3 186 17 81 17 105 36 129 103 18 53 13 65 -10 22z"/>
<path d="M2229 4100 c13 -11 28 -20 35 -20 6 1 0 10 -13 20 -13 11 -28 20 -35
20 -6 -1 0 -10 13 -20z"/>
<path d="M3445 4090 c3 -5 8 -10 11 -10 2 0 4 5 4 10 0 6 -5 10 -11 10 -5 0
-7 -4 -4 -10z"/>
<path d="M1924 4049 c-21 -22 -51 -48 -66 -57 -29 -17 -37 -32 -17 -32 14 0
135 117 128 124 -3 3 -23 -13 -45 -35z"/>
<path d="M4358 4083 c12 -2 32 -2 45 0 12 2 2 4 -23 4 -25 0 -35 -2 -22 -4z"/>
<path d="M4438 4064 c-38 -20 -36 -28 2 -9 17 9 30 18 30 20 0 7 -1 6 -32 -11z"/>
<path d="M1870 4055 c-7 -9 -11 -17 -9 -20 3 -2 10 5 17 15 14 24 10 26 -8 5z"/>
<path d="M4301 4014 c0 -11 3 -14 6 -6 3 7 2 16 -1 19 -3 4 -6 -2 -5 -13z"/>
<path d="M1954 4012 c3 -6 -3 -17 -14 -25 -11 -7 -17 -17 -12 -22 4 -4 -1 -5
-11 -2 -11 4 -16 3 -12 -3 3 -6 2 -10 -3 -10 -6 0 -20 -11 -33 -25 -27 -28
-49 -34 -28 -8 12 14 9 14 -19 -3 -19 -10 -39 -26 -45 -34 -9 -11 -5 -10 15 3
31 19 42 22 33 7 -12 -20 8 -9 57 29 64 52 92 87 77 97 -7 4 -9 3 -5 -4z"/>
<path d="M4255 4000 c-3 -5 -2 -10 4 -10 5 0 13 5 16 10 3 6 2 10 -4 10 -5 0
-13 -4 -16 -10z"/>
<path d="M2549 3983 c-13 -16 -12 -17 4 -4 16 13 21 21 13 21 -2 0 -10 -8 -17
-17z"/>
<path d="M2315 3971 c-6 -5 -32 -21 -60 -36 -64 -34 -82 -52 -30 -28 56 25
105 56 105 65 0 10 -4 10 -15 -1z"/>
<path d="M2800 3970 c0 -5 20 -10 44 -10 25 0 56 -4 69 -9 43 -16 151 -26 143
-12 -4 6 -24 11 -45 11 -21 0 -60 7 -87 15 -56 17 -124 20 -124 5z"/>
<path d="M3598 3953 c-105 -2 -168 -7 -168 -14 0 -11 513 -2 570 11 35 8 -60
9 -402 3z"/>
<path d="M1759 3925 c-1 -3 -2 -9 -3 -14 0 -5 -5 -13 -10 -18 -6 -5 -6 -2 -1
6 6 11 4 13 -9 8 -10 -4 -20 -7 -22 -7 -2 0 -4 -4 -4 -10 0 -5 7 -6 17 -3 12
5 14 3 8 -8 -8 -11 -5 -11 14 1 12 8 22 19 21 24 -1 5 4 13 12 17 10 7 9 9 -4
9 -10 0 -19 -2 -19 -5z"/>
<path d="M1830 3616 c0 -8 5 -18 10 -21 6 -3 10 3 10 14 0 12 -4 21 -10 21 -5
0 -10 -6 -10 -14z"/>
<path d="M1858 3544 c-5 -4 -8 -27 -8 -51 0 -25 -5 -53 -11 -64 -6 -11 -8 -25
-6 -32 9 -24 38 66 35 110 -2 25 -6 41 -10 37z"/>
<path d="M1794 3338 l-19 -23 23 19 c21 18 27 26 19 26 -2 0 -12 -10 -23 -22z"/>
<path d="M1725 3269 c-4 -6 -5 -12 -2 -15 2 -3 7 2 10 11 7 17 1 20 -8 4z"/>
<path d="M815 5249 c-13 -6 -4 -7 30 -3 28 4 52 8 54 10 9 8 -65 2 -84 -7z"/>
<path d="M820 5231 c-14 -4 -20 -10 -15 -13 10 -6 55 7 55 17 0 6 -7 5 -40 -4z"/>
<path d="M830 4995 c0 -8 4 -15 9 -15 6 0 8 -17 5 -37 -2 -21 -2 -31 2 -23 3
8 10 25 16 37 8 17 8 26 -2 38 -16 19 -30 19 -30 0z"/>
<path d="M1266 4883 c2 -21 11 -114 20 -208 9 -93 20 -177 25 -185 12 -22 11
0 -6 164 -8 77 -13 142 -10 144 3 3 5 -2 5 -10 0 -23 26 -42 36 -27 4 6 0 16
-10 21 -19 11 -22 68 -4 86 17 17 2 28 -17 12 -13 -11 -15 -9 -15 14 0 16 -6
26 -14 26 -10 0 -13 -10 -10 -37z"/>
<path d="M863 4894 c-3 -8 -1 -20 6 -27 8 -8 11 -4 11 16 0 30 -7 35 -17 11z"/>
<path d="M863 4738 c4 -63 12 -116 18 -122 9 -8 10 -1 5 29 -3 22 -6 77 -6
123 0 55 -4 82 -12 82 -8 0 -9 -30 -5 -112z"/>
<path d="M968 4775 c-8 -15 -2 -90 8 -90 5 0 10 7 12 17 4 22 -13 85 -20 73z"/>
<path d="M990 4583 c0 -18 5 -33 10 -33 13 0 13 30 0 50 -7 11 -10 7 -10 -17z"/>
<path d="M880 4520 c0 -11 5 -20 10 -20 6 0 10 9 10 20 0 11 -4 20 -10 20 -5
0 -10 -9 -10 -20z"/>
<path d="M990 4455 c0 -8 5 -15 10 -15 6 0 10 7 10 15 0 8 -4 15 -10 15 -5 0
-10 -7 -10 -15z"/>
<path d="M893 4405 c0 -22 2 -30 4 -17 2 12 2 30 0 40 -3 9 -5 -1 -4 -23z"/>
<path d="M1000 4360 c0 -18 4 -29 10 -25 6 3 10 15 10 25 0 10 -4 22 -10 25
-6 4 -10 -7 -10 -25z"/>
<path d="M1285 4290 l-40 -7 35 -1 c19 -1 42 3 50 8 16 11 14 11 -45 0z"/>
<path d="M1163 4280 c-24 -3 -46 -9 -49 -13 -9 -9 53 -7 86 2 37 10 11 18 -37
11z"/>
<path d="M1075 4260 c3 -5 8 -10 11 -10 2 0 4 5 4 10 0 6 -5 10 -11 10 -5 0
-7 -4 -4 -10z"/>
<path d="M935 4250 c-18 -8 -17 -9 8 -9 15 -1 27 4 27 9 0 12 -8 12 -35 0z"/>
<path d="M950 3928 c0 -7 7 -103 15 -213 8 -110 14 -209 14 -220 -2 -35 -17
66 -29 204 -13 146 -33 238 -24 111 9 -124 35 -331 45 -357 5 -13 20 -149 34
-301 22 -243 63 -625 80 -749 4 -24 10 -43 14 -43 4 0 4 26 0 58 -28 206 -128
1366 -129 1495 0 15 -4 27 -10 27 -5 0 -10 -6 -10 -12z"/>
<path d="M891 3893 c-5 -168 137 -1473 161 -1473 5 0 6 10 3 23 -9 44 -79 690
-135 1252 -23 230 -27 256 -29 198z"/>
<path d="M1168 3913 c7 -3 16 -2 19 1 4 3 -2 6 -13 5 -11 0 -14 -3 -6 -6z"/>
<path d="M1220 3900 c22 -19 22 -21 6 -45 -10 -15 -12 -25 -5 -25 6 0 13 9 16
20 3 11 10 20 16 20 6 0 0 11 -13 25 -13 14 -28 25 -33 25 -6 0 0 -9 13 -20z"/>
<path d="M1278 3913 c7 -3 16 -2 19 1 4 3 -2 6 -13 5 -11 0 -14 -3 -6 -6z"/>
<path d="M1145 3890 c-3 -5 -1 -18 4 -27 9 -16 10 -14 11 10 0 28 -5 34 -15
17z"/>
<path d="M1021 3874 c0 -11 3 -14 6 -6 3 7 2 16 -1 19 -3 4 -6 -2 -5 -13z"/>
<path d="M1182 3826 c7 -8 15 -12 17 -11 5 6 -10 25 -20 25 -5 0 -4 -6 3 -14z"/>
<path d="M1073 3812 c-9 -6 -3 -18 22 -42 19 -19 35 -31 35 -27 0 3 -11 18
-26 32 -14 14 -22 30 -19 35 7 12 4 12 -12 2z"/>
<path d="M1150 3805 c7 -8 17 -15 22 -15 6 0 5 7 -2 15 -7 8 -17 15 -22 15 -6
0 -5 -7 2 -15z"/>
<path d="M1238 3813 c-10 -2 -18 -9 -18 -14 0 -6 8 -5 20 1 11 6 20 13 20 15
0 3 -1 4 -2 4 -2 -1 -11 -3 -20 -6z"/>
<path d="M1260 3780 c0 -5 4 -10 9 -10 6 0 13 5 16 10 3 6 -1 10 -9 10 -9 0
-16 -4 -16 -10z"/>
<path d="M1015 3760 c-4 -7 2 -9 17 -5 33 8 52 -16 43 -52 -7 -30 -4 -30 13 3
9 17 7 25 -9 43 -21 22 -54 28 -64 11z"/>
<path d="M1310 3741 c0 -11 5 -23 10 -26 6 -3 10 3 10 14 0 11 -4 23 -10 26
-5 3 -10 -3 -10 -14z"/>
<path d="M1340 3663 c0 -11 7 -42 15 -69 9 -28 21 -146 30 -279 24 -369 26
-395 37 -395 6 0 7 30 3 78 -3 42 -12 181 -20 307 -10 163 -20 250 -35 299
-21 73 -30 92 -30 59z"/>
<path d="M1040 3651 c0 -5 7 -11 15 -15 8 -3 15 -1 15 3 0 5 -7 11 -15 15 -8
3 -15 1 -15 -3z"/>
<path d="M1420 3389 c0 -5 5 -7 10 -4 6 3 10 8 10 11 0 2 -4 4 -10 4 -5 0 -10
-5 -10 -11z"/>
<path d="M1476 2889 c-8 -79 -8 -424 0 -511 12 -123 19 -62 11 94 -4 84 -5
226 -2 316 7 166 3 209 -9 101z"/>
<path d="M1427 2723 c-11 -10 -8 -63 3 -63 6 0 10 16 10 35 0 36 -2 40 -13 28z"/>
<path d="M1430 2500 c0 -11 5 -20 10 -20 6 0 10 9 10 20 0 11 -4 20 -10 20 -5
0 -10 -9 -10 -20z"/>
<path d="M1391 2484 c0 -11 3 -14 6 -6 3 7 2 16 -1 19 -3 4 -6 -2 -5 -13z"/>
<path d="M1200 2340 c0 -14 5 -32 10 -40 8 -12 10 -10 10 10 0 14 -5 32 -10
40 -8 12 -10 10 -10 -10z"/>
<path d="M1280 2000 c19 -11 40 -19 45 -19 6 0 -6 8 -25 19 -19 11 -39 19 -45
19 -5 0 6 -8 25 -19z"/>
<path d="M4475 4620 c3 -5 34 -10 68 -9 46 1 56 3 37 9 -37 12 -112 12 -105 0z"/>
<path d="M4339 4553 c-21 -59 -17 -170 8 -218 19 -37 113 -135 129 -135 3 0
-19 27 -50 60 -78 85 -102 174 -76 285 12 52 6 57 -11 8z"/>
<path d="M4426 4581 c-6 -8 212 -21 224 -13 2 2 -2 7 -10 12 -19 12 -207 13
-214 1z"/>
<path d="M4400 4530 c0 -9 140 -20 230 -19 52 1 59 2 35 9 -40 11 -265 19
-265 10z"/>
<path d="M4425 4470 c45 -9 243 -15 251 -8 6 7 -147 18 -226 17 -60 -1 -62 -2
-25 -9z"/>
<path d="M4540 4420 c98 -11 160 -11 160 0 0 6 -43 9 -112 8 -105 -1 -108 -2
-48 -8z"/>
<path d="M4631 4294 c-19 -13 -42 -24 -52 -24 -11 0 -19 -4 -19 -10 0 -23 74
5 104 39 25 28 10 25 -33 -5z"/>
<path d="M946 4152 c-3 -5 1 -9 9 -9 8 0 12 4 9 9 -3 4 -7 8 -9 8 -2 0 -6 -4
-9 -8z"/>
<path d="M3618 3763 c23 -2 59 -2 80 0 20 2 1 4 -43 4 -44 0 -61 -2 -37 -4z"/>
<path d="M3768 3753 c6 -2 18 -2 25 0 6 3 1 5 -13 5 -14 0 -19 -2 -12 -5z"/>
<path d="M3590 3705 c0 -8 5 -15 10 -15 6 0 10 7 10 15 0 8 -4 15 -10 15 -5 0
-10 -7 -10 -15z"/>
<path d="M3820 3663 c0 -10 5 -25 10 -33 7 -11 10 -7 10 18 0 17 -4 32 -10 32
-5 0 -10 -8 -10 -17z"/>
<path d="M3630 3626 c0 -8 5 -18 10 -21 6 -3 10 3 10 14 0 12 -4 21 -10 21 -5
0 -10 -6 -10 -14z"/>
<path d="M3061 3586 c10 -8 159 -14 159 -5 0 5 -37 9 -82 9 -45 0 -79 -2 -77
-4z"/>
<path d="M3310 3580 c-28 -6 -21 -8 37 -9 39 0 75 4 78 9 7 11 -61 11 -115 0z"/>
<path d="M3565 3585 c-5 -2 -36 -6 -68 -10 -32 -4 -56 -9 -53 -12 8 -9 146 8
146 18 0 9 -7 10 -25 4z"/>
<path d="M2493 3752 c9 -10 17 -25 17 -32 0 -7 3 -11 6 -7 10 10 -6 45 -23 52
-15 5 -15 4 0 -13z"/>
<path d="M2430 3749 c0 -5 9 -9 20 -9 11 0 20 2 20 4 0 2 -9 6 -20 9 -11 3
-20 1 -20 -4z"/>
<path d="M2438 3693 c6 -2 18 -2 25 0 6 3 1 5 -13 5 -14 0 -19 -2 -12 -5z"/>
<path d="M2368 3553 c12 -2 30 -2 40 0 9 3 -1 5 -23 4 -22 0 -30 -2 -17 -4z"/>
<path d="M2805 2981 c-3 -5 0 -13 6 -17 8 -5 9 -3 4 6 -6 10 -4 12 9 7 10 -4
15 -3 11 3 -8 13 -22 13 -30 1z"/>
<path d="M2610 2910 c0 -5 4 -10 9 -10 6 0 13 5 16 10 3 6 -1 10 -9 10 -9 0
-16 -4 -16 -10z"/>
<path d="M3100 2769 c-30 -5 -73 -7 -95 -4 -37 5 -39 4 -21 -10 11 -8 31 -15
45 -15 44 0 151 22 151 31 0 10 -3 10 -80 -2z"/>
<path d="M3045 2648 c-60 -11 -112 -21 -114 -24 -13 -12 15 -14 89 -5 99 13
160 28 160 41 0 12 3 12 -135 -12z"/>
<path d="M3018 2586 c-123 -23 -172 -43 -78 -32 87 10 214 37 225 47 13 13
-14 10 -147 -15z"/>
<path d="M3090 2555 c-36 -8 -122 -19 -192 -26 -71 -7 -128 -16 -128 -22 0 -5
32 -6 83 -2 170 14 317 40 317 56 0 5 -3 8 -7 8 -5 -1 -37 -7 -73 -14z"/>
<path d="M2935 2494 c-106 -15 -95 -12 -95 -23 0 -8 149 12 205 28 27 8 27 9
5 9 -14 -1 -65 -7 -115 -14z"/>
<path d="M2740 2470 c0 -5 13 -10 29 -10 17 0 33 5 36 10 4 6 -8 10 -29 10
-20 0 -36 -4 -36 -10z"/>
<path d="M2707 2454 c-4 -4 -7 -19 -6 -33 l0 -26 10 24 c10 26 8 47 -4 35z"/>
<path d="M3270 2429 c-96 -15 -256 -37 -355 -49 -99 -12 -189 -26 -200 -31
-34 -16 110 0 435 47 168 24 311 44 318 44 6 0 12 5 12 10 0 13 -5 13 -210
-21z"/>
<path d="M2735 2420 c3 -5 8 -10 11 -10 2 0 4 5 4 10 0 6 -5 10 -11 10 -5 0
-7 -4 -4 -10z"/>
<path d="M2790 2420 c0 -5 5 -10 11 -10 5 0 7 5 4 10 -3 6 -8 10 -11 10 -2 0
-4 -4 -4 -10z"/>
<path d="M2666 2411 c-4 -7 -5 -15 -2 -18 9 -9 19 4 14 18 -4 11 -6 11 -12 0z"/>
<path d="M2720 2402 c0 -17 38 -24 57 -12 16 9 15 10 -5 5 -13 -4 -29 -1 -37
5 -10 8 -15 9 -15 2z"/>
<path d="M2618 2382 c11 -12 19 -14 24 -8 4 6 0 14 -10 18 -29 11 -33 9 -14
-10z"/>
<path d="M2680 2370 c0 -5 5 -10 10 -10 6 0 10 5 10 10 0 6 -4 10 -10 10 -5 0
-10 -4 -10 -10z"/>
<path d="M2659 2343 c15 -30 30 -38 44 -23 9 10 9 11 -3 8 -8 -3 -23 5 -33 16
l-18 21 10 -22z"/>
<path d="M2583 2343 c-18 -2 -33 -9 -33 -14 0 -15 73 -6 78 9 2 6 0 11 -5 10
-4 0 -23 -3 -40 -5z"/>
<path d="M2646 2290 c12 -14 24 -32 27 -40 5 -13 6 -13 6 1 1 8 -11 26 -26 40
l-28 24 21 -25z"/>
<path d="M2550 2278 c0 -10 11 -25 25 -34 21 -14 31 -15 50 -6 14 7 25 16 25
22 0 7 -7 4 -16 -4 -25 -26 -51 -19 -72 19 -10 17 -11 18 -12 3z"/>
<path d="M2490 2240 c-11 -8 -8 -9 13 -4 17 4 34 1 45 -7 15 -13 16 -12 3 4
-15 19 -38 22 -61 7z"/>
<path d="M2690 2222 c-132 -27 -137 -28 -127 -38 7 -7 241 42 265 56 25 14 7
12 -138 -18z"/>
<path d="M2475 2210 c-3 -5 -1 -10 4 -10 6 0 11 5 11 10 0 6 -2 10 -4 10 -3 0
-8 -4 -11 -10z"/>
<path d="M2420 2170 c0 -5 14 -10 30 -10 17 0 30 5 30 10 0 6 -13 10 -30 10
-16 0 -30 -4 -30 -10z"/>
<path d="M2516 2155 c4 -8 10 -12 15 -9 11 6 2 24 -11 24 -5 0 -7 -7 -4 -15z"/>
<path d="M2397 2137 c-6 -16 -1 -25 30 -50 17 -15 25 -16 42 -7 12 6 21 15 21
20 0 6 -8 5 -19 -2 -15 -9 -24 -8 -45 5 -16 11 -23 23 -20 32 4 8 4 15 1 15
-3 0 -7 -6 -10 -13z"/>
<path d="M2550 2025 c0 -23 271 -37 285 -15 4 6 -32 10 -102 10 -59 0 -125 4
-145 9 -29 7 -38 6 -38 -4z"/>
<path d="M2450 1820 c-12 -8 -10 -9 10 -9 14 1 39 5 55 9 29 7 29 8 -10 9 -22
0 -47 -4 -55 -9z"/>
<path d="M2285 1800 l-30 -8 30 0 c17 -1 48 3 70 7 l40 9 -40 0 c-22 0 -53 -4
-70 -8z"/>
<path d="M2253 3630 c2 -165 -30 -214 -190 -298 -113 -59 -113 -70 -1 -19 109
49 177 109 196 173 13 45 14 171 2 219 -5 19 -7 -9 -7 -75z"/>
<path d="M5030 3534 c-36 -31 -73 -98 -67 -122 2 -10 9 0 17 25 7 23 26 57 42
75 l28 33 -25 -39 c-37 -57 -31 -65 13 -17 20 24 55 48 77 56 l40 14 -47 1
c-36 0 -53 -6 -78 -26z"/>
<path d="M3864 3518 c-32 -28 -34 -33 -18 -39 29 -11 64 -10 64 2 0 5 -3 8 -7
6 -5 -3 -17 -1 -27 3 -18 6 -15 10 19 33 24 17 33 27 23 27 -10 0 -34 -14 -54
-32z"/>
<path d="M3781 3531 c-14 -9 -43 -119 -35 -133 3 -4 14 -8 24 -8 11 0 45 -7
77 -15 64 -17 93 -19 93 -7 0 7 -98 32 -137 34 -16 2 -16 11 -1 26 9 9 9 12 0
12 -7 0 -15 -7 -18 -15 -10 -26 -23 -17 -21 14 1 16 5 29 9 28 3 -1 22 15 41
36 19 20 29 37 21 37 -7 0 -16 -5 -20 -11 -4 -8 -9 -8 -13 -1 -4 6 -12 7 -20
3z m9 -36 c-7 -9 -15 -13 -18 -10 -3 2 1 11 8 20 7 9 15 13 18 10 3 -2 -1 -11
-8 -20z"/>
<path d="M4653 3529 c-18 -5 -33 -12 -33 -15 0 -9 84 7 95 17 12 11 -19 10
-62 -2z"/>
<path d="M4631 3489 c-24 -11 -42 -22 -39 -25 3 -2 23 3 44 13 47 21 48 22 43
27 -2 3 -24 -4 -48 -15z"/>
<path d="M3730 3481 c-6 -12 -7 -21 -1 -21 10 0 24 30 17 37 -2 3 -9 -5 -16
-16z"/>
<path d="M5201 3474 c-63 -32 -60 -45 4 -15 53 25 76 26 115 6 53 -28 111
-187 96 -266 -8 -47 -43 -98 -85 -126 -43 -29 -49 -29 -63 1 -6 14 -17 27 -24
30 -12 4 -11 0 1 -24 20 -38 9 -38 -43 0 -51 37 -63 38 -31 4 77 -83 179 -62
234 47 56 109 4 308 -92 354 -42 20 -51 19 -112 -11z"/>
<path d="M4621 3457 c-36 -13 -80 -62 -66 -74 4 -5 10 -2 13 6 10 28 55 61 83
61 16 0 29 5 29 10 0 13 -16 12 -59 -3z"/>
<path d="M5179 3430 c-20 -11 -39 -26 -42 -35 -9 -22 -3 -19 49 20 50 39 48
44 -7 15z"/>
<path d="M4830 3420 c-22 -14 -5 -23 19 -10 12 6 27 8 33 4 7 -4 8 -3 4 4 -9
14 -35 15 -56 2z"/>
<path d="M4305 3390 c3 -5 31 -10 61 -10 30 0 54 5 54 10 0 6 -27 10 -61 10
-37 0 -58 -4 -54 -10z"/>
<path d="M3732 3375 c9 -9 181 -65 197 -64 9 0 -31 16 -89 34 -111 37 -116 38
-108 30z"/>
<path d="M4627 3359 c18 -11 38 -17 44 -13 14 8 -27 33 -56 33 -16 1 -14 -3
12 -20z"/>
<path d="M4710 3361 c0 -6 4 -13 10 -16 6 -3 7 1 4 9 -7 18 -14 21 -14 7z"/>
<path d="M4065 3300 c3 -5 18 -10 32 -10 32 0 28 5 -10 14 -19 4 -26 3 -22 -4z"/>
<path d="M4713 3288 c15 -10 114 -10 120 0 3 4 -26 7 -64 8 -38 0 -63 -3 -56
-8z"/>
<path d="M4900 3249 c0 -5 5 -7 10 -4 6 3 10 8 10 11 0 2 -4 4 -10 4 -5 0 -10
-5 -10 -11z"/>
<path d="M4940 3256 c0 -2 7 -7 16 -10 8 -3 12 -2 9 4 -6 10 -25 14 -25 6z"/>
<path d="M5136 3177 c5 -13 46 -37 62 -37 8 1 -24 27 -50 41 -13 7 -16 6 -12
-4z"/>
<path d="M3285 3441 c11 -3 34 -13 50 -22 34 -18 133 -31 141 -18 3 5 -12 9
-33 9 -21 0 -56 5 -78 11 -34 10 -37 13 -20 20 14 5 5 8 -30 7 -30 0 -42 -3
-30 -7z"/>
<path d="M3525 3410 c-3 -5 1 -10 9 -10 9 0 16 5 16 10 0 6 -4 10 -9 10 -6 0
-13 -4 -16 -10z"/>
<path d="M3263 3384 c7 -7 168 -6 175 1 3 3 -37 5 -88 5 -51 0 -91 -3 -87 -6z"/>
<path d="M2970 3469 c0 -8 7 -24 15 -35 18 -24 19 -7 0 26 -9 16 -14 19 -15 9z"/>
<path d="M2045 2928 c8 -393 22 -639 35 -652 9 -8 10 -2 6 24 -5 31 -26 726
-26 868 0 29 -5 52 -10 52 -7 0 -9 -96 -5 -292z"/>
<path d="M1970 3155 c-7 -8 -8 -15 -2 -15 5 0 15 7 22 15 7 8 8 15 2 15 -5 0
-15 -7 -22 -15z"/>
<path d="M1987 2755 c-6 -180 0 -431 10 -422 6 7 9 627 3 627 -4 0 -10 -92
-13 -205z"/>
<path d="M2115 2755 c2 -71 8 -141 14 -155 12 -27 8 61 -9 210 -8 64 -8 56 -5
-55z"/>
<path d="M1945 2838 c-15 -44 -33 -619 -19 -606 3 3 9 120 14 259 5 140 12
278 15 307 6 48 0 69 -10 40z"/>
<path d="M2032 2378 c-1 -75 2 -129 8 -133 12 -7 12 48 1 175 l-8 85 -1 -127z"/>
<path d="M2064 2080 c0 -91 2 -128 3 -82 2 45 2 119 0 165 -1 45 -3 8 -3 -83z"/>
<path d="M3450 3143 c0 -38 13 -93 21 -93 5 0 9 25 9 55 0 42 -3 55 -15 55 -8
0 -15 -8 -15 -17z"/>
<path d="M4800 3061 c0 -14 138 -61 201 -68 33 -3 59 -10 59 -14 0 -5 4 -9 10
-9 5 0 7 6 4 14 -8 20 -52 37 -101 39 -23 0 -39 5 -36 11 3 5 1 6 -5 2 -6 -4
-26 0 -44 7 -49 20 -88 29 -88 18z"/>
<path d="M1743 3083 c20 -2 54 -2 75 0 20 2 3 4 -38 4 -41 0 -58 -2 -37 -4z"/>
<path d="M3230 2576 c0 -9 5 -16 10 -16 6 0 10 4 10 9 0 6 -4 13 -10 16 -5 3
-10 -1 -10 -9z"/>
<path d="M1732 2005 c-1 -22 -5 -51 -8 -65 -5 -19 -4 -22 5 -14 8 7 11 32 8
65 -3 44 -4 47 -5 14z"/>
<path d="M1702 1897 c-24 -28 -42 -157 -22 -157 6 0 10 20 10 45 0 25 7 62 15
82 16 38 15 52 -3 30z"/>
<path d="M1830 1875 c0 -5 5 -17 10 -25 5 -8 10 -10 10 -5 0 6 -5 17 -10 25
-5 8 -10 11 -10 5z"/>
<path d="M1727 1823 c-15 -14 -7 -115 13 -153 14 -28 16 -40 7 -43 -8 -3 -5
-8 7 -13 25 -10 86 23 103 56 15 30 17 129 2 150 -7 11 -9 -3 -5 -50 3 -38 2
-52 -3 -35 -7 29 -7 29 -13 -14 -4 -24 -13 -51 -22 -59 -13 -14 -15 -13 -20 9
-3 13 -7 42 -9 64 -3 33 -4 30 -5 -15 -3 -80 -21 -43 -23 45 0 39 -3 64 -6 56
-4 -9 -7 -10 -12 -2 -4 6 -10 8 -14 4z m21 -103 c0 -32 -1 -33 -8 -10 -4 14
-8 39 -8 55 -1 25 1 27 8 10 5 -11 8 -36 8 -55z"/>
<path d="M1808 1720 c-2 -22 0 -40 4 -40 5 0 8 18 8 40 0 22 -2 40 -4 40 -2 0
-6 -18 -8 -40z"/>
<path d="M3185 2254 c-55 -7 -131 -20 -170 -29 -135 -30 -127 -46 35 -74 160
-28 472 -45 670 -37 247 9 440 34 477 62 17 11 16 13 -12 24 -51 20 -154 39
-290 55 -164 19 -570 18 -710 -1z m750 -27 c50 -7 95 -15 100 -19 6 -3 27 -9
47 -13 40 -8 43 -25 5 -24 -12 1 -42 -1 -67 -5 -25 -3 -67 -9 -95 -12 -65 -7
-604 -11 -600 -3 2 3 -28 6 -68 7 -104 4 -110 18 -12 27 141 12 188 14 325 15
142 1 193 -1 375 -15 59 -5 87 -4 80 3 -18 18 -168 33 -375 39 -226 6 -419 -6
-542 -36 -43 -10 -78 -14 -78 -9 0 18 101 41 255 58 103 11 533 3 650 -13z
m-765 -57 c0 -5 -4 -10 -10 -10 -5 0 -10 5 -10 10 0 6 5 10 10 10 6 0 10 -4
10 -10z"/>
<path d="M1195 2190 c3 -5 8 -10 11 -10 2 0 4 5 4 10 0 6 -5 10 -11 10 -5 0
-7 -4 -4 -10z"/>
<path d="M4201 1989 c-55 -142 -167 -289 -284 -376 -33 -24 -54 -43 -47 -43
19 0 99 63 156 122 101 104 153 188 194 308 31 91 19 84 -19 -11z"/>
<path d="M3024 2031 c4 -6 2 -11 -4 -11 -6 0 -8 -5 -4 -11 5 -8 9 -8 14 1 6 9
35 10 114 5 l107 -7 31 -39 c43 -54 56 -49 16 5 -38 52 -40 52 -177 62 -77 5
-102 4 -97 -5z"/>
<path d="M2970 2022 c0 -14 87 -166 97 -169 14 -5 -70 164 -84 171 -7 3 -13 2
-13 -2z"/>
<path d="M2940 1935 c0 -22 93 -194 127 -234 41 -49 168 -141 193 -141 10 0
29 -9 44 -21 14 -11 29 -18 34 -15 4 2 35 -8 67 -24 33 -16 69 -30 80 -30 11
0 -17 18 -61 40 -81 39 -195 136 -257 220 -14 19 -28 32 -31 29 -3 -3 9 -23
26 -44 23 -27 28 -40 19 -43 -8 -3 4 -22 35 -53 27 -27 45 -49 41 -49 -18 0
-148 104 -183 147 -22 26 -60 88 -86 138 -26 49 -48 86 -48 80z m395 -404 c-7
-6 -115 90 -134 119 -9 14 19 -6 61 -44 43 -39 75 -72 73 -75z"/>
<path d="M3374 1912 c3 -5 30 -13 59 -16 28 -4 69 -9 90 -12 21 -3 37 -2 37 4
0 5 -24 12 -52 16 -29 4 -73 9 -97 13 -29 4 -42 2 -37 -5z"/>
<path d="M4119 1903 c-13 -16 -12 -17 4 -4 9 7 17 15 17 17 0 8 -8 3 -21 -13z"/>
<path d="M3920 1856 c0 -9 5 -16 10 -16 6 0 10 4 10 9 0 6 -4 13 -10 16 -5 3
-10 -1 -10 -9z"/>
<path d="M3096 1842 c-3 -5 1 -9 9 -9 8 0 12 4 9 9 -3 4 -7 8 -9 8 -2 0 -6 -4
-9 -8z"/>
<path d="M3855 1805 c-17 -13 -25 -24 -19 -25 15 0 61 37 54 44 -3 3 -19 -6
-35 -19z"/>
<path d="M3880 1786 c0 -2 9 -6 20 -9 11 -3 18 -1 14 4 -5 9 -34 13 -34 5z"/>
<path d="M3980 1742 c-49 -47 -127 -100 -211 -142 -92 -46 -94 -48 -88 -55 18
-18 298 155 321 198 14 27 7 27 -22 -1z"/>
<path d="M3260 1686 c0 -2 8 -10 18 -17 15 -13 16 -12 3 4 -13 16 -21 21 -21
13z"/>
<path d="M3568 1633 c13 -3 28 -15 34 -28 6 -14 15 -22 19 -19 14 8 -34 54
-55 53 -19 -2 -18 -2 2 -6z"/>
<path d="M3334 1585 c22 -19 46 -35 55 -35 17 0 14 3 -41 43 -52 38 -61 33
-14 -8z"/>
<path d="M3505 1599 c-4 -6 -5 -12 -2 -15 2 -3 7 2 10 11 7 17 1 20 -8 4z"/>
<path d="M3540 1600 c-8 -5 -10 -10 -5 -10 6 0 17 5 25 10 8 5 11 10 5 10 -5
0 -17 -5 -25 -10z"/>
<path d="M3410 1586 c0 -2 7 -7 16 -10 8 -3 12 -2 9 4 -6 10 -25 14 -25 6z"/>
<path d="M3530 1520 c8 -5 24 -10 34 -10 26 0 18 6 -19 14 -22 5 -26 4 -15 -4z"/>
<path d="M3322 1467 c2 -7 21 -20 41 -30 45 -23 231 -33 322 -19 50 8 40 9
-56 5 -110 -5 -249 9 -249 26 0 4 -14 12 -31 18 -23 9 -29 9 -27 0z"/>
<path d="M4373 2079 c-18 -5 -35 -15 -39 -21 -5 -8 -2 -9 10 -5 10 4 29 10 42
13 13 3 24 10 24 15 0 5 -1 9 -2 8 -2 0 -17 -5 -35 -10z"/>
<path d="M4480 1966 c0 -27 -28 -74 -73 -124 -26 -28 -34 -41 -20 -34 54 29
123 145 99 169 -3 4 -6 -1 -6 -11z"/>
<path d="M4195 1693 c-47 -19 -50 -21 -43 -29 6 -6 88 33 88 41 0 6 2 7 -45
-12z"/>
<path d="M4341 1922 c-1 -7 -5 -11 -9 -8 -5 3 -9 -1 -9 -8 0 -8 7 -13 16 -11
16 2 17 5 8 28 -4 9 -6 9 -6 -1z"/>
<path d="M1110 1900 c0 -5 5 -10 10 -10 6 0 10 5 10 10 0 6 -4 10 -10 10 -5 0
-10 -4 -10 -10z"/>
<path d="M1117 1864 c-3 -3 -3 -12 0 -20 6 -16 33 -19 33 -4 0 6 -7 10 -16 10
-8 0 -12 5 -9 10 7 11 2 14 -8 4z"/>
<path d="M1125 1800 c-3 -5 1 -10 10 -10 9 0 13 5 10 10 -3 6 -8 10 -10 10 -2
0 -7 -4 -10 -10z"/>
<path d="M1126 1761 c-4 -5 -2 -12 3 -15 5 -4 12 -2 15 3 4 5 2 12 -3 15 -5 4
-12 2 -15 -3z"/>
<path d="M1414 1633 c-3 -15 -10 -44 -15 -63 -26 -108 -34 -400 -10 -400 4 0
5 43 3 95 -5 100 10 247 33 334 7 28 9 53 4 56 -4 3 -11 -7 -15 -22z"/>
<path d="M1141 1512 c-2 -27 22 -54 62 -73 23 -10 49 -24 58 -30 10 -7 24 -9
35 -4 18 7 18 8 -1 14 -61 21 -132 62 -142 83 -7 12 -12 17 -12 10z"/>
<path d="M901 1408 c0 -7 4 -22 9 -33 8 -18 9 -17 9 7 1 15 -3 30 -9 33 -5 3
-10 0 -9 -7z"/>
<path d="M946 1311 c-10 -15 18 -63 51 -87 43 -32 113 -66 126 -61 7 2 -6 12
-28 21 -68 29 -106 59 -125 99 -10 22 -21 34 -24 28z"/>
<path d="M930 1194 c0 -3 19 -14 43 -24 44 -20 78 -27 62 -11 -12 10 -105 42
-105 35z"/>
<path d="M876 1171 c26 -25 394 -130 394 -112 0 4 -42 18 -92 31 -51 12 -140
38 -197 56 -112 37 -120 39 -105 25z"/>
<path d="M1085 1129 c7 -11 35 -12 35 -1 0 4 -9 8 -20 9 -11 1 -18 -2 -15 -8z"/>
<path d="M1170 1122 c0 -13 38 -23 46 -11 3 5 1 9 -5 9 -5 0 -16 3 -25 6 -9 3
-16 2 -16 -4z"/>
<path d="M1321 1066 c-10 -12 -8 -13 9 -9 25 7 37 23 17 23 -8 0 -20 -6 -26
-14z"/>
<path d="M2600 1705 c0 -3 5 -15 11 -26 7 -15 6 -28 -5 -51 -19 -36 -11 -52
10 -23 18 24 15 97 -3 103 -7 2 -13 1 -13 -3z"/>
<path d="M2660 1701 c0 -5 17 -12 38 -16 l37 -8 -35 -9 c-57 -15 -59 -28 -4
-29 l49 -1 -35 -10 c-19 -5 -44 -14 -55 -18 -18 -8 -18 -9 5 -9 14 0 54 6 90
14 36 7 69 10 73 6 11 -11 -52 -25 -205 -46 -65 -10 -118 -21 -118 -26 0 -10
44 -5 159 17 40 8 76 12 80 8 15 -15 -43 -42 -106 -49 -37 -4 -84 -14 -103
-23 l-35 -16 28 -4 c29 -4 476 44 502 54 24 10 17 27 -7 20 -13 -3 -66 -9
-118 -12 -52 -3 -107 -10 -122 -14 -24 -8 -28 -6 -28 9 0 11 15 25 40 36 22
10 45 24 51 31 18 21 -13 45 -52 40 -44 -5 -63 2 -49 19 20 24 0 45 -41 45
-21 0 -39 -4 -39 -9z m20 -191 c-14 -4 -47 -8 -75 -8 l-50 1 45 7 c25 4 59 7
75 8 29 0 29 0 5 -8z"/>
<path d="M2433 1693 c-13 -2 -23 -9 -23 -14 0 -11 7 -11 48 0 24 7 35 6 46 -4
17 -17 30 -7 15 12 -11 13 -41 15 -86 6z"/>
<path d="M2466 1577 c-16 -12 -16 -13 2 -13 10 0 19 6 19 13 0 7 -1 13 -2 13
-1 0 -9 -6 -19 -13z"/>
<path d="M2683 1553 c9 -2 23 -2 30 0 6 3 -1 5 -18 5 -16 0 -22 -2 -12 -5z"/>
<path d="M2628 1543 c6 -2 18 -2 25 0 6 3 1 5 -13 5 -14 0 -19 -2 -12 -5z"/>
<path d="M2456 1531 c-4 -5 -2 -12 3 -15 5 -4 12 -2 15 3 4 5 2 12 -3 15 -5 4
-12 2 -15 -3z"/>
<path d="M2405 1470 c-8 -13 15 -13 35 0 12 8 11 10 -7 10 -12 0 -25 -4 -28
-10z"/>
<path d="M2097 1648 c8 -116 15 -158 25 -158 9 0 6 75 -8 173 -9 56 -22 44
-17 -15z"/>
<path d="M1865 1540 c-3 -6 1 -7 9 -4 18 7 21 14 7 14 -6 0 -13 -4 -16 -10z"/>
<path d="M2110 1462 c0 -10 -11 -29 -25 -42 -41 -39 -27 -74 38 -99 34 -13
729 -191 745 -191 16 0 15 17 0 17 -7 0 -80 19 -163 41 -82 22 -239 64 -349
91 -109 28 -213 58 -232 67 -39 18 -43 42 -14 69 21 19 26 50 10 60 -5 3 -10
-2 -10 -13z"/>
<path d="M4905 1300 c-65 -16 -128 -38 -114 -39 3 -1 41 8 84 19 137 35 133
37 188 -84 49 -108 56 -141 35 -169 -28 -36 -374 -148 -591 -191 -114 -23
-179 -46 -87 -31 25 4 59 9 75 12 139 22 556 150 599 184 42 33 36 83 -26 212
-58 121 -49 116 -163 87z"/>
<path d="M4890 1242 c-50 -25 -76 -44 -79 -57 -3 -19 -2 -19 21 2 13 12 49 33
81 47 31 14 57 30 57 36 0 13 7 15 -80 -28z"/>
<path d="M4796 1242 c-3 -5 1 -9 9 -9 8 0 12 4 9 9 -3 4 -7 8 -9 8 -2 0 -6 -4
-9 -8z"/>
<path d="M2369 1209 c31 -19 32 -21 17 -38 -10 -10 -38 -27 -64 -36 -57 -21
-81 -41 -37 -31 42 10 106 47 119 69 9 15 7 22 -13 38 -13 10 -31 19 -40 19
-9 0 -2 -9 18 -21z"/>
<path d="M4908 1183 c-49 -14 -88 -30 -88 -35 0 -6 8 -7 18 -3 9 4 52 16 95
27 42 11 77 24 77 29 0 12 -1 12 -102 -18z"/>
<path d="M1784 1182 c7 -11 96 -35 104 -28 6 6 -30 21 -77 31 -21 4 -31 4 -27
-3z"/>
<path d="M4390 1132 c-20 -25 -22 -38 -6 -52 11 -8 16 -8 22 1 4 8 3 9 -4 5
-18 -11 -15 30 4 48 8 9 12 16 7 16 -5 0 -15 -8 -23 -18z"/>
<path d="M4873 1077 c-79 -28 -143 -55 -143 -60 0 -5 6 -6 13 -4 6 3 74 26
150 52 75 26 137 51 137 56 0 13 0 13 -157 -44z"/>
<path d="M1471 1104 c0 -11 3 -14 6 -6 3 7 2 16 -1 19 -3 4 -6 -2 -5 -13z"/>
<path d="M3880 1113 c-25 -1 -173 -12 -330 -24 -211 -16 -305 -20 -360 -13
-80 10 -120 8 -120 -6 0 -8 78 -14 215 -14 44 -1 177 7 295 17 118 9 253 20
299 23 54 4 79 9 70 15 -8 5 -16 8 -19 7 -3 -1 -25 -3 -50 -5z"/>
<path d="M4427 1113 c-4 -3 -7 -11 -7 -17 0 -6 5 -5 12 2 6 6 9 14 7 17 -3 3
-9 2 -12 -2z"/>
<path d="M4463 1093 c-7 -15 -11 -28 -9 -31 6 -6 28 38 24 48 -2 5 -9 -3 -15
-17z"/>
<path d="M5070 1083 c0 -12 5 -25 10 -28 13 -8 13 15 0 35 -8 12 -10 11 -10
-7z"/>
<path d="M2910 1080 c0 -5 7 -10 15 -10 8 0 15 5 15 10 0 6 -7 10 -15 10 -8 0
-15 -4 -15 -10z"/>
<path d="M2125 1073 c-11 -3 -24 -9 -30 -15 -11 -11 43 -2 80 13 18 7 17 8 -5
7 -14 0 -34 -2 -45 -5z"/>
<path d="M4323 1068 c-6 -7 -13 -20 -17 -28 -6 -12 -5 -12 6 1 7 8 22 21 33
27 16 9 17 11 4 12 -9 0 -21 -6 -26 -12z"/>
<path d="M1580 1062 c23 -14 97 -26 85 -13 -5 5 -30 13 -55 16 -30 4 -40 3
-30 -3z"/>
<path d="M4410 1060 c-12 -8 -11 -10 8 -10 12 0 22 5 22 10 0 13 -11 13 -30 0z"/>
<path d="M3660 1050 c-20 -6 -17 -8 20 -8 25 0 59 4 75 8 26 7 23 8 -20 8 -27
0 -61 -4 -75 -8z"/>
<path d="M4346 1033 c-12 -16 -14 -24 -6 -21 16 5 46 48 34 48 -5 0 -18 -12
-28 -27z"/>
<path d="M1450 1042 c0 -12 104 -37 239 -57 114 -18 114 -18 107 -6 -3 5 -45
14 -93 21 -96 13 -208 35 -235 45 -10 4 -18 3 -18 -3z"/>
<path d="M3375 1039 l-100 -5 123 -2 c67 -1 122 1 122 6 0 8 -15 9 -145 1z"/>
<path d="M4973 1043 c-7 -2 -13 -8 -13 -13 0 -10 38 -1 46 11 6 10 -13 11 -33
2z"/>
<path d="M1744 1029 c-7 -12 512 -126 524 -115 7 8 -9 12 -193 51 -93 20 -205
44 -248 54 -43 10 -80 14 -83 10z"/>
<path d="M4391 1031 c0 -7 -13 -24 -28 -37 -16 -13 -22 -24 -15 -24 20 0 54
40 49 58 -3 11 -5 12 -6 3z"/>
<path d="M3153 1023 c15 -2 37 -2 50 0 12 2 0 4 -28 4 -27 0 -38 -2 -22 -4z"/>
<path d="M3777 1024 c-3 -3 -126 -10 -274 -15 -147 -6 -272 -14 -277 -19 -12
-12 363 -3 494 11 97 11 154 28 94 29 -17 0 -33 -3 -37 -6z"/>
<path d="M4261 1002 c-1 -20 18 -52 31 -52 7 0 5 7 -4 18 -9 9 -18 24 -21 32
-4 10 -6 11 -6 2z"/>
<path d="M4300 1006 c0 -2 7 -9 15 -16 9 -7 15 -8 15 -2 0 5 -7 12 -15 16 -8
3 -15 4 -15 2z"/>
<path d="M4190 990 c0 -5 5 -10 10 -10 6 0 10 5 10 10 0 6 -4 10 -10 10 -5 0
-10 -4 -10 -10z"/>
<path d="M4750 996 c0 -2 7 -7 16 -10 8 -3 12 -2 9 4 -6 10 -25 14 -25 6z"/>
<path d="M4215 960 c4 -6 11 -8 16 -5 14 9 11 15 -7 15 -8 0 -12 -5 -9 -10z"/>
<path d="M4520 944 c-174 -44 -344 -75 -442 -81 -55 -3 -98 -10 -98 -16 0 -6
31 -8 88 -3 128 10 544 96 567 117 13 13 -8 10 -115 -17z"/>
<path d="M3485 950 c3 -5 45 -10 93 -10 48 0 112 -6 142 -14 50 -13 71 -14 59
-1 -27 26 -310 51 -294 25z"/>
<path d="M4727 949 c7 -7 15 -10 18 -7 3 3 -2 9 -12 12 -14 6 -15 5 -6 -5z"/>
<path d="M3331 939 c-96 -12 -97 -20 -1 -14 47 3 89 10 94 15 11 11 0 11 -93
-1z"/>
<path d="M4240 946 c0 -2 7 -9 15 -16 9 -7 15 -8 15 -2 0 5 -7 12 -15 16 -8 3
-15 4 -15 2z"/>
<path d="M4178 923 c-9 -2 -19 -12 -23 -21 -5 -14 -4 -15 6 -4 7 6 24 12 37
12 13 0 20 4 17 10 -6 10 -9 11 -37 3z"/>
<path d="M2215 884 l50 -14 -50 6 c-96 11 -36 -8 101 -32 156 -27 157 -27 150
-15 -3 4 -25 11 -48 15 -23 4 -47 11 -53 15 -13 11 -148 41 -177 40 -13 -1 -2
-7 27 -15z m88 -21 c-7 -2 -19 -2 -25 0 -7 3 -2 5 12 5 14 0 19 -2 13 -5z"/>
<path d="M3826 858 c3 -5 10 -6 15 -3 13 9 11 12 -6 12 -8 0 -12 -4 -9 -9z"/>
<path d="M3683 845 c0 -7 6 -11 14 -8 7 3 13 6 13 8 0 2 -6 5 -13 8 -8 3 -14
-1 -14 -8z"/>
<path d="M3743 827 c-29 -18 -53 -35 -53 -39 0 -12 50 -9 141 8 103 18 119 23
119 33 0 7 -69 -4 -210 -34 -16 -3 -8 4 23 21 26 15 47 31 47 36 0 13 -13 9
-67 -25z"/>
<path d="M2991 841 c-1 -21 46 -79 78 -96 58 -30 127 -37 336 -36 285 2 710
40 761 69 12 7 12 11 0 27 -14 20 -15 20 -13 0 2 -17 -8 -21 -73 -31 -277 -44
-849 -65 -951 -36 -47 14 -90 47 -121 92 -10 15 -17 19 -17 11z"/>
<path d="M3348 828 c-38 -6 -68 -14 -68 -19 0 -11 6 -11 95 1 42 5 76 5 86 -1
11 -5 20 -5 24 0 13 23 -51 31 -137 19z"/>
<path d="M4261 824 c0 -11 3 -14 6 -6 3 7 2 16 -1 19 -3 4 -6 -2 -5 -13z"/>
<path d="M3076 811 c-3 -5 1 -12 10 -15 20 -8 29 -1 19 13 -8 13 -22 14 -29 2z"/>
<path d="M4230 810 c-8 -5 -12 -11 -9 -14 2 -3 11 -1 19 4 8 5 12 11 9 14 -2
3 -11 1 -19 -4z"/>
<path d="M3300 770 c0 -12 44 -12 80 0 20 6 14 8 -27 9 -29 1 -53 -3 -53 -9z"/>
<path d="M3180 749 c0 -21 295 -21 327 -1 6 4 -65 7 -158 7 -93 0 -169 -3
-169 -6z"/>
<path d="M2774 1429 c-3 -5 135 -44 551 -155 180 -48 215 -55 231 -46 12 6
-22 18 -112 41 -71 18 -192 50 -269 73 -77 22 -174 49 -215 61 -41 11 -77 24
-80 28 -6 8 -100 7 -106 -2z"/>
<path d="M2683 1423 c-24 -2 -43 -8 -43 -13 0 -11 -7 -9 375 -103 327 -81 385
-93 385 -80 0 5 -53 22 -117 37 -194 47 -538 147 -541 157 -2 5 -7 8 -10 7 -4
-1 -26 -3 -49 -5z"/>
<path d="M3155 1370 c25 -12 522 -140 547 -140 10 0 18 4 18 9 0 8 -412 113
-495 126 -22 4 -51 8 -65 11 -22 4 -23 3 -5 -6z"/>
<path d="M4044 1391 c3 -4 20 -11 38 -14 18 -3 77 -15 131 -27 111 -23 125
-24 112 -11 -12 10 -230 61 -263 61 -13 0 -21 -4 -18 -9z"/>
<path d="M2934 530 c16 -5 101 -11 190 -14 130 -4 143 -3 66 4 -177 15 -287
20 -256 10z"/>
<path d="M3310 480 c-21 -7 -21 -8 -5 -9 11 0 27 4 35 9 18 11 5 11 -30 0z"/>
<path d="M5790 5481 c0 -5 7 -12 16 -15 24 -9 27 -7 10 9 -17 17 -26 19 -26 6z"/>
<path d="M5723 5472 c-6 -4 -14 -19 -18 -34 -6 -21 -2 -30 19 -44 15 -9 29
-14 32 -11 3 3 -3 8 -14 11 -39 13 -37 60 2 76 13 5 15 9 6 9 -8 0 -20 -3 -27
-7z"/>
<path d="M5757 5443 c-4 -3 -7 -11 -7 -17 0 -6 5 -5 12 2 6 6 9 14 7 17 -3 3
-9 2 -12 -2z"/>
<path d="M5785 5414 c-9 -14 -14 -28 -12 -31 3 -3 13 9 22 26 19 38 14 41 -10
5z"/>
<path d="M5668 5415 c-9 -9 7 -40 34 -67 28 -28 32 -17 4 13 -13 14 -26 34
-27 43 -2 10 -7 15 -11 11z"/>
<path d="M5610 5385 c7 -8 17 -15 22 -15 6 0 5 7 -2 15 -7 8 -17 15 -22 15 -6
0 -5 -7 2 -15z"/>
<path d="M5600 5340 c0 -5 14 -22 30 -38 17 -17 30 -25 30 -18 0 6 -13 23 -30
38 -16 14 -30 22 -30 18z"/>
<path d="M5670 5332 c0 -12 19 -26 26 -19 2 2 -2 10 -11 17 -9 8 -15 8 -15 2z"/>
<path d="M5550 5282 c0 -30 35 -55 65 -48 14 4 25 11 25 17 0 8 -5 8 -15 -1
-22 -18 -55 -3 -55 26 0 13 -4 24 -10 24 -5 0 -10 -8 -10 -18z"/>
<path d="M5672 5250 c0 -14 2 -19 5 -12 2 6 2 18 0 25 -3 6 -5 1 -5 -13z"/>
<path d="M5520 5257 c0 -12 61 -69 67 -63 4 3 4 7 2 9 -2 1 -19 15 -37 31 -17
17 -32 27 -32 23z"/>
<path d="M5490 5239 c0 -5 5 -7 10 -4 6 3 10 8 10 11 0 2 -4 4 -10 4 -5 0 -10
-5 -10 -11z"/>
<path d="M5634 5215 c-10 -8 -14 -14 -9 -15 15 0 40 18 34 24 -3 3 -14 -1 -25
-9z"/>
<path d="M5472 5208 c2 -6 10 -14 16 -16 7 -2 10 2 6 12 -7 18 -28 22 -22 4z"/>
<path d="M5510 5175 c0 -5 5 -17 10 -25 5 -8 10 -10 10 -5 0 6 -5 17 -10 25
-5 8 -10 11 -10 5z"/>
<path d="M5470 5166 c0 -11 30 -39 36 -34 2 3 -5 13 -16 23 -11 10 -20 15 -20
11z"/>
<path d="M5398 5139 c-15 -16 -14 -19 14 -44 16 -15 32 -24 35 -21 3 3 -6 15
-21 27 -21 17 -24 24 -15 35 17 21 7 24 -13 3z"/>
<path d="M5470 5090 c0 -5 5 -10 10 -10 6 0 10 5 10 10 0 6 -4 10 -10 10 -5 0
-10 -4 -10 -10z"/>
<path d="M5455 5050 c3 -5 11 -10 16 -10 6 0 7 5 4 10 -3 6 -11 10 -16 10 -6
0 -7 -4 -4 -10z"/>
<path d="M4706 4707 c3 -10 9 -15 12 -12 3 3 0 11 -7 18 -10 9 -11 8 -5 -6z"/>
<path d="M540 4636 c0 -2 11 -6 25 -8 14 -3 25 -1 25 3 0 5 -11 9 -25 9 -14 0
-25 -2 -25 -4z"/>
<path d="M609 4602 c7 -13 10 -30 7 -38 -3 -8 -1 -14 4 -14 16 0 11 47 -7 61
-15 13 -15 12 -4 -9z"/>
<path d="M540 4600 c-8 -5 -12 -11 -10 -14 3 -2 14 2 24 10 22 15 10 19 -14 4z"/>
<path d="M582 4565 c-10 -12 -18 -13 -35 -5 -21 11 -21 10 -3 -4 19 -16 56 -6
56 14 0 13 -2 12 -18 -5z"/>
<path d="M580 4525 c-15 -8 -19 -14 -10 -14 18 -1 46 16 40 23 -3 2 -16 -2
-30 -9z"/>
<path d="M4507 3858 c-15 -12 -14 -13 10 -14 16 -1 22 1 15 3 -6 3 -10 9 -6
14 7 12 1 11 -19 -3z"/>
<path d="M4160 3801 c0 -6 4 -13 10 -16 6 -3 7 1 4 9 -7 18 -14 21 -14 7z"/>
<path d="M4115 3750 c21 -24 26 -25 19 -6 -3 8 -13 17 -22 21 -13 5 -13 2 3
-15z"/>
<path d="M4079 3728 c4 -28 6 -29 9 -9 2 13 0 27 -5 32 -6 6 -7 -3 -4 -23z"/>
<path d="M5415 3521 c-3 -5 -2 -12 3 -15 5 -3 9 1 9 9 0 17 -3 19 -12 6z"/>
<path d="M4569 3008 c-5 -18 -6 -38 -1 -34 7 8 12 36 6 36 -2 0 -4 -1 -5 -2z"/>
<path d="M5405 2989 c-3 -3 2 -12 10 -19 8 -7 15 -11 16 -9 6 30 5 36 -8 36
-7 0 -16 -4 -18 -8z"/>
<path d="M5828 2553 c26 -5 27 -11 5 -35 -9 -10 -12 -18 -7 -18 16 0 34 23 34
42 0 13 -7 18 -27 17 -24 -2 -25 -2 -5 -6z"/>
<path d="M5790 2534 c0 -8 5 -12 10 -9 6 4 8 11 5 16 -9 14 -15 11 -15 -7z"/>
<path d="M5873 2500 c-3 -11 -12 -20 -19 -20 -8 0 -14 -7 -14 -16 0 -13 6 -10
25 10 24 26 32 46 19 46 -3 0 -8 -9 -11 -20z"/>
<path d="M5716 2465 c-3 -8 -1 -15 4 -15 6 0 10 4 10 9 0 5 10 12 23 14 20 4
19 4 -4 6 -16 0 -29 -5 -33 -14z"/>
<path d="M5810 2470 c0 -5 5 -10 11 -10 5 0 7 5 4 10 -3 6 -8 10 -11 10 -2 0
-4 -4 -4 -10z"/>
<path d="M5755 2439 c-4 -6 -5 -12 -2 -15 2 -3 7 2 10 11 7 17 1 20 -8 4z"/>
<path d="M5700 2423 c0 -13 5 -23 10 -23 13 0 13 11 0 30 -8 12 -10 11 -10 -7z"/>
<path d="M5790 2430 c0 -5 5 -10 10 -10 6 0 10 5 10 10 0 6 -4 10 -10 10 -5 0
-10 -4 -10 -10z"/>
<path d="M5671 2403 c-1 -22 27 -59 37 -48 3 3 -2 11 -10 18 -9 6 -18 21 -21
32 -4 19 -5 18 -6 -2z"/>
<path d="M5728 2408 c-5 -12 -1 -21 12 -28 14 -7 20 -7 20 0 0 5 -4 10 -9 10
-5 0 -11 8 -13 18 -3 16 -4 16 -10 0z"/>
<path d="M5636 2361 c22 -21 27 -21 18 3 -3 9 -13 16 -22 16 -13 0 -12 -3 4
-19z"/>
<path d="M5670 2332 c0 -12 19 -26 26 -19 2 2 -2 10 -11 17 -9 8 -15 8 -15 2z"/>
<path d="M5580 2319 c-12 -8 -10 -9 8 -4 17 5 31 0 48 -16 13 -12 24 -19 24
-14 0 11 -41 45 -54 45 -6 0 -18 -5 -26 -11z"/>
<path d="M5550 2282 c0 -24 31 -52 56 -51 14 0 12 3 -8 11 -20 7 -28 17 -28
34 0 13 -4 24 -10 24 -5 0 -10 -8 -10 -18z"/>
<path d="M5671 2263 c0 -12 -13 -31 -27 -42 -15 -12 -22 -21 -16 -21 24 0 54
36 49 60 -4 22 -4 23 -6 3z"/>
<path d="M5494 2239 c-4 -7 0 -9 14 -5 14 5 28 -1 46 -19 36 -35 46 -31 11 5
-29 31 -59 39 -71 19z"/>
<path d="M5470 2210 c0 -5 5 -10 10 -10 6 0 10 5 10 10 0 6 -4 10 -10 10 -5 0
-10 -4 -10 -10z"/>
<path d="M5460 2166 c0 -2 7 -7 16 -10 8 -3 12 -2 9 4 -6 10 -25 14 -25 6z"/>
<path d="M4520 2136 c0 -2 8 -10 18 -17 15 -13 16 -12 3 4 -13 16 -21 21 -21
13z"/>
<path d="M5390 2124 c0 -6 13 -22 29 -37 23 -20 31 -23 35 -11 3 8 -1 14 -10
14 -9 0 -24 10 -35 23 -10 12 -18 17 -19 11z"/>
<path d="M5482 2105 c-6 -14 -8 -25 -3 -25 8 0 23 41 17 47 -1 2 -8 -8 -14
-22z"/>
<path d="M906 1827 c3 -10 9 -15 12 -12 3 3 0 11 -7 18 -10 9 -11 8 -5 -6z"/>
<path d="M4524 1779 c-8 -14 14 -19 25 -6 8 10 7 14 -5 14 -8 0 -17 -4 -20 -8z"/>
<path d="M560 1636 c0 -2 9 -6 20 -9 11 -3 20 -1 20 4 0 5 -9 9 -20 9 -11 0
-20 -2 -20 -4z"/>
<path d="M502 1575 c0 -16 2 -22 5 -12 2 9 2 23 0 30 -3 6 -5 -1 -5 -18z"/>
<path d="M575 1561 c-3 -6 -11 -9 -16 -6 -5 4 -9 1 -9 -4 0 -6 6 -11 14 -11
16 0 31 18 23 26 -3 3 -8 0 -12 -5z"/>
<path d="M610 1546 c0 -8 -6 -17 -12 -19 -10 -4 -10 -6 -1 -6 7 -1 17 8 23 19
7 14 7 20 0 20 -5 0 -10 -6 -10 -14z"/>
<path d="M530 1520 c8 -5 24 -10 34 -10 26 0 18 6 -19 14 -22 5 -26 4 -15 -4z"/>
<path d="M1050 760 c0 -5 5 -10 10 -10 6 0 10 5 10 10 0 6 -4 10 -10 10 -5 0
-10 -4 -10 -10z"/>
<path d="M1110 763 c0 -4 5 -15 10 -23 8 -13 10 -13 10 2 0 9 -4 20 -10 23 -5
3 -10 3 -10 -2z"/>
<path d="M1230 762 c20 -13 120 -36 126 -29 3 2 -19 10 -48 17 -29 6 -62 14
-73 16 -16 4 -17 3 -5 -4z"/>
<path d="M987 724 c-6 -10 20 -51 27 -43 2 2 -1 15 -8 28 -7 13 -16 20 -19 15z"/>
<path d="M1071 696 c-7 -8 -8 -17 -3 -20 6 -3 13 1 16 10 9 23 2 28 -13 10z"/>
<path d="M1030 672 c0 -14 39 -46 46 -39 4 4 -1 9 -10 13 -9 3 -16 12 -16 20
0 8 -4 14 -10 14 -5 0 -10 -4 -10 -8z"/>
<path d="M4850 661 c-7 -15 -7 -19 5 -17 8 1 18 6 22 11 5 4 2 5 -6 0 -11 -6
-13 -4 -8 8 9 23 0 21 -13 -2z"/>
<path d="M1896 239 c-29 -23 -34 -50 -10 -69 13 -12 14 -10 2 15 -11 25 -10
29 17 51 17 13 27 24 24 24 -4 0 -18 -9 -33 -21z"/>
<path d="M4896 244 c-5 -14 -4 -15 9 -4 17 14 19 20 6 20 -5 0 -12 -7 -15 -16z"/>
<path d="M4963 244 c39 -21 38 -68 -3 -89 -29 -15 -31 -15 -56 10 -17 17 -24
32 -19 43 5 13 3 14 -5 6 -14 -14 -3 -39 28 -67 18 -17 21 -17 55 -1 53 25 59
81 11 103 -36 16 -44 13 -11 -5z"/>
<path d="M1960 246 c0 -2 7 -7 16 -10 8 -3 12 -2 9 4 -6 10 -25 14 -25 6z"/>
<path d="M4916 221 c-17 -18 -13 -51 6 -51 6 0 4 7 -3 16 -11 14 -10 19 10 35
13 11 19 19 14 19 -6 0 -17 -8 -27 -19z"/>
<path d="M1900 203 c0 -6 9 -18 20 -28 19 -18 22 -18 37 -2 10 9 12 17 6 17
-6 0 -14 -6 -17 -12 -3 -9 -11 -6 -25 11 -12 13 -21 19 -21 14z"/>
<path d="M4966 193 c-6 -14 -5 -15 5 -6 7 7 10 15 7 18 -3 3 -9 -2 -12 -12z"/>
<path d="M1983 170 c-11 -16 -10 -18 2 -14 8 4 15 12 15 20 0 19 -3 18 -17 -6z"/>
<path d="M1905 140 c4 -6 11 -8 16 -5 14 9 11 15 -7 15 -8 0 -12 -5 -9 -10z"/>
</g>
</svg>
